<svg width="32" height="32" viewBox="0 0 32 32" fill="none" xmlns="http://www.w3.org/2000/svg">
<path d="M25.3722 14.692C25.5532 14.8411 25.4478 15.135 25.2132 15.135H23.1814C22.2149 15.135 21.4314 15.9185 21.4314 16.885V24.4286C21.4314 24.5666 21.3195 24.6786 21.1814 24.6786H10.8186C10.6805 24.6786 10.5686 24.5666 10.5686 24.4286V16.885C10.5686 15.9185 9.78505 15.135 8.81856 15.135H6.78677C6.55224 15.135 6.44679 14.8411 6.62782 14.692L15.841 7.10263C15.9334 7.02658 16.0666 7.02658 16.159 7.10263L16.6358 6.52375L16.159 7.10263L25.3722 14.692Z" stroke="black" stroke-width="1.5"/>
<line x1="21" y1="7.74857" x2="21" y2="11.1771" stroke="black" stroke-width="2"/>
<line x1="13" y1="17.8214" x2="19" y2="17.8214" stroke="black" stroke-width="1.5"/>
<path d="M16 15L16 21" stroke="black" stroke-width="1.5"/>
</svg>
