<svg width="24" height="24" viewBox="0 0 24 24" fill="none" xmlns="http://www.w3.org/2000/svg">
<path d="M5.29226 7.63868L4.66387 7.22927L5.29226 7.63868ZM5.67988 7.54602L5.31565 8.20163L5.67988 7.54602ZM4.38085 10.6802L4.17481 11.4014L4.38085 10.6802ZM4.17231 10.3407L3.43846 10.1859L4.17231 10.3407ZM5.5 11.2263L4.75 11.2263L5.5 11.2263ZM5.28242 10.9378L5.48846 10.2167L5.28242 10.9378ZM5.28242 13.0622L5.48846 13.7833L5.28242 13.0622ZM5.5 12.7737H4.75H5.5ZM4.38085 13.3198L4.17481 12.5986L4.38085 13.3198ZM5.67988 16.454L6.04411 17.1096L5.67988 16.454ZM5.29226 16.3613L5.92065 15.9519L5.29226 16.3613ZM6.85671 16.0491L7.38704 15.5188L6.85671 16.0491ZM8.00102 17.5011L7.3454 17.1369L8.00102 17.5011ZM7.95091 17.1433L7.42057 17.6736L7.95091 17.1433ZM7.63868 18.7077L7.22927 19.3361L7.63868 18.7077ZM7.54602 18.3201L8.20163 18.6844L7.54602 18.3201ZM10.6802 19.6192L11.4014 19.8252L10.6802 19.6192ZM10.3407 19.8277L10.4955 19.0938L10.3407 19.8277ZM10.9378 18.7176L10.2167 18.5115L10.9378 18.7176ZM13.0622 18.7176L13.7833 18.5115L13.0622 18.7176ZM13.6593 19.8277L13.8141 20.5616L13.6593 19.8277ZM13.3198 19.6192L12.5986 19.8252L13.3198 19.6192ZM16.454 18.3201L17.1096 17.9559L16.454 18.3201ZM16.3613 18.7077L16.7707 19.3361L16.3613 18.7077ZM16.0491 17.1433L15.5188 16.613L16.0491 17.1433ZM15.999 17.5011L15.3434 17.8653L15.999 17.5011ZM17.5011 15.999L17.1369 16.6546L17.5011 15.999ZM17.1433 16.0491L17.6736 16.5794L17.1433 16.0491ZM18.7077 16.3613L18.0794 15.9519L18.7077 16.3613ZM18.3201 16.454L17.9559 17.1096L18.3201 16.454ZM19.6192 13.3198L19.8252 12.5986L19.6192 13.3198ZM19.8277 13.6593L19.0938 13.5045L19.8277 13.6593ZM18.7176 13.0622L18.9236 12.341L18.7176 13.0622ZM18.7176 10.9378L18.5115 10.2167L18.7176 10.9378ZM19.8277 10.3407L19.0938 10.4955L19.8277 10.3407ZM19.6192 10.6802L19.8252 11.4014L19.6192 10.6802ZM18.3201 7.54602L18.6844 8.20163L18.3201 7.54602ZM18.7077 7.63868L18.0793 8.0481L18.7077 7.63868ZM17.1433 7.95091L16.613 8.48124L17.1433 7.95091ZM17.5011 8.00102L17.1369 7.3454L17.5011 8.00102ZM16.0491 6.85671L15.5188 7.38704L16.0491 6.85671ZM16.3613 5.29226L16.7707 4.66386L16.3613 5.29226ZM16.454 5.67988L17.1096 6.04411L16.454 5.67988ZM13.3198 4.38085L14.0409 4.58689L13.3198 4.38085ZM13.0622 5.28242L12.341 5.07638L13.0622 5.28242ZM10.9378 5.28242L10.2167 5.48846L10.9378 5.28242ZM10.3407 4.17231L10.1859 3.43846L10.3407 4.17231ZM10.6802 4.38085L11.4014 4.17481L10.6802 4.38085ZM7.54602 5.67988L6.8904 6.04411L7.54602 5.67988ZM7.63869 5.29226L8.0481 5.92065L7.63869 5.29226ZM8.00102 6.49889L8.65664 6.13466L8.00102 6.49889ZM7.42058 6.32638L6.32639 7.42057L7.38705 8.48124L8.48124 7.38704L7.42058 6.32638ZM6.8904 6.04411L7.34541 6.86312L8.65664 6.13466L8.20164 5.31565L6.8904 6.04411ZM8.0481 5.92065C8.78299 5.44186 9.60951 5.09304 10.4955 4.90616L10.1859 3.43846C9.1148 3.66438 8.11613 4.08606 7.22927 4.66386L8.0481 5.92065ZM9.9591 4.58689L10.2167 5.48846L11.659 5.07638L11.4014 4.17481L9.9591 4.58689ZM11.2263 6.25H12.7737V4.75H11.2263V6.25ZM13.7833 5.48846L14.0409 4.58689L12.5986 4.17481L12.341 5.07638L13.7833 5.48846ZM13.5045 4.90616C14.3905 5.09304 15.217 5.44186 15.9519 5.92065L16.7707 4.66386C15.8839 4.08606 14.8852 3.66438 13.8141 3.43846L13.5045 4.90616ZM15.7984 5.31565L15.3434 6.13466L16.6546 6.86312L17.1096 6.04411L15.7984 5.31565ZM15.5188 7.38704L16.613 8.48124L17.6736 7.42057L16.5794 6.32638L15.5188 7.38704ZM17.8653 8.65664L18.6844 8.20163L17.9559 6.8904L17.1369 7.3454L17.8653 8.65664ZM18.0793 8.0481C18.5581 8.78298 18.907 9.60951 19.0938 10.4955L20.5616 10.1859C20.3356 9.1148 19.9139 8.11613 19.3361 7.22927L18.0793 8.0481ZM19.4131 9.9591L18.5115 10.2167L18.9236 11.659L19.8252 11.4014L19.4131 9.9591ZM17.75 11.2263V12.7737H19.25V11.2263H17.75ZM18.5115 13.7833L19.4131 14.0409L19.8252 12.5986L18.9236 12.341L18.5115 13.7833ZM19.0938 13.5045C18.907 14.3905 18.5581 15.217 18.0794 15.9519L19.3361 16.7707C19.9139 15.8839 20.3356 14.8852 20.5616 13.8141L19.0938 13.5045ZM18.6844 15.7984L17.8653 15.3434L17.1369 16.6546L17.9559 17.1096L18.6844 15.7984ZM16.613 15.5188L15.5188 16.613L16.5794 17.6736L17.6736 16.5794L16.613 15.5188ZM15.3434 17.8653L15.7984 18.6844L17.1096 17.9559L16.6546 17.1369L15.3434 17.8653ZM15.9519 18.0793C15.217 18.5581 14.3905 18.907 13.5045 19.0938L13.8141 20.5616C14.8852 20.3356 15.8839 19.9139 16.7707 19.3361L15.9519 18.0793ZM14.0409 19.4131L13.7833 18.5115L12.341 18.9236L12.5986 19.8252L14.0409 19.4131ZM12.7737 17.75H11.2263V19.25H12.7737V17.75ZM10.2167 18.5115L9.9591 19.4131L11.4014 19.8252L11.659 18.9236L10.2167 18.5115ZM10.4955 19.0938C9.60951 18.907 8.78298 18.5581 8.0481 18.0793L7.22927 19.3361C8.11613 19.9139 9.1148 20.3356 10.1859 20.5616L10.4955 19.0938ZM8.20163 18.6844L8.65664 17.8653L7.3454 17.1369L6.8904 17.9559L8.20163 18.6844ZM8.48124 16.613L7.38704 15.5188L6.32638 16.5794L7.42057 17.6736L8.48124 16.613ZM6.13466 15.3434L5.31565 15.7984L6.04411 17.1096L6.86312 16.6546L6.13466 15.3434ZM5.92065 15.9519C5.44186 15.217 5.09304 14.3905 4.90616 13.5045L3.43846 13.8141C3.66438 14.8852 4.08606 15.8839 4.66386 16.7707L5.92065 15.9519ZM4.58689 14.0409L5.48846 13.7833L5.07638 12.341L4.17481 12.5986L4.58689 14.0409ZM6.25 12.7737V11.2263L4.75 11.2263L4.75 12.7737H6.25ZM5.48846 10.2167L4.58689 9.9591L4.17481 11.4014L5.07638 11.659L5.48846 10.2167ZM4.90616 10.4955C5.09304 9.60951 5.44186 8.78298 5.92066 8.0481L4.66387 7.22927C4.08606 8.11613 3.66438 9.1148 3.43846 10.1859L4.90616 10.4955ZM6.86313 7.3454L6.04412 6.8904L5.31565 8.20163L6.13466 8.65664L6.86313 7.3454ZM5.92066 8.0481C5.78083 8.26271 5.5114 8.31038 5.31565 8.20163L6.04412 6.8904C5.57979 6.63244 4.97141 6.75723 4.66387 7.22927L5.92066 8.0481ZM4.58689 9.9591C4.80222 10.0206 4.95903 10.2448 4.90616 10.4955L3.43846 10.1859C3.32219 10.7371 3.66413 11.2555 4.17481 11.4014L4.58689 9.9591ZM6.25 11.2263C6.25 10.7575 5.93923 10.3455 5.48846 10.2167L5.07638 11.659C4.88319 11.6038 4.75 11.4272 4.75 11.2263L6.25 11.2263ZM5.48846 13.7833C5.93923 13.6545 6.25 13.2425 6.25 12.7737H4.75C4.75 12.5728 4.88319 12.3962 5.07638 12.341L5.48846 13.7833ZM4.90616 13.5045C4.95903 13.7552 4.80222 13.9794 4.58689 14.0409L4.17481 12.5986C3.66413 12.7445 3.32219 13.2629 3.43846 13.8141L4.90616 13.5045ZM5.31565 15.7984C5.51139 15.6896 5.78083 15.7373 5.92065 15.9519L4.66386 16.7707C4.97141 17.2428 5.57979 17.3676 6.04411 17.1096L5.31565 15.7984ZM7.38704 15.5188C7.05555 15.1873 6.54447 15.1157 6.13466 15.3434L6.86312 16.6546C6.68749 16.7522 6.46845 16.7215 6.32638 16.5794L7.38704 15.5188ZM8.65664 17.8653C8.88431 17.4555 8.81273 16.9445 8.48124 16.613L7.42057 17.6736C7.27851 17.5315 7.24783 17.3125 7.3454 17.1369L8.65664 17.8653ZM8.0481 18.0793C8.26271 18.2192 8.31038 18.4886 8.20163 18.6844L6.8904 17.9559C6.63244 18.4202 6.75723 19.0286 7.22927 19.3361L8.0481 18.0793ZM9.9591 19.4131C10.0206 19.1978 10.2448 19.041 10.4955 19.0938L10.1859 20.5616C10.7371 20.6778 11.2555 20.3359 11.4014 19.8252L9.9591 19.4131ZM11.2263 17.75C10.7575 17.75 10.3455 18.0608 10.2167 18.5115L11.659 18.9236C11.6038 19.1168 11.4272 19.25 11.2263 19.25V17.75ZM13.7833 18.5115C13.6545 18.0608 13.2425 17.75 12.7737 17.75V19.25C12.5728 19.25 12.3962 19.1168 12.341 18.9236L13.7833 18.5115ZM13.5045 19.0938C13.7552 19.041 13.9794 19.1978 14.0409 19.4131L12.5986 19.8252C12.7445 20.3359 13.2629 20.6778 13.8141 20.5616L13.5045 19.0938ZM15.7984 18.6844C15.6896 18.4886 15.7373 18.2192 15.9519 18.0793L16.7707 19.3361C17.2428 19.0286 17.3676 18.4202 17.1096 17.9559L15.7984 18.6844ZM15.5188 16.613C15.1873 16.9445 15.1157 17.4555 15.3434 17.8653L16.6546 17.1369C16.7522 17.3125 16.7215 17.5315 16.5794 17.6736L15.5188 16.613ZM17.8653 15.3434C17.4555 15.1157 16.9445 15.1873 16.613 15.5188L17.6736 16.5794C17.5316 16.7215 17.3125 16.7522 17.1369 16.6546L17.8653 15.3434ZM18.0794 15.9519C18.2192 15.7373 18.4886 15.6896 18.6844 15.7984L17.9559 17.1096C18.4202 17.3676 19.0286 17.2428 19.3361 16.7707L18.0794 15.9519ZM19.4131 14.0409C19.1978 13.9794 19.041 13.7552 19.0938 13.5045L20.5616 13.8141C20.6778 13.2629 20.3359 12.7445 19.8252 12.5986L19.4131 14.0409ZM17.75 12.7737C17.75 13.2425 18.0608 13.6545 18.5115 13.7833L18.9236 12.341C19.1168 12.3962 19.25 12.5728 19.25 12.7737H17.75ZM18.5115 10.2167C18.0608 10.3455 17.75 10.7575 17.75 11.2263H19.25C19.25 11.4272 19.1168 11.6038 18.9236 11.659L18.5115 10.2167ZM19.0938 10.4955C19.041 10.2448 19.1978 10.0206 19.4131 9.9591L19.8252 11.4014C20.3359 11.2555 20.6778 10.7371 20.5616 10.1859L19.0938 10.4955ZM18.6844 8.20163C18.4886 8.31038 18.2192 8.26271 18.0793 8.0481L19.3361 7.22927C19.0286 6.75723 18.4202 6.63244 17.9559 6.8904L18.6844 8.20163ZM16.613 8.48124C16.9445 8.81273 17.4555 8.88431 17.8653 8.65664L17.1369 7.3454C17.3125 7.24783 17.5315 7.27851 17.6736 7.42057L16.613 8.48124ZM15.3434 6.13466C15.1157 6.54447 15.1873 7.05555 15.5188 7.38704L16.5794 6.32638C16.7215 6.46845 16.7522 6.68749 16.6546 6.86312L15.3434 6.13466ZM15.9519 5.92065C15.7373 5.78083 15.6896 5.51139 15.7984 5.31565L17.1096 6.04411C17.3676 5.57979 17.2428 4.97141 16.7707 4.66386L15.9519 5.92065ZM14.0409 4.58689C13.9794 4.80222 13.7552 4.95903 13.5045 4.90616L13.8141 3.43846C13.2629 3.32219 12.7445 3.66413 12.5986 4.17481L14.0409 4.58689ZM12.7737 6.25C13.2425 6.25 13.6545 5.93923 13.7833 5.48846L12.341 5.07638C12.3962 4.88319 12.5728 4.75 12.7737 4.75V6.25ZM10.2167 5.48846C10.3455 5.93923 10.7575 6.25 11.2263 6.25V4.75C11.4272 4.75 11.6038 4.88319 11.659 5.07638L10.2167 5.48846ZM10.4955 4.90616C10.2448 4.95903 10.0206 4.80222 9.9591 4.58689L11.4014 4.17481C11.2555 3.66413 10.7371 3.32219 10.1859 3.43846L10.4955 4.90616ZM8.20164 5.31565C8.31038 5.51139 8.26271 5.78083 8.0481 5.92065L7.22927 4.66386C6.75724 4.97141 6.63244 5.57979 6.8904 6.04411L8.20164 5.31565ZM6.32639 7.42057C6.46846 7.27851 6.68749 7.24783 6.86313 7.3454L6.13466 8.65664C6.54447 8.88431 7.05555 8.81273 7.38705 8.48124L6.32639 7.42057ZM8.48124 7.38704C8.81273 7.05555 8.88431 6.54447 8.65664 6.13466L7.34541 6.86312C7.24783 6.68749 7.27851 6.46845 7.42058 6.32638L8.48124 7.38704Z" fill="black"/>
<circle cx="12" cy="12" r="3" stroke="black" stroke-width="1.5"/>
</svg>
