<svg width="24" height="24" viewBox="0 0 24 24" fill="none" xmlns="http://www.w3.org/2000/svg">
<circle cx="12.5" cy="4.5" r="1.5" fill="#D9D9D9"/>
<circle cx="12.5" cy="4.5" r="1.5" fill="black"/>
<circle cx="12.5" cy="11.5" r="1.5" fill="#D9D9D9"/>
<circle cx="12.5" cy="11.5" r="1.5" fill="black"/>
<path d="M14 18.5C14 19.3284 13.3284 20 12.5 20C11.6716 20 11 19.3284 11 18.5C11 17.6716 11.6716 17 12.5 17C13.3284 17 14 17.6716 14 18.5Z" fill="#D9D9D9"/>
<path d="M14 18.5C14 19.3284 13.3284 20 12.5 20C11.6716 20 11 19.3284 11 18.5C11 17.6716 11.6716 17 12.5 17C13.3284 17 14 17.6716 14 18.5Z" fill="black"/>
</svg>
