<svg width="18" height="18" viewBox="0 0 18 18" fill="none" xmlns="http://www.w3.org/2000/svg">
<path d="M2.84735 14.1135L3.47905 14.5178C3.65519 14.2426 3.63287 13.885 3.42388 13.6338L2.84735 14.1135ZM1 17L0.368297 16.5957C0.202648 16.8545 0.211646 17.1882 0.391002 17.4377C0.570359 17.6873 0.883782 17.8021 1.1819 17.7276L1 17ZM5.08565 15.9786L5.45316 15.3248C5.28617 15.2309 5.08959 15.2045 4.90375 15.251L5.08565 15.9786ZM16.25 9C16.25 13.0041 13.0041 16.25 9 16.25V17.75C13.8325 17.75 17.75 13.8325 17.75 9H16.25ZM9 1.75C13.0041 1.75 16.25 4.99594 16.25 9H17.75C17.75 4.16751 13.8325 0.25 9 0.25V1.75ZM1.75 9C1.75 4.99594 4.99594 1.75 9 1.75V0.25C4.16751 0.25 0.25 4.16751 0.25 9H1.75ZM3.42388 13.6338C2.37826 12.3771 1.75 10.7629 1.75 9H0.25C0.25 11.1262 1.00933 13.0771 2.27081 14.5932L3.42388 13.6338ZM1.6317 17.4043L3.47905 14.5178L2.21564 13.7092L0.368297 16.5957L1.6317 17.4043ZM4.90375 15.251L0.818098 16.2724L1.1819 17.7276L5.26755 16.7062L4.90375 15.251ZM9 16.25C7.7101 16.25 6.50099 15.9138 5.45316 15.3248L4.71815 16.6324C5.98458 17.3443 7.44604 17.75 9 17.75V16.25Z" fill="black"/>
<path d="M11.5 7V11" stroke="black" stroke-width="1.5" stroke-linecap="round"/>
<path d="M6.5 7V11" stroke="black" stroke-width="1.5" stroke-linecap="round"/>
</svg>
