<svg width="16" height="16" viewBox="0 0 16 16" fill="none" xmlns="http://www.w3.org/2000/svg">
<circle cx="8" cy="3" r="1" fill="#D9D9D9"/>
<circle cx="8" cy="3" r="1" fill="black"/>
<circle cx="8" cy="8" r="1" fill="#D9D9D9"/>
<circle cx="8" cy="8" r="1" fill="black"/>
<path d="M9 13C9 13.5523 8.55228 14 8 14C7.44772 14 7 13.5523 7 13C7 12.4477 7.44772 12 8 12C8.55228 12 9 12.4477 9 13Z" fill="#D9D9D9"/>
<path d="M9 13C9 13.5523 8.55228 14 8 14C7.44772 14 7 13.5523 7 13C7 12.4477 7.44772 12 8 12C8.55228 12 9 12.4477 9 13Z" fill="black"/>
</svg>
