<svg width="24" height="24" viewBox="0 0 24 24" fill="none" xmlns="http://www.w3.org/2000/svg">
<path d="M11.8139 4.47245C11.8805 4.30351 12.1195 4.30351 12.1861 4.47245L14.1079 9.35177C14.1369 9.42525 14.2063 9.47482 14.2852 9.47829L19.4218 9.70407C19.6116 9.71242 19.6839 9.95586 19.5295 10.0665L15.1752 13.1849C15.1041 13.2358 15.0744 13.3271 15.1017 13.4101L16.7524 18.4179C16.813 18.6017 16.6033 18.7558 16.446 18.6432L12.1165 15.5424C12.0468 15.4925 11.9532 15.4925 11.8835 15.5424L7.55398 18.6432C7.39668 18.7558 7.18701 18.6017 7.24758 18.4179L8.89825 13.4101C8.92563 13.3271 8.89586 13.2358 8.82476 13.1849L4.47054 10.0665C4.31607 9.95586 4.3884 9.71242 4.57821 9.70407L9.71479 9.47829C9.79369 9.47482 9.86315 9.42525 9.89209 9.35177L11.8139 4.47245Z" stroke="black" stroke-width="1.5" stroke-linejoin="round"/>
</svg>
