<svg width="11" height="26" viewBox="0 0 11 26" fill="none" xmlns="http://www.w3.org/2000/svg">
<path d="M2.03731 3.15145C1.55712 2.1555 2.2828 1 3.38846 1H7.61154C8.7172 1 9.44288 2.1555 8.96269 3.15145L8.48055 4.15145C8.23042 4.67024 7.70534 5 7.1294 5H3.8706C3.29466 5 2.76958 4.67024 2.51945 4.15145L2.03731 3.15145Z" stroke="black" stroke-width="1.5"/>
<path d="M7.63927 7.8356C7.5589 7.35341 7.14171 7 6.65287 7H4.34713C3.85829 7 3.4411 7.35341 3.36073 7.8356L1.59752 18.4149C1.53487 18.7908 1.61764 19.1765 1.82903 19.4935L5.08397 24.376C5.28189 24.6728 5.71811 24.6728 5.91602 24.376L9.17097 19.4935C9.38236 19.1765 9.46513 18.7908 9.40248 18.4149L7.63927 7.8356Z" stroke="black" stroke-width="1.5"/>
</svg>
