<svg width="26" height="26" viewBox="0 0 26 26" fill="none" xmlns="http://www.w3.org/2000/svg">
<path d="M3.77102 20.6703L4.40272 21.0746C4.57886 20.7994 4.55655 20.4418 4.34755 20.1906L3.77102 20.6703ZM1 25L0.368296 24.5957C0.202648 24.8545 0.211646 25.1882 0.391002 25.4377C0.570359 25.6873 0.883782 25.8021 1.1819 25.7276L1 25ZM7.12848 23.4679L7.49598 22.8141C7.32899 22.7202 7.13242 22.6938 6.94658 22.7403L7.12848 23.4679ZM24.25 13C24.25 19.2132 19.2132 24.25 13 24.25V25.75C20.0416 25.75 25.75 20.0416 25.75 13H24.25ZM13 1.75C19.2132 1.75 24.25 6.7868 24.25 13H25.75C25.75 5.95837 20.0416 0.25 13 0.25V1.75ZM1.75 13C1.75 6.7868 6.7868 1.75 13 1.75V0.25C5.95837 0.25 0.25 5.95837 0.25 13H1.75ZM4.34755 20.1906C2.72515 18.2406 1.75 15.7352 1.75 13H0.25C0.25 16.0985 1.35622 18.9406 3.19448 21.15L4.34755 20.1906ZM1.6317 25.4043L4.40272 21.0746L3.13931 20.266L0.368296 24.5957L1.6317 25.4043ZM6.94658 22.7403L0.818098 24.2724L1.1819 25.7276L7.31038 24.1955L6.94658 22.7403ZM13 24.25C10.9991 24.25 9.12239 23.7283 7.49598 22.8141L6.76098 24.1217C8.60597 25.1588 10.7351 25.75 13 25.75V24.25Z" fill="black"/>
<path d="M6 10H20" stroke="black" stroke-width="1.5" stroke-linecap="round"/>
<path d="M6 15H15" stroke="black" stroke-width="1.5" stroke-linecap="round"/>
</svg>
