<svg width="32" height="32" viewBox="0 0 32 32" fill="none" xmlns="http://www.w3.org/2000/svg">
<path d="M17.8635 17.5928C17.5603 17.3063 17.706 16.7692 18.0969 16.6234C20.3765 15.773 22 13.5761 22 11C22 7.68629 19.3137 5 16 5C12.6863 5 9.99999 7.68629 9.99999 11C9.99999 13.5761 11.6235 15.773 13.9031 16.6234C14.2939 16.7692 14.4396 17.3063 14.1365 17.5929C13.3079 18.3761 11.968 19.7093 11 21C9.666 22.7786 8.63062 24.3065 9.25338 25.7295C9.33291 25.9112 9.48756 26.0448 9.67363 26.1136C10.3822 26.3755 12.444 27 16 27C19.6021 27 21.6024 26.3592 22.2572 26.1035C22.4193 26.0402 22.555 25.9253 22.6369 25.7718C23.3973 24.3466 22.424 22.8986 21 21C20.0319 19.7093 18.6921 18.3761 17.8635 17.5928Z" stroke="black" stroke-width="1.5"/>
<path d="M27.4594 25C27.5952 24.94 27.7088 24.8311 27.7775 24.6856C28.4145 23.3349 27.5991 21.9626 26.4063 20.1633C25.5954 18.9401 24.473 17.6767 23.7789 16.9343C23.525 16.6628 23.647 16.1538 23.9744 16.0156C25.884 15.2097 27.244 13.1276 27.244 10.6862C27.244 7.54582 24.9937 5 22.2179 5C21.7979 5 21.39 5.05829 21 5.1681" stroke="black" stroke-width="1.5" stroke-linecap="round"/>
<path d="M4.54061 25C4.40482 24.94 4.29116 24.8311 4.22253 24.6856C3.58553 23.3349 4.40089 21.9626 5.59371 20.1633C6.40461 18.9401 7.52698 17.6767 8.22108 16.9343C8.475 16.6628 8.35295 16.1538 8.02558 16.0156C6.11599 15.2097 4.75605 13.1276 4.75605 10.6862C4.75605 7.54582 7.00627 5 9.78206 5C10.2021 5 10.61 5.05829 11 5.1681" stroke="black" stroke-width="1.5" stroke-linecap="round"/>
</svg>
