<svg width="24" height="24" viewBox="0 0 24 24" fill="none" xmlns="http://www.w3.org/2000/svg">
<rect x="5" y="9" width="3" height="10" rx="0.8" stroke="black" stroke-width="1.5"/>
<path d="M7.56 10.5593C7.56 10.5593 8.68 10.5593 9.79999 8.813C10.92 7.06666 10.36 4.7982 10.36 3.57401C10.36 2.99192 12.2661 2.64484 13.16 3.57401C13.72 4.15611 14.28 4.73828 14.28 6.48455C14.28 7.47448 13.8436 8.36261 13.4156 8.99555C13.1607 9.37263 13.4239 9.97723 13.8791 9.97723H19.7966C20.4222 9.97723 20.8942 10.5452 20.7797 11.1603L19.4721 18.1831C19.3839 18.6566 18.9707 19 18.489 19H7" stroke="black" stroke-width="1.5" stroke-linejoin="round"/>
</svg>
