<svg width="32" height="32" viewBox="0 0 32 32" fill="none" xmlns="http://www.w3.org/2000/svg">
<path d="M6.5 17C7.82353 17 9 18.7423 9 18.7423C9 18.7423 10.1765 17 11.5 17C13.1176 17 14 18.3067 14 19.6134C14 22.2269 10 25 9 25C8 25 3.99998 22.2269 4 19.6134C4.00001 18.3067 4.88235 16.9994 6.5 17Z" stroke="black" stroke-width="1.5" stroke-linejoin="round"/>
<path d="M6.386 15.1C6.13883 14.3631 5.99999 13.6188 6 12.8802C6.00002 9.94012 7.94118 6.99854 11.5 7C14.4118 7 17 10.9202 17 10.9202C17 10.9202 19.5882 7 22.5 7C26.0588 7 28 9.94012 28 12.8802C28 18.7605 19.2 25 17 25C16.4334 25 15.4291 24.5861 14.25 23.8712" stroke="black" stroke-width="1.5" stroke-linecap="round" stroke-linejoin="round"/>
</svg>
