<svg width="32" height="32" viewBox="0 0 32 32" fill="none" xmlns="http://www.w3.org/2000/svg">
<path d="M7.69077 7.39153C7.74161 7.16277 7.94451 7 8.17886 7H12.0989C12.3333 7 12.5362 7.16277 12.587 7.39153L16.1426 23.3915C16.212 23.7038 15.9743 24 15.6545 24H4.62331C4.30343 24 4.06582 23.7038 4.13521 23.3915L7.69077 7.39153Z" stroke="black" stroke-width="1.5"/>
<path d="M15.4887 7.62127C15.4098 7.30569 15.6484 7 15.9737 7H23.4429C23.6724 7 23.8724 7.15615 23.928 7.37873L25.5669 13.9343C25.6458 14.2499 25.4071 14.5556 25.0818 14.5556H17.6126C17.3832 14.5556 17.1832 14.3994 17.1275 14.1768L15.4887 7.62127Z" stroke="black" stroke-width="1.5"/>
<path d="M17.8498 17.0657C17.7709 16.7501 18.0095 16.4444 18.3348 16.4444H25.8041C26.0335 16.4444 26.2335 16.6006 26.2891 16.8232L27.928 23.3787C28.0069 23.6943 27.7682 24 27.4429 24H19.9737C19.7443 24 19.5443 23.8438 19.4886 23.6213L17.8498 17.0657Z" stroke="black" stroke-width="1.5"/>
</svg>
