<svg width="16" height="16" viewBox="0 0 16 16" fill="none" xmlns="http://www.w3.org/2000/svg">
<rect x="3.33333" y="6" width="2" height="6.66667" rx="0.8" stroke="black" stroke-width="1.5"/>
<path d="M5.04 7.03956C5.04 7.03956 5.78667 7.03956 6.53333 5.87534C7.28 4.71111 6.90667 3.1988 6.90667 2.38267C6.90667 1.99461 8.17739 1.76323 8.77333 2.38267C9.14667 2.77074 9.51999 3.15885 9.51999 4.32303C9.51999 4.80993 9.36164 5.25989 9.16402 5.63184C8.95045 6.03381 9.22388 6.65149 9.67906 6.65149H12.7966C13.4222 6.65149 13.8942 7.21949 13.7797 7.83454L13.0321 11.8497C12.9439 12.3233 12.5307 12.6667 12.049 12.6667H4.66667" stroke="black" stroke-width="1.5" stroke-linejoin="round"/>
</svg>
