<svg width="24" height="12" viewBox="0 0 24 12" fill="none" xmlns="http://www.w3.org/2000/svg">
<path d="M1.476 2.096H10.548V2.996H1.476V2.096ZM2.244 6.02H9.6V6.92H2.244V6.02ZM0.78 10.184H11.196V11.096H0.78V10.184ZM17.448 0.92H18.36V5.012H17.448V0.92ZM14.832 5.432V7.58H21.108V5.432H14.832ZM13.98 4.58H22.02V8.42H13.98V4.58ZM17.868 2.204H22.92V3.056H17.868V2.204ZM16.068 9.464L16.932 9.392C17.1 10.172 17.232 11.156 17.244 11.744L16.32 11.864C16.32 11.252 16.224 10.244 16.068 9.464ZM18.552 9.476L19.368 9.308C19.74 10.028 20.136 11 20.28 11.612L19.392 11.828C19.272 11.228 18.912 10.232 18.552 9.476ZM21 9.38L21.804 9.08C22.416 9.824 23.112 10.844 23.4 11.516L22.548 11.864C22.272 11.204 21.612 10.148 21 9.38ZM14.124 9.152L14.976 9.368C14.58 10.304 13.968 11.324 13.32 11.96L12.492 11.552C13.128 11.012 13.752 10.04 14.124 9.152Z" fill="black"/>
<path d="M1.476 2.096V1.996H1.376V2.096H1.476ZM10.548 2.096H10.648V1.996H10.548V2.096ZM10.548 2.996V3.096H10.648V2.996H10.548ZM1.476 2.996H1.376V3.096H1.476V2.996ZM2.244 6.02V5.92H2.144V6.02H2.244ZM9.6 6.02H9.7V5.92H9.6V6.02ZM9.6 6.92V7.02H9.7V6.92H9.6ZM2.244 6.92H2.144V7.02H2.244V6.92ZM0.78 10.184V10.084H0.68V10.184H0.78ZM11.196 10.184H11.296V10.084H11.196V10.184ZM11.196 11.096V11.196H11.296V11.096H11.196ZM0.78 11.096H0.68V11.196H0.78V11.096ZM1.476 2.196H10.548V1.996H1.476V2.196ZM10.448 2.096V2.996H10.648V2.096H10.448ZM10.548 2.896H1.476V3.096H10.548V2.896ZM1.576 2.996V2.096H1.376V2.996H1.576ZM2.244 6.12H9.6V5.92H2.244V6.12ZM9.5 6.02V6.92H9.7V6.02H9.5ZM9.6 6.82H2.244V7.02H9.6V6.82ZM2.344 6.92V6.02H2.144V6.92H2.344ZM0.78 10.284H11.196V10.084H0.78V10.284ZM11.096 10.184V11.096H11.296V10.184H11.096ZM11.196 10.996H0.78V11.196H11.196V10.996ZM0.88 11.096V10.184H0.68V11.096H0.88ZM17.448 0.92V0.82H17.348V0.92H17.448ZM18.36 0.92H18.46V0.82H18.36V0.92ZM18.36 5.012V5.112H18.46V5.012H18.36ZM17.448 5.012H17.348V5.112H17.448V5.012ZM14.832 5.432V5.332H14.732V5.432H14.832ZM14.832 7.58H14.732V7.68H14.832V7.58ZM21.108 7.58V7.68H21.208V7.58H21.108ZM21.108 5.432H21.208V5.332H21.108V5.432ZM13.98 4.58V4.48H13.88V4.58H13.98ZM22.02 4.58H22.12V4.48H22.02V4.58ZM22.02 8.42V8.52H22.12V8.42H22.02ZM13.98 8.42H13.88V8.52H13.98V8.42ZM17.868 2.204V2.104H17.768V2.204H17.868ZM22.92 2.204H23.02V2.104H22.92V2.204ZM22.92 3.056V3.156H23.02V3.056H22.92ZM17.868 3.056H17.768V3.156H17.868V3.056ZM16.068 9.464L16.0597 9.36435L15.948 9.37366L15.9699 9.48361L16.068 9.464ZM16.932 9.392L17.0298 9.37094L17.0113 9.28505L16.9237 9.29235L16.932 9.392ZM17.244 11.744L17.2569 11.8432L17.3458 11.8316L17.344 11.742L17.244 11.744ZM16.32 11.864H16.22V11.9778L16.3329 11.9632L16.32 11.864ZM18.552 9.476L18.5318 9.37805L18.4069 9.40379L18.4617 9.51899L18.552 9.476ZM19.368 9.308L19.4568 9.2621L19.4221 9.19477L19.3478 9.21005L19.368 9.308ZM20.28 11.612L20.3036 11.7092L20.4001 11.6857L20.3773 11.5891L20.28 11.612ZM19.392 11.828L19.2939 11.8476L19.3144 11.9498L19.4156 11.9252L19.392 11.828ZM21 9.38L20.965 9.28631L20.8359 9.33451L20.9218 9.44232L21 9.38ZM21.804 9.08L21.8812 9.01647L21.8359 8.96136L21.769 8.98631L21.804 9.08ZM23.4 11.516L23.4378 11.6086L23.532 11.5701L23.4919 11.4766L23.4 11.516ZM22.548 11.864L22.4557 11.9026L22.494 11.9941L22.5858 11.9566L22.548 11.864ZM14.124 9.152L14.1486 9.05507L14.0651 9.03389L14.0318 9.11336L14.124 9.152ZM14.976 9.368L15.0681 9.40696L15.1135 9.29969L15.0006 9.27107L14.976 9.368ZM13.32 11.96L13.2758 12.0497L13.3394 12.0811L13.39 12.0314L13.32 11.96ZM12.492 11.552L12.4273 11.4758L12.3112 11.5744L12.4478 11.6417L12.492 11.552ZM17.448 1.02H18.36V0.82H17.448V1.02ZM18.26 0.92V5.012H18.46V0.92H18.26ZM18.36 4.912H17.448V5.112H18.36V4.912ZM17.548 5.012V0.92H17.348V5.012H17.548ZM14.732 5.432V7.58H14.932V5.432H14.732ZM14.832 7.68H21.108V7.48H14.832V7.68ZM21.208 7.58V5.432H21.008V7.58H21.208ZM21.108 5.332H14.832V5.532H21.108V5.332ZM13.98 4.68H22.02V4.48H13.98V4.68ZM21.92 4.58V8.42H22.12V4.58H21.92ZM22.02 8.32H13.98V8.52H22.02V8.32ZM14.08 8.42V4.58H13.88V8.42H14.08ZM17.868 2.304H22.92V2.104H17.868V2.304ZM22.82 2.204V3.056H23.02V2.204H22.82ZM22.92 2.956H17.868V3.156H22.92V2.956ZM17.968 3.056V2.204H17.768V3.056H17.968ZM16.0763 9.56365L16.9403 9.49165L16.9237 9.29235L16.0597 9.36435L16.0763 9.56365ZM16.8342 9.41306C17.0014 10.1891 17.1322 11.1664 17.144 11.746L17.344 11.742C17.3318 11.1456 17.1986 10.1549 17.0298 9.37094L16.8342 9.41306ZM17.2311 11.6448L16.3071 11.7648L16.3329 11.9632L17.2569 11.8432L17.2311 11.6448ZM16.42 11.864C16.42 11.245 16.3233 10.2304 16.1661 9.44439L15.9699 9.48361C16.1247 10.2576 16.22 11.259 16.22 11.864H16.42ZM18.5722 9.57395L19.3882 9.40595L19.3478 9.21005L18.5318 9.37805L18.5722 9.57395ZM19.2792 9.3539C19.6492 10.07 20.0413 11.0339 20.1827 11.6349L20.3773 11.5891C20.2308 10.9661 19.8308 9.98597 19.4568 9.2621L19.2792 9.3539ZM20.2564 11.5148L19.3684 11.7308L19.4156 11.9252L20.3036 11.7092L20.2564 11.5148ZM19.4901 11.8084C19.3679 11.1975 19.0044 10.1934 18.6423 9.43301L18.4617 9.51899C18.8196 10.2706 19.1761 11.2585 19.2939 11.8476L19.4901 11.8084ZM21.035 9.47369L21.839 9.17369L21.769 8.98631L20.965 9.28631L21.035 9.47369ZM21.7268 9.14353C22.3365 9.88482 23.0256 10.8963 23.3081 11.5554L23.4919 11.4766C23.1984 10.7917 22.4955 9.76318 21.8812 9.01647L21.7268 9.14353ZM23.3622 11.4234L22.5102 11.7714L22.5858 11.9566L23.4378 11.6086L23.3622 11.4234ZM22.6403 11.8254C22.3596 11.1543 21.6939 10.0903 21.0782 9.31768L20.9218 9.44232C21.5301 10.2057 22.1844 11.2537 22.4557 11.9026L22.6403 11.8254ZM14.0994 9.24893L14.9514 9.46493L15.0006 9.27107L14.1486 9.05507L14.0994 9.24893ZM14.8839 9.32904C14.4909 10.2579 13.8853 11.2651 13.25 11.8886L13.39 12.0314C14.0507 11.3829 14.6691 10.3501 15.0681 9.40696L14.8839 9.32904ZM13.3642 11.8703L12.5362 11.4623L12.4478 11.6417L13.2758 12.0497L13.3642 11.8703ZM12.5567 11.6282C13.2087 11.0746 13.8406 10.0874 14.2162 9.19064L14.0318 9.11336C13.6634 9.99264 13.0473 10.9494 12.4273 11.4758L12.5567 11.6282Z" fill="black"/>
</svg>
