<svg width="24" height="11" viewBox="0 0 24 11" fill="none" xmlns="http://www.w3.org/2000/svg">
<path d="M5.376 0.292H6.372C6.276 2.176 6.096 8.164 1.128 10.864C0.972 10.636 0.672 10.36 0.396 10.156C5.292 7.66 5.292 1.888 5.376 0.292ZM6.336 0.532C6.372 1.468 6.72 7.84 11.664 10.108C11.4 10.312 11.124 10.612 10.98 10.864C5.892 8.428 5.556 1.72 5.472 0.615999L6.336 0.532ZM13.02 0.435999H16.032V1.252H13.884V10.96H13.02V0.435999ZM15.816 0.435999H15.972L16.128 0.4L16.764 0.748C16.392 1.732 15.936 2.92 15.528 3.868C16.416 4.876 16.632 5.74 16.632 6.496C16.632 7.144 16.488 7.66 16.128 7.9C15.96 8.02 15.732 8.092 15.48 8.128C15.228 8.152 14.916 8.152 14.64 8.14C14.628 7.912 14.544 7.576 14.4 7.348C14.676 7.36 14.928 7.372 15.108 7.36C15.264 7.348 15.396 7.312 15.504 7.252C15.684 7.12 15.756 6.784 15.756 6.412C15.756 5.752 15.54 4.924 14.652 3.964C15.108 2.884 15.552 1.504 15.816 0.688V0.435999ZM17.532 0.844H22.776V1.684H17.532V0.844ZM17.016 3.712H23.424V4.552H17.016V3.712ZM19.584 4.12H20.496V9.82C20.496 10.336 20.4 10.612 20.04 10.768C19.692 10.924 19.128 10.936 18.288 10.936C18.264 10.672 18.132 10.288 18.012 10.012C18.636 10.036 19.188 10.024 19.356 10.024C19.536 10.012 19.584 9.964 19.584 9.82V4.12ZM21.3 6.112L22.068 5.872C22.656 7.036 23.244 8.56 23.436 9.508L22.608 9.808C22.428 8.86 21.864 7.3 21.3 6.112ZM17.844 5.896L18.672 6.088C18.3 7.468 17.7 8.872 17.04 9.796C16.884 9.664 16.524 9.424 16.32 9.316C16.992 8.464 17.52 7.168 17.844 5.896Z" fill="black"/>
<path d="M5.376 0.292V0.192H5.28113L5.27614 0.286744L5.376 0.292ZM6.372 0.292L6.47187 0.297089L6.47723 0.192H6.372V0.292ZM1.128 10.864L1.04547 10.9205L1.09644 10.995L1.17575 10.9519L1.128 10.864ZM0.396 10.156L0.350581 10.0669L0.206562 10.1403L0.336561 10.2364L0.396 10.156ZM6.336 0.532L6.43593 0.528156L6.43185 0.422209L6.32632 0.432469L6.336 0.532ZM11.664 10.108L11.7251 10.1871L11.856 10.086L11.7057 10.0171L11.664 10.108ZM10.98 10.864L10.9368 10.9542L11.0207 10.9944L11.0668 10.9136L10.98 10.864ZM5.472 0.615999L5.46232 0.516469L5.36486 0.525944L5.37229 0.623586L5.472 0.615999ZM5.376 0.392H6.372V0.192H5.376V0.392ZM6.27213 0.286911C6.22408 1.22992 6.15526 3.18524 5.48197 5.24087C4.80911 7.29517 3.535 9.44203 1.08025 10.7761L1.17575 10.9519C3.689 9.58597 4.98889 7.38883 5.67203 5.30313C6.35474 3.21876 6.42392 1.23808 6.47187 0.297089L6.27213 0.286911ZM1.21053 10.8075C1.04542 10.5662 0.735281 10.2824 0.455439 10.0756L0.336561 10.2364C0.608719 10.4376 0.898584 10.7058 1.04547 10.9205L1.21053 10.8075ZM0.441419 10.2451C2.92027 8.98136 4.15794 6.88812 4.78578 4.91685C5.41297 2.94763 5.43405 1.0916 5.47586 0.297256L5.27614 0.286744C5.23395 1.0884 5.21303 2.91637 4.59522 4.85615C3.97806 6.79388 2.76773 8.83464 0.350581 10.0669L0.441419 10.2451ZM6.23607 0.535843C6.25422 1.00771 6.35079 2.84648 7.06529 4.85403C7.77974 6.86145 9.11654 9.04941 11.6223 10.1989L11.7057 10.0171C9.26746 8.89859 7.95826 6.76655 7.25371 4.78697C6.54921 2.80752 6.45378 0.992285 6.43593 0.528156L6.23607 0.535843ZM11.6029 10.0289C11.3309 10.239 11.0451 10.5485 10.8932 10.8144L11.0668 10.9136C11.2029 10.6755 11.4691 10.385 11.7251 10.1871L11.6029 10.0289ZM11.0232 10.7738C8.51276 9.57188 7.16996 7.31411 6.44404 5.20791C5.71824 3.10203 5.61375 1.16096 5.57171 0.608413L5.37229 0.623586C5.41425 1.17504 5.51976 3.13997 6.25496 5.27308C6.99004 7.40589 8.35924 9.72012 10.9368 10.9542L11.0232 10.7738ZM5.48168 0.71553L6.34568 0.63153L6.32632 0.432469L5.46232 0.516469L5.48168 0.71553ZM13.02 0.435999V0.335999H12.92V0.435999H13.02ZM16.032 0.435999H16.132V0.335999H16.032V0.435999ZM16.032 1.252V1.352H16.132V1.252H16.032ZM13.884 1.252V1.152H13.784V1.252H13.884ZM13.884 10.96V11.06H13.984V10.96H13.884ZM13.02 10.96H12.92V11.06H13.02V10.96ZM15.816 0.435999V0.335999H15.716V0.435999H15.816ZM15.972 0.435999V0.535999H15.9834L15.9945 0.533439L15.972 0.435999ZM16.128 0.4L16.176 0.312274L16.1426 0.294001L16.1055 0.302561L16.128 0.4ZM16.764 0.748L16.8575 0.783362L16.8883 0.702017L16.812 0.660273L16.764 0.748ZM15.528 3.868L15.4361 3.82847L15.4111 3.88661L15.453 3.9341L15.528 3.868ZM16.128 7.9L16.0725 7.81675L16.0699 7.81863L16.128 7.9ZM15.48 8.128L15.4895 8.22766L15.4941 8.22699L15.48 8.128ZM14.64 8.14L14.5401 8.14526L14.5449 8.23596L14.6357 8.23991L14.64 8.14ZM14.4 7.348L14.4043 7.24809L14.2134 7.23979L14.3155 7.4014L14.4 7.348ZM15.108 7.36L15.1147 7.45978L15.1157 7.45971L15.108 7.36ZM15.504 7.252L15.553 7.34011L15.5631 7.33264L15.504 7.252ZM14.652 3.964L14.5599 3.9251L14.5348 3.98454L14.5786 4.0319L14.652 3.964ZM15.816 0.688L15.9111 0.718782L15.916 0.703774V0.688H15.816ZM17.532 0.844V0.744H17.432V0.844H17.532ZM22.776 0.844H22.876V0.744H22.776V0.844ZM22.776 1.684V1.784H22.876V1.684H22.776ZM17.532 1.684H17.432V1.784H17.532V1.684ZM17.016 3.712V3.612H16.916V3.712H17.016ZM23.424 3.712H23.524V3.612H23.424V3.712ZM23.424 4.552V4.652H23.524V4.552H23.424ZM17.016 4.552H16.916V4.652H17.016V4.552ZM19.584 4.12V4.02H19.484V4.12H19.584ZM20.496 4.12H20.596V4.02H20.496V4.12ZM20.04 10.768L20.0002 10.6762L19.9991 10.6767L20.04 10.768ZM18.288 10.936L18.1884 10.9451L18.1967 11.036H18.288V10.936ZM18.012 10.012L18.0158 9.91207L17.8569 9.90596L17.9203 10.0519L18.012 10.012ZM19.356 10.024V10.1242L19.3627 10.1238L19.356 10.024ZM21.3 6.112L21.2702 6.01655L21.1603 6.05089L21.2097 6.15489L21.3 6.112ZM22.068 5.872L22.1573 5.82691L22.1191 5.75128L22.0382 5.77655L22.068 5.872ZM23.436 9.508L23.4701 9.60202L23.5511 9.57265L23.534 9.48815L23.436 9.508ZM22.608 9.808L22.5098 9.82665L22.5317 9.94202L22.6421 9.90202L22.608 9.808ZM17.844 5.896L17.8666 5.79858L17.7713 5.77648L17.7471 5.87132L17.844 5.896ZM18.672 6.088L18.7686 6.11403L18.7955 6.01399L18.6946 5.99058L18.672 6.088ZM17.04 9.796L16.9754 9.87234L17.0583 9.94246L17.1214 9.85412L17.04 9.796ZM16.32 9.316L16.2415 9.25407L16.1672 9.34825L16.2732 9.40438L16.32 9.316ZM13.02 0.535999H16.032V0.335999H13.02V0.535999ZM15.932 0.435999V1.252H16.132V0.435999H15.932ZM16.032 1.152H13.884V1.352H16.032V1.152ZM13.784 1.252V10.96H13.984V1.252H13.784ZM13.884 10.86H13.02V11.06H13.884V10.86ZM13.12 10.96V0.435999H12.92V10.96H13.12ZM15.816 0.535999H15.972V0.335999H15.816V0.535999ZM15.9945 0.533439L16.1505 0.497439L16.1055 0.302561L15.9495 0.33856L15.9945 0.533439ZM16.08 0.487726L16.716 0.835726L16.812 0.660273L16.176 0.312274L16.08 0.487726ZM16.6705 0.712637C16.2984 1.6967 15.8432 2.88278 15.4361 3.82847L15.6199 3.90753C16.0288 2.95722 16.4856 1.7673 16.8575 0.783362L16.6705 0.712637ZM15.453 3.9341C16.3249 4.92387 16.532 5.76438 16.532 6.496H16.732C16.732 5.71562 16.5071 4.82813 15.603 3.8019L15.453 3.9341ZM16.532 6.496C16.532 7.13942 16.3872 7.60704 16.0725 7.81679L16.1835 7.9832C16.5888 7.71296 16.732 7.14858 16.732 6.496H16.532ZM16.0699 7.81863C15.92 7.92566 15.7097 7.99417 15.4659 8.02901L15.4941 8.22699C15.7543 8.18983 16 8.11434 16.1861 7.98137L16.0699 7.81863ZM15.4705 8.02845C15.2249 8.05184 14.918 8.05199 14.6443 8.04009L14.6357 8.23991C14.914 8.25201 15.2311 8.25216 15.4895 8.22755L15.4705 8.02845ZM14.7399 8.13474C14.7272 7.89375 14.6397 7.54019 14.4845 7.2946L14.3155 7.4014C14.4483 7.61181 14.5288 7.93025 14.5401 8.14526L14.7399 8.13474ZM14.3957 7.44791C14.6688 7.45978 14.9277 7.47224 15.1147 7.45978L15.1013 7.26022C14.9283 7.27176 14.6832 7.26022 14.4043 7.24809L14.3957 7.44791ZM15.1157 7.45971C15.2823 7.44689 15.4291 7.40801 15.5526 7.33942L15.4554 7.16458C15.3629 7.21599 15.2457 7.24911 15.1003 7.26029L15.1157 7.45971ZM15.5631 7.33264C15.6796 7.24726 15.7509 7.10472 15.7939 6.94856C15.8376 6.79012 15.856 6.60353 15.856 6.412H15.656C15.656 6.59246 15.6384 6.75988 15.6011 6.89544C15.5631 7.03327 15.5084 7.12474 15.4449 7.17136L15.5631 7.33264ZM15.856 6.412C15.856 5.72544 15.6295 4.87353 14.7254 3.8961L14.5786 4.0319C15.4505 4.97447 15.656 5.77856 15.656 6.412H15.856ZM14.7441 4.0029C15.2021 2.91812 15.6475 1.5337 15.9111 0.718782L15.7209 0.657218C15.4565 1.4743 15.0139 2.84988 14.5599 3.9251L14.7441 4.0029ZM15.916 0.688V0.435999H15.716V0.688H15.916ZM17.532 0.944H22.776V0.744H17.532V0.944ZM22.676 0.844V1.684H22.876V0.844H22.676ZM22.776 1.584H17.532V1.784H22.776V1.584ZM17.632 1.684V0.844H17.432V1.684H17.632ZM17.016 3.812H23.424V3.612H17.016V3.812ZM23.324 3.712V4.552H23.524V3.712H23.324ZM23.424 4.452H17.016V4.652H23.424V4.452ZM17.116 4.552V3.712H16.916V4.552H17.116ZM19.584 4.22H20.496V4.02H19.584V4.22ZM20.396 4.12V9.82H20.596V4.12H20.396ZM20.396 9.82C20.396 10.0745 20.3718 10.2549 20.3118 10.3879C20.2545 10.515 20.1608 10.6067 20.0002 10.6762L20.0798 10.8598C20.2792 10.7733 20.4135 10.649 20.4942 10.4701C20.5722 10.2971 20.596 10.0815 20.596 9.82H20.396ZM19.9991 10.6767C19.841 10.7476 19.6268 10.7886 19.3408 10.8108C19.0557 10.833 18.7085 10.836 18.288 10.836V11.036C18.7075 11.036 19.0623 11.033 19.3562 11.0102C19.6492 10.9874 19.891 10.9444 20.0809 10.8593L19.9991 10.6767ZM18.3876 10.9269C18.3621 10.6465 18.2247 10.2504 18.1037 9.97213L17.9203 10.0519C18.0393 10.3256 18.1659 10.6975 18.1884 10.9451L18.3876 10.9269ZM18.0082 10.1119C18.6347 10.136 19.1906 10.124 19.356 10.124V9.924C19.1854 9.924 18.6373 9.93598 18.0158 9.91207L18.0082 10.1119ZM19.3627 10.1238C19.4541 10.1177 19.5428 10.102 19.6049 10.0453C19.6721 9.98403 19.684 9.89839 19.684 9.82H19.484C19.484 9.88561 19.4719 9.89597 19.4701 9.89765C19.4632 9.90397 19.4379 9.91832 19.3493 9.92422L19.3627 10.1238ZM19.684 9.82V4.12H19.484V9.82H19.684ZM21.3298 6.20745L22.0978 5.96745L22.0382 5.77655L21.2702 6.01655L21.3298 6.20745ZM21.9787 5.91709C22.5646 7.07689 23.1484 8.59198 23.338 9.52785L23.534 9.48815C23.3396 8.52802 22.7474 6.9951 22.1573 5.82691L21.9787 5.91709ZM23.4019 9.41398L22.5739 9.71398L22.6421 9.90202L23.4701 9.60202L23.4019 9.41398ZM22.7062 9.78935C22.5241 8.8298 21.9563 7.26124 21.3903 6.06911L21.2097 6.15489C21.7717 7.33876 22.3319 8.8902 22.5098 9.82665L22.7062 9.78935ZM17.8214 5.99342L18.6494 6.18542L18.6946 5.99058L17.8666 5.79858L17.8214 5.99342ZM18.5754 6.06197C18.2054 7.43472 17.6095 8.82663 16.9586 9.73788L17.1214 9.85412C17.7905 8.91737 18.3946 7.50128 18.7686 6.11403L18.5754 6.06197ZM17.1046 9.71966C16.9425 9.58247 16.5763 9.33856 16.3668 9.22762L16.2732 9.40438C16.4717 9.50944 16.8255 9.74553 16.9754 9.87234L17.1046 9.71966ZM16.3985 9.37793C17.0828 8.51036 17.6153 7.19916 17.9409 5.92068L17.7471 5.87132C17.4247 7.13684 16.9012 8.41763 16.2415 9.25407L16.3985 9.37793Z" fill="black"/>
</svg>
