<svg width="24" height="12" viewBox="0 0 24 12" fill="none" xmlns="http://www.w3.org/2000/svg">
<path d="M2.592 0.956L3.408 1.184C2.772 3.236 1.776 5.348 0.648 6.74C0.576 6.536 0.348 6.056 0.192 5.828C1.188 4.628 2.064 2.792 2.592 0.956ZM1.752 3.908L2.556 3.092L2.568 3.116V11.972H1.752V3.908ZM4.164 4.52H6.06V5.3H4.164V4.52ZM3.732 10.016L3.636 9.224L3.948 8.852L5.94 7.88C5.928 8.12 5.94 8.468 5.964 8.636C4.176 9.644 3.9 9.836 3.732 10.016ZM6 1.676H11.472V2.456H6V1.676ZM8.424 2.084L9.384 2.228C9.132 2.864 8.868 3.584 8.64 4.052L7.896 3.896C8.1 3.392 8.328 2.612 8.424 2.084ZM8.292 5.108H9.024V7.616C9.024 9.092 8.772 10.904 6.06 11.996C5.952 11.828 5.748 11.576 5.568 11.432C8.004 10.508 8.292 8.804 8.292 7.616V5.108ZM8.76 10.124L9.264 9.56C10.032 10.076 11.028 10.832 11.52 11.324L10.992 11.972C10.524 11.444 9.552 10.664 8.76 10.124ZM6.516 3.704H10.92V9.26H10.104V4.496H7.308V9.284H6.516V3.704ZM3.732 10.016C3.684 9.788 3.504 9.416 3.372 9.212C3.528 9.128 3.732 8.912 3.732 8.444V2.252H4.512V9.26C4.512 9.26 3.732 9.692 3.732 10.016ZM13.284 1.784L13.848 1.184C14.58 1.76 15.516 2.576 15.972 3.104L15.36 3.788C14.928 3.248 14.004 2.384 13.284 1.784ZM14.268 11.72L14.088 10.856L14.304 10.46L16.392 8.768C16.488 9.008 16.644 9.344 16.752 9.512C14.76 11.18 14.436 11.468 14.268 11.72ZM12.48 4.7H14.832V5.564H12.48V4.7ZM14.268 11.732C14.172 11.54 13.92 11.216 13.776 11.072C13.98 10.904 14.352 10.496 14.352 9.908V4.7H15.216V10.568C15.216 10.568 14.268 11.372 14.268 11.732ZM17.712 4.688H23.412V5.54H17.712V4.688ZM21.972 0.943999L22.764 1.64C21.372 2.156 19.332 2.564 17.58 2.804C17.532 2.6 17.4 2.264 17.292 2.06C18.96 1.796 20.892 1.376 21.972 0.943999ZM18.384 7.46L18.804 6.8C20.316 7.412 22.296 8.396 23.292 9.104L22.836 9.872C21.864 9.164 19.896 8.12 18.384 7.46ZM17.292 2.06H18.168V5.456C18.168 7.352 17.976 10.1 16.668 11.936C16.512 11.768 16.14 11.492 15.936 11.396C17.172 9.68 17.292 7.244 17.292 5.456V2.06ZM20.328 5.18H21.192V11.936H20.328V5.18Z" fill="black"/>
<path d="M2.592 0.956L2.61891 0.859689L2.52332 0.832981L2.4959 0.928362L2.592 0.956ZM3.408 1.184L3.50352 1.2136L3.53397 1.11537L3.43491 1.08769L3.408 1.184ZM0.648 6.74L0.553701 6.77328L0.61318 6.9418L0.725693 6.80296L0.648 6.74ZM0.192 5.828L0.115052 5.76413L0.0668608 5.82219L0.109469 5.88447L0.192 5.828ZM1.752 3.908L1.68077 3.83781L1.652 3.86701V3.908H1.752ZM2.556 3.092L2.64544 3.04728L2.58291 2.92221L2.48477 3.02181L2.556 3.092ZM2.568 3.116H2.668V3.09239L2.65744 3.07128L2.568 3.116ZM2.568 11.972V12.072H2.668V11.972H2.568ZM1.752 11.972H1.652V12.072H1.752V11.972ZM4.164 4.52V4.42H4.064V4.52H4.164ZM6.06 4.52H6.16V4.42H6.06V4.52ZM6.06 5.3V5.4H6.16V5.3H6.06ZM4.164 5.3H4.064V5.4H4.164V5.3ZM3.732 10.016L3.63273 10.028L3.65857 10.2412L3.80511 10.0842L3.732 10.016ZM3.636 9.224L3.55938 9.15974L3.53151 9.19297L3.53673 9.23603L3.636 9.224ZM3.948 8.852L3.90415 8.76213L3.88504 8.77145L3.87138 8.78774L3.948 8.852ZM5.94 7.88L6.03988 7.88499L6.04833 7.71587L5.89615 7.79013L5.94 7.88ZM5.964 8.636L6.01311 8.72311L6.07266 8.68954L6.06299 8.62186L5.964 8.636ZM6 1.676V1.576H5.9V1.676H6ZM11.472 1.676H11.572V1.576H11.472V1.676ZM11.472 2.456V2.556H11.572V2.456H11.472ZM6 2.456H5.9V2.556H6V2.456ZM8.424 2.084L8.43883 1.98511L8.34296 1.97072L8.32561 2.06611L8.424 2.084ZM9.384 2.228L9.47697 2.26484L9.52335 2.14778L9.39884 2.12911L9.384 2.228ZM8.64 4.052L8.61948 4.14987L8.69576 4.16587L8.7299 4.0958L8.64 4.052ZM7.896 3.896L7.80331 3.85848L7.75844 3.96933L7.87548 3.99387L7.896 3.896ZM8.292 5.108V5.008H8.192V5.108H8.292ZM9.024 5.108H9.124V5.008H9.024V5.108ZM6.06 11.996L5.97588 12.0501L6.02062 12.1197L6.09735 12.0888L6.06 11.996ZM5.568 11.432L5.53253 11.3385L5.36872 11.4006L5.50553 11.5101L5.568 11.432ZM8.76 10.124L8.68543 10.0574L8.60946 10.1424L8.70367 10.2066L8.76 10.124ZM9.264 9.56L9.31977 9.47699L9.24747 9.42842L9.18944 9.49337L9.264 9.56ZM11.52 11.324L11.5975 11.3872L11.6546 11.3172L11.5907 11.2533L11.52 11.324ZM10.992 11.972L10.9172 12.0383L10.9952 12.1264L11.0695 12.0352L10.992 11.972ZM6.516 3.704V3.604H6.416V3.704H6.516ZM10.92 3.704H11.02V3.604H10.92V3.704ZM10.92 9.26V9.36H11.02V9.26H10.92ZM10.104 9.26H10.004V9.36H10.104V9.26ZM10.104 4.496H10.204V4.396H10.104V4.496ZM7.308 4.496V4.396H7.208V4.496H7.308ZM7.308 9.284V9.384H7.408V9.284H7.308ZM6.516 9.284H6.416V9.384H6.516V9.284ZM3.732 10.016L3.63415 10.0366L3.832 10.016H3.732ZM3.372 9.212L3.32459 9.12395L3.22917 9.17533L3.28804 9.26632L3.372 9.212ZM3.732 2.252V2.152H3.632V2.252H3.732ZM4.512 2.252H4.612V2.152H4.512V2.252ZM4.512 9.26L4.56045 9.34748L4.612 9.31893V9.26H4.512ZM2.56509 1.05231L3.38109 1.28031L3.43491 1.08769L2.61891 0.859689L2.56509 1.05231ZM3.31248 1.1544C2.6787 3.19924 1.68756 5.29831 0.570307 6.67704L0.725693 6.80296C1.86444 5.39769 2.8653 3.27276 3.50352 1.2136L3.31248 1.1544ZM0.742299 6.70672C0.66801 6.49623 0.43638 6.00808 0.274531 5.77153L0.109469 5.88447C0.25962 6.10392 0.48399 6.57577 0.553701 6.77328L0.742299 6.70672ZM0.268948 5.89187C1.27634 4.67814 2.15759 2.82838 2.6881 0.983638L2.4959 0.928362C1.97041 2.75562 1.09966 4.57786 0.115052 5.76413L0.268948 5.89187ZM1.82323 3.97818L2.62723 3.16218L2.48477 3.02181L1.68077 3.83781L1.82323 3.97818ZM2.46656 3.13672L2.47856 3.16072L2.65744 3.07128L2.64544 3.04728L2.46656 3.13672ZM2.468 3.116V11.972H2.668V3.116H2.468ZM2.568 11.872H1.752V12.072H2.568V11.872ZM1.852 11.972V3.908H1.652V11.972H1.852ZM4.164 4.62H6.06V4.42H4.164V4.62ZM5.96 4.52V5.3H6.16V4.52H5.96ZM6.06 5.2H4.164V5.4H6.06V5.2ZM4.264 5.3V4.52H4.064V5.3H4.264ZM3.83127 10.004L3.73527 9.21197L3.53673 9.23603L3.63273 10.028L3.83127 10.004ZM3.71262 9.28826L4.02462 8.91626L3.87138 8.78774L3.55938 9.15974L3.71262 9.28826ZM3.99185 8.94187L5.98385 7.96987L5.89615 7.79013L3.90415 8.76213L3.99185 8.94187ZM5.84013 7.87501C5.8279 8.11948 5.83986 8.47416 5.86501 8.65014L6.06299 8.62186C6.04014 8.46184 6.0281 8.12051 6.03988 7.88499L5.84013 7.87501ZM5.91489 8.54889C5.02103 9.05281 4.50312 9.35387 4.18739 9.55177C3.87154 9.74974 3.75181 9.84821 3.65889 9.94777L3.80511 10.0842C3.88019 10.0038 3.98246 9.91626 4.29361 9.72123C4.60488 9.52613 5.11897 9.22719 6.01311 8.72311L5.91489 8.54889ZM6 1.776H11.472V1.576H6V1.776ZM11.372 1.676V2.456H11.572V1.676H11.372ZM11.472 2.356H6V2.556H11.472V2.356ZM6.1 2.456V1.676H5.9V2.456H6.1ZM8.40917 2.18289L9.36917 2.32689L9.39884 2.12911L8.43883 1.98511L8.40917 2.18289ZM9.29103 2.19116C9.03716 2.83188 8.77588 3.54476 8.5501 4.0082L8.7299 4.0958C8.96012 3.62323 9.22684 2.89612 9.47697 2.26484L9.29103 2.19116ZM8.66052 3.95413L7.91652 3.79813L7.87548 3.99387L8.61948 4.14987L8.66052 3.95413ZM7.9887 3.93352C8.19518 3.42338 8.42513 2.63681 8.52239 2.10189L8.32561 2.06611C8.23087 2.58719 8.00482 3.36062 7.80331 3.85848L7.9887 3.93352ZM8.292 5.208H9.024V5.008H8.292V5.208ZM8.924 5.108V7.616H9.124V5.108H8.924ZM8.924 7.616C8.924 8.3496 8.8609 9.15177 8.47026 9.90391C8.08112 10.6531 7.36055 11.3645 6.02265 11.9032L6.09735 12.0888C7.47145 11.5355 8.23288 10.7949 8.64774 9.99609C9.0611 9.20023 9.124 8.3584 9.124 7.616H8.924ZM6.14412 11.9419C6.03243 11.7682 5.8216 11.5068 5.63047 11.3539L5.50553 11.5101C5.6744 11.6452 5.87157 11.8878 5.97588 12.0501L6.14412 11.9419ZM5.60347 11.5255C6.84082 11.0562 7.54191 10.3845 7.93128 9.6709C8.31936 8.95969 8.392 8.21729 8.392 7.616H8.192C8.192 8.20271 8.12065 8.90631 7.75572 9.5751C7.39209 10.2415 6.73118 10.8838 5.53253 11.3385L5.60347 11.5255ZM8.392 7.616V5.108H8.192V7.616H8.392ZM8.83457 10.1906L9.33857 9.62663L9.18944 9.49337L8.68543 10.0574L8.83457 10.1906ZM9.20823 9.64301C9.97461 10.1579 10.9642 10.9096 11.4493 11.3947L11.5907 11.2533C11.0918 10.7544 10.0894 9.99409 9.31977 9.47699L9.20823 9.64301ZM11.4425 11.2608L10.9145 11.9088L11.0695 12.0352L11.5975 11.3872L11.4425 11.2608ZM11.0668 11.9057C10.5907 11.3685 9.61071 10.583 8.81633 10.0414L8.70367 10.2066C9.49329 10.745 10.4573 11.5195 10.9172 12.0383L11.0668 11.9057ZM6.516 3.804H10.92V3.604H6.516V3.804ZM10.82 3.704V9.26H11.02V3.704H10.82ZM10.92 9.16H10.104V9.36H10.92V9.16ZM10.204 9.26V4.496H10.004V9.26H10.204ZM10.104 4.396H7.308V4.596H10.104V4.396ZM7.208 4.496V9.284H7.408V4.496H7.208ZM7.308 9.184H6.516V9.384H7.308V9.184ZM6.616 9.284V3.704H6.416V9.284H6.616ZM3.82986 9.9954C3.77834 9.75071 3.59139 9.36699 3.45596 9.15767L3.28804 9.26632C3.41661 9.46501 3.58966 9.82529 3.63415 10.0366L3.82986 9.9954ZM3.41941 9.30005C3.61022 9.1973 3.832 8.94596 3.832 8.444H3.632C3.632 8.87804 3.44578 9.0587 3.32459 9.12395L3.41941 9.30005ZM3.832 8.444V2.252H3.632V8.444H3.832ZM3.732 2.352H4.512V2.152H3.732V2.352ZM4.412 2.252V9.26H4.612V2.252H4.412ZM4.512 9.26C4.46355 9.17252 4.46353 9.17253 4.46351 9.17254C4.4635 9.17255 4.46348 9.17256 4.46346 9.17257C4.46342 9.17259 4.46336 9.17262 4.4633 9.17266C4.46317 9.17273 4.46299 9.17283 4.46276 9.17296C4.46232 9.17321 4.46168 9.17356 4.46087 9.17402C4.45924 9.17493 4.45689 9.17625 4.45387 9.17797C4.44784 9.18139 4.43911 9.18639 4.42809 9.19282C4.40604 9.20569 4.37473 9.22433 4.33724 9.24769C4.26244 9.2943 4.16217 9.36022 4.06141 9.43694C3.96128 9.5132 3.85743 9.60256 3.77767 9.69644C3.70079 9.78692 3.632 9.89802 3.632 10.016H3.832C3.832 9.97198 3.86071 9.90758 3.93008 9.82594C3.99657 9.74768 4.08772 9.6683 4.18259 9.59606C4.27683 9.52428 4.37156 9.46195 4.44301 9.41744C4.47864 9.39523 4.50827 9.37759 4.52888 9.36557C4.53918 9.35956 4.54722 9.35495 4.55261 9.35189C4.5553 9.35036 4.55734 9.34922 4.55866 9.34848C4.55932 9.34811 4.5598 9.34784 4.56011 9.34767C4.56026 9.34759 4.56036 9.34753 4.56042 9.3475C4.56045 9.34748 4.56046 9.34747 4.56047 9.34747C4.56047 9.34747 4.56047 9.34747 4.56047 9.34747C4.56046 9.34747 4.56045 9.34748 4.512 9.26ZM13.284 1.784L13.2111 1.71551L13.1384 1.79286L13.22 1.86082L13.284 1.784ZM13.848 1.184L13.9098 1.10541L13.8379 1.04878L13.7751 1.11551L13.848 1.184ZM15.972 3.104L16.0465 3.17068L16.1051 3.10517L16.0477 3.03864L15.972 3.104ZM15.36 3.788L15.2819 3.85047L15.3557 3.94274L15.4345 3.85468L15.36 3.788ZM14.268 11.72L14.1701 11.7404L14.2188 11.9741L14.3512 11.7755L14.268 11.72ZM14.088 10.856L14.0002 10.8081L13.9826 10.8404L13.9901 10.8764L14.088 10.856ZM14.304 10.46L14.241 10.3823L14.2257 10.3948L14.2162 10.4121L14.304 10.46ZM16.392 8.768L16.4848 8.73086L16.4345 8.60488L16.329 8.69031L16.392 8.768ZM16.752 9.512L16.8162 9.58867L16.8838 9.53208L16.8361 9.45792L16.752 9.512ZM12.48 4.7V4.6H12.38V4.7H12.48ZM14.832 4.7H14.932V4.6H14.832V4.7ZM14.832 5.564V5.664H14.932V5.564H14.832ZM12.48 5.564H12.38V5.664H12.48V5.564ZM14.268 11.732L14.1786 11.7767L14.368 11.732H14.268ZM13.776 11.072L13.7124 10.9948L13.6274 11.0648L13.7053 11.1427L13.776 11.072ZM14.352 4.7V4.6H14.252V4.7H14.352ZM15.216 4.7H15.316V4.6H15.216V4.7ZM15.216 10.568L15.2807 10.6443L15.316 10.6143V10.568H15.216ZM17.712 4.688V4.588H17.612V4.688H17.712ZM23.412 4.688H23.512V4.588H23.412V4.688ZM23.412 5.54V5.64H23.512V5.54H23.412ZM17.712 5.54H17.612V5.64H17.712V5.54ZM21.972 0.943999L22.038 0.868883L21.9919 0.828344L21.9349 0.851152L21.972 0.943999ZM22.764 1.64L22.7988 1.73376L22.9559 1.67551L22.83 1.56488L22.764 1.64ZM17.58 2.804L17.4827 2.8269L17.5035 2.91542L17.5936 2.90307L17.58 2.804ZM17.292 2.06L17.2764 1.96123L17.1381 1.98311L17.2036 2.10679L17.292 2.06ZM18.384 7.46L18.2996 7.40631L18.2369 7.5049L18.344 7.55165L18.384 7.46ZM18.804 6.8L18.8415 6.7073L18.7643 6.67606L18.7196 6.74631L18.804 6.8ZM23.292 9.104L23.378 9.15505L23.425 9.07586L23.3499 9.02249L23.292 9.104ZM22.836 9.872L22.7771 9.95283L22.8659 10.0175L22.922 9.92305L22.836 9.872ZM17.292 2.06V1.96H17.192V2.06H17.292ZM18.168 2.06H18.268V1.96H18.168V2.06ZM16.668 11.936L16.5947 12.004L16.6782 12.094L16.7494 11.994L16.668 11.936ZM15.936 11.396L15.8549 11.3376L15.7845 11.4352L15.8934 11.4865L15.936 11.396ZM20.328 5.18V5.08H20.228V5.18H20.328ZM21.192 5.18H21.292V5.08H21.192V5.18ZM21.192 11.936V12.036H21.292V11.936H21.192ZM20.328 11.936H20.228V12.036H20.328V11.936ZM13.3569 1.85249L13.9209 1.25249L13.7751 1.11551L13.2111 1.71551L13.3569 1.85249ZM13.7862 1.26259C14.5172 1.83783 15.4469 2.64897 15.8963 3.16936L16.0477 3.03864C15.5851 2.50303 14.6428 1.68216 13.9098 1.10541L13.7862 1.26259ZM15.8975 3.03732L15.2855 3.72132L15.4345 3.85468L16.0465 3.17068L15.8975 3.03732ZM15.4381 3.72553C14.9996 3.17743 14.0693 2.30824 13.348 1.70718L13.22 1.86082C13.9387 2.45976 14.8564 3.31857 15.2819 3.85047L15.4381 3.72553ZM14.3659 11.6996L14.1859 10.8356L13.9901 10.8764L14.1701 11.7404L14.3659 11.6996ZM14.1758 10.9039L14.3918 10.5079L14.2162 10.4121L14.0002 10.8081L14.1758 10.9039ZM14.367 10.5377L16.455 8.84569L16.329 8.69031L14.241 10.3823L14.367 10.5377ZM16.2992 8.80514C16.3958 9.0467 16.5546 9.38985 16.6679 9.56608L16.8361 9.45792C16.7334 9.29815 16.5802 8.9693 16.4848 8.73086L16.2992 8.80514ZM16.6878 9.43533C15.6922 10.269 15.1119 10.7591 14.7596 11.0723C14.4082 11.3846 14.2765 11.5269 14.1848 11.6645L14.3512 11.7755C14.4275 11.6611 14.5418 11.5334 14.8924 11.2217C15.2421 10.9109 15.8198 10.423 16.8162 9.58867L16.6878 9.43533ZM12.48 4.8H14.832V4.6H12.48V4.8ZM14.732 4.7V5.564H14.932V4.7H14.732ZM14.832 5.464H12.48V5.664H14.832V5.464ZM12.58 5.564V4.7H12.38V5.564H12.58ZM14.3574 11.6873C14.2554 11.4831 13.996 11.1506 13.8467 11.0013L13.7053 11.1427C13.844 11.2814 14.0886 11.5969 14.1786 11.7767L14.3574 11.6873ZM13.8396 11.1492C14.0538 10.9727 14.452 10.5392 14.452 9.908H14.252C14.252 10.4528 13.9062 10.8353 13.7124 10.9948L13.8396 11.1492ZM14.452 9.908V4.7H14.252V9.908H14.452ZM14.352 4.8H15.216V4.6H14.352V4.8ZM15.116 4.7V10.568H15.316V4.7H15.116ZM15.216 10.568C15.1513 10.4917 15.1513 10.4917 15.1513 10.4918C15.1513 10.4918 15.1513 10.4918 15.1512 10.4918C15.1512 10.4918 15.1511 10.4919 15.1511 10.4919C15.1509 10.4921 15.1507 10.4922 15.1505 10.4924C15.15 10.4929 15.1493 10.4935 15.1483 10.4943C15.1464 10.4959 15.1437 10.4983 15.1401 10.5013C15.133 10.5075 15.1226 10.5165 15.1094 10.528C15.083 10.5511 15.0455 10.5843 15.0005 10.6253C14.9106 10.7073 14.7905 10.8206 14.67 10.9456C14.5499 11.0702 14.4275 11.2086 14.3344 11.3406C14.2879 11.4066 14.2472 11.473 14.2179 11.5369C14.189 11.5997 14.168 11.6667 14.168 11.732H14.368C14.368 11.7073 14.3766 11.6705 14.3996 11.6204C14.4221 11.5714 14.4555 11.5159 14.4978 11.4559C14.5825 11.3359 14.6971 11.2058 14.814 11.0844C14.9305 10.9634 15.0474 10.8532 15.1352 10.7732C15.1791 10.7332 15.2156 10.7008 15.2411 10.6785C15.2539 10.6673 15.2638 10.6587 15.2706 10.6529C15.274 10.65 15.2765 10.6478 15.2782 10.6464C15.2791 10.6456 15.2797 10.6451 15.2801 10.6447C15.2803 10.6446 15.2805 10.6444 15.2806 10.6444C15.2806 10.6443 15.2807 10.6443 15.2807 10.6443C15.2807 10.6443 15.2807 10.6443 15.2807 10.6443C15.2807 10.6443 15.2807 10.6443 15.216 10.568ZM17.712 4.788H23.412V4.588H17.712V4.788ZM23.312 4.688V5.54H23.512V4.688H23.312ZM23.412 5.44H17.712V5.64H23.412V5.44ZM17.812 5.54V4.688H17.612V5.54H17.812ZM21.906 1.01912L22.698 1.71512L22.83 1.56488L22.038 0.868883L21.906 1.01912ZM22.7292 1.54623C21.3475 2.05845 19.3159 2.46527 17.5664 2.70492L17.5936 2.90307C19.3481 2.66273 21.3965 2.25355 22.7988 1.73376L22.7292 1.54623ZM17.6773 2.7811C17.627 2.5673 17.4916 2.22328 17.3804 2.01321L17.2036 2.10679C17.3084 2.30472 17.437 2.6327 17.4827 2.8269L17.6773 2.7811ZM17.3076 2.15877C18.9767 1.89461 20.9181 1.47327 22.0091 1.03685L21.9349 0.851152C20.8659 1.27873 18.9433 1.69739 17.2764 1.96123L17.3076 2.15877ZM18.4684 7.51369L18.8884 6.85369L18.7196 6.74631L18.2996 7.40631L18.4684 7.51369ZM18.7665 6.89269C20.2756 7.50354 22.2474 8.48411 23.2341 9.18551L23.3499 9.02249C22.3447 8.30789 20.3564 7.32046 18.8415 6.7073L18.7665 6.89269ZM23.206 9.05295L22.75 9.82095L22.922 9.92305L23.378 9.15505L23.206 9.05295ZM22.8949 9.79117C21.9145 9.07703 19.939 8.02965 18.424 7.36835L18.344 7.55165C19.853 8.21035 21.8135 9.25096 22.7771 9.95283L22.8949 9.79117ZM17.292 2.16H18.168V1.96H17.292V2.16ZM18.068 2.06V5.456H18.268V2.06H18.068ZM18.068 5.456C18.068 6.40113 18.0201 7.55539 17.8101 8.70047C17.6 9.84631 17.2288 10.9765 16.5866 11.878L16.7494 11.994C17.4152 11.0595 17.794 9.89769 18.0069 8.73654C18.2199 7.57461 18.268 6.40687 18.268 5.456H18.068ZM16.7413 11.868C16.6571 11.7773 16.5194 11.662 16.3794 11.5586C16.2397 11.4553 16.0895 11.3577 15.9786 11.3055L15.8934 11.4865C15.9865 11.5303 16.1243 11.6187 16.2606 11.7194C16.3966 11.82 16.5229 11.9267 16.5947 12.004L16.7413 11.868ZM16.0171 11.4544C17.2742 9.70916 17.392 7.24164 17.392 5.456H17.192C17.192 7.24636 17.0698 9.65084 15.8549 11.3376L16.0171 11.4544ZM17.392 5.456V2.06H17.192V5.456H17.392ZM20.328 5.28H21.192V5.08H20.328V5.28ZM21.092 5.18V11.936H21.292V5.18H21.092ZM21.192 11.836H20.328V12.036H21.192V11.836ZM20.428 11.936V5.18H20.228V11.936H20.428Z" fill="black"/>
</svg>
