<svg width="22" height="12" viewBox="0 0 22 12" fill="none" xmlns="http://www.w3.org/2000/svg">
<path d="M-0.00399995 1.448H9.992V11.972H9.092V2.276H0.872V11.972H-0.00399995V1.448ZM0.512 10.652H9.62V11.456H0.512V10.652ZM3.488 7.664L3.872 7.112C4.832 7.304 6.056 7.7 6.728 8.012L6.344 8.612C5.684 8.288 4.46 7.868 3.488 7.664ZM3.968 2.516L4.712 2.768C4.028 3.872 2.936 4.904 1.928 5.576C1.796 5.432 1.484 5.168 1.304 5.036C2.324 4.424 3.356 3.488 3.968 2.516ZM7.172 3.464H7.328L7.472 3.428L7.976 3.74C6.74 5.72 3.944 7.028 1.508 7.592C1.424 7.376 1.244 7.016 1.088 6.848C3.44 6.392 6.14 5.204 7.172 3.596V3.464ZM3.44 4.124C4.496 5.396 6.692 6.368 8.876 6.764C8.708 6.932 8.48 7.232 8.372 7.448C6.176 6.98 3.956 5.876 2.768 4.436L3.44 4.124ZM3.692 3.464H7.436V4.172H3.212L3.692 3.464ZM2.3 9.188L2.72 8.564C4.34 8.756 6.404 9.212 7.58 9.608L7.172 10.28C6.032 9.872 3.956 9.392 2.3 9.188ZM13.628 4.028H21.836V4.964H13.628V4.028ZM17.504 0.943999H18.452V4.46H17.504V0.943999ZM13.148 1.232H14.084V5.24C14.084 7.628 13.88 10.1 12.152 11.984C12.008 11.78 11.672 11.444 11.456 11.288C12.98 9.584 13.148 7.364 13.148 5.24V1.232ZM13.592 6.872H19.976V11.972H19.004V7.808H13.592V6.872Z" fill="black"/>
<path d="M-0.00399995 1.448V1.348H-0.104V1.448H-0.00399995ZM9.992 1.448H10.092V1.348H9.992V1.448ZM9.992 11.972V12.072H10.092V11.972H9.992ZM9.092 11.972H8.992V12.072H9.092V11.972ZM9.092 2.276H9.192V2.176H9.092V2.276ZM0.872 2.276V2.176H0.772V2.276H0.872ZM0.872 11.972V12.072H0.972V11.972H0.872ZM-0.00399995 11.972H-0.104V12.072H-0.00399995V11.972ZM0.512 10.652V10.552H0.412V10.652H0.512ZM9.62 10.652H9.72V10.552H9.62V10.652ZM9.62 11.456V11.556H9.72V11.456H9.62ZM0.512 11.456H0.412V11.556H0.512V11.456ZM3.488 7.664L3.40591 7.60689L3.31968 7.73085L3.46746 7.76187L3.488 7.664ZM3.872 7.112L3.89161 7.01394L3.82734 7.00109L3.78991 7.05489L3.872 7.112ZM6.728 8.012L6.81223 8.06591L6.87393 7.9695L6.77011 7.9213L6.728 8.012ZM6.344 8.612L6.29993 8.70177L6.38009 8.74112L6.42823 8.6659L6.344 8.612ZM3.968 2.516L4.00008 2.42129L3.92539 2.39599L3.88338 2.46272L3.968 2.516ZM4.712 2.768L4.79701 2.82067L4.8633 2.71367L4.74408 2.67329L4.712 2.768ZM1.928 5.576L1.85428 5.64357L1.91218 5.70673L1.98347 5.6592L1.928 5.576ZM1.304 5.036L1.25255 4.95025L1.12353 5.02766L1.24486 5.11664L1.304 5.036ZM7.172 3.464V3.364H7.072V3.464H7.172ZM7.328 3.464V3.564H7.34031L7.35225 3.56101L7.328 3.464ZM7.472 3.428L7.52464 3.34297L7.48872 3.32074L7.44775 3.33099L7.472 3.428ZM7.976 3.74L8.06083 3.79295L8.11398 3.70781L8.02864 3.65497L7.976 3.74ZM1.508 7.592L1.4148 7.62824L1.44619 7.70896L1.53056 7.68942L1.508 7.592ZM1.088 6.848L1.06897 6.74983L0.8922 6.7841L1.01472 6.91604L1.088 6.848ZM7.172 3.596L7.25616 3.65001L7.272 3.62533V3.596H7.172ZM3.44 4.124L3.51694 4.06012L3.46775 4.00087L3.39789 4.0333L3.44 4.124ZM8.876 6.764L8.94671 6.83471L9.08175 6.69968L8.89384 6.6656L8.876 6.764ZM8.372 7.448L8.35116 7.5458L8.42684 7.56193L8.46144 7.49272L8.372 7.448ZM2.768 4.436L2.72589 4.3453L2.6085 4.3998L2.69086 4.49964L2.768 4.436ZM3.692 3.464V3.364H3.63898L3.60923 3.40788L3.692 3.464ZM7.436 3.464H7.536V3.364H7.436V3.464ZM7.436 4.172V4.272H7.536V4.172H7.436ZM3.212 4.172L3.12923 4.11588L3.02339 4.272H3.212V4.172ZM2.3 9.188L2.21704 9.13216L2.12606 9.26733L2.28777 9.28725L2.3 9.188ZM2.72 8.564L2.73177 8.46469L2.67113 8.45751L2.63704 8.50816L2.72 8.564ZM7.58 9.608L7.66548 9.6599L7.73032 9.5531L7.61191 9.51323L7.58 9.608ZM7.172 10.28L7.1383 10.3742L7.21513 10.4016L7.25748 10.3319L7.172 10.28ZM-0.00399995 1.548H9.992V1.348H-0.00399995V1.548ZM9.892 1.448V11.972H10.092V1.448H9.892ZM9.992 11.872H9.092V12.072H9.992V11.872ZM9.192 11.972V2.276H8.992V11.972H9.192ZM9.092 2.176H0.872V2.376H9.092V2.176ZM0.772 2.276V11.972H0.972V2.276H0.772ZM0.872 11.872H-0.00399995V12.072H0.872V11.872ZM0.0960001 11.972V1.448H-0.104V11.972H0.0960001ZM0.512 10.752H9.62V10.552H0.512V10.752ZM9.52 10.652V11.456H9.72V10.652H9.52ZM9.62 11.356H0.512V11.556H9.62V11.356ZM0.612 11.456V10.652H0.412V11.456H0.612ZM3.57009 7.72111L3.95409 7.16911L3.78991 7.05489L3.40591 7.60689L3.57009 7.72111ZM3.85239 7.21006C4.80578 7.40074 6.02207 7.7945 6.68589 8.1027L6.77011 7.9213C6.08993 7.6055 4.85822 7.20726 3.89161 7.01394L3.85239 7.21006ZM6.64377 7.95809L6.25977 8.55809L6.42823 8.6659L6.81223 8.06591L6.64377 7.95809ZM6.38807 8.52223C5.71965 8.1941 4.48759 7.77161 3.50854 7.56613L3.46746 7.76187C4.43241 7.96439 5.64835 8.3819 6.29993 8.70177L6.38807 8.52223ZM3.93592 2.61071L4.67992 2.86271L4.74408 2.67329L4.00008 2.42129L3.93592 2.61071ZM4.62699 2.71533C3.952 3.8048 2.87115 4.82705 1.87253 5.49279L1.98347 5.6592C3.00085 4.98095 4.10401 3.9392 4.79701 2.82067L4.62699 2.71533ZM2.00172 5.50843C1.86359 5.35774 1.54589 5.08938 1.36314 4.95536L1.24486 5.11664C1.42211 5.24662 1.72841 5.50626 1.85428 5.64357L2.00172 5.50843ZM1.35545 5.12175C2.38609 4.50336 3.43068 3.55707 4.05262 2.56928L3.88338 2.46272C3.28132 3.41893 2.26191 4.34464 1.25255 4.95025L1.35545 5.12175ZM7.172 3.564H7.328V3.364H7.172V3.564ZM7.35225 3.56101L7.49625 3.52501L7.44775 3.33099L7.30375 3.36699L7.35225 3.56101ZM7.41936 3.51303L7.92336 3.82503L8.02864 3.65497L7.52464 3.34297L7.41936 3.51303ZM7.89117 3.68705C7.28527 4.65767 6.29281 5.46939 5.14334 6.10964C3.99473 6.7494 2.69577 7.21435 1.48544 7.49458L1.53056 7.68942C2.75623 7.40565 4.07327 6.93459 5.24066 6.28436C6.40719 5.63461 7.43073 4.80233 8.06083 3.79295L7.89117 3.68705ZM1.6012 7.55576C1.55757 7.44357 1.48976 7.29573 1.41286 7.15425C1.33679 7.01428 1.24801 6.87335 1.16128 6.77995L1.01472 6.91604C1.08399 6.99065 1.16321 7.11372 1.23714 7.24975C1.31024 7.38427 1.37443 7.52443 1.4148 7.62824L1.6012 7.55576ZM1.10703 6.94617C2.29114 6.7166 3.56304 6.30283 4.67011 5.74325C5.77521 5.18466 6.7263 4.47561 7.25616 3.65001L7.08784 3.54199C6.5857 4.32439 5.6708 5.01334 4.57989 5.56475C3.49096 6.11517 2.23686 6.5234 1.06897 6.74983L1.10703 6.94617ZM7.272 3.596V3.464H7.072V3.596H7.272ZM3.36306 4.18788C4.44099 5.4863 6.66453 6.46465 8.85816 6.8624L8.89384 6.6656C6.71947 6.27135 4.55101 5.3057 3.51694 4.06012L3.36306 4.18788ZM8.80529 6.69329C8.6312 6.86738 8.39623 7.17593 8.28256 7.40328L8.46144 7.49272C8.56377 7.28807 8.78481 6.99662 8.94671 6.83471L8.80529 6.69329ZM8.39284 7.3502C6.20974 6.88494 4.01375 5.78887 2.84514 4.37236L2.69086 4.49964C3.89825 5.96313 6.14226 7.07506 8.35116 7.5458L8.39284 7.3502ZM2.81011 4.5267L3.48211 4.2147L3.39789 4.0333L2.72589 4.3453L2.81011 4.5267ZM3.692 3.564H7.436V3.364H3.692V3.564ZM7.336 3.464V4.172H7.536V3.464H7.336ZM7.436 4.072H3.212V4.272H7.436V4.072ZM3.29477 4.22812L3.77477 3.52012L3.60923 3.40788L3.12923 4.11588L3.29477 4.22812ZM2.38296 9.24384L2.80296 8.61984L2.63704 8.50816L2.21704 9.13216L2.38296 9.24384ZM2.70823 8.66331C4.32249 8.85462 6.37961 9.3093 7.54809 9.70277L7.61191 9.51323C6.42839 9.1147 4.35751 8.65738 2.73177 8.46469L2.70823 8.66331ZM7.49452 9.5561L7.08652 10.2281L7.25748 10.3319L7.66548 9.6599L7.49452 9.5561ZM7.2057 10.1858C6.05747 9.7749 3.97407 9.29347 2.31223 9.08875L2.28777 9.28725C3.93793 9.49053 6.00653 9.9691 7.1383 10.3742L7.2057 10.1858ZM13.628 4.028V3.928H13.528V4.028H13.628ZM21.836 4.028H21.936V3.928H21.836V4.028ZM21.836 4.964V5.064H21.936V4.964H21.836ZM13.628 4.964H13.528V5.064H13.628V4.964ZM17.504 0.943999V0.843999H17.404V0.943999H17.504ZM18.452 0.943999H18.552V0.843999H18.452V0.943999ZM18.452 4.46V4.56H18.552V4.46H18.452ZM17.504 4.46H17.404V4.56H17.504V4.46ZM13.148 1.232V1.132H13.048V1.232H13.148ZM14.084 1.232H14.184V1.132H14.084V1.232ZM12.152 11.984L12.0703 12.0417L12.1418 12.143L12.2257 12.0516L12.152 11.984ZM11.456 11.288L11.3815 11.2213L11.3075 11.3041L11.3975 11.3691L11.456 11.288ZM13.592 6.872V6.772H13.492V6.872H13.592ZM19.976 6.872H20.076V6.772H19.976V6.872ZM19.976 11.972V12.072H20.076V11.972H19.976ZM19.004 11.972H18.904V12.072H19.004V11.972ZM19.004 7.808H19.104V7.708H19.004V7.808ZM13.592 7.808H13.492V7.908H13.592V7.808ZM13.628 4.128H21.836V3.928H13.628V4.128ZM21.736 4.028V4.964H21.936V4.028H21.736ZM21.836 4.864H13.628V5.064H21.836V4.864ZM13.728 4.964V4.028H13.528V4.964H13.728ZM17.504 1.044H18.452V0.843999H17.504V1.044ZM18.352 0.943999V4.46H18.552V0.943999H18.352ZM18.452 4.36H17.504V4.56H18.452V4.36ZM17.604 4.46V0.943999H17.404V4.46H17.604ZM13.148 1.332H14.084V1.132H13.148V1.332ZM13.984 1.232V5.24H14.184V1.232H13.984ZM13.984 5.24C13.984 7.62718 13.7781 10.0631 12.0783 11.9164L12.2257 12.0516C13.9819 10.1369 14.184 7.62881 14.184 5.24H13.984ZM12.2337 11.9263C12.0829 11.7127 11.7389 11.369 11.5145 11.2069L11.3975 11.3691C11.6051 11.519 11.9331 11.8473 12.0703 12.0417L12.2337 11.9263ZM11.5305 11.3547C13.082 9.61998 13.248 7.36433 13.248 5.24H13.048C13.048 7.36367 12.878 9.54803 11.3815 11.2213L11.5305 11.3547ZM13.248 5.24V1.232H13.048V5.24H13.248ZM13.592 6.972H19.976V6.772H13.592V6.972ZM19.876 6.872V11.972H20.076V6.872H19.876ZM19.976 11.872H19.004V12.072H19.976V11.872ZM19.104 11.972V7.808H18.904V11.972H19.104ZM19.004 7.708H13.592V7.908H19.004V7.708ZM13.692 7.808V6.872H13.492V7.808H13.692Z" fill="black"/>
</svg>
