<svg width="24" height="12" viewBox="0 0 24 12" fill="none" xmlns="http://www.w3.org/2000/svg">
<path d="M0.636 6.32H11.364V7.232H0.636V6.32ZM2.832 1.088L3.768 1.292C3.264 3.056 2.472 4.736 1.572 5.828C1.38 5.684 0.936 5.456 0.708 5.348C1.644 4.328 2.388 2.732 2.832 1.088ZM2.712 3.032H10.356V3.932H2.28L2.712 3.032ZM6.528 6.512C7.26 8.924 8.928 10.544 11.652 11.144C11.448 11.336 11.184 11.72 11.04 11.972C8.22 11.228 6.552 9.476 5.7 6.716L6.528 6.512ZM5.472 0.92H6.408V4.664C6.408 7.424 5.844 10.328 1.056 11.984C0.96 11.756 0.684 11.384 0.492 11.204C4.98 9.68 5.472 7.1 5.472 4.652V0.92ZM13.284 1.556H16.248V9.968H13.284V9.152H15.408V2.36H13.284V1.556ZM13.368 4.052H15.948V4.844H13.368V4.052ZM13.368 6.584H15.948V7.364H13.368V6.584ZM12.876 1.556H13.716V10.976H12.876V1.556ZM17.856 1.484H23.136V4.88H17.856V4.052H22.26V2.288H17.856V1.484ZM17.832 6.608H23.496V7.448H17.832V6.608ZM17.34 1.484H18.204V11.144H17.34V1.484ZM16.152 10.952C17.28 10.772 18.972 10.472 20.628 10.172L20.7 10.952C19.188 11.276 17.592 11.576 16.404 11.816L16.152 10.952ZM20.064 4.52H20.952C20.976 8.252 21.828 11.06 22.692 11.06C22.932 11.048 23.028 10.496 23.064 9.308C23.256 9.488 23.556 9.656 23.784 9.74C23.664 11.432 23.352 11.912 22.632 11.912C21.06 11.9 20.184 8.588 20.064 4.52Z" fill="black"/>
<path d="M0.636 6.32V6.22H0.536V6.32H0.636ZM11.364 6.32H11.464V6.22H11.364V6.32ZM11.364 7.232V7.332H11.464V7.232H11.364ZM0.636 7.232H0.536V7.332H0.636V7.232ZM2.832 1.088L2.8533 0.990293L2.76028 0.970021L2.73546 1.06193L2.832 1.088ZM3.768 1.292L3.86415 1.31947L3.89343 1.21699L3.7893 1.19429L3.768 1.292ZM1.572 5.828L1.512 5.908L1.58842 5.96531L1.64917 5.8916L1.572 5.828ZM0.708 5.348L0.634321 5.28039L0.542623 5.38031L0.665191 5.43837L0.708 5.348ZM2.712 3.032V2.932H2.64908L2.62185 2.98873L2.712 3.032ZM10.356 3.032H10.456V2.932H10.356V3.032ZM10.356 3.932V4.032H10.456V3.932H10.356ZM2.28 3.932L2.18985 3.88873L2.12108 4.032H2.28V3.932ZM6.528 6.512L6.62369 6.48296L6.59615 6.39222L6.50408 6.4149L6.528 6.512ZM11.652 11.144L11.7205 11.2168L11.8584 11.0871L11.6735 11.0463L11.652 11.144ZM11.04 11.972L11.0145 12.0687L11.0887 12.0883L11.1268 12.0216L11.04 11.972ZM5.7 6.716L5.67608 6.6189L5.5732 6.64425L5.60445 6.7455L5.7 6.716ZM5.472 0.92V0.82H5.372V0.92H5.472ZM6.408 0.92H6.508V0.82H6.408V0.92ZM1.056 11.984L0.963837 12.0228L1.00018 12.1091L1.08869 12.0785L1.056 11.984ZM0.492 11.204L0.459846 11.1093L0.30197 11.1629L0.423606 11.277L0.492 11.204ZM0.636 6.42H11.364V6.22H0.636V6.42ZM11.264 6.32V7.232H11.464V6.32H11.264ZM11.364 7.132H0.636V7.332H11.364V7.132ZM0.736 7.232V6.32H0.536V7.232H0.736ZM2.81071 1.18571L3.74671 1.38971L3.7893 1.19429L2.8533 0.990293L2.81071 1.18571ZM3.67185 1.26453C3.17017 3.02038 2.38326 4.68644 1.49483 5.7644L1.64917 5.8916C2.56074 4.78556 3.35783 3.09161 3.86415 1.31947L3.67185 1.26453ZM1.632 5.748C1.43078 5.59708 0.977891 5.36519 0.750809 5.25763L0.665191 5.43837C0.894109 5.54681 1.32922 5.77092 1.512 5.908L1.632 5.748ZM0.78168 5.41561C1.73251 4.37945 2.48223 2.76661 2.92854 1.11407L2.73546 1.06193C2.29377 2.69739 1.55549 4.27655 0.634321 5.28039L0.78168 5.41561ZM2.712 3.132H10.356V2.932H2.712V3.132ZM10.256 3.032V3.932H10.456V3.032H10.256ZM10.356 3.832H2.28V4.032H10.356V3.832ZM2.37015 3.97527L2.80215 3.07527L2.62185 2.98873L2.18985 3.88873L2.37015 3.97527ZM6.43231 6.54104C7.17492 8.988 8.87155 10.634 11.6305 11.2417L11.6735 11.0463C8.98446 10.454 7.34508 8.85999 6.62369 6.48296L6.43231 6.54104ZM11.5835 11.0712C11.3687 11.2733 11.0989 11.6673 10.9532 11.9224L11.1268 12.0216C11.2691 11.7727 11.5273 11.3987 11.7205 11.2168L11.5835 11.0712ZM11.0655 11.8753C9.67012 11.5072 8.5645 10.8911 7.70271 10.0293C6.84061 9.16719 6.21786 8.05454 5.79555 6.6865L5.60445 6.7455C6.03414 8.13746 6.67139 9.28081 7.56129 10.1707C8.4515 11.0609 9.58988 11.6928 11.0145 12.0687L11.0655 11.8753ZM5.72392 6.8131L6.55192 6.6091L6.50408 6.4149L5.67608 6.6189L5.72392 6.8131ZM5.472 1.02H6.408V0.82H5.472V1.02ZM6.308 0.92V4.664H6.508V0.92H6.308ZM6.308 4.664C6.308 6.03879 6.16702 7.43312 5.44095 8.68792C4.71636 9.94014 3.40071 11.0672 1.02331 11.8895L1.08869 12.0785C3.49929 11.2448 4.85964 10.0919 5.61405 8.78808C6.36698 7.48688 6.508 6.04921 6.508 4.664H6.308ZM1.14816 11.9452C1.09574 11.8207 0.997509 11.6634 0.890801 11.5171C0.783636 11.3701 0.662522 11.2268 0.560394 11.131L0.423606 11.277C0.513478 11.3612 0.626364 11.4939 0.729199 11.6349C0.832492 11.7766 0.920259 11.9193 0.963837 12.0228L1.14816 11.9452ZM0.524154 11.2987C2.78364 10.5314 4.05129 9.49325 4.75078 8.3259C5.44903 7.16063 5.572 5.88117 5.572 4.652H5.372C5.372 5.87083 5.24898 7.10537 4.57922 8.2231C3.91071 9.33875 2.68836 10.3526 0.459846 11.1093L0.524154 11.2987ZM5.572 4.652V0.92H5.372V4.652H5.572ZM13.284 1.556V1.456H13.184V1.556H13.284ZM16.248 1.556H16.348V1.456H16.248V1.556ZM16.248 9.968V10.068H16.348V9.968H16.248ZM13.284 9.968H13.184V10.068H13.284V9.968ZM13.284 9.152V9.052H13.184V9.152H13.284ZM15.408 9.152V9.252H15.508V9.152H15.408ZM15.408 2.36H15.508V2.26H15.408V2.36ZM13.284 2.36H13.184V2.46H13.284V2.36ZM13.368 4.052V3.952H13.268V4.052H13.368ZM15.948 4.052H16.048V3.952H15.948V4.052ZM15.948 4.844V4.944H16.048V4.844H15.948ZM13.368 4.844H13.268V4.944H13.368V4.844ZM13.368 6.584V6.484H13.268V6.584H13.368ZM15.948 6.584H16.048V6.484H15.948V6.584ZM15.948 7.364V7.464H16.048V7.364H15.948ZM13.368 7.364H13.268V7.464H13.368V7.364ZM12.876 1.556V1.456H12.776V1.556H12.876ZM13.716 1.556H13.816V1.456H13.716V1.556ZM13.716 10.976V11.076H13.816V10.976H13.716ZM12.876 10.976H12.776V11.076H12.876V10.976ZM17.856 1.484V1.384H17.756V1.484H17.856ZM23.136 1.484H23.236V1.384H23.136V1.484ZM23.136 4.88V4.98H23.236V4.88H23.136ZM17.856 4.88H17.756V4.98H17.856V4.88ZM17.856 4.052V3.952H17.756V4.052H17.856ZM22.26 4.052V4.152H22.36V4.052H22.26ZM22.26 2.288H22.36V2.188H22.26V2.288ZM17.856 2.288H17.756V2.388H17.856V2.288ZM17.832 6.608V6.508H17.732V6.608H17.832ZM23.496 6.608H23.596V6.508H23.496V6.608ZM23.496 7.448V7.548H23.596V7.448H23.496ZM17.832 7.448H17.732V7.548H17.832V7.448ZM17.34 1.484V1.384H17.24V1.484H17.34ZM18.204 1.484H18.304V1.384H18.204V1.484ZM18.204 11.144V11.244H18.304V11.144H18.204ZM17.34 11.144H17.24V11.244H17.34V11.144ZM16.152 10.952L16.1362 10.8532L16.0242 10.8711L16.056 10.98L16.152 10.952ZM20.628 10.172L20.7276 10.1628L20.7175 10.0541L20.6102 10.0736L20.628 10.172ZM20.7 10.952L20.721 11.0498L20.8077 11.0312L20.7996 10.9428L20.7 10.952ZM16.404 11.816L16.308 11.844L16.3337 11.9322L16.4238 11.914L16.404 11.816ZM20.064 4.52V4.42H19.961L19.964 4.52295L20.064 4.52ZM20.952 4.52L21.052 4.51936L21.0514 4.42H20.952V4.52ZM22.692 11.06V11.1601L22.697 11.1599L22.692 11.06ZM23.064 9.308L23.1324 9.23505L22.9708 9.08351L22.964 9.30497L23.064 9.308ZM23.784 9.74L23.8838 9.74707L23.8891 9.67214L23.8186 9.64617L23.784 9.74ZM22.632 11.912L22.6312 12.012H22.632V11.912ZM13.284 1.656H16.248V1.456H13.284V1.656ZM16.148 1.556V9.968H16.348V1.556H16.148ZM16.248 9.868H13.284V10.068H16.248V9.868ZM13.384 9.968V9.152H13.184V9.968H13.384ZM13.284 9.252H15.408V9.052H13.284V9.252ZM15.508 9.152V2.36H15.308V9.152H15.508ZM15.408 2.26H13.284V2.46H15.408V2.26ZM13.384 2.36V1.556H13.184V2.36H13.384ZM13.368 4.152H15.948V3.952H13.368V4.152ZM15.848 4.052V4.844H16.048V4.052H15.848ZM15.948 4.744H13.368V4.944H15.948V4.744ZM13.468 4.844V4.052H13.268V4.844H13.468ZM13.368 6.684H15.948V6.484H13.368V6.684ZM15.848 6.584V7.364H16.048V6.584H15.848ZM15.948 7.264H13.368V7.464H15.948V7.264ZM13.468 7.364V6.584H13.268V7.364H13.468ZM12.876 1.656H13.716V1.456H12.876V1.656ZM13.616 1.556V10.976H13.816V1.556H13.616ZM13.716 10.876H12.876V11.076H13.716V10.876ZM12.976 10.976V1.556H12.776V10.976H12.976ZM17.856 1.584H23.136V1.384H17.856V1.584ZM23.036 1.484V4.88H23.236V1.484H23.036ZM23.136 4.78H17.856V4.98H23.136V4.78ZM17.956 4.88V4.052H17.756V4.88H17.956ZM17.856 4.152H22.26V3.952H17.856V4.152ZM22.36 4.052V2.288H22.16V4.052H22.36ZM22.26 2.188H17.856V2.388H22.26V2.188ZM17.956 2.288V1.484H17.756V2.288H17.956ZM17.832 6.708H23.496V6.508H17.832V6.708ZM23.396 6.608V7.448H23.596V6.608H23.396ZM23.496 7.348H17.832V7.548H23.496V7.348ZM17.932 7.448V6.608H17.732V7.448H17.932ZM17.34 1.584H18.204V1.384H17.34V1.584ZM18.104 1.484V11.144H18.304V1.484H18.104ZM18.204 11.044H17.34V11.244H18.204V11.044ZM17.44 11.144V1.484H17.24V11.144H17.44ZM16.1678 11.0508C17.2969 10.8706 18.9899 10.5704 20.6458 10.2704L20.6102 10.0736C18.9541 10.3736 17.2631 10.6734 16.1362 10.8532L16.1678 11.0508ZM20.5284 10.1812L20.6004 10.9612L20.7996 10.9428L20.7276 10.1628L20.5284 10.1812ZM20.679 10.8542C19.1676 11.1781 17.5743 11.4776 16.3842 11.718L16.4238 11.914C17.6097 11.6744 19.2084 11.3739 20.721 11.0498L20.679 10.8542ZM16.5 11.788L16.248 10.924L16.056 10.98L16.308 11.844L16.5 11.788ZM20.064 4.62H20.952V4.42H20.064V4.62ZM20.852 4.52064C20.864 6.39313 21.0837 8.03724 21.4106 9.21622C21.5739 9.80501 21.7653 10.283 21.9743 10.6161C22.179 10.9424 22.4203 11.16 22.692 11.16V10.96C22.5317 10.96 22.3425 10.8266 22.1437 10.5098C21.9492 10.1998 21.7641 9.74249 21.6034 9.16278C21.2823 8.00476 21.064 6.37887 21.052 4.51936L20.852 4.52064ZM22.697 11.1599C22.8023 11.1546 22.8788 11.0882 22.932 10.9998C22.9841 10.9132 23.0225 10.7927 23.0525 10.6449C23.1129 10.3478 23.1459 9.90521 23.164 9.31103L22.964 9.30497C22.9461 9.89879 22.9131 10.3262 22.8565 10.6051C22.828 10.7453 22.7952 10.8393 22.7606 10.8967C22.7272 10.9523 22.7017 10.9594 22.687 10.9601L22.697 11.1599ZM22.9956 9.38095C23.1994 9.57199 23.5117 9.74626 23.7494 9.83383L23.8186 9.64617C23.6003 9.56574 23.3126 9.40401 23.1324 9.23505L22.9956 9.38095ZM23.6843 9.73293C23.6243 10.5787 23.5168 11.1017 23.3455 11.4122C23.2615 11.5643 23.1639 11.6618 23.0514 11.7226C22.938 11.7838 22.8012 11.812 22.632 11.812V12.012C22.8228 12.012 22.995 11.9802 23.1464 11.8986C23.2986 11.8164 23.4215 11.6882 23.5205 11.5088C23.7152 11.1563 23.8237 10.5933 23.8838 9.74707L23.6843 9.73293ZM22.6328 11.812C22.2792 11.8093 21.9553 11.6222 21.6621 11.261C21.368 10.8987 21.1121 10.3696 20.8987 9.70637C20.4722 8.3809 20.2238 6.54633 20.164 4.51705L19.964 4.52295C20.0242 6.56167 20.2738 8.4171 20.7083 9.76763C20.9254 10.4424 21.1908 10.9978 21.5068 11.387C21.8237 11.7773 22.1988 12.0087 22.6312 12.012L22.6328 11.812Z" fill="black"/>
</svg>
