<svg width="23" height="12" viewBox="0 0 23 12" fill="none" xmlns="http://www.w3.org/2000/svg">
<path d="M2.736 4.976H8.676V5.768H2.736V4.976ZM0.72 7.712H11.328V8.552H0.72V7.712ZM5.544 6.836H6.468V10.892C6.468 11.432 6.324 11.696 5.868 11.828C5.436 11.96 4.74 11.972 3.648 11.972C3.588 11.72 3.408 11.348 3.264 11.108C4.188 11.132 5.004 11.132 5.244 11.12C5.484 11.108 5.544 11.048 5.544 10.868V6.836ZM8.4 4.976H8.628L8.82 4.928L9.396 5.372C8.58 6.2 7.32 7.028 6.18 7.52C6.072 7.364 5.832 7.124 5.676 6.992C6.684 6.56 7.836 5.768 8.4 5.156V4.976ZM0.96 2.924H11.124V5.6H10.236V3.74H1.812V5.6H0.96V2.924ZM9.54 1.004L10.476 1.316C9.972 2.06 9.324 2.864 8.82 3.392L8.112 3.092C8.592 2.528 9.204 1.64 9.54 1.004ZM1.776 1.424L2.532 1.064C3 1.568 3.492 2.252 3.696 2.732L2.892 3.116C2.7 2.66 2.22 1.94 1.776 1.424ZM4.86 1.16L5.64 0.872C6.048 1.436 6.48 2.216 6.624 2.72L5.796 3.044C5.652 2.54 5.256 1.748 4.86 1.16ZM13.416 1.796H22.08V2.66H13.416V1.796ZM14.76 4.244L15.372 3.656C16.44 4.376 17.868 5.408 18.576 6.068L17.94 6.764C17.268 6.08 15.84 5 14.76 4.244ZM21.756 1.796H22.656C22.656 1.796 22.656 2.18 22.656 2.312C22.572 8.624 22.476 10.652 22.02 11.264C21.756 11.672 21.456 11.804 21.024 11.84C20.556 11.888 19.776 11.864 19.08 11.828C19.068 11.576 18.948 11.204 18.78 10.964C19.62 11.024 20.376 11.024 20.688 11.024C20.916 11.024 21.048 10.988 21.18 10.832C21.576 10.388 21.672 8.048 21.756 2V1.796ZM13.236 9.392C14.964 8.864 17.808 7.916 20.436 7.016L20.592 7.856C18.12 8.732 15.396 9.668 13.548 10.304L13.236 9.392Z" fill="black"/>
<path d="M2.736 4.976V4.876H2.636V4.976H2.736ZM8.676 4.976H8.776V4.876H8.676V4.976ZM8.676 5.768V5.868H8.776V5.768H8.676ZM2.736 5.768H2.636V5.868H2.736V5.768ZM0.72 7.712V7.612H0.62V7.712H0.72ZM11.328 7.712H11.428V7.612H11.328V7.712ZM11.328 8.552V8.652H11.428V8.552H11.328ZM0.72 8.552H0.62V8.652H0.72V8.552ZM5.544 6.836V6.736H5.444V6.836H5.544ZM6.468 6.836H6.568V6.736H6.468V6.836ZM5.868 11.828L5.84019 11.7319L5.83878 11.7324L5.868 11.828ZM3.648 11.972L3.55072 11.9952L3.56901 12.072H3.648V11.972ZM3.264 11.108L3.2666 11.008L3.08456 11.0033L3.17825 11.1594L3.264 11.108ZM5.244 11.12L5.23901 11.0201L5.244 11.12ZM8.4 4.976V4.876H8.3V4.976H8.4ZM8.628 4.976V5.076H8.64031L8.65225 5.07301L8.628 4.976ZM8.82 4.928L8.88105 4.8488L8.84271 4.81924L8.79575 4.83099L8.82 4.928ZM9.396 5.372L9.46723 5.44219L9.5465 5.36175L9.45705 5.2928L9.396 5.372ZM6.18 7.52L6.09778 7.57692L6.14441 7.64427L6.21963 7.61181L6.18 7.52ZM5.676 6.992L5.63661 6.90009L5.48789 6.96382L5.61141 7.06834L5.676 6.992ZM8.4 5.156L8.47354 5.22377L8.5 5.19505V5.156H8.4ZM0.96 2.924V2.824H0.86V2.924H0.96ZM11.124 2.924H11.224V2.824H11.124V2.924ZM11.124 5.6V5.7H11.224V5.6H11.124ZM10.236 5.6H10.136V5.7H10.236V5.6ZM10.236 3.74H10.336V3.64H10.236V3.74ZM1.812 3.74V3.64H1.712V3.74H1.812ZM1.812 5.6V5.7H1.912V5.6H1.812ZM0.96 5.6H0.86V5.7H0.96V5.6ZM9.54 1.004L9.57162 0.909131L9.49119 0.882319L9.45158 0.957287L9.54 1.004ZM10.476 1.316L10.5588 1.37208L10.6328 1.26285L10.5076 1.22113L10.476 1.316ZM8.82 3.392L8.78098 3.48408L8.84462 3.51104L8.89234 3.46105L8.82 3.392ZM8.112 3.092L8.03585 3.02719L7.94756 3.13093L8.07299 3.18407L8.112 3.092ZM1.776 1.424L1.73301 1.33371L1.61482 1.38999L1.7002 1.48922L1.776 1.424ZM2.532 1.064L2.60528 0.995954L2.55531 0.94214L2.48901 0.973713L2.532 1.064ZM3.696 2.732L3.7391 2.82224L3.82547 2.78098L3.78803 2.69289L3.696 2.732ZM2.892 3.116L2.79984 3.15481L2.84051 3.25141L2.9351 3.20624L2.892 3.116ZM4.86 1.16L4.82536 1.06619L4.70595 1.11028L4.77706 1.21586L4.86 1.16ZM5.64 0.872L5.72102 0.813388L5.67655 0.751907L5.60536 0.77819L5.64 0.872ZM6.624 2.72L6.66044 2.81312L6.74514 2.77998L6.72015 2.69253L6.624 2.72ZM5.796 3.044L5.69985 3.07147L5.73005 3.17719L5.83244 3.13712L5.796 3.044ZM2.736 5.076H8.676V4.876H2.736V5.076ZM8.576 4.976V5.768H8.776V4.976H8.576ZM8.676 5.668H2.736V5.868H8.676V5.668ZM2.836 5.768V4.976H2.636V5.768H2.836ZM0.72 7.812H11.328V7.612H0.72V7.812ZM11.228 7.712V8.552H11.428V7.712H11.228ZM11.328 8.452H0.72V8.652H11.328V8.452ZM0.82 8.552V7.712H0.62V8.552H0.82ZM5.544 6.936H6.468V6.736H5.544V6.936ZM6.368 6.836V10.892H6.568V6.836H6.368ZM6.368 10.892C6.368 11.1559 6.33221 11.3342 6.25401 11.4603C6.17826 11.5825 6.05342 11.6702 5.84019 11.7319L5.89581 11.9241C6.13858 11.8538 6.31374 11.7435 6.42399 11.5657C6.53179 11.3918 6.568 11.1681 6.568 10.892H6.368ZM5.83878 11.7324C5.63468 11.7947 5.36249 11.8303 5.00016 11.8496C4.63872 11.869 4.19429 11.872 3.648 11.872V12.072C4.19371 12.072 4.64328 12.069 5.01084 12.0494C5.37751 12.0297 5.66932 11.9933 5.89722 11.9236L5.83878 11.7324ZM3.74528 11.9488C3.6818 11.6822 3.4958 11.3 3.34975 11.0566L3.17825 11.1594C3.3202 11.396 3.4942 11.7578 3.55072 11.9952L3.74528 11.9488ZM3.2614 11.208C4.1853 11.232 5.00476 11.2321 5.24899 11.2199L5.23901 11.0201C5.00324 11.0319 4.1907 11.032 3.2666 11.008L3.2614 11.208ZM5.24899 11.2199C5.36954 11.2138 5.47638 11.1959 5.54949 11.1326C5.62917 11.0635 5.644 10.9642 5.644 10.868H5.444C5.444 10.9518 5.42883 10.9725 5.41851 10.9814C5.40162 10.9961 5.35846 11.0142 5.23901 11.0201L5.24899 11.2199ZM5.644 10.868V6.836H5.444V10.868H5.644ZM8.4 5.076H8.628V4.876H8.4V5.076ZM8.65225 5.07301L8.84425 5.02501L8.79575 4.83099L8.60375 4.87899L8.65225 5.07301ZM8.75895 5.0072L9.33495 5.4512L9.45705 5.2928L8.88105 4.8488L8.75895 5.0072ZM9.32478 5.30181C8.51904 6.11939 7.27026 6.94055 6.14038 7.42819L6.21963 7.61181C7.36974 7.11545 8.64096 6.28061 9.46723 5.44219L9.32478 5.30181ZM6.26222 7.46308C6.14704 7.29671 5.89955 7.05016 5.74059 6.91566L5.61141 7.06834C5.76445 7.19784 5.99696 7.43129 6.09778 7.57692L6.26222 7.46308ZM5.71539 7.08391C6.73376 6.64747 7.89825 5.84802 8.47354 5.22377L8.32646 5.08823C7.77376 5.68798 6.63424 6.47253 5.63661 6.90009L5.71539 7.08391ZM8.5 5.156V4.976H8.3V5.156H8.5ZM0.96 3.024H11.124V2.824H0.96V3.024ZM11.024 2.924V5.6H11.224V2.924H11.024ZM11.124 5.5H10.236V5.7H11.124V5.5ZM10.336 5.6V3.74H10.136V5.6H10.336ZM10.236 3.64H1.812V3.84H10.236V3.64ZM1.712 3.74V5.6H1.912V3.74H1.712ZM1.812 5.5H0.96V5.7H1.812V5.5ZM1.06 5.6V2.924H0.86V5.6H1.06ZM9.50838 1.09887L10.4444 1.41087L10.5076 1.22113L9.57162 0.909131L9.50838 1.09887ZM10.3932 1.25991C9.89202 1.99977 9.24746 2.79936 8.74766 3.32295L8.89234 3.46105C9.40054 2.92864 10.052 2.12023 10.5588 1.37208L10.3932 1.25991ZM8.85902 3.29992L8.15102 2.99992L8.07299 3.18407L8.78098 3.48408L8.85902 3.29992ZM8.18815 3.15681C8.67242 2.5878 9.28868 1.69379 9.62842 1.05071L9.45158 0.957287C9.11932 1.58621 8.51158 2.4682 8.03585 3.02719L8.18815 3.15681ZM1.81899 1.51429L2.57499 1.15429L2.48901 0.973713L1.73301 1.33371L1.81899 1.51429ZM2.45872 1.13204C2.92276 1.63178 3.4063 2.30602 3.60397 2.77111L3.78803 2.69289C3.5777 2.19798 3.07724 1.50422 2.60528 0.995954L2.45872 1.13204ZM3.6529 2.64176L2.8489 3.02576L2.9351 3.20624L3.7391 2.82224L3.6529 2.64176ZM2.98416 3.07719C2.7867 2.60821 2.2997 1.87931 1.8518 1.35878L1.7002 1.48922C2.1403 2.00069 2.6133 2.71179 2.79984 3.15481L2.98416 3.07719ZM4.89464 1.25381L5.67464 0.965809L5.60536 0.77819L4.82536 1.06619L4.89464 1.25381ZM5.55898 0.930611C5.96389 1.49034 6.38842 2.25946 6.52785 2.74747L6.72015 2.69253C6.57159 2.17254 6.13211 1.38166 5.72102 0.813388L5.55898 0.930611ZM6.58756 2.62687L5.75956 2.95088L5.83244 3.13712L6.66044 2.81312L6.58756 2.62687ZM5.89215 3.01653C5.74437 2.49929 5.34266 1.69765 4.94294 1.10414L4.77706 1.21586C5.16934 1.79835 5.55963 2.58071 5.69985 3.07147L5.89215 3.01653ZM13.416 1.796V1.696H13.316V1.796H13.416ZM22.08 1.796H22.18V1.696H22.08V1.796ZM22.08 2.66V2.76H22.18V2.66H22.08ZM13.416 2.66H13.316V2.76H13.416V2.66ZM14.76 4.244L14.6907 4.17189L14.603 4.25617L14.7027 4.32592L14.76 4.244ZM15.372 3.656L15.4279 3.57308L15.3609 3.52794L15.3027 3.58389L15.372 3.656ZM18.576 6.068L18.6498 6.13546L18.7166 6.06237L18.6442 5.99485L18.576 6.068ZM17.94 6.764L17.8687 6.83408L17.9426 6.90937L18.0138 6.83146L17.94 6.764ZM21.756 1.796V1.696H21.656V1.796H21.756ZM22.656 1.796H22.756V1.696H22.656V1.796ZM22.656 2.312L22.756 2.31333V2.312H22.656ZM22.02 11.264L21.9396 11.2041L21.936 11.2097L22.02 11.264ZM21.024 11.84L21.0157 11.7403L21.0138 11.7405L21.024 11.84ZM19.08 11.828L18.9801 11.8328L18.9844 11.9232L19.0748 11.9279L19.08 11.828ZM18.78 10.964L18.7871 10.8643L18.5776 10.8493L18.6981 11.0213L18.78 10.964ZM21.18 10.832L21.1053 10.7654L21.1037 10.7674L21.18 10.832ZM21.756 2L21.856 2.00139V2H21.756ZM13.236 9.392L13.2068 9.29636L13.1079 9.32657L13.1414 9.42437L13.236 9.392ZM20.436 7.016L20.5343 6.99774L20.5132 6.88387L20.4036 6.92139L20.436 7.016ZM20.592 7.856L20.6254 7.95026L20.7059 7.92172L20.6903 7.83774L20.592 7.856ZM13.548 10.304L13.4534 10.3364L13.4858 10.4312L13.5805 10.3986L13.548 10.304ZM13.416 1.896H22.08V1.696H13.416V1.896ZM21.98 1.796V2.66H22.18V1.796H21.98ZM22.08 2.56H13.416V2.76H22.08V2.56ZM13.516 2.66V1.796H13.316V2.66H13.516ZM14.8293 4.31611L15.4413 3.72811L15.3027 3.58389L14.6907 4.17189L14.8293 4.31611ZM15.3161 3.73892C16.3841 4.45891 17.8062 5.48707 18.5078 6.14115L18.6442 5.99485C17.9298 5.32893 16.4959 4.29309 15.4279 3.57308L15.3161 3.73892ZM18.5022 6.00054L17.8662 6.69654L18.0138 6.83146L18.6498 6.13546L18.5022 6.00054ZM18.0113 6.69392C17.3321 6.0026 15.8971 4.91793 14.8173 4.16208L14.7027 4.32592C15.7829 5.08207 17.2039 6.1574 17.8687 6.83408L18.0113 6.69392ZM21.756 1.896H22.656V1.696H21.756V1.896ZM22.656 1.796C22.556 1.796 22.556 1.796 22.556 1.796C22.556 1.79601 22.556 1.79601 22.556 1.79602C22.556 1.79602 22.556 1.79603 22.556 1.79604C22.556 1.79605 22.556 1.79606 22.556 1.79607C22.556 1.79608 22.556 1.79609 22.556 1.79611C22.556 1.79612 22.556 1.79614 22.556 1.79616C22.556 1.79617 22.556 1.79619 22.556 1.79621C22.556 1.79623 22.556 1.79626 22.556 1.79628C22.556 1.7963 22.556 1.79633 22.556 1.79635C22.556 1.79638 22.556 1.79641 22.556 1.79643C22.556 1.79646 22.556 1.79649 22.556 1.79653C22.556 1.79656 22.556 1.79659 22.556 1.79662C22.556 1.79666 22.556 1.79669 22.556 1.79673C22.556 1.79677 22.556 1.79681 22.556 1.79685C22.556 1.79689 22.556 1.79693 22.556 1.79697C22.556 1.79702 22.556 1.79706 22.556 1.79711C22.556 1.79715 22.556 1.7972 22.556 1.79725C22.556 1.79729 22.556 1.79734 22.556 1.7974C22.556 1.79745 22.556 1.7975 22.556 1.79755C22.556 1.79761 22.556 1.79766 22.556 1.79772C22.556 1.79778 22.556 1.79783 22.556 1.79789C22.556 1.79795 22.556 1.79801 22.556 1.79808C22.556 1.79814 22.556 1.7982 22.556 1.79827C22.556 1.79833 22.556 1.7984 22.556 1.79847C22.556 1.79853 22.556 1.7986 22.556 1.79867C22.556 1.79874 22.556 1.79881 22.556 1.79889C22.556 1.79896 22.556 1.79903 22.556 1.79911C22.556 1.79919 22.556 1.79926 22.556 1.79934C22.556 1.79942 22.556 1.7995 22.556 1.79958C22.556 1.79966 22.556 1.79974 22.556 1.79983C22.556 1.79991 22.556 1.8 22.556 1.80008C22.556 1.80017 22.556 1.80026 22.556 1.80034C22.556 1.80043 22.556 1.80052 22.556 1.80062C22.556 1.80071 22.556 1.8008 22.556 1.80089C22.556 1.80099 22.556 1.80108 22.556 1.80118C22.556 1.80128 22.556 1.80137 22.556 1.80147C22.556 1.80157 22.556 1.80167 22.556 1.80178C22.556 1.80188 22.556 1.80198 22.556 1.80209C22.556 1.80219 22.556 1.8023 22.556 1.8024C22.556 1.80251 22.556 1.80262 22.556 1.80273C22.556 1.80284 22.556 1.80295 22.556 1.80306C22.556 1.80317 22.556 1.80329 22.556 1.8034C22.556 1.80352 22.556 1.80363 22.556 1.80375C22.556 1.80387 22.556 1.80398 22.556 1.8041C22.556 1.80422 22.556 1.80434 22.556 1.80447C22.556 1.80459 22.556 1.80471 22.556 1.80484C22.556 1.80496 22.556 1.80509 22.556 1.80522C22.556 1.80534 22.556 1.80547 22.556 1.8056C22.556 1.80573 22.556 1.80586 22.556 1.80599C22.556 1.80613 22.556 1.80626 22.556 1.80639C22.556 1.80653 22.556 1.80666 22.556 1.8068C22.556 1.80694 22.556 1.80708 22.556 1.80722C22.556 1.80736 22.556 1.8075 22.556 1.80764C22.556 1.80778 22.556 1.80792 22.556 1.80807C22.556 1.80821 22.556 1.80836 22.556 1.8085C22.556 1.80865 22.556 1.8088 22.556 1.80895C22.556 1.8091 22.556 1.80925 22.556 1.8094C22.556 1.80955 22.556 1.8097 22.556 1.80986C22.556 1.81001 22.556 1.81017 22.556 1.81032C22.556 1.81048 22.556 1.81064 22.556 1.8108C22.556 1.81096 22.556 1.81112 22.556 1.81128C22.556 1.81144 22.556 1.8116 22.556 1.81176C22.556 1.81193 22.556 1.81209 22.556 1.81226C22.556 1.81242 22.556 1.81259 22.556 1.81276C22.556 1.81293 22.556 1.81309 22.556 1.81327C22.556 1.81344 22.556 1.81361 22.556 1.81378C22.556 1.81395 22.556 1.81413 22.556 1.8143C22.556 1.81448 22.556 1.81465 22.556 1.81483C22.556 1.81501 22.556 1.81519 22.556 1.81537C22.556 1.81555 22.556 1.81573 22.556 1.81591C22.556 1.81609 22.556 1.81627 22.556 1.81646C22.556 1.81664 22.556 1.81683 22.556 1.81701C22.556 1.8172 22.556 1.81739 22.556 1.81757C22.556 1.81776 22.556 1.81795 22.556 1.81814C22.556 1.81833 22.556 1.81853 22.556 1.81872C22.556 1.81891 22.556 1.81911 22.556 1.8193C22.556 1.8195 22.556 1.81969 22.556 1.81989C22.556 1.82009 22.556 1.82029 22.556 1.82049C22.556 1.82069 22.556 1.82089 22.556 1.82109C22.556 1.82129 22.556 1.82149 22.556 1.8217C22.556 1.8219 22.556 1.82211 22.556 1.82231C22.556 1.82252 22.556 1.82273 22.556 1.82294C22.556 1.82314 22.556 1.82335 22.556 1.82356C22.556 1.82377 22.556 1.82399 22.556 1.8242C22.556 1.82441 22.556 1.82463 22.556 1.82484C22.556 1.82505 22.556 1.82527 22.556 1.82549C22.556 1.8257 22.556 1.82592 22.556 1.82614C22.556 1.82636 22.556 1.82658 22.556 1.8268C22.556 1.82702 22.556 1.82724 22.556 1.82747C22.556 1.82769 22.556 1.82792 22.556 1.82814C22.556 1.82837 22.556 1.82859 22.556 1.82882C22.556 1.82905 22.556 1.82928 22.556 1.82951C22.556 1.82973 22.556 1.82997 22.556 1.8302C22.556 1.83043 22.556 1.83066 22.556 1.83089C22.556 1.83113 22.556 1.83136 22.556 1.8316C22.556 1.83183 22.556 1.83207 22.556 1.83231C22.556 1.83255 22.556 1.83278 22.556 1.83302C22.556 1.83326 22.556 1.8335 22.556 1.83375C22.556 1.83399 22.556 1.83423 22.556 1.83447C22.556 1.83472 22.556 1.83496 22.556 1.83521C22.556 1.83545 22.556 1.8357 22.556 1.83595C22.556 1.83619 22.556 1.83644 22.556 1.83669C22.556 1.83694 22.556 1.83719 22.556 1.83744C22.556 1.83769 22.556 1.83795 22.556 1.8382C22.556 1.83845 22.556 1.83871 22.556 1.83896C22.556 1.83922 22.556 1.83948 22.556 1.83973C22.556 1.83999 22.556 1.84025 22.556 1.84051C22.556 1.84077 22.556 1.84103 22.556 1.84129C22.556 1.84155 22.556 1.84181 22.556 1.84207C22.556 1.84234 22.556 1.8426 22.556 1.84287C22.556 1.84313 22.556 1.8434 22.556 1.84366C22.556 1.84393 22.556 1.8442 22.556 1.84447C22.556 1.84474 22.556 1.84501 22.556 1.84528C22.556 1.84555 22.556 1.84582 22.556 1.84609C22.556 1.84636 22.556 1.84664 22.556 1.84691C22.556 1.84718 22.556 1.84746 22.556 1.84774C22.556 1.84801 22.556 1.84829 22.556 1.84857C22.556 1.84885 22.556 1.84912 22.556 1.8494C22.556 1.84968 22.556 1.84996 22.556 1.85025C22.556 1.85053 22.556 1.85081 22.556 1.85109C22.556 1.85138 22.556 1.85166 22.556 1.85195C22.556 1.85223 22.556 1.85252 22.556 1.8528C22.556 1.85309 22.556 1.85338 22.556 1.85367C22.556 1.85396 22.556 1.85424 22.556 1.85454C22.556 1.85483 22.556 1.85512 22.556 1.85541C22.556 1.8557 22.556 1.85599 22.556 1.85629C22.556 1.85658 22.556 1.85688 22.556 1.85717C22.556 1.85747 22.556 1.85776 22.556 1.85806C22.556 1.85836 22.556 1.85866 22.556 1.85896C22.556 1.85926 22.556 1.85956 22.556 1.85986C22.556 1.86016 22.556 1.86046 22.556 1.86076C22.556 1.86106 22.556 1.86137 22.556 1.86167C22.556 1.86198 22.556 1.86228 22.556 1.86259C22.556 1.86289 22.556 1.8632 22.556 1.86351C22.556 1.86381 22.556 1.86412 22.556 1.86443C22.556 1.86474 22.556 1.86505 22.556 1.86536C22.556 1.86567 22.556 1.86598 22.556 1.8663C22.556 1.86661 22.556 1.86692 22.556 1.86724C22.556 1.86755 22.556 1.86786 22.556 1.86818C22.556 1.8685 22.556 1.86881 22.556 1.86913C22.556 1.86945 22.556 1.86977 22.556 1.87008C22.556 1.8704 22.556 1.87072 22.556 1.87104C22.556 1.87136 22.556 1.87169 22.556 1.87201C22.556 1.87233 22.556 1.87265 22.556 1.87298C22.556 1.8733 22.556 1.87362 22.556 1.87395C22.556 1.87427 22.556 1.8746 22.556 1.87493C22.556 1.87525 22.556 1.87558 22.556 1.87591C22.556 1.87624 22.556 1.87657 22.556 1.8769C22.556 1.87723 22.556 1.87756 22.556 1.87789C22.556 1.87822 22.556 1.87855 22.556 1.87888C22.556 1.87922 22.556 1.87955 22.556 1.87988C22.556 1.88022 22.556 1.88055 22.556 1.88089C22.556 1.88123 22.556 1.88156 22.556 1.8819C22.556 1.88224 22.556 1.88258 22.556 1.88291C22.556 1.88325 22.556 1.88359 22.556 1.88393C22.556 1.88427 22.556 1.88461 22.556 1.88496C22.556 1.8853 22.556 1.88564 22.556 1.88598C22.556 1.88633 22.556 1.88667 22.556 1.88701C22.556 1.88736 22.556 1.8877 22.556 1.88805C22.556 1.8884 22.556 1.88874 22.556 1.88909C22.556 1.88944 22.556 1.88979 22.556 1.89014C22.556 1.89048 22.556 1.89083 22.556 1.89118C22.556 1.89153 22.556 1.89188 22.556 1.89224C22.556 1.89259 22.556 1.89294 22.556 1.89329C22.556 1.89365 22.556 1.894 22.556 1.89435C22.556 1.89471 22.556 1.89506 22.556 1.89542C22.556 1.89578 22.556 1.89613 22.556 1.89649C22.556 1.89685 22.556 1.8972 22.556 1.89756C22.556 1.89792 22.556 1.89828 22.556 1.89864C22.556 1.899 22.556 1.89936 22.556 1.89972C22.556 1.90008 22.556 1.90044 22.556 1.90081C22.556 1.90117 22.556 1.90153 22.556 1.9019C22.556 1.90226 22.556 1.90262 22.556 1.90299C22.556 1.90335 22.556 1.90372 22.556 1.90409C22.556 1.90445 22.556 1.90482 22.556 1.90519C22.556 1.90555 22.556 1.90592 22.556 1.90629C22.556 1.90666 22.556 1.90703 22.556 1.9074C22.556 1.90777 22.556 1.90814 22.556 1.90851C22.556 1.90888 22.556 1.90926 22.556 1.90963C22.556 1.91 22.556 1.91037 22.556 1.91075C22.556 1.91112 22.556 1.9115 22.556 1.91187C22.556 1.91225 22.556 1.91262 22.556 1.913C22.556 1.91337 22.556 1.91375 22.556 1.91413C22.556 1.91451 22.556 1.91488 22.556 1.91526C22.556 1.91564 22.556 1.91602 22.556 1.9164C22.556 1.91678 22.556 1.91716 22.556 1.91754C22.556 1.91792 22.556 1.9183 22.556 1.91869C22.556 1.91907 22.556 1.91945 22.556 1.91983C22.556 1.92022 22.556 1.9206 22.556 1.92099C22.556 1.92137 22.556 1.92175 22.556 1.92214C22.556 1.92253 22.556 1.92291 22.556 1.9233C22.556 1.92369 22.556 1.92407 22.556 1.92446C22.556 1.92485 22.556 1.92524 22.556 1.92563C22.556 1.92601 22.556 1.9264 22.556 1.92679C22.556 1.92718 22.556 1.92757 22.556 1.92797C22.556 1.92836 22.556 1.92875 22.556 1.92914C22.556 1.92953 22.556 1.92993 22.556 1.93032C22.556 1.93071 22.556 1.93111 22.556 1.9315C22.556 1.93189 22.556 1.93229 22.556 1.93268C22.556 1.93308 22.556 1.93348 22.556 1.93387C22.556 1.93427 22.556 1.93467 22.556 1.93506C22.556 1.93546 22.556 1.93586 22.556 1.93626C22.556 1.93666 22.556 1.93705 22.556 1.93745C22.556 1.93785 22.556 1.93825 22.556 1.93865C22.556 1.93905 22.556 1.93946 22.556 1.93986C22.556 1.94026 22.556 1.94066 22.556 1.94106C22.556 1.94146 22.556 1.94187 22.556 1.94227C22.556 1.94267 22.556 1.94308 22.556 1.94348C22.556 1.94389 22.556 1.94429 22.556 1.9447C22.556 1.9451 22.556 1.94551 22.556 1.94591C22.556 1.94632 22.556 1.94673 22.556 1.94713C22.556 1.94754 22.556 1.94795 22.556 1.94836C22.556 1.94877 22.556 1.94917 22.556 1.94958C22.556 1.94999 22.556 1.9504 22.556 1.95081C22.556 1.95122 22.556 1.95163 22.556 1.95204C22.556 1.95245 22.556 1.95287 22.556 1.95328C22.556 1.95369 22.556 1.9541 22.556 1.95451C22.556 1.95493 22.556 1.95534 22.556 1.95575C22.556 1.95617 22.556 1.95658 22.556 1.95699C22.556 1.95741 22.556 1.95782 22.556 1.95824C22.556 1.95865 22.556 1.95907 22.556 1.95949C22.556 1.9599 22.556 1.96032 22.556 1.96073C22.556 1.96115 22.556 1.96157 22.556 1.96199C22.556 1.9624 22.556 1.96282 22.556 1.96324C22.556 1.96366 22.556 1.96408 22.556 1.9645C22.556 1.96492 22.556 1.96534 22.556 1.96576C22.556 1.96618 22.556 1.9666 22.556 1.96702C22.556 1.96744 22.556 1.96786 22.556 1.96828C22.556 1.9687 22.556 1.96913 22.556 1.96955C22.556 1.96997 22.556 1.97039 22.556 1.97082C22.556 1.97124 22.556 1.97166 22.556 1.97209C22.556 1.97251 22.556 1.97293 22.556 1.97336C22.556 1.97378 22.556 1.97421 22.556 1.97463C22.556 1.97506 22.556 1.97549 22.556 1.97591C22.556 1.97634 22.556 1.97676 22.556 1.97719C22.556 1.97762 22.556 1.97805 22.556 1.97847C22.556 1.9789 22.556 1.97933 22.556 1.97976C22.556 1.98018 22.556 1.98061 22.556 1.98104C22.556 1.98147 22.556 1.9819 22.556 1.98233C22.556 1.98276 22.556 1.98319 22.556 1.98362C22.556 1.98405 22.556 1.98448 22.556 1.98491C22.556 1.98534 22.556 1.98577 22.556 1.9862C22.556 1.98664 22.556 1.98707 22.556 1.9875C22.556 1.98793 22.556 1.98836 22.556 1.9888C22.556 1.98923 22.556 1.98966 22.556 1.9901C22.556 1.99053 22.556 1.99096 22.556 1.9914C22.556 1.99183 22.556 1.99226 22.556 1.9927C22.556 1.99313 22.556 1.99357 22.556 1.994C22.556 1.99444 22.556 1.99487 22.556 1.99531C22.556 1.99575 22.556 1.99618 22.556 1.99662C22.556 1.99705 22.556 1.99749 22.556 1.99793C22.556 1.99836 22.556 1.9988 22.556 1.99924C22.556 1.99968 22.556 2.00011 22.556 2.00055C22.556 2.00099 22.556 2.00143 22.556 2.00187C22.556 2.0023 22.556 2.00274 22.556 2.00318C22.556 2.00362 22.556 2.00406 22.556 2.0045C22.556 2.00494 22.556 2.00538 22.556 2.00582C22.556 2.00626 22.556 2.0067 22.556 2.00714C22.556 2.00758 22.556 2.00802 22.556 2.00846C22.556 2.0089 22.556 2.00934 22.556 2.00978C22.556 2.01023 22.556 2.01067 22.556 2.01111C22.556 2.01155 22.556 2.01199 22.556 2.01244C22.556 2.01288 22.556 2.01332 22.556 2.01376C22.556 2.01421 22.556 2.01465 22.556 2.01509C22.556 2.01554 22.556 2.01598 22.556 2.01642C22.556 2.01687 22.556 2.01731 22.556 2.01775C22.556 2.0182 22.556 2.01864 22.556 2.01909C22.556 2.01953 22.556 2.01998 22.556 2.02042C22.556 2.02087 22.556 2.02131 22.556 2.02176C22.556 2.0222 22.556 2.02265 22.556 2.02309C22.556 2.02354 22.556 2.02398 22.556 2.02443C22.556 2.02487 22.556 2.02532 22.556 2.02577C22.556 2.02621 22.556 2.02666 22.556 2.02711C22.556 2.02755 22.556 2.028 22.556 2.02845C22.556 2.02889 22.556 2.02934 22.556 2.02979C22.556 2.03024 22.556 2.03068 22.556 2.03113C22.556 2.03158 22.556 2.03203 22.556 2.03247C22.556 2.03292 22.556 2.03337 22.556 2.03382C22.556 2.03427 22.556 2.03472 22.556 2.03516C22.556 2.03561 22.556 2.03606 22.556 2.03651C22.556 2.03696 22.556 2.03741 22.556 2.03786C22.556 2.03831 22.556 2.03876 22.556 2.0392C22.556 2.03965 22.556 2.0401 22.556 2.04055C22.556 2.041 22.556 2.04145 22.556 2.0419C22.556 2.04235 22.556 2.0428 22.556 2.04325C22.556 2.0437 22.556 2.04415 22.556 2.0446C22.556 2.04505 22.556 2.0455 22.556 2.04595C22.556 2.0464 22.556 2.04685 22.556 2.04731C22.556 2.04776 22.556 2.04821 22.556 2.04866C22.556 2.04911 22.556 2.04956 22.556 2.05001C22.556 2.05046 22.556 2.05091 22.556 2.05136C22.556 2.05182 22.556 2.05227 22.556 2.05272C22.556 2.05317 22.556 2.05362 22.556 2.05407C22.556 2.05452 22.556 2.05498 22.556 2.05543C22.556 2.05588 22.556 2.05633 22.556 2.05678C22.556 2.05724 22.556 2.05769 22.556 2.05814C22.556 2.05859 22.556 2.05904 22.556 2.0595C22.556 2.05995 22.556 2.0604 22.556 2.06085C22.556 2.0613 22.556 2.06176 22.556 2.06221C22.556 2.06266 22.556 2.06311 22.556 2.06357C22.556 2.06402 22.556 2.06447 22.556 2.06492C22.556 2.06538 22.556 2.06583 22.556 2.06628C22.556 2.06673 22.556 2.06719 22.556 2.06764C22.556 2.06809 22.556 2.06854 22.556 2.069C22.556 2.06945 22.556 2.0699 22.556 2.07036C22.556 2.07081 22.556 2.07126 22.556 2.07171C22.556 2.07217 22.556 2.07262 22.556 2.07307C22.556 2.07352 22.556 2.07398 22.556 2.07443C22.556 2.07488 22.556 2.07534 22.556 2.07579C22.556 2.07624 22.556 2.07669 22.556 2.07715C22.556 2.0776 22.556 2.07805 22.556 2.07851C22.556 2.07896 22.556 2.07941 22.556 2.07986C22.556 2.08032 22.556 2.08077 22.556 2.08122C22.556 2.08168 22.556 2.08213 22.556 2.08258C22.556 2.08303 22.556 2.08349 22.556 2.08394C22.556 2.08439 22.556 2.08484 22.556 2.0853C22.556 2.08575 22.556 2.0862 22.556 2.08665C22.556 2.08711 22.556 2.08756 22.556 2.08801C22.556 2.08846 22.556 2.08892 22.556 2.08937C22.556 2.08982 22.556 2.09027 22.556 2.09073C22.556 2.09118 22.556 2.09163 22.556 2.09208C22.556 2.09254 22.556 2.09299 22.556 2.09344C22.556 2.09389 22.556 2.09434 22.556 2.0948C22.556 2.09525 22.556 2.0957 22.556 2.09615C22.556 2.0966 22.556 2.09705 22.556 2.09751C22.556 2.09796 22.556 2.09841 22.556 2.09886C22.556 2.09931 22.556 2.09976 22.556 2.10021C22.556 2.10067 22.556 2.10112 22.556 2.10157C22.556 2.10202 22.556 2.10247 22.556 2.10292C22.556 2.10337 22.556 2.10382 22.556 2.10427C22.556 2.10472 22.556 2.10518 22.556 2.10563C22.556 2.10608 22.556 2.10653 22.556 2.10698C22.556 2.10743 22.556 2.10788 22.556 2.10833C22.556 2.10878 22.556 2.10923 22.556 2.10968C22.556 2.11013 22.556 2.11058 22.556 2.11103C22.556 2.11148 22.556 2.11193 22.556 2.11238C22.556 2.11283 22.556 2.11328 22.556 2.11372C22.556 2.11417 22.556 2.11462 22.556 2.11507C22.556 2.11552 22.556 2.11597 22.556 2.11642C22.556 2.11687 22.556 2.11731 22.556 2.11776C22.556 2.11821 22.556 2.11866 22.556 2.11911C22.556 2.11956 22.556 2.12 22.556 2.12045C22.556 2.1209 22.556 2.12135 22.556 2.12179C22.556 2.12224 22.556 2.12269 22.556 2.12314C22.556 2.12358 22.556 2.12403 22.556 2.12448C22.556 2.12492 22.556 2.12537 22.556 2.12582C22.556 2.12626 22.556 2.12671 22.556 2.12715C22.556 2.1276 22.556 2.12805 22.556 2.12849C22.556 2.12894 22.556 2.12938 22.556 2.12983C22.556 2.13027 22.556 2.13072 22.556 2.13116C22.556 2.13161 22.556 2.13205 22.556 2.1325C22.556 2.13294 22.556 2.13339 22.556 2.13383C22.556 2.13427 22.556 2.13472 22.556 2.13516C22.556 2.13561 22.556 2.13605 22.556 2.13649C22.556 2.13694 22.556 2.13738 22.556 2.13782C22.556 2.13827 22.556 2.13871 22.556 2.13915C22.556 2.13959 22.556 2.14003 22.556 2.14048C22.556 2.14092 22.556 2.14136 22.556 2.1418C22.556 2.14224 22.556 2.14268 22.556 2.14313C22.556 2.14357 22.556 2.14401 22.556 2.14445C22.556 2.14489 22.556 2.14533 22.556 2.14577C22.556 2.14621 22.556 2.14665 22.556 2.14709C22.556 2.14753 22.556 2.14797 22.556 2.14841C22.556 2.14885 22.556 2.14928 22.556 2.14972C22.556 2.15016 22.556 2.1506 22.556 2.15104C22.556 2.15148 22.556 2.15191 22.556 2.15235C22.556 2.15279 22.556 2.15323 22.556 2.15366C22.556 2.1541 22.556 2.15454 22.556 2.15497C22.556 2.15541 22.556 2.15585 22.556 2.15628C22.556 2.15672 22.556 2.15715 22.556 2.15759C22.556 2.15802 22.556 2.15846 22.556 2.15889C22.556 2.15933 22.556 2.15976 22.556 2.1602C22.556 2.16063 22.556 2.16106 22.556 2.1615C22.556 2.16193 22.556 2.16236 22.556 2.1628C22.556 2.16323 22.556 2.16366 22.556 2.1641C22.556 2.16453 22.556 2.16496 22.556 2.16539C22.556 2.16582 22.556 2.16625 22.556 2.16669C22.556 2.16712 22.556 2.16755 22.556 2.16798C22.556 2.16841 22.556 2.16884 22.556 2.16927C22.556 2.1697 22.556 2.17013 22.556 2.17056C22.556 2.17098 22.556 2.17141 22.556 2.17184C22.556 2.17227 22.556 2.1727 22.556 2.17313C22.556 2.17355 22.556 2.17398 22.556 2.17441C22.556 2.17483 22.556 2.17526 22.556 2.17569C22.556 2.17611 22.556 2.17654 22.556 2.17696C22.556 2.17739 22.556 2.17782 22.556 2.17824C22.556 2.17867 22.556 2.17909 22.556 2.17951C22.556 2.17994 22.556 2.18036 22.556 2.18079C22.556 2.18121 22.556 2.18163 22.556 2.18205C22.556 2.18248 22.556 2.1829 22.556 2.18332C22.556 2.18374 22.556 2.18416 22.556 2.18459C22.556 2.18501 22.556 2.18543 22.556 2.18585C22.556 2.18627 22.556 2.18669 22.556 2.18711C22.556 2.18753 22.556 2.18795 22.556 2.18836C22.556 2.18878 22.556 2.1892 22.556 2.18962C22.556 2.19004 22.556 2.19045 22.556 2.19087C22.556 2.19129 22.556 2.19171 22.556 2.19212C22.556 2.19254 22.556 2.19295 22.556 2.19337C22.556 2.19378 22.556 2.1942 22.556 2.19461C22.556 2.19503 22.556 2.19544 22.556 2.19586C22.556 2.19627 22.556 2.19668 22.556 2.1971C22.556 2.19751 22.556 2.19792 22.556 2.19833C22.556 2.19875 22.556 2.19916 22.556 2.19957C22.556 2.19998 22.556 2.20039 22.556 2.2008C22.556 2.20121 22.556 2.20162 22.556 2.20203C22.556 2.20244 22.556 2.20285 22.556 2.20326C22.556 2.20366 22.556 2.20407 22.556 2.20448C22.556 2.20489 22.556 2.20529 22.556 2.2057C22.556 2.20611 22.556 2.20651 22.556 2.20692C22.556 2.20732 22.556 2.20773 22.556 2.20813C22.556 2.20854 22.556 2.20894 22.556 2.20935C22.556 2.20975 22.556 2.21015 22.556 2.21056C22.556 2.21096 22.556 2.21136 22.556 2.21176C22.556 2.21216 22.556 2.21256 22.556 2.21297C22.556 2.21337 22.556 2.21377 22.556 2.21417C22.556 2.21457 22.556 2.21497 22.556 2.21536C22.556 2.21576 22.556 2.21616 22.556 2.21656C22.556 2.21696 22.556 2.21735 22.556 2.21775C22.556 2.21815 22.556 2.21854 22.556 2.21894C22.556 2.21933 22.556 2.21973 22.556 2.22012C22.556 2.22052 22.556 2.22091 22.556 2.22131C22.556 2.2217 22.556 2.22209 22.556 2.22249C22.556 2.22288 22.556 2.22327 22.556 2.22366C22.556 2.22405 22.556 2.22444 22.556 2.22483C22.556 2.22522 22.556 2.22561 22.556 2.226C22.556 2.22639 22.556 2.22678 22.556 2.22717C22.556 2.22756 22.556 2.22794 22.556 2.22833C22.556 2.22872 22.556 2.2291 22.556 2.22949C22.556 2.22988 22.556 2.23026 22.556 2.23065C22.556 2.23103 22.556 2.23142 22.556 2.2318C22.556 2.23218 22.556 2.23257 22.556 2.23295C22.556 2.23333 22.556 2.23371 22.556 2.23409C22.556 2.23448 22.556 2.23486 22.556 2.23524C22.556 2.23562 22.556 2.236 22.556 2.23637C22.556 2.23675 22.556 2.23713 22.556 2.23751C22.556 2.23789 22.556 2.23826 22.556 2.23864C22.556 2.23902 22.556 2.23939 22.556 2.23977C22.556 2.24014 22.556 2.24052 22.556 2.24089C22.556 2.24127 22.556 2.24164 22.556 2.24201C22.556 2.24239 22.556 2.24276 22.556 2.24313C22.556 2.2435 22.556 2.24387 22.556 2.24424C22.556 2.24461 22.556 2.24498 22.556 2.24535C22.556 2.24572 22.556 2.24609 22.556 2.24646C22.556 2.24683 22.556 2.24719 22.556 2.24756C22.556 2.24793 22.556 2.24829 22.556 2.24866C22.556 2.24902 22.556 2.24939 22.556 2.24975C22.556 2.25012 22.556 2.25048 22.556 2.25084C22.556 2.25121 22.556 2.25157 22.556 2.25193C22.556 2.25229 22.556 2.25265 22.556 2.25301C22.556 2.25337 22.556 2.25373 22.556 2.25409C22.556 2.25445 22.556 2.25481 22.556 2.25516C22.556 2.25552 22.556 2.25588 22.556 2.25623C22.556 2.25659 22.556 2.25695 22.556 2.2573C22.556 2.25766 22.556 2.25801 22.556 2.25836C22.556 2.25872 22.556 2.25907 22.556 2.25942C22.556 2.25977 22.556 2.26012 22.556 2.26048C22.556 2.26083 22.556 2.26118 22.556 2.26153C22.556 2.26187 22.556 2.26222 22.556 2.26257C22.556 2.26292 22.556 2.26327 22.556 2.26361C22.556 2.26396 22.556 2.2643 22.556 2.26465C22.556 2.26499 22.556 2.26534 22.556 2.26568C22.556 2.26603 22.556 2.26637 22.556 2.26671C22.556 2.26705 22.556 2.26739 22.556 2.26773C22.556 2.26807 22.556 2.26841 22.556 2.26875C22.556 2.26909 22.556 2.26943 22.556 2.26977C22.556 2.27011 22.556 2.27044 22.556 2.27078C22.556 2.27112 22.556 2.27145 22.556 2.27179C22.556 2.27212 22.556 2.27246 22.556 2.27279C22.556 2.27312 22.556 2.27345 22.556 2.27379C22.556 2.27412 22.556 2.27445 22.556 2.27478C22.556 2.27511 22.556 2.27544 22.556 2.27577C22.556 2.2761 22.556 2.27642 22.556 2.27675C22.556 2.27708 22.556 2.2774 22.556 2.27773C22.556 2.27806 22.556 2.27838 22.556 2.2787C22.556 2.27903 22.556 2.27935 22.556 2.27967C22.556 2.28 22.556 2.28032 22.556 2.28064C22.556 2.28096 22.556 2.28128 22.556 2.2816C22.556 2.28192 22.556 2.28224 22.556 2.28256C22.556 2.28287 22.556 2.28319 22.556 2.28351C22.556 2.28382 22.556 2.28414 22.556 2.28445C22.556 2.28477 22.556 2.28508 22.556 2.28539C22.556 2.28571 22.556 2.28602 22.556 2.28633C22.556 2.28664 22.556 2.28695 22.556 2.28726C22.556 2.28757 22.556 2.28788 22.556 2.28819C22.556 2.28849 22.556 2.2888 22.556 2.28911C22.556 2.28941 22.556 2.28972 22.556 2.29002C22.556 2.29033 22.556 2.29063 22.556 2.29094C22.556 2.29124 22.556 2.29154 22.556 2.29184C22.556 2.29214 22.556 2.29244 22.556 2.29274C22.556 2.29304 22.556 2.29334 22.556 2.29364C22.556 2.29394 22.556 2.29423 22.556 2.29453C22.556 2.29483 22.556 2.29512 22.556 2.29542C22.556 2.29571 22.556 2.296 22.556 2.2963C22.556 2.29659 22.556 2.29688 22.556 2.29717C22.556 2.29746 22.556 2.29775 22.556 2.29804C22.556 2.29833 22.556 2.29862 22.556 2.29891C22.556 2.29919 22.556 2.29948 22.556 2.29977C22.556 2.30005 22.556 2.30034 22.556 2.30062C22.556 2.3009 22.556 2.30119 22.556 2.30147C22.556 2.30175 22.556 2.30203 22.556 2.30231C22.556 2.30259 22.556 2.30287 22.556 2.30315C22.556 2.30343 22.556 2.3037 22.556 2.30398C22.556 2.30426 22.556 2.30453 22.556 2.30481C22.556 2.30508 22.556 2.30536 22.556 2.30563C22.556 2.3059 22.556 2.30617 22.556 2.30645C22.556 2.30672 22.556 2.30699 22.556 2.30726C22.556 2.30753 22.556 2.30779 22.556 2.30806C22.556 2.30833 22.556 2.30859 22.556 2.30886C22.556 2.30913 22.556 2.30939 22.556 2.30965C22.556 2.30992 22.556 2.31018 22.556 2.31044C22.556 2.3107 22.556 2.31096 22.556 2.31122C22.556 2.31148 22.556 2.31174 22.556 2.312H22.756C22.756 2.31174 22.756 2.31148 22.756 2.31122C22.756 2.31096 22.756 2.3107 22.756 2.31044C22.756 2.31018 22.756 2.30992 22.756 2.30965C22.756 2.30939 22.756 2.30913 22.756 2.30886C22.756 2.30859 22.756 2.30833 22.756 2.30806C22.756 2.30779 22.756 2.30753 22.756 2.30726C22.756 2.30699 22.756 2.30672 22.756 2.30645C22.756 2.30617 22.756 2.3059 22.756 2.30563C22.756 2.30536 22.756 2.30508 22.756 2.30481C22.756 2.30453 22.756 2.30426 22.756 2.30398C22.756 2.3037 22.756 2.30343 22.756 2.30315C22.756 2.30287 22.756 2.30259 22.756 2.30231C22.756 2.30203 22.756 2.30175 22.756 2.30147C22.756 2.30119 22.756 2.3009 22.756 2.30062C22.756 2.30034 22.756 2.30005 22.756 2.29977C22.756 2.29948 22.756 2.29919 22.756 2.29891C22.756 2.29862 22.756 2.29833 22.756 2.29804C22.756 2.29775 22.756 2.29746 22.756 2.29717C22.756 2.29688 22.756 2.29659 22.756 2.2963C22.756 2.296 22.756 2.29571 22.756 2.29542C22.756 2.29512 22.756 2.29483 22.756 2.29453C22.756 2.29423 22.756 2.29394 22.756 2.29364C22.756 2.29334 22.756 2.29304 22.756 2.29274C22.756 2.29244 22.756 2.29214 22.756 2.29184C22.756 2.29154 22.756 2.29124 22.756 2.29094C22.756 2.29063 22.756 2.29033 22.756 2.29002C22.756 2.28972 22.756 2.28941 22.756 2.28911C22.756 2.2888 22.756 2.28849 22.756 2.28819C22.756 2.28788 22.756 2.28757 22.756 2.28726C22.756 2.28695 22.756 2.28664 22.756 2.28633C22.756 2.28602 22.756 2.28571 22.756 2.28539C22.756 2.28508 22.756 2.28477 22.756 2.28445C22.756 2.28414 22.756 2.28382 22.756 2.28351C22.756 2.28319 22.756 2.28287 22.756 2.28256C22.756 2.28224 22.756 2.28192 22.756 2.2816C22.756 2.28128 22.756 2.28096 22.756 2.28064C22.756 2.28032 22.756 2.28 22.756 2.27967C22.756 2.27935 22.756 2.27903 22.756 2.2787C22.756 2.27838 22.756 2.27806 22.756 2.27773C22.756 2.2774 22.756 2.27708 22.756 2.27675C22.756 2.27642 22.756 2.2761 22.756 2.27577C22.756 2.27544 22.756 2.27511 22.756 2.27478C22.756 2.27445 22.756 2.27412 22.756 2.27379C22.756 2.27345 22.756 2.27312 22.756 2.27279C22.756 2.27246 22.756 2.27212 22.756 2.27179C22.756 2.27145 22.756 2.27112 22.756 2.27078C22.756 2.27044 22.756 2.27011 22.756 2.26977C22.756 2.26943 22.756 2.26909 22.756 2.26875C22.756 2.26841 22.756 2.26807 22.756 2.26773C22.756 2.26739 22.756 2.26705 22.756 2.26671C22.756 2.26637 22.756 2.26603 22.756 2.26568C22.756 2.26534 22.756 2.26499 22.756 2.26465C22.756 2.2643 22.756 2.26396 22.756 2.26361C22.756 2.26327 22.756 2.26292 22.756 2.26257C22.756 2.26222 22.756 2.26187 22.756 2.26153C22.756 2.26118 22.756 2.26083 22.756 2.26048C22.756 2.26012 22.756 2.25977 22.756 2.25942C22.756 2.25907 22.756 2.25872 22.756 2.25836C22.756 2.25801 22.756 2.25766 22.756 2.2573C22.756 2.25695 22.756 2.25659 22.756 2.25623C22.756 2.25588 22.756 2.25552 22.756 2.25516C22.756 2.25481 22.756 2.25445 22.756 2.25409C22.756 2.25373 22.756 2.25337 22.756 2.25301C22.756 2.25265 22.756 2.25229 22.756 2.25193C22.756 2.25157 22.756 2.25121 22.756 2.25084C22.756 2.25048 22.756 2.25012 22.756 2.24975C22.756 2.24939 22.756 2.24902 22.756 2.24866C22.756 2.24829 22.756 2.24793 22.756 2.24756C22.756 2.24719 22.756 2.24683 22.756 2.24646C22.756 2.24609 22.756 2.24572 22.756 2.24535C22.756 2.24498 22.756 2.24461 22.756 2.24424C22.756 2.24387 22.756 2.2435 22.756 2.24313C22.756 2.24276 22.756 2.24239 22.756 2.24201C22.756 2.24164 22.756 2.24127 22.756 2.24089C22.756 2.24052 22.756 2.24014 22.756 2.23977C22.756 2.23939 22.756 2.23902 22.756 2.23864C22.756 2.23826 22.756 2.23789 22.756 2.23751C22.756 2.23713 22.756 2.23675 22.756 2.23637C22.756 2.236 22.756 2.23562 22.756 2.23524C22.756 2.23486 22.756 2.23448 22.756 2.23409C22.756 2.23371 22.756 2.23333 22.756 2.23295C22.756 2.23257 22.756 2.23218 22.756 2.2318C22.756 2.23142 22.756 2.23103 22.756 2.23065C22.756 2.23026 22.756 2.22988 22.756 2.22949C22.756 2.2291 22.756 2.22872 22.756 2.22833C22.756 2.22794 22.756 2.22756 22.756 2.22717C22.756 2.22678 22.756 2.22639 22.756 2.226C22.756 2.22561 22.756 2.22522 22.756 2.22483C22.756 2.22444 22.756 2.22405 22.756 2.22366C22.756 2.22327 22.756 2.22288 22.756 2.22249C22.756 2.22209 22.756 2.2217 22.756 2.22131C22.756 2.22091 22.756 2.22052 22.756 2.22012C22.756 2.21973 22.756 2.21933 22.756 2.21894C22.756 2.21854 22.756 2.21815 22.756 2.21775C22.756 2.21735 22.756 2.21696 22.756 2.21656C22.756 2.21616 22.756 2.21576 22.756 2.21536C22.756 2.21497 22.756 2.21457 22.756 2.21417C22.756 2.21377 22.756 2.21337 22.756 2.21297C22.756 2.21256 22.756 2.21216 22.756 2.21176C22.756 2.21136 22.756 2.21096 22.756 2.21056C22.756 2.21015 22.756 2.20975 22.756 2.20935C22.756 2.20894 22.756 2.20854 22.756 2.20813C22.756 2.20773 22.756 2.20732 22.756 2.20692C22.756 2.20651 22.756 2.20611 22.756 2.2057C22.756 2.20529 22.756 2.20489 22.756 2.20448C22.756 2.20407 22.756 2.20366 22.756 2.20326C22.756 2.20285 22.756 2.20244 22.756 2.20203C22.756 2.20162 22.756 2.20121 22.756 2.2008C22.756 2.20039 22.756 2.19998 22.756 2.19957C22.756 2.19916 22.756 2.19875 22.756 2.19833C22.756 2.19792 22.756 2.19751 22.756 2.1971C22.756 2.19668 22.756 2.19627 22.756 2.19586C22.756 2.19544 22.756 2.19503 22.756 2.19461C22.756 2.1942 22.756 2.19378 22.756 2.19337C22.756 2.19295 22.756 2.19254 22.756 2.19212C22.756 2.19171 22.756 2.19129 22.756 2.19087C22.756 2.19045 22.756 2.19004 22.756 2.18962C22.756 2.1892 22.756 2.18878 22.756 2.18836C22.756 2.18795 22.756 2.18753 22.756 2.18711C22.756 2.18669 22.756 2.18627 22.756 2.18585C22.756 2.18543 22.756 2.18501 22.756 2.18459C22.756 2.18416 22.756 2.18374 22.756 2.18332C22.756 2.1829 22.756 2.18248 22.756 2.18205C22.756 2.18163 22.756 2.18121 22.756 2.18079C22.756 2.18036 22.756 2.17994 22.756 2.17951C22.756 2.17909 22.756 2.17867 22.756 2.17824C22.756 2.17782 22.756 2.17739 22.756 2.17696C22.756 2.17654 22.756 2.17611 22.756 2.17569C22.756 2.17526 22.756 2.17483 22.756 2.17441C22.756 2.17398 22.756 2.17355 22.756 2.17313C22.756 2.1727 22.756 2.17227 22.756 2.17184C22.756 2.17141 22.756 2.17098 22.756 2.17056C22.756 2.17013 22.756 2.1697 22.756 2.16927C22.756 2.16884 22.756 2.16841 22.756 2.16798C22.756 2.16755 22.756 2.16712 22.756 2.16669C22.756 2.16625 22.756 2.16582 22.756 2.16539C22.756 2.16496 22.756 2.16453 22.756 2.1641C22.756 2.16366 22.756 2.16323 22.756 2.1628C22.756 2.16236 22.756 2.16193 22.756 2.1615C22.756 2.16106 22.756 2.16063 22.756 2.1602C22.756 2.15976 22.756 2.15933 22.756 2.15889C22.756 2.15846 22.756 2.15802 22.756 2.15759C22.756 2.15715 22.756 2.15672 22.756 2.15628C22.756 2.15585 22.756 2.15541 22.756 2.15497C22.756 2.15454 22.756 2.1541 22.756 2.15366C22.756 2.15323 22.756 2.15279 22.756 2.15235C22.756 2.15191 22.756 2.15148 22.756 2.15104C22.756 2.1506 22.756 2.15016 22.756 2.14972C22.756 2.14928 22.756 2.14885 22.756 2.14841C22.756 2.14797 22.756 2.14753 22.756 2.14709C22.756 2.14665 22.756 2.14621 22.756 2.14577C22.756 2.14533 22.756 2.14489 22.756 2.14445C22.756 2.14401 22.756 2.14357 22.756 2.14313C22.756 2.14268 22.756 2.14224 22.756 2.1418C22.756 2.14136 22.756 2.14092 22.756 2.14048C22.756 2.14003 22.756 2.13959 22.756 2.13915C22.756 2.13871 22.756 2.13827 22.756 2.13782C22.756 2.13738 22.756 2.13694 22.756 2.13649C22.756 2.13605 22.756 2.13561 22.756 2.13516C22.756 2.13472 22.756 2.13427 22.756 2.13383C22.756 2.13339 22.756 2.13294 22.756 2.1325C22.756 2.13205 22.756 2.13161 22.756 2.13116C22.756 2.13072 22.756 2.13027 22.756 2.12983C22.756 2.12938 22.756 2.12894 22.756 2.12849C22.756 2.12805 22.756 2.1276 22.756 2.12715C22.756 2.12671 22.756 2.12626 22.756 2.12582C22.756 2.12537 22.756 2.12492 22.756 2.12448C22.756 2.12403 22.756 2.12358 22.756 2.12314C22.756 2.12269 22.756 2.12224 22.756 2.12179C22.756 2.12135 22.756 2.1209 22.756 2.12045C22.756 2.12 22.756 2.11956 22.756 2.11911C22.756 2.11866 22.756 2.11821 22.756 2.11776C22.756 2.11731 22.756 2.11687 22.756 2.11642C22.756 2.11597 22.756 2.11552 22.756 2.11507C22.756 2.11462 22.756 2.11417 22.756 2.11372C22.756 2.11328 22.756 2.11283 22.756 2.11238C22.756 2.11193 22.756 2.11148 22.756 2.11103C22.756 2.11058 22.756 2.11013 22.756 2.10968C22.756 2.10923 22.756 2.10878 22.756 2.10833C22.756 2.10788 22.756 2.10743 22.756 2.10698C22.756 2.10653 22.756 2.10608 22.756 2.10563C22.756 2.10518 22.756 2.10472 22.756 2.10427C22.756 2.10382 22.756 2.10337 22.756 2.10292C22.756 2.10247 22.756 2.10202 22.756 2.10157C22.756 2.10112 22.756 2.10067 22.756 2.10021C22.756 2.09976 22.756 2.09931 22.756 2.09886C22.756 2.09841 22.756 2.09796 22.756 2.09751C22.756 2.09705 22.756 2.0966 22.756 2.09615C22.756 2.0957 22.756 2.09525 22.756 2.0948C22.756 2.09434 22.756 2.09389 22.756 2.09344C22.756 2.09299 22.756 2.09254 22.756 2.09208C22.756 2.09163 22.756 2.09118 22.756 2.09073C22.756 2.09027 22.756 2.08982 22.756 2.08937C22.756 2.08892 22.756 2.08846 22.756 2.08801C22.756 2.08756 22.756 2.08711 22.756 2.08665C22.756 2.0862 22.756 2.08575 22.756 2.0853C22.756 2.08484 22.756 2.08439 22.756 2.08394C22.756 2.08349 22.756 2.08303 22.756 2.08258C22.756 2.08213 22.756 2.08168 22.756 2.08122C22.756 2.08077 22.756 2.08032 22.756 2.07986C22.756 2.07941 22.756 2.07896 22.756 2.07851C22.756 2.07805 22.756 2.0776 22.756 2.07715C22.756 2.07669 22.756 2.07624 22.756 2.07579C22.756 2.07534 22.756 2.07488 22.756 2.07443C22.756 2.07398 22.756 2.07352 22.756 2.07307C22.756 2.07262 22.756 2.07217 22.756 2.07171C22.756 2.07126 22.756 2.07081 22.756 2.07036C22.756 2.0699 22.756 2.06945 22.756 2.069C22.756 2.06854 22.756 2.06809 22.756 2.06764C22.756 2.06719 22.756 2.06673 22.756 2.06628C22.756 2.06583 22.756 2.06538 22.756 2.06492C22.756 2.06447 22.756 2.06402 22.756 2.06357C22.756 2.06311 22.756 2.06266 22.756 2.06221C22.756 2.06176 22.756 2.0613 22.756 2.06085C22.756 2.0604 22.756 2.05995 22.756 2.0595C22.756 2.05904 22.756 2.05859 22.756 2.05814C22.756 2.05769 22.756 2.05724 22.756 2.05678C22.756 2.05633 22.756 2.05588 22.756 2.05543C22.756 2.05498 22.756 2.05452 22.756 2.05407C22.756 2.05362 22.756 2.05317 22.756 2.05272C22.756 2.05227 22.756 2.05182 22.756 2.05136C22.756 2.05091 22.756 2.05046 22.756 2.05001C22.756 2.04956 22.756 2.04911 22.756 2.04866C22.756 2.04821 22.756 2.04776 22.756 2.04731C22.756 2.04685 22.756 2.0464 22.756 2.04595C22.756 2.0455 22.756 2.04505 22.756 2.0446C22.756 2.04415 22.756 2.0437 22.756 2.04325C22.756 2.0428 22.756 2.04235 22.756 2.0419C22.756 2.04145 22.756 2.041 22.756 2.04055C22.756 2.0401 22.756 2.03965 22.756 2.0392C22.756 2.03876 22.756 2.03831 22.756 2.03786C22.756 2.03741 22.756 2.03696 22.756 2.03651C22.756 2.03606 22.756 2.03561 22.756 2.03516C22.756 2.03472 22.756 2.03427 22.756 2.03382C22.756 2.03337 22.756 2.03292 22.756 2.03247C22.756 2.03203 22.756 2.03158 22.756 2.03113C22.756 2.03068 22.756 2.03024 22.756 2.02979C22.756 2.02934 22.756 2.02889 22.756 2.02845C22.756 2.028 22.756 2.02755 22.756 2.02711C22.756 2.02666 22.756 2.02621 22.756 2.02577C22.756 2.02532 22.756 2.02487 22.756 2.02443C22.756 2.02398 22.756 2.02354 22.756 2.02309C22.756 2.02265 22.756 2.0222 22.756 2.02176C22.756 2.02131 22.756 2.02087 22.756 2.02042C22.756 2.01998 22.756 2.01953 22.756 2.01909C22.756 2.01864 22.756 2.0182 22.756 2.01775C22.756 2.01731 22.756 2.01687 22.756 2.01642C22.756 2.01598 22.756 2.01554 22.756 2.01509C22.756 2.01465 22.756 2.01421 22.756 2.01376C22.756 2.01332 22.756 2.01288 22.756 2.01244C22.756 2.01199 22.756 2.01155 22.756 2.01111C22.756 2.01067 22.756 2.01023 22.756 2.00978C22.756 2.00934 22.756 2.0089 22.756 2.00846C22.756 2.00802 22.756 2.00758 22.756 2.00714C22.756 2.0067 22.756 2.00626 22.756 2.00582C22.756 2.00538 22.756 2.00494 22.756 2.0045C22.756 2.00406 22.756 2.00362 22.756 2.00318C22.756 2.00274 22.756 2.0023 22.756 2.00187C22.756 2.00143 22.756 2.00099 22.756 2.00055C22.756 2.00011 22.756 1.99968 22.756 1.99924C22.756 1.9988 22.756 1.99836 22.756 1.99793C22.756 1.99749 22.756 1.99705 22.756 1.99662C22.756 1.99618 22.756 1.99575 22.756 1.99531C22.756 1.99487 22.756 1.99444 22.756 1.994C22.756 1.99357 22.756 1.99313 22.756 1.9927C22.756 1.99226 22.756 1.99183 22.756 1.9914C22.756 1.99096 22.756 1.99053 22.756 1.9901C22.756 1.98966 22.756 1.98923 22.756 1.9888C22.756 1.98836 22.756 1.98793 22.756 1.9875C22.756 1.98707 22.756 1.98664 22.756 1.9862C22.756 1.98577 22.756 1.98534 22.756 1.98491C22.756 1.98448 22.756 1.98405 22.756 1.98362C22.756 1.98319 22.756 1.98276 22.756 1.98233C22.756 1.9819 22.756 1.98147 22.756 1.98104C22.756 1.98061 22.756 1.98018 22.756 1.97976C22.756 1.97933 22.756 1.9789 22.756 1.97847C22.756 1.97805 22.756 1.97762 22.756 1.97719C22.756 1.97676 22.756 1.97634 22.756 1.97591C22.756 1.97549 22.756 1.97506 22.756 1.97463C22.756 1.97421 22.756 1.97378 22.756 1.97336C22.756 1.97293 22.756 1.97251 22.756 1.97209C22.756 1.97166 22.756 1.97124 22.756 1.97082C22.756 1.97039 22.756 1.96997 22.756 1.96955C22.756 1.96913 22.756 1.9687 22.756 1.96828C22.756 1.96786 22.756 1.96744 22.756 1.96702C22.756 1.9666 22.756 1.96618 22.756 1.96576C22.756 1.96534 22.756 1.96492 22.756 1.9645C22.756 1.96408 22.756 1.96366 22.756 1.96324C22.756 1.96282 22.756 1.9624 22.756 1.96199C22.756 1.96157 22.756 1.96115 22.756 1.96073C22.756 1.96032 22.756 1.9599 22.756 1.95949C22.756 1.95907 22.756 1.95865 22.756 1.95824C22.756 1.95782 22.756 1.95741 22.756 1.95699C22.756 1.95658 22.756 1.95617 22.756 1.95575C22.756 1.95534 22.756 1.95493 22.756 1.95451C22.756 1.9541 22.756 1.95369 22.756 1.95328C22.756 1.95287 22.756 1.95245 22.756 1.95204C22.756 1.95163 22.756 1.95122 22.756 1.95081C22.756 1.9504 22.756 1.94999 22.756 1.94958C22.756 1.94917 22.756 1.94877 22.756 1.94836C22.756 1.94795 22.756 1.94754 22.756 1.94713C22.756 1.94673 22.756 1.94632 22.756 1.94591C22.756 1.94551 22.756 1.9451 22.756 1.9447C22.756 1.94429 22.756 1.94389 22.756 1.94348C22.756 1.94308 22.756 1.94267 22.756 1.94227C22.756 1.94187 22.756 1.94146 22.756 1.94106C22.756 1.94066 22.756 1.94026 22.756 1.93986C22.756 1.93946 22.756 1.93905 22.756 1.93865C22.756 1.93825 22.756 1.93785 22.756 1.93745C22.756 1.93705 22.756 1.93666 22.756 1.93626C22.756 1.93586 22.756 1.93546 22.756 1.93506C22.756 1.93467 22.756 1.93427 22.756 1.93387C22.756 1.93348 22.756 1.93308 22.756 1.93268C22.756 1.93229 22.756 1.93189 22.756 1.9315C22.756 1.93111 22.756 1.93071 22.756 1.93032C22.756 1.92993 22.756 1.92953 22.756 1.92914C22.756 1.92875 22.756 1.92836 22.756 1.92797C22.756 1.92757 22.756 1.92718 22.756 1.92679C22.756 1.9264 22.756 1.92601 22.756 1.92563C22.756 1.92524 22.756 1.92485 22.756 1.92446C22.756 1.92407 22.756 1.92369 22.756 1.9233C22.756 1.92291 22.756 1.92253 22.756 1.92214C22.756 1.92175 22.756 1.92137 22.756 1.92099C22.756 1.9206 22.756 1.92022 22.756 1.91983C22.756 1.91945 22.756 1.91907 22.756 1.91869C22.756 1.9183 22.756 1.91792 22.756 1.91754C22.756 1.91716 22.756 1.91678 22.756 1.9164C22.756 1.91602 22.756 1.91564 22.756 1.91526C22.756 1.91488 22.756 1.91451 22.756 1.91413C22.756 1.91375 22.756 1.91337 22.756 1.913C22.756 1.91262 22.756 1.91225 22.756 1.91187C22.756 1.9115 22.756 1.91112 22.756 1.91075C22.756 1.91037 22.756 1.91 22.756 1.90963C22.756 1.90926 22.756 1.90888 22.756 1.90851C22.756 1.90814 22.756 1.90777 22.756 1.9074C22.756 1.90703 22.756 1.90666 22.756 1.90629C22.756 1.90592 22.756 1.90555 22.756 1.90519C22.756 1.90482 22.756 1.90445 22.756 1.90409C22.756 1.90372 22.756 1.90335 22.756 1.90299C22.756 1.90262 22.756 1.90226 22.756 1.9019C22.756 1.90153 22.756 1.90117 22.756 1.90081C22.756 1.90044 22.756 1.90008 22.756 1.89972C22.756 1.89936 22.756 1.899 22.756 1.89864C22.756 1.89828 22.756 1.89792 22.756 1.89756C22.756 1.8972 22.756 1.89685 22.756 1.89649C22.756 1.89613 22.756 1.89578 22.756 1.89542C22.756 1.89506 22.756 1.89471 22.756 1.89435C22.756 1.894 22.756 1.89365 22.756 1.89329C22.756 1.89294 22.756 1.89259 22.756 1.89224C22.756 1.89188 22.756 1.89153 22.756 1.89118C22.756 1.89083 22.756 1.89048 22.756 1.89014C22.756 1.88979 22.756 1.88944 22.756 1.88909C22.756 1.88874 22.756 1.8884 22.756 1.88805C22.756 1.8877 22.756 1.88736 22.756 1.88701C22.756 1.88667 22.756 1.88633 22.756 1.88598C22.756 1.88564 22.756 1.8853 22.756 1.88496C22.756 1.88461 22.756 1.88427 22.756 1.88393C22.756 1.88359 22.756 1.88325 22.756 1.88291C22.756 1.88258 22.756 1.88224 22.756 1.8819C22.756 1.88156 22.756 1.88123 22.756 1.88089C22.756 1.88055 22.756 1.88022 22.756 1.87988C22.756 1.87955 22.756 1.87922 22.756 1.87888C22.756 1.87855 22.756 1.87822 22.756 1.87789C22.756 1.87756 22.756 1.87723 22.756 1.8769C22.756 1.87657 22.756 1.87624 22.756 1.87591C22.756 1.87558 22.756 1.87525 22.756 1.87493C22.756 1.8746 22.756 1.87427 22.756 1.87395C22.756 1.87362 22.756 1.8733 22.756 1.87298C22.756 1.87265 22.756 1.87233 22.756 1.87201C22.756 1.87169 22.756 1.87136 22.756 1.87104C22.756 1.87072 22.756 1.8704 22.756 1.87008C22.756 1.86977 22.756 1.86945 22.756 1.86913C22.756 1.86881 22.756 1.8685 22.756 1.86818C22.756 1.86786 22.756 1.86755 22.756 1.86724C22.756 1.86692 22.756 1.86661 22.756 1.8663C22.756 1.86598 22.756 1.86567 22.756 1.86536C22.756 1.86505 22.756 1.86474 22.756 1.86443C22.756 1.86412 22.756 1.86381 22.756 1.86351C22.756 1.8632 22.756 1.86289 22.756 1.86259C22.756 1.86228 22.756 1.86198 22.756 1.86167C22.756 1.86137 22.756 1.86106 22.756 1.86076C22.756 1.86046 22.756 1.86016 22.756 1.85986C22.756 1.85956 22.756 1.85926 22.756 1.85896C22.756 1.85866 22.756 1.85836 22.756 1.85806C22.756 1.85776 22.756 1.85747 22.756 1.85717C22.756 1.85688 22.756 1.85658 22.756 1.85629C22.756 1.85599 22.756 1.8557 22.756 1.85541C22.756 1.85512 22.756 1.85483 22.756 1.85454C22.756 1.85424 22.756 1.85396 22.756 1.85367C22.756 1.85338 22.756 1.85309 22.756 1.8528C22.756 1.85252 22.756 1.85223 22.756 1.85195C22.756 1.85166 22.756 1.85138 22.756 1.85109C22.756 1.85081 22.756 1.85053 22.756 1.85025C22.756 1.84996 22.756 1.84968 22.756 1.8494C22.756 1.84912 22.756 1.84885 22.756 1.84857C22.756 1.84829 22.756 1.84801 22.756 1.84774C22.756 1.84746 22.756 1.84718 22.756 1.84691C22.756 1.84664 22.756 1.84636 22.756 1.84609C22.756 1.84582 22.756 1.84555 22.756 1.84528C22.756 1.84501 22.756 1.84474 22.756 1.84447C22.756 1.8442 22.756 1.84393 22.756 1.84366C22.756 1.8434 22.756 1.84313 22.756 1.84287C22.756 1.8426 22.756 1.84234 22.756 1.84207C22.756 1.84181 22.756 1.84155 22.756 1.84129C22.756 1.84103 22.756 1.84077 22.756 1.84051C22.756 1.84025 22.756 1.83999 22.756 1.83973C22.756 1.83948 22.756 1.83922 22.756 1.83896C22.756 1.83871 22.756 1.83845 22.756 1.8382C22.756 1.83795 22.756 1.83769 22.756 1.83744C22.756 1.83719 22.756 1.83694 22.756 1.83669C22.756 1.83644 22.756 1.83619 22.756 1.83595C22.756 1.8357 22.756 1.83545 22.756 1.83521C22.756 1.83496 22.756 1.83472 22.756 1.83447C22.756 1.83423 22.756 1.83399 22.756 1.83375C22.756 1.8335 22.756 1.83326 22.756 1.83302C22.756 1.83278 22.756 1.83255 22.756 1.83231C22.756 1.83207 22.756 1.83183 22.756 1.8316C22.756 1.83136 22.756 1.83113 22.756 1.83089C22.756 1.83066 22.756 1.83043 22.756 1.8302C22.756 1.82997 22.756 1.82973 22.756 1.82951C22.756 1.82928 22.756 1.82905 22.756 1.82882C22.756 1.82859 22.756 1.82837 22.756 1.82814C22.756 1.82792 22.756 1.82769 22.756 1.82747C22.756 1.82724 22.756 1.82702 22.756 1.8268C22.756 1.82658 22.756 1.82636 22.756 1.82614C22.756 1.82592 22.756 1.8257 22.756 1.82549C22.756 1.82527 22.756 1.82505 22.756 1.82484C22.756 1.82463 22.756 1.82441 22.756 1.8242C22.756 1.82399 22.756 1.82377 22.756 1.82356C22.756 1.82335 22.756 1.82314 22.756 1.82294C22.756 1.82273 22.756 1.82252 22.756 1.82231C22.756 1.82211 22.756 1.8219 22.756 1.8217C22.756 1.82149 22.756 1.82129 22.756 1.82109C22.756 1.82089 22.756 1.82069 22.756 1.82049C22.756 1.82029 22.756 1.82009 22.756 1.81989C22.756 1.81969 22.756 1.8195 22.756 1.8193C22.756 1.81911 22.756 1.81891 22.756 1.81872C22.756 1.81853 22.756 1.81833 22.756 1.81814C22.756 1.81795 22.756 1.81776 22.756 1.81757C22.756 1.81739 22.756 1.8172 22.756 1.81701C22.756 1.81683 22.756 1.81664 22.756 1.81646C22.756 1.81627 22.756 1.81609 22.756 1.81591C22.756 1.81573 22.756 1.81555 22.756 1.81537C22.756 1.81519 22.756 1.81501 22.756 1.81483C22.756 1.81465 22.756 1.81448 22.756 1.8143C22.756 1.81413 22.756 1.81395 22.756 1.81378C22.756 1.81361 22.756 1.81344 22.756 1.81327C22.756 1.81309 22.756 1.81293 22.756 1.81276C22.756 1.81259 22.756 1.81242 22.756 1.81226C22.756 1.81209 22.756 1.81193 22.756 1.81176C22.756 1.8116 22.756 1.81144 22.756 1.81128C22.756 1.81112 22.756 1.81096 22.756 1.8108C22.756 1.81064 22.756 1.81048 22.756 1.81032C22.756 1.81017 22.756 1.81001 22.756 1.80986C22.756 1.8097 22.756 1.80955 22.756 1.8094C22.756 1.80925 22.756 1.8091 22.756 1.80895C22.756 1.8088 22.756 1.80865 22.756 1.8085C22.756 1.80836 22.756 1.80821 22.756 1.80807C22.756 1.80792 22.756 1.80778 22.756 1.80764C22.756 1.8075 22.756 1.80736 22.756 1.80722C22.756 1.80708 22.756 1.80694 22.756 1.8068C22.756 1.80666 22.756 1.80653 22.756 1.80639C22.756 1.80626 22.756 1.80613 22.756 1.80599C22.756 1.80586 22.756 1.80573 22.756 1.8056C22.756 1.80547 22.756 1.80534 22.756 1.80522C22.756 1.80509 22.756 1.80496 22.756 1.80484C22.756 1.80471 22.756 1.80459 22.756 1.80447C22.756 1.80434 22.756 1.80422 22.756 1.8041C22.756 1.80398 22.756 1.80387 22.756 1.80375C22.756 1.80363 22.756 1.80352 22.756 1.8034C22.756 1.80329 22.756 1.80317 22.756 1.80306C22.756 1.80295 22.756 1.80284 22.756 1.80273C22.756 1.80262 22.756 1.80251 22.756 1.8024C22.756 1.8023 22.756 1.80219 22.756 1.80209C22.756 1.80198 22.756 1.80188 22.756 1.80178C22.756 1.80167 22.756 1.80157 22.756 1.80147C22.756 1.80137 22.756 1.80128 22.756 1.80118C22.756 1.80108 22.756 1.80099 22.756 1.80089C22.756 1.8008 22.756 1.80071 22.756 1.80062C22.756 1.80052 22.756 1.80043 22.756 1.80034C22.756 1.80026 22.756 1.80017 22.756 1.80008C22.756 1.8 22.756 1.79991 22.756 1.79983C22.756 1.79974 22.756 1.79966 22.756 1.79958C22.756 1.7995 22.756 1.79942 22.756 1.79934C22.756 1.79926 22.756 1.79919 22.756 1.79911C22.756 1.79903 22.756 1.79896 22.756 1.79889C22.756 1.79881 22.756 1.79874 22.756 1.79867C22.756 1.7986 22.756 1.79853 22.756 1.79847C22.756 1.7984 22.756 1.79833 22.756 1.79827C22.756 1.7982 22.756 1.79814 22.756 1.79808C22.756 1.79801 22.756 1.79795 22.756 1.79789C22.756 1.79783 22.756 1.79778 22.756 1.79772C22.756 1.79766 22.756 1.79761 22.756 1.79755C22.756 1.7975 22.756 1.79745 22.756 1.7974C22.756 1.79734 22.756 1.79729 22.756 1.79725C22.756 1.7972 22.756 1.79715 22.756 1.79711C22.756 1.79706 22.756 1.79702 22.756 1.79697C22.756 1.79693 22.756 1.79689 22.756 1.79685C22.756 1.79681 22.756 1.79677 22.756 1.79673C22.756 1.79669 22.756 1.79666 22.756 1.79662C22.756 1.79659 22.756 1.79656 22.756 1.79653C22.756 1.79649 22.756 1.79646 22.756 1.79643C22.756 1.79641 22.756 1.79638 22.756 1.79635C22.756 1.79633 22.756 1.7963 22.756 1.79628C22.756 1.79626 22.756 1.79623 22.756 1.79621C22.756 1.79619 22.756 1.79617 22.756 1.79616C22.756 1.79614 22.756 1.79612 22.756 1.79611C22.756 1.79609 22.756 1.79608 22.756 1.79607C22.756 1.79606 22.756 1.79605 22.756 1.79604C22.756 1.79603 22.756 1.79602 22.756 1.79602C22.756 1.79601 22.756 1.79601 22.756 1.796C22.756 1.796 22.756 1.796 22.656 1.796ZM22.556 2.31067C22.514 5.4673 22.469 7.54951 22.3777 8.91885C22.3321 9.60364 22.275 10.1067 22.2019 10.4752C22.1283 10.8456 22.0403 11.0694 21.9398 11.2043L22.1002 11.3237C22.2277 11.1526 22.3227 10.8934 22.398 10.5142C22.4737 10.133 22.5314 9.61986 22.5773 8.93215C22.669 7.55649 22.714 5.4687 22.756 2.31333L22.556 2.31067ZM21.936 11.2097C21.8111 11.4028 21.6816 11.5248 21.5371 11.6037C21.3917 11.6831 21.2239 11.723 21.0157 11.7403L21.0323 11.9397C21.2561 11.921 21.4543 11.8769 21.6329 11.7793C21.8124 11.6812 21.9649 11.5332 22.104 11.3183L21.936 11.2097ZM21.0138 11.7405C20.5547 11.7876 19.7825 11.7642 19.0852 11.7281L19.0748 11.9279C19.7695 11.9638 20.5573 11.9884 21.0342 11.9395L21.0138 11.7405ZM19.1799 11.8232C19.167 11.5526 19.0409 11.1623 18.8619 10.9067L18.6981 11.0213C18.8551 11.2457 18.969 11.5994 18.9801 11.8328L19.1799 11.8232ZM18.7729 11.0637C19.6167 11.124 20.3757 11.124 20.688 11.124V10.924C20.3763 10.924 19.6233 10.924 18.7871 10.8643L18.7729 11.0637ZM20.688 11.124C20.8058 11.124 20.9098 11.115 21.0043 11.0804C21.1016 11.0449 21.1813 10.9853 21.2563 10.8966L21.1037 10.7674C21.0467 10.8347 20.9944 10.8711 20.9357 10.8926C20.8742 10.915 20.7982 10.924 20.688 10.924V11.124ZM21.2546 10.8986C21.3168 10.8288 21.3669 10.7295 21.4096 10.6056C21.4526 10.4805 21.4902 10.3235 21.5237 10.1325C21.5907 9.75048 21.6428 9.22285 21.6848 8.5235C21.769 7.12429 21.814 5.02493 21.856 2.00139L21.656 1.99861C21.614 5.02307 21.569 7.11771 21.4852 8.5115C21.4432 9.20865 21.3918 9.72727 21.3268 10.0979C21.2943 10.2832 21.2588 10.4291 21.2204 10.5406C21.1817 10.6532 21.1422 10.7242 21.1054 10.7654L21.2546 10.8986ZM21.856 2V1.796H21.656V2H21.856ZM13.2652 9.48763C14.9949 8.95911 17.8403 8.01064 20.4684 7.11061L20.4036 6.92139C17.7757 7.82136 14.9331 8.76889 13.2068 9.29636L13.2652 9.48763ZM20.3377 7.03426L20.4937 7.87426L20.6903 7.83774L20.5343 6.99774L20.3377 7.03426ZM20.5586 7.76174C18.0871 8.63756 15.3636 9.5734 13.5155 10.2094L13.5805 10.3986C15.4284 9.7626 18.1529 8.82644 20.6254 7.95026L20.5586 7.76174ZM13.6426 10.2716L13.3306 9.35963L13.1414 9.42437L13.4534 10.3364L13.6426 10.2716Z" fill="black"/>
</svg>
