<svg width="24" height="12" viewBox="0 0 24 12" fill="none" xmlns="http://www.w3.org/2000/svg">
<path d="M5.52 0.931999H6.444V2.528H5.52V0.931999ZM1.044 2H11.016V4.388H10.104V2.828H1.92V4.388H1.044V2ZM2.58 4.028H9.336V4.82H2.58V4.028ZM4.152 5.828L4.824 5.408C7.488 7.376 7.548 10.724 6.312 11.588C5.904 11.912 5.568 11.996 5.028 11.996C4.74 11.996 4.356 11.984 3.984 11.96C3.96 11.72 3.876 11.348 3.72 11.096C4.164 11.144 4.572 11.156 4.848 11.156C5.172 11.156 5.436 11.132 5.676 10.928C6.528 10.316 6.48 7.604 4.152 5.828ZM5.952 4.208L6.696 4.532C5.46 5.732 3.324 6.656 1.452 7.196C1.356 7.028 1.116 6.656 0.96 6.488C2.796 6.044 4.86 5.228 5.952 4.208ZM5.1 6.5L5.7 6.908C4.704 7.724 2.904 8.66 1.524 9.152C1.416 8.948 1.224 8.636 1.044 8.456C2.4 8.084 4.212 7.232 5.1 6.5ZM5.988 7.736L6.612 8.192C5.364 9.452 3.024 10.772 1.104 11.408C0.996 11.18 0.792 10.856 0.624 10.652C2.532 10.148 4.86 8.9 5.988 7.736ZM7.092 4.34C7.752 7.04 9.192 9.332 11.472 10.244C11.268 10.424 10.992 10.772 10.848 11.024C8.484 9.944 7.068 7.508 6.348 4.496L7.092 4.34ZM10.176 5.228L10.872 5.828C10.056 6.488 8.928 7.232 8.076 7.688L7.512 7.136C8.328 6.656 9.492 5.84 10.176 5.228ZM14.652 3.74H16.908V4.496H14.652V3.74ZM15.444 6.368H17.424V7.076H15.444V6.368ZM18.216 6.224H23.4V7.016H18.216V6.224ZM18.456 8.996H23.148V9.776H18.456V8.996ZM20.316 4.232H21.156V9.416H20.316V4.232ZM16.68 3.74H16.8L16.932 3.704L17.508 3.908C16.956 4.928 16.116 6.344 15.408 7.448L14.688 7.208C15.396 6.128 16.248 4.64 16.68 3.848V3.74ZM22.356 3.44L22.992 4.052C21.852 4.496 20.064 4.784 18.564 4.94C18.528 4.76 18.432 4.46 18.324 4.28C19.752 4.1 21.444 3.812 22.356 3.44ZM15.396 7.796C16.14 10.484 17.82 10.988 20.292 10.988C20.712 10.988 23.076 10.988 23.628 10.976C23.496 11.18 23.364 11.552 23.316 11.792H20.256C17.388 11.792 15.624 11.156 14.724 8.036L15.396 7.796ZM17.136 6.368H17.304L17.46 6.344L17.952 6.5C17.508 9.44 16.332 11.144 14.676 12.008C14.556 11.828 14.268 11.516 14.1 11.384C15.684 10.616 16.764 9.092 17.136 6.512V6.368ZM17.88 0.931999H18.804V2.456H17.88V0.931999ZM13.788 2.036H23.388V2.852H13.788V2.036ZM13.344 2.036H14.22V5.588C14.22 7.448 14.076 10.172 13.128 12.008C12.972 11.852 12.588 11.588 12.372 11.504C13.272 9.776 13.344 7.34 13.344 5.588V2.036Z" fill="black"/>
<path d="M5.52 0.931999V0.831999H5.42V0.931999H5.52ZM6.444 0.931999H6.544V0.831999H6.444V0.931999ZM6.444 2.528V2.628H6.544V2.528H6.444ZM5.52 2.528H5.42V2.628H5.52V2.528ZM1.044 2V1.9H0.944V2H1.044ZM11.016 2H11.116V1.9H11.016V2ZM11.016 4.388V4.488H11.116V4.388H11.016ZM10.104 4.388H10.004V4.488H10.104V4.388ZM10.104 2.828H10.204V2.728H10.104V2.828ZM1.92 2.828V2.728H1.82V2.828H1.92ZM1.92 4.388V4.488H2.02V4.388H1.92ZM1.044 4.388H0.944V4.488H1.044V4.388ZM2.58 4.028V3.928H2.48V4.028H2.58ZM9.336 4.028H9.436V3.928H9.336V4.028ZM9.336 4.82V4.92H9.436V4.82H9.336ZM2.58 4.82H2.48V4.92H2.58V4.82ZM4.152 5.828L4.099 5.7432L3.97641 5.81982L4.09135 5.90751L4.152 5.828ZM4.824 5.408L4.88342 5.32757L4.8287 5.28714L4.771 5.3232L4.824 5.408ZM6.312 11.588L6.2546 11.5059L6.24981 11.5097L6.312 11.588ZM3.984 11.96L3.8845 11.97L3.89293 12.0543L3.97756 12.0598L3.984 11.96ZM3.72 11.096L3.73075 10.9966L3.52722 10.9746L3.63497 11.1486L3.72 11.096ZM5.676 10.928L5.61747 10.8465L5.61124 10.8518L5.676 10.928ZM5.952 4.208L5.99193 4.11632L5.93173 4.0901L5.88374 4.13492L5.952 4.208ZM6.696 4.532L6.76566 4.60375L6.87266 4.49986L6.73593 4.44032L6.696 4.532ZM1.452 7.196L1.36518 7.24561L1.40418 7.31387L1.47972 7.29208L1.452 7.196ZM0.96 6.488L0.936495 6.3908L0.770545 6.43093L0.886721 6.55605L0.96 6.488ZM5.1 6.5L5.15623 6.41731L5.09424 6.37515L5.03639 6.42284L5.1 6.5ZM5.7 6.908L5.76337 6.98535L5.86688 6.90055L5.75623 6.82531L5.7 6.908ZM1.524 9.152L1.43562 9.19879L1.4761 9.27524L1.55758 9.24619L1.524 9.152ZM1.044 8.456L1.01754 8.35956L0.851652 8.40507L0.973289 8.52671L1.044 8.456ZM5.988 7.736L6.047 7.65526L5.97674 7.60392L5.91619 7.66641L5.988 7.736ZM6.612 8.192L6.68305 8.26237L6.76482 8.17982L6.671 8.11126L6.612 8.192ZM1.104 11.408L1.01363 11.4508L1.05149 11.5307L1.13544 11.5029L1.104 11.408ZM0.624 10.652L0.598461 10.5553L0.447641 10.5952L0.546807 10.7156L0.624 10.652ZM7.092 4.34L7.18914 4.31625L7.16617 4.22227L7.07148 4.24213L7.092 4.34ZM11.472 10.244L11.5382 10.319L11.66 10.2115L11.5091 10.1512L11.472 10.244ZM10.848 11.024L10.8064 11.115L10.8895 11.1529L10.9348 11.0736L10.848 11.024ZM6.348 4.496L6.32748 4.39813L6.22683 4.41923L6.25074 4.51925L6.348 4.496ZM10.176 5.228L10.2413 5.15226L10.1748 5.09491L10.1093 5.15348L10.176 5.228ZM10.872 5.828L10.9349 5.90575L11.028 5.83045L10.9373 5.75226L10.872 5.828ZM8.076 7.688L8.00605 7.75947L8.05849 7.81079L8.12319 7.77617L8.076 7.688ZM7.512 7.136L7.4613 7.04981L7.34866 7.11606L7.44205 7.20747L7.512 7.136ZM5.52 1.032H6.444V0.831999H5.52V1.032ZM6.344 0.931999V2.528H6.544V0.931999H6.344ZM6.444 2.428H5.52V2.628H6.444V2.428ZM5.62 2.528V0.931999H5.42V2.528H5.62ZM1.044 2.1H11.016V1.9H1.044V2.1ZM10.916 2V4.388H11.116V2H10.916ZM11.016 4.288H10.104V4.488H11.016V4.288ZM10.204 4.388V2.828H10.004V4.388H10.204ZM10.104 2.728H1.92V2.928H10.104V2.728ZM1.82 2.828V4.388H2.02V2.828H1.82ZM1.92 4.288H1.044V4.488H1.92V4.288ZM1.144 4.388V2H0.944V4.388H1.144ZM2.58 4.128H9.336V3.928H2.58V4.128ZM9.236 4.028V4.82H9.436V4.028H9.236ZM9.336 4.72H2.58V4.92H9.336V4.72ZM2.68 4.82V4.028H2.48V4.82H2.68ZM4.205 5.9128L4.877 5.4928L4.771 5.3232L4.099 5.7432L4.205 5.9128ZM4.76458 5.48843C6.07452 6.45614 6.74227 7.76148 6.93179 8.92804C7.02661 9.51161 7.00135 10.058 6.87906 10.5084C6.75649 10.9598 6.53873 11.3075 6.25471 11.506L6.36929 11.67C6.70327 11.4365 6.94151 11.0417 7.07207 10.5608C7.2029 10.079 7.22789 9.50339 7.12921 8.89596C6.93174 7.68052 6.23748 6.32786 4.88342 5.32757L4.76458 5.48843ZM6.24981 11.5097C6.05352 11.6656 5.87854 11.7607 5.69044 11.8178C5.50127 11.8753 5.2933 11.896 5.028 11.896V12.096C5.3027 12.096 5.53273 12.0747 5.74856 12.0092C5.96546 11.9433 6.16248 11.8344 6.37419 11.6663L6.24981 11.5097ZM5.028 11.896C4.74233 11.896 4.36048 11.8841 3.99044 11.8602L3.97756 12.0598C4.35152 12.0839 4.73767 12.096 5.028 12.096V11.896ZM4.0835 11.95C4.05879 11.7029 3.97239 11.3137 3.80503 11.0434L3.63497 11.1486C3.77961 11.3823 3.86121 11.7371 3.8845 11.97L4.0835 11.95ZM3.70925 11.1954C4.15769 11.2439 4.56941 11.256 4.848 11.256V11.056C4.57459 11.056 4.17031 11.0441 3.73075 10.9966L3.70925 11.1954ZM4.848 11.256C5.17492 11.256 5.47146 11.2331 5.74077 11.0042L5.61124 10.8518C5.40054 11.0309 5.16908 11.056 4.848 11.056V11.256ZM5.73434 11.0092C5.97512 10.8363 6.14069 10.5249 6.22246 10.1437C6.30472 9.76014 6.30504 9.29424 6.20454 8.79477C6.00335 7.79498 5.39637 6.65153 4.21265 5.74849L4.09135 5.90751C5.23563 6.78047 5.81665 7.88102 6.00847 8.83423C6.10446 9.31126 6.10253 9.74911 6.02691 10.1017C5.95081 10.4566 5.80288 10.7137 5.61766 10.8468L5.73434 11.0092ZM5.91207 4.29968L6.65607 4.62368L6.73593 4.44032L5.99193 4.11632L5.91207 4.29968ZM6.62634 4.46025C5.40827 5.64285 3.29159 6.56127 1.42428 7.09992L1.47972 7.29208C3.35641 6.75073 5.51173 5.82115 6.76566 4.60375L6.62634 4.46025ZM1.53882 7.14639C1.44199 6.97692 1.19739 6.59669 1.03328 6.41995L0.886721 6.55605C1.03461 6.71531 1.27001 7.07908 1.36518 7.24561L1.53882 7.14639ZM0.983506 6.5852C2.82377 6.14017 4.90879 5.31927 6.02026 4.28108L5.88374 4.13492C4.81121 5.13673 2.76823 5.94783 0.936495 6.3908L0.983506 6.5852ZM5.04377 6.58269L5.64377 6.99069L5.75623 6.82531L5.15623 6.41731L5.04377 6.58269ZM5.63663 6.83065C4.65198 7.63734 2.86307 8.56843 1.49042 9.05781L1.55758 9.24619C2.94493 8.75157 4.75602 7.81066 5.76337 6.98535L5.63663 6.83065ZM1.61238 9.10521C1.50324 8.89905 1.30561 8.57619 1.11471 8.38529L0.973289 8.52671C1.14239 8.69581 1.32876 8.99695 1.43562 9.19879L1.61238 9.10521ZM1.07046 8.55244C2.4355 8.17796 4.26158 7.32072 5.16361 6.57716L5.03639 6.42284C4.16242 7.14328 2.3645 7.99004 1.01754 8.35956L1.07046 8.55244ZM5.929 7.81674L6.553 8.27274L6.671 8.11126L6.047 7.65526L5.929 7.81674ZM6.54095 8.12163C5.30683 9.36762 2.98189 10.6806 1.07256 11.3131L1.13544 11.5029C3.06611 10.8634 5.42117 9.53638 6.68305 8.26237L6.54095 8.12163ZM1.19437 11.3652C1.08291 11.1299 0.874516 10.7989 0.701193 10.5884L0.546807 10.7156C0.709484 10.9131 0.909087 11.2301 1.01363 11.4508L1.19437 11.3652ZM0.649539 10.7487C2.57039 10.2413 4.91611 8.9858 6.05981 7.80559L5.91619 7.66641C4.80389 8.8142 2.49361 10.0547 0.598461 10.5553L0.649539 10.7487ZM6.99486 4.36375C7.65873 7.07959 9.1126 9.40794 11.4349 10.3368L11.5091 10.1512C9.2714 9.25606 7.84527 7.00041 7.18914 4.31625L6.99486 4.36375ZM11.4058 10.169C11.1926 10.3572 10.9099 10.7141 10.7612 10.9744L10.9348 11.0736C11.0741 10.8299 11.3434 10.4908 11.5382 10.319L11.4058 10.169ZM10.8896 10.933C8.56618 9.8716 7.16211 7.47158 6.44526 4.47275L6.25074 4.51925C6.97389 7.54442 8.40182 10.0164 10.8064 11.115L10.8896 10.933ZM6.36852 4.59387L7.11252 4.43787L7.07148 4.24213L6.32748 4.39813L6.36852 4.59387ZM10.1107 5.30374L10.8067 5.90374L10.9373 5.75226L10.2413 5.15226L10.1107 5.30374ZM10.8091 5.75025C9.99799 6.4063 8.87525 7.14681 8.02881 7.59983L8.12319 7.77617C8.98075 7.31719 10.114 6.5697 10.9349 5.90575L10.8091 5.75025ZM8.14595 7.61653L7.58195 7.06453L7.44205 7.20747L8.00605 7.75947L8.14595 7.61653ZM7.5627 7.22219C8.38289 6.73973 9.5526 5.91997 10.2427 5.30252L10.1093 5.15348C9.4314 5.76003 8.27311 6.57227 7.4613 7.04981L7.5627 7.22219ZM14.652 3.74V3.64H14.552V3.74H14.652ZM16.908 3.74H17.008V3.64H16.908V3.74ZM16.908 4.496V4.596H17.008V4.496H16.908ZM14.652 4.496H14.552V4.596H14.652V4.496ZM15.444 6.368V6.268H15.344V6.368H15.444ZM17.424 6.368H17.524V6.268H17.424V6.368ZM17.424 7.076V7.176H17.524V7.076H17.424ZM15.444 7.076H15.344V7.176H15.444V7.076ZM18.216 6.224V6.124H18.116V6.224H18.216ZM23.4 6.224H23.5V6.124H23.4V6.224ZM23.4 7.016V7.116H23.5V7.016H23.4ZM18.216 7.016H18.116V7.116H18.216V7.016ZM18.456 8.996V8.896H18.356V8.996H18.456ZM23.148 8.996H23.248V8.896H23.148V8.996ZM23.148 9.776V9.876H23.248V9.776H23.148ZM18.456 9.776H18.356V9.876H18.456V9.776ZM20.316 4.232V4.132H20.216V4.232H20.316ZM21.156 4.232H21.256V4.132H21.156V4.232ZM21.156 9.416V9.516H21.256V9.416H21.156ZM20.316 9.416H20.216V9.516H20.316V9.416ZM16.68 3.74V3.64H16.58V3.74H16.68ZM16.8 3.74V3.84H16.8134L16.8263 3.83648L16.8 3.74ZM16.932 3.704L16.9654 3.60974L16.9359 3.59929L16.9057 3.60752L16.932 3.704ZM17.508 3.908L17.5959 3.95559L17.6516 3.85277L17.5414 3.81374L17.508 3.908ZM15.408 7.448L15.3764 7.54287L15.4502 7.56747L15.4922 7.50198L15.408 7.448ZM14.688 7.208L14.6044 7.15317L14.5332 7.2618L14.6564 7.30287L14.688 7.208ZM16.68 3.848L16.7678 3.89588L16.78 3.8735V3.848H16.68ZM22.356 3.44L22.4253 3.36794L22.3785 3.32284L22.3182 3.34741L22.356 3.44ZM22.992 4.052L23.0283 4.14518L23.1741 4.08841L23.0613 3.97994L22.992 4.052ZM18.564 4.94L18.4659 4.95961L18.4838 5.04888L18.5743 5.03946L18.564 4.94ZM18.324 4.28L18.3115 4.18079L18.1594 4.19996L18.2383 4.33145L18.324 4.28ZM15.396 7.796L15.4924 7.76932L15.4637 7.66564L15.3624 7.70183L15.396 7.796ZM23.628 10.976L23.712 11.0303L23.8145 10.8719L23.6258 10.876L23.628 10.976ZM23.316 11.792V11.892H23.398L23.4141 11.8116L23.316 11.792ZM14.724 8.036L14.6904 7.94183L14.6019 7.97343L14.6279 8.06372L14.724 8.036ZM17.136 6.368V6.268H17.036V6.368H17.136ZM17.304 6.368V6.468H17.3116L17.3192 6.46684L17.304 6.368ZM17.46 6.344L17.4902 6.24868L17.4679 6.2416L17.4448 6.24516L17.46 6.344ZM17.952 6.5L18.0509 6.51493L18.0636 6.43049L17.9822 6.40468L17.952 6.5ZM14.676 12.008L14.5928 12.0635L14.6426 12.1382L14.7223 12.0967L14.676 12.008ZM14.1 11.384L14.0564 11.294L13.9124 11.3638L14.0382 11.4626L14.1 11.384ZM17.136 6.512L17.235 6.52627L17.236 6.51917V6.512H17.136ZM17.88 0.931999V0.831999H17.78V0.931999H17.88ZM18.804 0.931999H18.904V0.831999H18.804V0.931999ZM18.804 2.456V2.556H18.904V2.456H18.804ZM17.88 2.456H17.78V2.556H17.88V2.456ZM13.788 2.036V1.936H13.688V2.036H13.788ZM23.388 2.036H23.488V1.936H23.388V2.036ZM23.388 2.852V2.952H23.488V2.852H23.388ZM13.788 2.852H13.688V2.952H13.788V2.852ZM13.344 2.036V1.936H13.244V2.036H13.344ZM14.22 2.036H14.32V1.936H14.22V2.036ZM13.128 12.008L13.0573 12.0787L13.1541 12.1755L13.2169 12.0539L13.128 12.008ZM12.372 11.504L12.2833 11.4578L12.2318 11.5568L12.3358 11.5972L12.372 11.504ZM14.652 3.84H16.908V3.64H14.652V3.84ZM16.808 3.74V4.496H17.008V3.74H16.808ZM16.908 4.396H14.652V4.596H16.908V4.396ZM14.752 4.496V3.74H14.552V4.496H14.752ZM15.444 6.468H17.424V6.268H15.444V6.468ZM17.324 6.368V7.076H17.524V6.368H17.324ZM17.424 6.976H15.444V7.176H17.424V6.976ZM15.544 7.076V6.368H15.344V7.076H15.544ZM18.216 6.324H23.4V6.124H18.216V6.324ZM23.3 6.224V7.016H23.5V6.224H23.3ZM23.4 6.916H18.216V7.116H23.4V6.916ZM18.316 7.016V6.224H18.116V7.016H18.316ZM18.456 9.096H23.148V8.896H18.456V9.096ZM23.048 8.996V9.776H23.248V8.996H23.048ZM23.148 9.676H18.456V9.876H23.148V9.676ZM18.556 9.776V8.996H18.356V9.776H18.556ZM20.316 4.332H21.156V4.132H20.316V4.332ZM21.056 4.232V9.416H21.256V4.232H21.056ZM21.156 9.316H20.316V9.516H21.156V9.316ZM20.416 9.416V4.232H20.216V9.416H20.416ZM16.68 3.84H16.8V3.64H16.68V3.84ZM16.8263 3.83648L16.9583 3.80048L16.9057 3.60752L16.7737 3.64352L16.8263 3.83648ZM16.8986 3.79826L17.4746 4.00226L17.5414 3.81374L16.9654 3.60974L16.8986 3.79826ZM17.4201 3.8604C16.8694 4.87797 16.0307 6.29183 15.3238 7.39402L15.4922 7.50198C16.2013 6.39616 17.0426 4.97803 17.5959 3.95559L17.4201 3.8604ZM15.4396 7.35313L14.7196 7.11313L14.6564 7.30287L15.3764 7.54287L15.4396 7.35313ZM14.7716 7.26283C15.4817 6.17965 16.3352 4.68904 16.7678 3.89588L16.5922 3.80011C16.1608 4.59096 15.3103 6.07635 14.6044 7.15317L14.7716 7.26283ZM16.78 3.848V3.74H16.58V3.848H16.78ZM22.2867 3.51206L22.9227 4.12406L23.0613 3.97994L22.4253 3.36794L22.2867 3.51206ZM22.9557 3.95882C21.8292 4.39757 20.0528 4.68463 18.5537 4.84054L18.5743 5.03946C20.0752 4.88337 21.8748 4.59443 23.0283 4.14518L22.9557 3.95882ZM18.6621 4.92039C18.6247 4.73382 18.5257 4.42177 18.4097 4.22855L18.2383 4.33145C18.3383 4.49823 18.4313 4.78618 18.4659 4.95961L18.6621 4.92039ZM18.3365 4.37921C19.763 4.1994 21.4678 3.9103 22.3938 3.53259L22.3182 3.34741C21.4202 3.7137 19.741 4.0006 18.3115 4.18079L18.3365 4.37921ZM15.2996 7.82268C15.6767 9.18516 16.296 10.0089 17.147 10.4872C17.9925 10.9624 19.0524 11.088 20.292 11.088V10.888C19.0596 10.888 18.0435 10.7616 17.245 10.3128C16.452 9.86713 15.8593 9.09484 15.4924 7.76932L15.2996 7.82268ZM20.292 11.088C20.7111 11.088 23.0768 11.088 23.6302 11.076L23.6258 10.876C23.0752 10.888 20.7129 10.888 20.292 10.888V11.088ZM23.544 10.9217C23.4033 11.1392 23.2676 11.5241 23.2179 11.7724L23.4141 11.8116C23.4604 11.5799 23.5887 11.2208 23.712 11.0303L23.544 10.9217ZM23.316 11.692H20.256V11.892H23.316V11.692ZM20.256 11.692C18.8263 11.692 17.6913 11.5327 16.8036 10.9983C15.9201 10.4665 15.2657 9.55303 14.8201 8.00828L14.6279 8.06372C15.0823 9.63897 15.7599 10.6035 16.7004 11.1697C17.6367 11.7333 18.8177 11.892 20.256 11.892V11.692ZM14.7576 8.13017L15.4296 7.89017L15.3624 7.70183L14.6904 7.94183L14.7576 8.13017ZM17.136 6.468H17.304V6.268H17.136V6.468ZM17.3192 6.46684L17.4752 6.44284L17.4448 6.24516L17.2888 6.26916L17.3192 6.46684ZM17.4298 6.43932L17.9218 6.59532L17.9822 6.40468L17.4902 6.24868L17.4298 6.43932ZM17.8531 6.48507C17.4123 9.40403 16.2492 11.0744 14.6297 11.9193L14.7223 12.0967C16.4148 11.2136 17.6037 9.47597 18.0509 6.51493L17.8531 6.48507ZM14.7592 11.9525C14.6334 11.7638 14.3382 11.444 14.1618 11.3054L14.0382 11.4626C14.1978 11.588 14.4786 11.8922 14.5928 12.0635L14.7592 11.9525ZM14.1436 11.474C15.7651 10.6878 16.8596 9.12976 17.235 6.52627L17.037 6.49773C16.6684 9.05424 15.6029 10.5442 14.0564 11.294L14.1436 11.474ZM17.236 6.512V6.368H17.036V6.512H17.236ZM17.88 1.032H18.804V0.831999H17.88V1.032ZM18.704 0.931999V2.456H18.904V0.931999H18.704ZM18.804 2.356H17.88V2.556H18.804V2.356ZM17.98 2.456V0.931999H17.78V2.456H17.98ZM13.788 2.136H23.388V1.936H13.788V2.136ZM23.288 2.036V2.852H23.488V2.036H23.288ZM23.388 2.752H13.788V2.952H23.388V2.752ZM13.888 2.852V2.036H13.688V2.852H13.888ZM13.344 2.136H14.22V1.936H13.344V2.136ZM14.12 2.036V5.588H14.32V2.036H14.12ZM14.12 5.588C14.12 7.44932 13.9747 10.1502 13.0391 11.9621L13.2169 12.0539C14.1773 10.1938 14.32 7.44668 14.32 5.588H14.12ZM13.1987 11.9373C13.1141 11.8527 12.9731 11.7435 12.8284 11.6461C12.6841 11.5488 12.5267 11.4569 12.4082 11.4108L12.3358 11.5972C12.4333 11.6351 12.5759 11.7172 12.7166 11.8119C12.8569 11.9065 12.9859 12.0073 13.0573 12.0787L13.1987 11.9373ZM12.4607 11.5502C13.3737 9.7972 13.444 7.33648 13.444 5.588H13.244C13.244 7.34352 13.1703 9.7548 12.2833 11.4578L12.4607 11.5502ZM13.444 5.588V2.036H13.244V5.588H13.444Z" fill="black"/>
</svg>
