<svg width="24" height="13" viewBox="0 0 24 13" fill="none" xmlns="http://www.w3.org/2000/svg">
<path d="M2.04 5.42H5.028V6.26H2.04V5.42ZM4.668 5.42H5.544C5.544 5.42 5.544 5.684 5.544 5.804C5.484 8.516 5.412 9.524 5.16 9.86C4.968 10.076 4.776 10.16 4.44 10.196C4.128 10.232 3.588 10.22 3 10.196C2.976 9.932 2.88 9.584 2.748 9.356C3.288 9.404 3.816 9.404 4.02 9.404C4.188 9.404 4.308 9.392 4.392 9.284C4.572 9.068 4.632 8.168 4.668 5.576V5.42ZM8.052 1.532L8.592 0.968C9.336 1.352 10.284 1.928 10.752 2.348L10.188 2.96C9.732 2.54 8.808 1.928 8.052 1.532ZM9.768 4.784L10.668 5C9.648 8.132 7.86 10.448 5.4 11.9C5.268 11.72 4.932 11.348 4.74 11.168C7.176 9.872 8.868 7.676 9.768 4.784ZM2.112 2.96H11.4V3.848H2.112V2.96ZM1.536 2.96H2.472V6.344C2.472 8.048 2.28 10.472 1.188 12.044C1.032 11.864 0.648 11.552 0.432 11.444C1.428 9.968 1.536 7.904 1.536 6.332V2.96ZM6.516 0.943999H7.452C7.428 6.464 8.604 10.964 10.164 10.964C10.5 10.964 10.656 10.34 10.728 8.744C10.932 8.948 11.268 9.152 11.508 9.236C11.34 11.288 11.004 11.876 10.092 11.876C7.644 11.876 6.564 6.692 6.516 0.943999ZM14.856 11.888C14.796 11.672 14.616 11.288 14.484 11.096C14.688 11 14.976 10.82 14.976 10.352V0.991999H15.912V11.084C15.912 11.084 14.856 11.564 14.856 11.888ZM14.856 11.888L14.784 11.072L15.264 10.712L18.804 9.836C18.804 10.1 18.84 10.484 18.888 10.676C15.588 11.564 15.144 11.708 14.856 11.888ZM12.66 5.624H23.328V6.524H12.66V5.624ZM18.528 6.032C19.368 8.336 21.108 10.064 23.604 10.772C23.376 10.964 23.1 11.348 22.968 11.612C20.376 10.76 18.648 8.876 17.7 6.248L18.528 6.032ZM21.228 1.184L22.128 1.568C20.94 2.96 19.116 4.208 17.484 5C17.328 4.808 16.968 4.436 16.74 4.268C18.42 3.584 20.172 2.432 21.228 1.184Z" fill="black"/>
<path d="M2.04 5.42V5.32H1.94V5.42H2.04ZM5.028 5.42H5.128V5.32H5.028V5.42ZM5.028 6.26V6.36H5.128V6.26H5.028ZM2.04 6.26H1.94V6.36H2.04V6.26ZM4.668 5.42V5.32H4.568V5.42H4.668ZM5.544 5.42H5.644V5.32H5.544V5.42ZM5.544 5.804L5.644 5.80621V5.804H5.544ZM5.16 9.86L5.235 9.92667L5.24 9.92L5.16 9.86ZM4.44 10.196L4.42935 10.0966L4.42854 10.0967L4.44 10.196ZM3 10.196L2.90041 10.2051L2.90835 10.2923L2.99592 10.2959L3 10.196ZM2.748 9.356L2.75685 9.25639L2.5649 9.23933L2.66146 9.4061L2.748 9.356ZM4.392 9.284L4.31513 9.21994L4.31307 9.22261L4.392 9.284ZM4.668 5.576L4.768 5.57739V5.576H4.668ZM8.052 1.532L7.97977 1.46284L7.88781 1.55889L8.0056 1.62058L8.052 1.532ZM8.592 0.968L8.63786 0.879138L8.57145 0.844861L8.51977 0.898843L8.592 0.968ZM10.752 2.348L10.8255 2.41577L10.8942 2.34125L10.8188 2.27358L10.752 2.348ZM10.188 2.96L10.1203 3.03355L10.1938 3.10128L10.2615 3.02777L10.188 2.96ZM9.768 4.784L9.79134 4.68676L9.70033 4.66492L9.67252 4.75429L9.768 4.784ZM10.668 5L10.7631 5.03097L10.7966 4.92803L10.6913 4.90276L10.668 5ZM5.4 11.9L5.31936 11.9591L5.37288 12.0321L5.45083 11.9861L5.4 11.9ZM4.74 11.168L4.69303 11.0797L4.56964 11.1454L4.67161 11.241L4.74 11.168ZM2.112 2.96V2.86H2.012V2.96H2.112ZM11.4 2.96H11.5V2.86H11.4V2.96ZM11.4 3.848V3.948H11.5V3.848H11.4ZM2.112 3.848H2.012V3.948H2.112V3.848ZM1.536 2.96V2.86H1.436V2.96H1.536ZM2.472 2.96H2.572V2.86H2.472V2.96ZM1.188 12.044L1.11243 12.1095L1.19671 12.2067L1.27013 12.1011L1.188 12.044ZM0.432 11.444L0.349107 11.3881L0.285385 11.4825L0.387279 11.5334L0.432 11.444ZM6.516 0.943999V0.843999H6.41516L6.416 0.944834L6.516 0.943999ZM7.452 0.943999L7.552 0.944434L7.55244 0.843999H7.452V0.943999ZM10.728 8.744L10.7987 8.67329L10.6383 8.5129L10.6281 8.73949L10.728 8.744ZM11.508 9.236L11.6077 9.24416L11.614 9.16714L11.541 9.14161L11.508 9.236ZM2.04 5.52H5.028V5.32H2.04V5.52ZM4.928 5.42V6.26H5.128V5.42H4.928ZM5.028 6.16H2.04V6.36H5.028V6.16ZM2.14 6.26V5.42H1.94V6.26H2.14ZM4.668 5.52H5.544V5.32H4.668V5.52ZM5.544 5.42C5.444 5.42 5.444 5.42 5.444 5.42C5.444 5.42 5.444 5.42001 5.444 5.42001C5.444 5.42002 5.444 5.42002 5.444 5.42003C5.444 5.42003 5.444 5.42004 5.444 5.42005C5.444 5.42006 5.444 5.42006 5.444 5.42007C5.444 5.42008 5.444 5.4201 5.444 5.42011C5.444 5.42012 5.444 5.42013 5.444 5.42015C5.444 5.42016 5.444 5.42018 5.444 5.42019C5.444 5.42021 5.444 5.42022 5.444 5.42024C5.444 5.42026 5.444 5.42028 5.444 5.4203C5.444 5.42032 5.444 5.42034 5.444 5.42036C5.444 5.42038 5.444 5.42041 5.444 5.42043C5.444 5.42045 5.444 5.42048 5.444 5.4205C5.444 5.42053 5.444 5.42056 5.444 5.42058C5.444 5.42061 5.444 5.42064 5.444 5.42067C5.444 5.4207 5.444 5.42073 5.444 5.42076C5.444 5.42079 5.444 5.42082 5.444 5.42086C5.444 5.42089 5.444 5.42093 5.444 5.42096C5.444 5.421 5.444 5.42103 5.444 5.42107C5.444 5.42111 5.444 5.42114 5.444 5.42118C5.444 5.42122 5.444 5.42126 5.444 5.4213C5.444 5.42134 5.444 5.42139 5.444 5.42143C5.444 5.42147 5.444 5.42152 5.444 5.42156C5.444 5.42161 5.444 5.42165 5.444 5.4217C5.444 5.42174 5.444 5.42179 5.444 5.42184C5.444 5.42189 5.444 5.42194 5.444 5.42199C5.444 5.42204 5.444 5.42209 5.444 5.42214C5.444 5.42219 5.444 5.42225 5.444 5.4223C5.444 5.42236 5.444 5.42241 5.444 5.42247C5.444 5.42252 5.444 5.42258 5.444 5.42264C5.444 5.42269 5.444 5.42275 5.444 5.42281C5.444 5.42287 5.444 5.42293 5.444 5.42299C5.444 5.42306 5.444 5.42312 5.444 5.42318C5.444 5.42324 5.444 5.42331 5.444 5.42337C5.444 5.42344 5.444 5.4235 5.444 5.42357C5.444 5.42364 5.444 5.4237 5.444 5.42377C5.444 5.42384 5.444 5.42391 5.444 5.42398C5.444 5.42405 5.444 5.42412 5.444 5.4242C5.444 5.42427 5.444 5.42434 5.444 5.42441C5.444 5.42449 5.444 5.42456 5.444 5.42464C5.444 5.42471 5.444 5.42479 5.444 5.42487C5.444 5.42495 5.444 5.42502 5.444 5.4251C5.444 5.42518 5.444 5.42526 5.444 5.42534C5.444 5.42543 5.444 5.42551 5.444 5.42559C5.444 5.42567 5.444 5.42576 5.444 5.42584C5.444 5.42593 5.444 5.42601 5.444 5.4261C5.444 5.42618 5.444 5.42627 5.444 5.42636C5.444 5.42645 5.444 5.42653 5.444 5.42662C5.444 5.42671 5.444 5.4268 5.444 5.4269C5.444 5.42699 5.444 5.42708 5.444 5.42717C5.444 5.42727 5.444 5.42736 5.444 5.42745C5.444 5.42755 5.444 5.42765 5.444 5.42774C5.444 5.42784 5.444 5.42794 5.444 5.42803C5.444 5.42813 5.444 5.42823 5.444 5.42833C5.444 5.42843 5.444 5.42853 5.444 5.42863C5.444 5.42873 5.444 5.42884 5.444 5.42894C5.444 5.42904 5.444 5.42915 5.444 5.42925C5.444 5.42936 5.444 5.42946 5.444 5.42957C5.444 5.42968 5.444 5.42978 5.444 5.42989C5.444 5.43 5.444 5.43011 5.444 5.43022C5.444 5.43033 5.444 5.43044 5.444 5.43055C5.444 5.43066 5.444 5.43078 5.444 5.43089C5.444 5.431 5.444 5.43112 5.444 5.43123C5.444 5.43135 5.444 5.43146 5.444 5.43158C5.444 5.43169 5.444 5.43181 5.444 5.43193C5.444 5.43205 5.444 5.43217 5.444 5.43229C5.444 5.43241 5.444 5.43253 5.444 5.43265C5.444 5.43277 5.444 5.43289 5.444 5.43301C5.444 5.43314 5.444 5.43326 5.444 5.43338C5.444 5.43351 5.444 5.43363 5.444 5.43376C5.444 5.43389 5.444 5.43401 5.444 5.43414C5.444 5.43427 5.444 5.4344 5.444 5.43453C5.444 5.43466 5.444 5.43479 5.444 5.43492C5.444 5.43505 5.444 5.43518 5.444 5.43531C5.444 5.43544 5.444 5.43558 5.444 5.43571C5.444 5.43585 5.444 5.43598 5.444 5.43612C5.444 5.43625 5.444 5.43639 5.444 5.43652C5.444 5.43666 5.444 5.4368 5.444 5.43694C5.444 5.43708 5.444 5.43722 5.444 5.43736C5.444 5.4375 5.444 5.43764 5.444 5.43778C5.444 5.43792 5.444 5.43806 5.444 5.43821C5.444 5.43835 5.444 5.43849 5.444 5.43864C5.444 5.43878 5.444 5.43893 5.444 5.43907C5.444 5.43922 5.444 5.43937 5.444 5.43952C5.444 5.43966 5.444 5.43981 5.444 5.43996C5.444 5.44011 5.444 5.44026 5.444 5.44041C5.444 5.44056 5.444 5.44071 5.444 5.44087C5.444 5.44102 5.444 5.44117 5.444 5.44132C5.444 5.44148 5.444 5.44163 5.444 5.44179C5.444 5.44194 5.444 5.4421 5.444 5.44226C5.444 5.44241 5.444 5.44257 5.444 5.44273C5.444 5.44289 5.444 5.44304 5.444 5.4432C5.444 5.44336 5.444 5.44352 5.444 5.44369C5.444 5.44385 5.444 5.44401 5.444 5.44417C5.444 5.44433 5.444 5.4445 5.444 5.44466C5.444 5.44482 5.444 5.44499 5.444 5.44515C5.444 5.44532 5.444 5.44549 5.444 5.44565C5.444 5.44582 5.444 5.44599 5.444 5.44615C5.444 5.44632 5.444 5.44649 5.444 5.44666C5.444 5.44683 5.444 5.447 5.444 5.44717C5.444 5.44734 5.444 5.44752 5.444 5.44769C5.444 5.44786 5.444 5.44803 5.444 5.44821C5.444 5.44838 5.444 5.44855 5.444 5.44873C5.444 5.44891 5.444 5.44908 5.444 5.44926C5.444 5.44943 5.444 5.44961 5.444 5.44979C5.444 5.44997 5.444 5.45015 5.444 5.45033C5.444 5.45051 5.444 5.45069 5.444 5.45087C5.444 5.45105 5.444 5.45123 5.444 5.45141C5.444 5.45159 5.444 5.45178 5.444 5.45196C5.444 5.45214 5.444 5.45233 5.444 5.45251C5.444 5.4527 5.444 5.45288 5.444 5.45307C5.444 5.45325 5.444 5.45344 5.444 5.45363C5.444 5.45381 5.444 5.454 5.444 5.45419C5.444 5.45438 5.444 5.45457 5.444 5.45476C5.444 5.45495 5.444 5.45514 5.444 5.45533C5.444 5.45552 5.444 5.45572 5.444 5.45591C5.444 5.4561 5.444 5.45629 5.444 5.45649C5.444 5.45668 5.444 5.45688 5.444 5.45707C5.444 5.45727 5.444 5.45746 5.444 5.45766C5.444 5.45786 5.444 5.45805 5.444 5.45825C5.444 5.45845 5.444 5.45865 5.444 5.45885C5.444 5.45905 5.444 5.45925 5.444 5.45945C5.444 5.45965 5.444 5.45985 5.444 5.46005C5.444 5.46025 5.444 5.46046 5.444 5.46066C5.444 5.46086 5.444 5.46106 5.444 5.46127C5.444 5.46147 5.444 5.46168 5.444 5.46188C5.444 5.46209 5.444 5.4623 5.444 5.4625C5.444 5.46271 5.444 5.46292 5.444 5.46312C5.444 5.46333 5.444 5.46354 5.444 5.46375C5.444 5.46396 5.444 5.46417 5.444 5.46438C5.444 5.46459 5.444 5.4648 5.444 5.46501C5.444 5.46523 5.444 5.46544 5.444 5.46565C5.444 5.46586 5.444 5.46608 5.444 5.46629C5.444 5.46651 5.444 5.46672 5.444 5.46693C5.444 5.46715 5.444 5.46737 5.444 5.46758C5.444 5.4678 5.444 5.46802 5.444 5.46823C5.444 5.46845 5.444 5.46867 5.444 5.46889C5.444 5.46911 5.444 5.46933 5.444 5.46955C5.444 5.46977 5.444 5.46999 5.444 5.47021C5.444 5.47043 5.444 5.47065 5.444 5.47087C5.444 5.4711 5.444 5.47132 5.444 5.47154C5.444 5.47177 5.444 5.47199 5.444 5.47222C5.444 5.47244 5.444 5.47267 5.444 5.47289C5.444 5.47312 5.444 5.47334 5.444 5.47357C5.444 5.4738 5.444 5.47403 5.444 5.47425C5.444 5.47448 5.444 5.47471 5.444 5.47494C5.444 5.47517 5.444 5.4754 5.444 5.47563C5.444 5.47586 5.444 5.47609 5.444 5.47632C5.444 5.47655 5.444 5.47679 5.444 5.47702C5.444 5.47725 5.444 5.47748 5.444 5.47772C5.444 5.47795 5.444 5.47819 5.444 5.47842C5.444 5.47866 5.444 5.47889 5.444 5.47913C5.444 5.47936 5.444 5.4796 5.444 5.47984C5.444 5.48007 5.444 5.48031 5.444 5.48055C5.444 5.48079 5.444 5.48103 5.444 5.48127C5.444 5.4815 5.444 5.48174 5.444 5.48198C5.444 5.48222 5.444 5.48247 5.444 5.48271C5.444 5.48295 5.444 5.48319 5.444 5.48343C5.444 5.48367 5.444 5.48392 5.444 5.48416C5.444 5.4844 5.444 5.48465 5.444 5.48489C5.444 5.48514 5.444 5.48538 5.444 5.48563C5.444 5.48587 5.444 5.48612 5.444 5.48637C5.444 5.48661 5.444 5.48686 5.444 5.48711C5.444 5.48735 5.444 5.4876 5.444 5.48785C5.444 5.4881 5.444 5.48835 5.444 5.4886C5.444 5.48885 5.444 5.4891 5.444 5.48935C5.444 5.4896 5.444 5.48985 5.444 5.4901C5.444 5.49035 5.444 5.4906 5.444 5.49086C5.444 5.49111 5.444 5.49136 5.444 5.49162C5.444 5.49187 5.444 5.49212 5.444 5.49238C5.444 5.49263 5.444 5.49289 5.444 5.49314C5.444 5.4934 5.444 5.49366 5.444 5.49391C5.444 5.49417 5.444 5.49443 5.444 5.49468C5.444 5.49494 5.444 5.4952 5.444 5.49546C5.444 5.49572 5.444 5.49597 5.444 5.49623C5.444 5.49649 5.444 5.49675 5.444 5.49701C5.444 5.49727 5.444 5.49753 5.444 5.4978C5.444 5.49806 5.444 5.49832 5.444 5.49858C5.444 5.49884 5.444 5.49911 5.444 5.49937C5.444 5.49963 5.444 5.4999 5.444 5.50016C5.444 5.50042 5.444 5.50069 5.444 5.50095C5.444 5.50122 5.444 5.50148 5.444 5.50175C5.444 5.50202 5.444 5.50228 5.444 5.50255C5.444 5.50282 5.444 5.50308 5.444 5.50335C5.444 5.50362 5.444 5.50389 5.444 5.50415C5.444 5.50442 5.444 5.50469 5.444 5.50496C5.444 5.50523 5.444 5.5055 5.444 5.50577C5.444 5.50604 5.444 5.50631 5.444 5.50658C5.444 5.50686 5.444 5.50713 5.444 5.5074C5.444 5.50767 5.444 5.50794 5.444 5.50822C5.444 5.50849 5.444 5.50876 5.444 5.50904C5.444 5.50931 5.444 5.50958 5.444 5.50986C5.444 5.51013 5.444 5.51041 5.444 5.51068C5.444 5.51096 5.444 5.51124 5.444 5.51151C5.444 5.51179 5.444 5.51206 5.444 5.51234C5.444 5.51262 5.444 5.5129 5.444 5.51318C5.444 5.51345 5.444 5.51373 5.444 5.51401C5.444 5.51429 5.444 5.51457 5.444 5.51485C5.444 5.51513 5.444 5.51541 5.444 5.51569C5.444 5.51597 5.444 5.51625 5.444 5.51653C5.444 5.51681 5.444 5.51709 5.444 5.51738C5.444 5.51766 5.444 5.51794 5.444 5.51822C5.444 5.51851 5.444 5.51879 5.444 5.51907C5.444 5.51936 5.444 5.51964 5.444 5.51992C5.444 5.52021 5.444 5.52049 5.444 5.52078C5.444 5.52106 5.444 5.52135 5.444 5.52164C5.444 5.52192 5.444 5.52221 5.444 5.52249C5.444 5.52278 5.444 5.52307 5.444 5.52336C5.444 5.52364 5.444 5.52393 5.444 5.52422C5.444 5.52451 5.444 5.5248 5.444 5.52508C5.444 5.52537 5.444 5.52566 5.444 5.52595C5.444 5.52624 5.444 5.52653 5.444 5.52682C5.444 5.52711 5.444 5.5274 5.444 5.52769C5.444 5.52799 5.444 5.52828 5.444 5.52857C5.444 5.52886 5.444 5.52915 5.444 5.52945C5.444 5.52974 5.444 5.53003 5.444 5.53032C5.444 5.53062 5.444 5.53091 5.444 5.5312C5.444 5.5315 5.444 5.53179 5.444 5.53209C5.444 5.53238 5.444 5.53268 5.444 5.53297C5.444 5.53327 5.444 5.53356 5.444 5.53386C5.444 5.53416 5.444 5.53445 5.444 5.53475C5.444 5.53505 5.444 5.53534 5.444 5.53564C5.444 5.53594 5.444 5.53623 5.444 5.53653C5.444 5.53683 5.444 5.53713 5.444 5.53743C5.444 5.53773 5.444 5.53802 5.444 5.53832C5.444 5.53862 5.444 5.53892 5.444 5.53922C5.444 5.53952 5.444 5.53982 5.444 5.54012C5.444 5.54042 5.444 5.54073 5.444 5.54103C5.444 5.54133 5.444 5.54163 5.444 5.54193C5.444 5.54223 5.444 5.54254 5.444 5.54284C5.444 5.54314 5.444 5.54344 5.444 5.54375C5.444 5.54405 5.444 5.54435 5.444 5.54466C5.444 5.54496 5.444 5.54526 5.444 5.54557C5.444 5.54587 5.444 5.54618 5.444 5.54648C5.444 5.54679 5.444 5.54709 5.444 5.5474C5.444 5.5477 5.444 5.54801 5.444 5.54831C5.444 5.54862 5.444 5.54893 5.444 5.54923C5.444 5.54954 5.444 5.54985 5.444 5.55015C5.444 5.55046 5.444 5.55077 5.444 5.55108C5.444 5.55138 5.444 5.55169 5.444 5.552C5.444 5.55231 5.444 5.55262 5.444 5.55293C5.444 5.55324 5.444 5.55354 5.444 5.55385C5.444 5.55416 5.444 5.55447 5.444 5.55478C5.444 5.55509 5.444 5.5554 5.444 5.55571C5.444 5.55602 5.444 5.55633 5.444 5.55665C5.444 5.55696 5.444 5.55727 5.444 5.55758C5.444 5.55789 5.444 5.5582 5.444 5.55851C5.444 5.55883 5.444 5.55914 5.444 5.55945C5.444 5.55976 5.444 5.56008 5.444 5.56039C5.444 5.5607 5.444 5.56102 5.444 5.56133C5.444 5.56164 5.444 5.56196 5.444 5.56227C5.444 5.56259 5.444 5.5629 5.444 5.56321C5.444 5.56353 5.444 5.56384 5.444 5.56416C5.444 5.56447 5.444 5.56479 5.444 5.5651C5.444 5.56542 5.444 5.56574 5.444 5.56605C5.444 5.56637 5.444 5.56668 5.444 5.567C5.444 5.56732 5.444 5.56763 5.444 5.56795C5.444 5.56827 5.444 5.56858 5.444 5.5689C5.444 5.56922 5.444 5.56954 5.444 5.56985C5.444 5.57017 5.444 5.57049 5.444 5.57081C5.444 5.57113 5.444 5.57144 5.444 5.57176C5.444 5.57208 5.444 5.5724 5.444 5.57272C5.444 5.57304 5.444 5.57336 5.444 5.57368C5.444 5.574 5.444 5.57432 5.444 5.57464C5.444 5.57496 5.444 5.57528 5.444 5.5756C5.444 5.57592 5.444 5.57624 5.444 5.57656C5.444 5.57688 5.444 5.5772 5.444 5.57752C5.444 5.57784 5.444 5.57816 5.444 5.57848C5.444 5.57881 5.444 5.57913 5.444 5.57945C5.444 5.57977 5.444 5.58009 5.444 5.58041C5.444 5.58074 5.444 5.58106 5.444 5.58138C5.444 5.5817 5.444 5.58203 5.444 5.58235C5.444 5.58267 5.444 5.583 5.444 5.58332C5.444 5.58364 5.444 5.58397 5.444 5.58429C5.444 5.58461 5.444 5.58494 5.444 5.58526C5.444 5.58559 5.444 5.58591 5.444 5.58623C5.444 5.58656 5.444 5.58688 5.444 5.58721C5.444 5.58753 5.444 5.58786 5.444 5.58818C5.444 5.58851 5.444 5.58883 5.444 5.58916C5.444 5.58948 5.444 5.58981 5.444 5.59013C5.444 5.59046 5.444 5.59079 5.444 5.59111C5.444 5.59144 5.444 5.59176 5.444 5.59209C5.444 5.59242 5.444 5.59274 5.444 5.59307C5.444 5.5934 5.444 5.59372 5.444 5.59405C5.444 5.59438 5.444 5.5947 5.444 5.59503C5.444 5.59536 5.444 5.59568 5.444 5.59601C5.444 5.59634 5.444 5.59667 5.444 5.59699C5.444 5.59732 5.444 5.59765 5.444 5.59798C5.444 5.59831 5.444 5.59863 5.444 5.59896C5.444 5.59929 5.444 5.59962 5.444 5.59995C5.444 5.60028 5.444 5.6006 5.444 5.60093C5.444 5.60126 5.444 5.60159 5.444 5.60192C5.444 5.60225 5.444 5.60258 5.444 5.60291C5.444 5.60324 5.444 5.60357 5.444 5.60389C5.444 5.60422 5.444 5.60455 5.444 5.60488C5.444 5.60521 5.444 5.60554 5.444 5.60587C5.444 5.6062 5.444 5.60653 5.444 5.60686C5.444 5.60719 5.444 5.60752 5.444 5.60785C5.444 5.60818 5.444 5.60851 5.444 5.60884C5.444 5.60917 5.444 5.60951 5.444 5.60984C5.444 5.61017 5.444 5.6105 5.444 5.61083C5.444 5.61116 5.444 5.61149 5.444 5.61182C5.444 5.61215 5.444 5.61248 5.444 5.61281C5.444 5.61315 5.444 5.61348 5.444 5.61381C5.444 5.61414 5.444 5.61447 5.444 5.6148C5.444 5.61513 5.444 5.61547 5.444 5.6158C5.444 5.61613 5.444 5.61646 5.444 5.61679C5.444 5.61712 5.444 5.61746 5.444 5.61779C5.444 5.61812 5.444 5.61845 5.444 5.61878C5.444 5.61912 5.444 5.61945 5.444 5.61978C5.444 5.62011 5.444 5.62045 5.444 5.62078C5.444 5.62111 5.444 5.62144 5.444 5.62178C5.444 5.62211 5.444 5.62244 5.444 5.62277C5.444 5.62311 5.444 5.62344 5.444 5.62377C5.444 5.6241 5.444 5.62444 5.444 5.62477C5.444 5.6251 5.444 5.62544 5.444 5.62577C5.444 5.6261 5.444 5.62643 5.444 5.62677C5.444 5.6271 5.444 5.62743 5.444 5.62777C5.444 5.6281 5.444 5.62843 5.444 5.62877C5.444 5.6291 5.444 5.62943 5.444 5.62977C5.444 5.6301 5.444 5.63043 5.444 5.63076C5.444 5.6311 5.444 5.63143 5.444 5.63177C5.444 5.6321 5.444 5.63243 5.444 5.63277C5.444 5.6331 5.444 5.63343 5.444 5.63377C5.444 5.6341 5.444 5.63443 5.444 5.63477C5.444 5.6351 5.444 5.63543 5.444 5.63577C5.444 5.6361 5.444 5.63643 5.444 5.63677C5.444 5.6371 5.444 5.63743 5.444 5.63777C5.444 5.6381 5.444 5.63844 5.444 5.63877C5.444 5.6391 5.444 5.63944 5.444 5.63977C5.444 5.6401 5.444 5.64044 5.444 5.64077C5.444 5.6411 5.444 5.64144 5.444 5.64177C5.444 5.64211 5.444 5.64244 5.444 5.64277C5.444 5.64311 5.444 5.64344 5.444 5.64377C5.444 5.64411 5.444 5.64444 5.444 5.64477C5.444 5.64511 5.444 5.64544 5.444 5.64578C5.444 5.64611 5.444 5.64644 5.444 5.64678C5.444 5.64711 5.444 5.64744 5.444 5.64778C5.444 5.64811 5.444 5.64844 5.444 5.64878C5.444 5.64911 5.444 5.64944 5.444 5.64978C5.444 5.65011 5.444 5.65044 5.444 5.65078C5.444 5.65111 5.444 5.65144 5.444 5.65178C5.444 5.65211 5.444 5.65244 5.444 5.65278C5.444 5.65311 5.444 5.65344 5.444 5.65378C5.444 5.65411 5.444 5.65444 5.444 5.65478C5.444 5.65511 5.444 5.65544 5.444 5.65578C5.444 5.65611 5.444 5.65644 5.444 5.65677C5.444 5.65711 5.444 5.65744 5.444 5.65777C5.444 5.65811 5.444 5.65844 5.444 5.65877C5.444 5.6591 5.444 5.65944 5.444 5.65977C5.444 5.6601 5.444 5.66043 5.444 5.66077C5.444 5.6611 5.444 5.66143 5.444 5.66176C5.444 5.6621 5.444 5.66243 5.444 5.66276C5.444 5.66309 5.444 5.66342 5.444 5.66376C5.444 5.66409 5.444 5.66442 5.444 5.66475C5.444 5.66508 5.444 5.66542 5.444 5.66575C5.444 5.66608 5.444 5.66641 5.444 5.66674C5.444 5.66708 5.444 5.66741 5.444 5.66774C5.444 5.66807 5.444 5.6684 5.444 5.66873C5.444 5.66906 5.444 5.66939 5.444 5.66973C5.444 5.67006 5.444 5.67039 5.444 5.67072C5.444 5.67105 5.444 5.67138 5.444 5.67171C5.444 5.67204 5.444 5.67237 5.444 5.6727C5.444 5.67303 5.444 5.67336 5.444 5.6737C5.444 5.67403 5.444 5.67436 5.444 5.67469C5.444 5.67502 5.444 5.67535 5.444 5.67568C5.444 5.67601 5.444 5.67634 5.444 5.67667C5.444 5.677 5.444 5.67733 5.444 5.67765C5.444 5.67798 5.444 5.67831 5.444 5.67864C5.444 5.67897 5.444 5.6793 5.444 5.67963C5.444 5.67996 5.444 5.68029 5.444 5.68062C5.444 5.68095 5.444 5.68127 5.444 5.6816C5.444 5.68193 5.444 5.68226 5.444 5.68259C5.444 5.68292 5.444 5.68325 5.444 5.68357C5.444 5.6839 5.444 5.68423 5.444 5.68456C5.444 5.68489 5.444 5.68521 5.444 5.68554C5.444 5.68587 5.444 5.6862 5.444 5.68652C5.444 5.68685 5.444 5.68718 5.444 5.6875C5.444 5.68783 5.444 5.68816 5.444 5.68849C5.444 5.68881 5.444 5.68914 5.444 5.68947C5.444 5.68979 5.444 5.69012 5.444 5.69044C5.444 5.69077 5.444 5.6911 5.444 5.69142C5.444 5.69175 5.444 5.69207 5.444 5.6924C5.444 5.69272 5.444 5.69305 5.444 5.69337C5.444 5.6937 5.444 5.69403 5.444 5.69435C5.444 5.69467 5.444 5.695 5.444 5.69532C5.444 5.69565 5.444 5.69597 5.444 5.6963C5.444 5.69662 5.444 5.69695 5.444 5.69727C5.444 5.69759 5.444 5.69792 5.444 5.69824C5.444 5.69856 5.444 5.69889 5.444 5.69921C5.444 5.69953 5.444 5.69986 5.444 5.70018C5.444 5.7005 5.444 5.70082 5.444 5.70115C5.444 5.70147 5.444 5.70179 5.444 5.70211C5.444 5.70244 5.444 5.70276 5.444 5.70308C5.444 5.7034 5.444 5.70372 5.444 5.70404C5.444 5.70437 5.444 5.70469 5.444 5.70501C5.444 5.70533 5.444 5.70565 5.444 5.70597C5.444 5.70629 5.444 5.70661 5.444 5.70693C5.444 5.70725 5.444 5.70757 5.444 5.70789C5.444 5.70821 5.444 5.70853 5.444 5.70885C5.444 5.70917 5.444 5.70949 5.444 5.70981C5.444 5.71012 5.444 5.71044 5.444 5.71076C5.444 5.71108 5.444 5.7114 5.444 5.71172C5.444 5.71203 5.444 5.71235 5.444 5.71267C5.444 5.71299 5.444 5.7133 5.444 5.71362C5.444 5.71394 5.444 5.71426 5.444 5.71457C5.444 5.71489 5.444 5.71521 5.444 5.71552C5.444 5.71584 5.444 5.71615 5.444 5.71647C5.444 5.71679 5.444 5.7171 5.444 5.71742C5.444 5.71773 5.444 5.71805 5.444 5.71836C5.444 5.71868 5.444 5.71899 5.444 5.71931C5.444 5.71962 5.444 5.71993 5.444 5.72025C5.444 5.72056 5.444 5.72087 5.444 5.72119C5.444 5.7215 5.444 5.72181 5.444 5.72213C5.444 5.72244 5.444 5.72275 5.444 5.72307C5.444 5.72338 5.444 5.72369 5.444 5.724C5.444 5.72431 5.444 5.72463 5.444 5.72494C5.444 5.72525 5.444 5.72556 5.444 5.72587C5.444 5.72618 5.444 5.72649 5.444 5.7268C5.444 5.72711 5.444 5.72742 5.444 5.72773C5.444 5.72804 5.444 5.72835 5.444 5.72866C5.444 5.72897 5.444 5.72928 5.444 5.72959C5.444 5.72989 5.444 5.7302 5.444 5.73051C5.444 5.73082 5.444 5.73113 5.444 5.73143C5.444 5.73174 5.444 5.73205 5.444 5.73236C5.444 5.73266 5.444 5.73297 5.444 5.73328C5.444 5.73358 5.444 5.73389 5.444 5.73419C5.444 5.7345 5.444 5.73481 5.444 5.73511C5.444 5.73542 5.444 5.73572 5.444 5.73603C5.444 5.73633 5.444 5.73663 5.444 5.73694C5.444 5.73724 5.444 5.73755 5.444 5.73785C5.444 5.73815 5.444 5.73846 5.444 5.73876C5.444 5.73906 5.444 5.73936 5.444 5.73967C5.444 5.73997 5.444 5.74027 5.444 5.74057C5.444 5.74087 5.444 5.74118 5.444 5.74148C5.444 5.74178 5.444 5.74208 5.444 5.74238C5.444 5.74268 5.444 5.74298 5.444 5.74328C5.444 5.74358 5.444 5.74388 5.444 5.74418C5.444 5.74447 5.444 5.74477 5.444 5.74507C5.444 5.74537 5.444 5.74567 5.444 5.74597C5.444 5.74626 5.444 5.74656 5.444 5.74686C5.444 5.74716 5.444 5.74745 5.444 5.74775C5.444 5.74804 5.444 5.74834 5.444 5.74864C5.444 5.74893 5.444 5.74923 5.444 5.74952C5.444 5.74982 5.444 5.75011 5.444 5.75041C5.444 5.7507 5.444 5.751 5.444 5.75129C5.444 5.75158 5.444 5.75188 5.444 5.75217C5.444 5.75246 5.444 5.75275 5.444 5.75305C5.444 5.75334 5.444 5.75363 5.444 5.75392C5.444 5.75421 5.444 5.7545 5.444 5.7548C5.444 5.75509 5.444 5.75538 5.444 5.75567C5.444 5.75596 5.444 5.75625 5.444 5.75654C5.444 5.75683 5.444 5.75711 5.444 5.7574C5.444 5.75769 5.444 5.75798 5.444 5.75827C5.444 5.75856 5.444 5.75884 5.444 5.75913C5.444 5.75942 5.444 5.7597 5.444 5.75999C5.444 5.76028 5.444 5.76056 5.444 5.76085C5.444 5.76113 5.444 5.76142 5.444 5.7617C5.444 5.76199 5.444 5.76227 5.444 5.76256C5.444 5.76284 5.444 5.76313 5.444 5.76341C5.444 5.76369 5.444 5.76397 5.444 5.76426C5.444 5.76454 5.444 5.76482 5.444 5.7651C5.444 5.76539 5.444 5.76567 5.444 5.76595C5.444 5.76623 5.444 5.76651 5.444 5.76679C5.444 5.76707 5.444 5.76735 5.444 5.76763C5.444 5.76791 5.444 5.76819 5.444 5.76846C5.444 5.76874 5.444 5.76902 5.444 5.7693C5.444 5.76958 5.444 5.76985 5.444 5.77013C5.444 5.77041 5.444 5.77068 5.444 5.77096C5.444 5.77124 5.444 5.77151 5.444 5.77179C5.444 5.77206 5.444 5.77234 5.444 5.77261C5.444 5.77289 5.444 5.77316 5.444 5.77343C5.444 5.77371 5.444 5.77398 5.444 5.77425C5.444 5.77452 5.444 5.7748 5.444 5.77507C5.444 5.77534 5.444 5.77561 5.444 5.77588C5.444 5.77615 5.444 5.77642 5.444 5.77669C5.444 5.77696 5.444 5.77723 5.444 5.7775C5.444 5.77777 5.444 5.77804 5.444 5.77831C5.444 5.77858 5.444 5.77884 5.444 5.77911C5.444 5.77938 5.444 5.77965 5.444 5.77991C5.444 5.78018 5.444 5.78044 5.444 5.78071C5.444 5.78098 5.444 5.78124 5.444 5.7815C5.444 5.78177 5.444 5.78203 5.444 5.7823C5.444 5.78256 5.444 5.78282 5.444 5.78309C5.444 5.78335 5.444 5.78361 5.444 5.78387C5.444 5.78414 5.444 5.7844 5.444 5.78466C5.444 5.78492 5.444 5.78518 5.444 5.78544C5.444 5.7857 5.444 5.78596 5.444 5.78622C5.444 5.78648 5.444 5.78674 5.444 5.78699C5.444 5.78725 5.444 5.78751 5.444 5.78777C5.444 5.78802 5.444 5.78828 5.444 5.78854C5.444 5.78879 5.444 5.78905 5.444 5.7893C5.444 5.78956 5.444 5.78981 5.444 5.79007C5.444 5.79032 5.444 5.79057 5.444 5.79083C5.444 5.79108 5.444 5.79133 5.444 5.79159C5.444 5.79184 5.444 5.79209 5.444 5.79234C5.444 5.79259 5.444 5.79284 5.444 5.79309C5.444 5.79334 5.444 5.79359 5.444 5.79384C5.444 5.79409 5.444 5.79434 5.444 5.79459C5.444 5.79484 5.444 5.79508 5.444 5.79533C5.444 5.79558 5.444 5.79582 5.444 5.79607C5.444 5.79632 5.444 5.79656 5.444 5.79681C5.444 5.79705 5.444 5.7973 5.444 5.79754C5.444 5.79778 5.444 5.79803 5.444 5.79827C5.444 5.79851 5.444 5.79876 5.444 5.799C5.444 5.79924 5.444 5.79948 5.444 5.79972C5.444 5.79996 5.444 5.8002 5.444 5.80044C5.444 5.80068 5.444 5.80092 5.444 5.80116C5.444 5.8014 5.444 5.80164 5.444 5.80188C5.444 5.80211 5.444 5.80235 5.444 5.80259C5.444 5.80282 5.444 5.80306 5.444 5.80329C5.444 5.80353 5.444 5.80377 5.444 5.804H5.644C5.644 5.80377 5.644 5.80353 5.644 5.80329C5.644 5.80306 5.644 5.80282 5.644 5.80259C5.644 5.80235 5.644 5.80211 5.644 5.80188C5.644 5.80164 5.644 5.8014 5.644 5.80116C5.644 5.80092 5.644 5.80068 5.644 5.80044C5.644 5.8002 5.644 5.79996 5.644 5.79972C5.644 5.79948 5.644 5.79924 5.644 5.799C5.644 5.79876 5.644 5.79851 5.644 5.79827C5.644 5.79803 5.644 5.79778 5.644 5.79754C5.644 5.7973 5.644 5.79705 5.644 5.79681C5.644 5.79656 5.644 5.79632 5.644 5.79607C5.644 5.79582 5.644 5.79558 5.644 5.79533C5.644 5.79508 5.644 5.79484 5.644 5.79459C5.644 5.79434 5.644 5.79409 5.644 5.79384C5.644 5.79359 5.644 5.79334 5.644 5.79309C5.644 5.79284 5.644 5.79259 5.644 5.79234C5.644 5.79209 5.644 5.79184 5.644 5.79159C5.644 5.79133 5.644 5.79108 5.644 5.79083C5.644 5.79057 5.644 5.79032 5.644 5.79007C5.644 5.78981 5.644 5.78956 5.644 5.7893C5.644 5.78905 5.644 5.78879 5.644 5.78854C5.644 5.78828 5.644 5.78802 5.644 5.78777C5.644 5.78751 5.644 5.78725 5.644 5.78699C5.644 5.78674 5.644 5.78648 5.644 5.78622C5.644 5.78596 5.644 5.7857 5.644 5.78544C5.644 5.78518 5.644 5.78492 5.644 5.78466C5.644 5.7844 5.644 5.78414 5.644 5.78387C5.644 5.78361 5.644 5.78335 5.644 5.78309C5.644 5.78282 5.644 5.78256 5.644 5.7823C5.644 5.78203 5.644 5.78177 5.644 5.7815C5.644 5.78124 5.644 5.78098 5.644 5.78071C5.644 5.78044 5.644 5.78018 5.644 5.77991C5.644 5.77965 5.644 5.77938 5.644 5.77911C5.644 5.77884 5.644 5.77858 5.644 5.77831C5.644 5.77804 5.644 5.77777 5.644 5.7775C5.644 5.77723 5.644 5.77696 5.644 5.77669C5.644 5.77642 5.644 5.77615 5.644 5.77588C5.644 5.77561 5.644 5.77534 5.644 5.77507C5.644 5.7748 5.644 5.77452 5.644 5.77425C5.644 5.77398 5.644 5.77371 5.644 5.77343C5.644 5.77316 5.644 5.77289 5.644 5.77261C5.644 5.77234 5.644 5.77206 5.644 5.77179C5.644 5.77151 5.644 5.77124 5.644 5.77096C5.644 5.77068 5.644 5.77041 5.644 5.77013C5.644 5.76985 5.644 5.76958 5.644 5.7693C5.644 5.76902 5.644 5.76874 5.644 5.76846C5.644 5.76819 5.644 5.76791 5.644 5.76763C5.644 5.76735 5.644 5.76707 5.644 5.76679C5.644 5.76651 5.644 5.76623 5.644 5.76595C5.644 5.76567 5.644 5.76539 5.644 5.7651C5.644 5.76482 5.644 5.76454 5.644 5.76426C5.644 5.76397 5.644 5.76369 5.644 5.76341C5.644 5.76313 5.644 5.76284 5.644 5.76256C5.644 5.76227 5.644 5.76199 5.644 5.7617C5.644 5.76142 5.644 5.76113 5.644 5.76085C5.644 5.76056 5.644 5.76028 5.644 5.75999C5.644 5.7597 5.644 5.75942 5.644 5.75913C5.644 5.75884 5.644 5.75856 5.644 5.75827C5.644 5.75798 5.644 5.75769 5.644 5.7574C5.644 5.75711 5.644 5.75683 5.644 5.75654C5.644 5.75625 5.644 5.75596 5.644 5.75567C5.644 5.75538 5.644 5.75509 5.644 5.7548C5.644 5.7545 5.644 5.75421 5.644 5.75392C5.644 5.75363 5.644 5.75334 5.644 5.75305C5.644 5.75275 5.644 5.75246 5.644 5.75217C5.644 5.75188 5.644 5.75158 5.644 5.75129C5.644 5.751 5.644 5.7507 5.644 5.75041C5.644 5.75011 5.644 5.74982 5.644 5.74952C5.644 5.74923 5.644 5.74893 5.644 5.74864C5.644 5.74834 5.644 5.74804 5.644 5.74775C5.644 5.74745 5.644 5.74716 5.644 5.74686C5.644 5.74656 5.644 5.74626 5.644 5.74597C5.644 5.74567 5.644 5.74537 5.644 5.74507C5.644 5.74477 5.644 5.74447 5.644 5.74418C5.644 5.74388 5.644 5.74358 5.644 5.74328C5.644 5.74298 5.644 5.74268 5.644 5.74238C5.644 5.74208 5.644 5.74178 5.644 5.74148C5.644 5.74118 5.644 5.74087 5.644 5.74057C5.644 5.74027 5.644 5.73997 5.644 5.73967C5.644 5.73936 5.644 5.73906 5.644 5.73876C5.644 5.73846 5.644 5.73815 5.644 5.73785C5.644 5.73755 5.644 5.73724 5.644 5.73694C5.644 5.73663 5.644 5.73633 5.644 5.73603C5.644 5.73572 5.644 5.73542 5.644 5.73511C5.644 5.73481 5.644 5.7345 5.644 5.73419C5.644 5.73389 5.644 5.73358 5.644 5.73328C5.644 5.73297 5.644 5.73266 5.644 5.73236C5.644 5.73205 5.644 5.73174 5.644 5.73143C5.644 5.73113 5.644 5.73082 5.644 5.73051C5.644 5.7302 5.644 5.72989 5.644 5.72959C5.644 5.72928 5.644 5.72897 5.644 5.72866C5.644 5.72835 5.644 5.72804 5.644 5.72773C5.644 5.72742 5.644 5.72711 5.644 5.7268C5.644 5.72649 5.644 5.72618 5.644 5.72587C5.644 5.72556 5.644 5.72525 5.644 5.72494C5.644 5.72463 5.644 5.72431 5.644 5.724C5.644 5.72369 5.644 5.72338 5.644 5.72307C5.644 5.72275 5.644 5.72244 5.644 5.72213C5.644 5.72181 5.644 5.7215 5.644 5.72119C5.644 5.72087 5.644 5.72056 5.644 5.72025C5.644 5.71993 5.644 5.71962 5.644 5.71931C5.644 5.71899 5.644 5.71868 5.644 5.71836C5.644 5.71805 5.644 5.71773 5.644 5.71742C5.644 5.7171 5.644 5.71679 5.644 5.71647C5.644 5.71615 5.644 5.71584 5.644 5.71552C5.644 5.71521 5.644 5.71489 5.644 5.71457C5.644 5.71426 5.644 5.71394 5.644 5.71362C5.644 5.7133 5.644 5.71299 5.644 5.71267C5.644 5.71235 5.644 5.71203 5.644 5.71172C5.644 5.7114 5.644 5.71108 5.644 5.71076C5.644 5.71044 5.644 5.71012 5.644 5.70981C5.644 5.70949 5.644 5.70917 5.644 5.70885C5.644 5.70853 5.644 5.70821 5.644 5.70789C5.644 5.70757 5.644 5.70725 5.644 5.70693C5.644 5.70661 5.644 5.70629 5.644 5.70597C5.644 5.70565 5.644 5.70533 5.644 5.70501C5.644 5.70469 5.644 5.70437 5.644 5.70404C5.644 5.70372 5.644 5.7034 5.644 5.70308C5.644 5.70276 5.644 5.70244 5.644 5.70211C5.644 5.70179 5.644 5.70147 5.644 5.70115C5.644 5.70082 5.644 5.7005 5.644 5.70018C5.644 5.69986 5.644 5.69953 5.644 5.69921C5.644 5.69889 5.644 5.69856 5.644 5.69824C5.644 5.69792 5.644 5.69759 5.644 5.69727C5.644 5.69695 5.644 5.69662 5.644 5.6963C5.644 5.69597 5.644 5.69565 5.644 5.69532C5.644 5.695 5.644 5.69467 5.644 5.69435C5.644 5.69403 5.644 5.6937 5.644 5.69337C5.644 5.69305 5.644 5.69272 5.644 5.6924C5.644 5.69207 5.644 5.69175 5.644 5.69142C5.644 5.6911 5.644 5.69077 5.644 5.69044C5.644 5.69012 5.644 5.68979 5.644 5.68947C5.644 5.68914 5.644 5.68881 5.644 5.68849C5.644 5.68816 5.644 5.68783 5.644 5.6875C5.644 5.68718 5.644 5.68685 5.644 5.68652C5.644 5.6862 5.644 5.68587 5.644 5.68554C5.644 5.68521 5.644 5.68489 5.644 5.68456C5.644 5.68423 5.644 5.6839 5.644 5.68357C5.644 5.68325 5.644 5.68292 5.644 5.68259C5.644 5.68226 5.644 5.68193 5.644 5.6816C5.644 5.68127 5.644 5.68095 5.644 5.68062C5.644 5.68029 5.644 5.67996 5.644 5.67963C5.644 5.6793 5.644 5.67897 5.644 5.67864C5.644 5.67831 5.644 5.67798 5.644 5.67765C5.644 5.67733 5.644 5.677 5.644 5.67667C5.644 5.67634 5.644 5.67601 5.644 5.67568C5.644 5.67535 5.644 5.67502 5.644 5.67469C5.644 5.67436 5.644 5.67403 5.644 5.6737C5.644 5.67336 5.644 5.67303 5.644 5.6727C5.644 5.67237 5.644 5.67204 5.644 5.67171C5.644 5.67138 5.644 5.67105 5.644 5.67072C5.644 5.67039 5.644 5.67006 5.644 5.66973C5.644 5.66939 5.644 5.66906 5.644 5.66873C5.644 5.6684 5.644 5.66807 5.644 5.66774C5.644 5.66741 5.644 5.66708 5.644 5.66674C5.644 5.66641 5.644 5.66608 5.644 5.66575C5.644 5.66542 5.644 5.66508 5.644 5.66475C5.644 5.66442 5.644 5.66409 5.644 5.66376C5.644 5.66342 5.644 5.66309 5.644 5.66276C5.644 5.66243 5.644 5.6621 5.644 5.66176C5.644 5.66143 5.644 5.6611 5.644 5.66077C5.644 5.66043 5.644 5.6601 5.644 5.65977C5.644 5.65944 5.644 5.6591 5.644 5.65877C5.644 5.65844 5.644 5.65811 5.644 5.65777C5.644 5.65744 5.644 5.65711 5.644 5.65677C5.644 5.65644 5.644 5.65611 5.644 5.65578C5.644 5.65544 5.644 5.65511 5.644 5.65478C5.644 5.65444 5.644 5.65411 5.644 5.65378C5.644 5.65344 5.644 5.65311 5.644 5.65278C5.644 5.65244 5.644 5.65211 5.644 5.65178C5.644 5.65144 5.644 5.65111 5.644 5.65078C5.644 5.65044 5.644 5.65011 5.644 5.64978C5.644 5.64944 5.644 5.64911 5.644 5.64878C5.644 5.64844 5.644 5.64811 5.644 5.64778C5.644 5.64744 5.644 5.64711 5.644 5.64678C5.644 5.64644 5.644 5.64611 5.644 5.64578C5.644 5.64544 5.644 5.64511 5.644 5.64477C5.644 5.64444 5.644 5.64411 5.644 5.64377C5.644 5.64344 5.644 5.64311 5.644 5.64277C5.644 5.64244 5.644 5.64211 5.644 5.64177C5.644 5.64144 5.644 5.6411 5.644 5.64077C5.644 5.64044 5.644 5.6401 5.644 5.63977C5.644 5.63944 5.644 5.6391 5.644 5.63877C5.644 5.63844 5.644 5.6381 5.644 5.63777C5.644 5.63743 5.644 5.6371 5.644 5.63677C5.644 5.63643 5.644 5.6361 5.644 5.63577C5.644 5.63543 5.644 5.6351 5.644 5.63477C5.644 5.63443 5.644 5.6341 5.644 5.63377C5.644 5.63343 5.644 5.6331 5.644 5.63277C5.644 5.63243 5.644 5.6321 5.644 5.63177C5.644 5.63143 5.644 5.6311 5.644 5.63076C5.644 5.63043 5.644 5.6301 5.644 5.62977C5.644 5.62943 5.644 5.6291 5.644 5.62877C5.644 5.62843 5.644 5.6281 5.644 5.62777C5.644 5.62743 5.644 5.6271 5.644 5.62677C5.644 5.62643 5.644 5.6261 5.644 5.62577C5.644 5.62544 5.644 5.6251 5.644 5.62477C5.644 5.62444 5.644 5.6241 5.644 5.62377C5.644 5.62344 5.644 5.62311 5.644 5.62277C5.644 5.62244 5.644 5.62211 5.644 5.62178C5.644 5.62144 5.644 5.62111 5.644 5.62078C5.644 5.62045 5.644 5.62011 5.644 5.61978C5.644 5.61945 5.644 5.61912 5.644 5.61878C5.644 5.61845 5.644 5.61812 5.644 5.61779C5.644 5.61746 5.644 5.61712 5.644 5.61679C5.644 5.61646 5.644 5.61613 5.644 5.6158C5.644 5.61547 5.644 5.61513 5.644 5.6148C5.644 5.61447 5.644 5.61414 5.644 5.61381C5.644 5.61348 5.644 5.61315 5.644 5.61281C5.644 5.61248 5.644 5.61215 5.644 5.61182C5.644 5.61149 5.644 5.61116 5.644 5.61083C5.644 5.6105 5.644 5.61017 5.644 5.60984C5.644 5.60951 5.644 5.60917 5.644 5.60884C5.644 5.60851 5.644 5.60818 5.644 5.60785C5.644 5.60752 5.644 5.60719 5.644 5.60686C5.644 5.60653 5.644 5.6062 5.644 5.60587C5.644 5.60554 5.644 5.60521 5.644 5.60488C5.644 5.60455 5.644 5.60422 5.644 5.60389C5.644 5.60357 5.644 5.60324 5.644 5.60291C5.644 5.60258 5.644 5.60225 5.644 5.60192C5.644 5.60159 5.644 5.60126 5.644 5.60093C5.644 5.6006 5.644 5.60028 5.644 5.59995C5.644 5.59962 5.644 5.59929 5.644 5.59896C5.644 5.59863 5.644 5.59831 5.644 5.59798C5.644 5.59765 5.644 5.59732 5.644 5.59699C5.644 5.59667 5.644 5.59634 5.644 5.59601C5.644 5.59568 5.644 5.59536 5.644 5.59503C5.644 5.5947 5.644 5.59438 5.644 5.59405C5.644 5.59372 5.644 5.5934 5.644 5.59307C5.644 5.59274 5.644 5.59242 5.644 5.59209C5.644 5.59176 5.644 5.59144 5.644 5.59111C5.644 5.59079 5.644 5.59046 5.644 5.59013C5.644 5.58981 5.644 5.58948 5.644 5.58916C5.644 5.58883 5.644 5.58851 5.644 5.58818C5.644 5.58786 5.644 5.58753 5.644 5.58721C5.644 5.58688 5.644 5.58656 5.644 5.58623C5.644 5.58591 5.644 5.58559 5.644 5.58526C5.644 5.58494 5.644 5.58461 5.644 5.58429C5.644 5.58397 5.644 5.58364 5.644 5.58332C5.644 5.583 5.644 5.58267 5.644 5.58235C5.644 5.58203 5.644 5.5817 5.644 5.58138C5.644 5.58106 5.644 5.58074 5.644 5.58041C5.644 5.58009 5.644 5.57977 5.644 5.57945C5.644 5.57913 5.644 5.57881 5.644 5.57848C5.644 5.57816 5.644 5.57784 5.644 5.57752C5.644 5.5772 5.644 5.57688 5.644 5.57656C5.644 5.57624 5.644 5.57592 5.644 5.5756C5.644 5.57528 5.644 5.57496 5.644 5.57464C5.644 5.57432 5.644 5.574 5.644 5.57368C5.644 5.57336 5.644 5.57304 5.644 5.57272C5.644 5.5724 5.644 5.57208 5.644 5.57176C5.644 5.57144 5.644 5.57113 5.644 5.57081C5.644 5.57049 5.644 5.57017 5.644 5.56985C5.644 5.56954 5.644 5.56922 5.644 5.5689C5.644 5.56858 5.644 5.56827 5.644 5.56795C5.644 5.56763 5.644 5.56732 5.644 5.567C5.644 5.56668 5.644 5.56637 5.644 5.56605C5.644 5.56574 5.644 5.56542 5.644 5.5651C5.644 5.56479 5.644 5.56447 5.644 5.56416C5.644 5.56384 5.644 5.56353 5.644 5.56321C5.644 5.5629 5.644 5.56259 5.644 5.56227C5.644 5.56196 5.644 5.56164 5.644 5.56133C5.644 5.56102 5.644 5.5607 5.644 5.56039C5.644 5.56008 5.644 5.55976 5.644 5.55945C5.644 5.55914 5.644 5.55883 5.644 5.55851C5.644 5.5582 5.644 5.55789 5.644 5.55758C5.644 5.55727 5.644 5.55696 5.644 5.55665C5.644 5.55633 5.644 5.55602 5.644 5.55571C5.644 5.5554 5.644 5.55509 5.644 5.55478C5.644 5.55447 5.644 5.55416 5.644 5.55385C5.644 5.55354 5.644 5.55324 5.644 5.55293C5.644 5.55262 5.644 5.55231 5.644 5.552C5.644 5.55169 5.644 5.55138 5.644 5.55108C5.644 5.55077 5.644 5.55046 5.644 5.55015C5.644 5.54985 5.644 5.54954 5.644 5.54923C5.644 5.54893 5.644 5.54862 5.644 5.54831C5.644 5.54801 5.644 5.5477 5.644 5.5474C5.644 5.54709 5.644 5.54679 5.644 5.54648C5.644 5.54618 5.644 5.54587 5.644 5.54557C5.644 5.54526 5.644 5.54496 5.644 5.54466C5.644 5.54435 5.644 5.54405 5.644 5.54375C5.644 5.54344 5.644 5.54314 5.644 5.54284C5.644 5.54254 5.644 5.54223 5.644 5.54193C5.644 5.54163 5.644 5.54133 5.644 5.54103C5.644 5.54073 5.644 5.54042 5.644 5.54012C5.644 5.53982 5.644 5.53952 5.644 5.53922C5.644 5.53892 5.644 5.53862 5.644 5.53832C5.644 5.53802 5.644 5.53773 5.644 5.53743C5.644 5.53713 5.644 5.53683 5.644 5.53653C5.644 5.53623 5.644 5.53594 5.644 5.53564C5.644 5.53534 5.644 5.53505 5.644 5.53475C5.644 5.53445 5.644 5.53416 5.644 5.53386C5.644 5.53356 5.644 5.53327 5.644 5.53297C5.644 5.53268 5.644 5.53238 5.644 5.53209C5.644 5.53179 5.644 5.5315 5.644 5.5312C5.644 5.53091 5.644 5.53062 5.644 5.53032C5.644 5.53003 5.644 5.52974 5.644 5.52945C5.644 5.52915 5.644 5.52886 5.644 5.52857C5.644 5.52828 5.644 5.52799 5.644 5.52769C5.644 5.5274 5.644 5.52711 5.644 5.52682C5.644 5.52653 5.644 5.52624 5.644 5.52595C5.644 5.52566 5.644 5.52537 5.644 5.52508C5.644 5.5248 5.644 5.52451 5.644 5.52422C5.644 5.52393 5.644 5.52364 5.644 5.52336C5.644 5.52307 5.644 5.52278 5.644 5.52249C5.644 5.52221 5.644 5.52192 5.644 5.52164C5.644 5.52135 5.644 5.52106 5.644 5.52078C5.644 5.52049 5.644 5.52021 5.644 5.51992C5.644 5.51964 5.644 5.51936 5.644 5.51907C5.644 5.51879 5.644 5.51851 5.644 5.51822C5.644 5.51794 5.644 5.51766 5.644 5.51738C5.644 5.51709 5.644 5.51681 5.644 5.51653C5.644 5.51625 5.644 5.51597 5.644 5.51569C5.644 5.51541 5.644 5.51513 5.644 5.51485C5.644 5.51457 5.644 5.51429 5.644 5.51401C5.644 5.51373 5.644 5.51345 5.644 5.51318C5.644 5.5129 5.644 5.51262 5.644 5.51234C5.644 5.51206 5.644 5.51179 5.644 5.51151C5.644 5.51124 5.644 5.51096 5.644 5.51068C5.644 5.51041 5.644 5.51013 5.644 5.50986C5.644 5.50958 5.644 5.50931 5.644 5.50904C5.644 5.50876 5.644 5.50849 5.644 5.50822C5.644 5.50794 5.644 5.50767 5.644 5.5074C5.644 5.50713 5.644 5.50686 5.644 5.50658C5.644 5.50631 5.644 5.50604 5.644 5.50577C5.644 5.5055 5.644 5.50523 5.644 5.50496C5.644 5.50469 5.644 5.50442 5.644 5.50415C5.644 5.50389 5.644 5.50362 5.644 5.50335C5.644 5.50308 5.644 5.50282 5.644 5.50255C5.644 5.50228 5.644 5.50202 5.644 5.50175C5.644 5.50148 5.644 5.50122 5.644 5.50095C5.644 5.50069 5.644 5.50042 5.644 5.50016C5.644 5.4999 5.644 5.49963 5.644 5.49937C5.644 5.49911 5.644 5.49884 5.644 5.49858C5.644 5.49832 5.644 5.49806 5.644 5.4978C5.644 5.49753 5.644 5.49727 5.644 5.49701C5.644 5.49675 5.644 5.49649 5.644 5.49623C5.644 5.49597 5.644 5.49572 5.644 5.49546C5.644 5.4952 5.644 5.49494 5.644 5.49468C5.644 5.49443 5.644 5.49417 5.644 5.49391C5.644 5.49366 5.644 5.4934 5.644 5.49314C5.644 5.49289 5.644 5.49263 5.644 5.49238C5.644 5.49212 5.644 5.49187 5.644 5.49162C5.644 5.49136 5.644 5.49111 5.644 5.49086C5.644 5.4906 5.644 5.49035 5.644 5.4901C5.644 5.48985 5.644 5.4896 5.644 5.48935C5.644 5.4891 5.644 5.48885 5.644 5.4886C5.644 5.48835 5.644 5.4881 5.644 5.48785C5.644 5.4876 5.644 5.48735 5.644 5.48711C5.644 5.48686 5.644 5.48661 5.644 5.48637C5.644 5.48612 5.644 5.48587 5.644 5.48563C5.644 5.48538 5.644 5.48514 5.644 5.48489C5.644 5.48465 5.644 5.4844 5.644 5.48416C5.644 5.48392 5.644 5.48367 5.644 5.48343C5.644 5.48319 5.644 5.48295 5.644 5.48271C5.644 5.48247 5.644 5.48222 5.644 5.48198C5.644 5.48174 5.644 5.4815 5.644 5.48127C5.644 5.48103 5.644 5.48079 5.644 5.48055C5.644 5.48031 5.644 5.48007 5.644 5.47984C5.644 5.4796 5.644 5.47936 5.644 5.47913C5.644 5.47889 5.644 5.47866 5.644 5.47842C5.644 5.47819 5.644 5.47795 5.644 5.47772C5.644 5.47748 5.644 5.47725 5.644 5.47702C5.644 5.47679 5.644 5.47655 5.644 5.47632C5.644 5.47609 5.644 5.47586 5.644 5.47563C5.644 5.4754 5.644 5.47517 5.644 5.47494C5.644 5.47471 5.644 5.47448 5.644 5.47425C5.644 5.47403 5.644 5.4738 5.644 5.47357C5.644 5.47334 5.644 5.47312 5.644 5.47289C5.644 5.47267 5.644 5.47244 5.644 5.47222C5.644 5.47199 5.644 5.47177 5.644 5.47154C5.644 5.47132 5.644 5.4711 5.644 5.47087C5.644 5.47065 5.644 5.47043 5.644 5.47021C5.644 5.46999 5.644 5.46977 5.644 5.46955C5.644 5.46933 5.644 5.46911 5.644 5.46889C5.644 5.46867 5.644 5.46845 5.644 5.46823C5.644 5.46802 5.644 5.4678 5.644 5.46758C5.644 5.46737 5.644 5.46715 5.644 5.46693C5.644 5.46672 5.644 5.46651 5.644 5.46629C5.644 5.46608 5.644 5.46586 5.644 5.46565C5.644 5.46544 5.644 5.46523 5.644 5.46501C5.644 5.4648 5.644 5.46459 5.644 5.46438C5.644 5.46417 5.644 5.46396 5.644 5.46375C5.644 5.46354 5.644 5.46333 5.644 5.46312C5.644 5.46292 5.644 5.46271 5.644 5.4625C5.644 5.4623 5.644 5.46209 5.644 5.46188C5.644 5.46168 5.644 5.46147 5.644 5.46127C5.644 5.46106 5.644 5.46086 5.644 5.46066C5.644 5.46046 5.644 5.46025 5.644 5.46005C5.644 5.45985 5.644 5.45965 5.644 5.45945C5.644 5.45925 5.644 5.45905 5.644 5.45885C5.644 5.45865 5.644 5.45845 5.644 5.45825C5.644 5.45805 5.644 5.45786 5.644 5.45766C5.644 5.45746 5.644 5.45727 5.644 5.45707C5.644 5.45688 5.644 5.45668 5.644 5.45649C5.644 5.45629 5.644 5.4561 5.644 5.45591C5.644 5.45572 5.644 5.45552 5.644 5.45533C5.644 5.45514 5.644 5.45495 5.644 5.45476C5.644 5.45457 5.644 5.45438 5.644 5.45419C5.644 5.454 5.644 5.45381 5.644 5.45363C5.644 5.45344 5.644 5.45325 5.644 5.45307C5.644 5.45288 5.644 5.4527 5.644 5.45251C5.644 5.45233 5.644 5.45214 5.644 5.45196C5.644 5.45178 5.644 5.45159 5.644 5.45141C5.644 5.45123 5.644 5.45105 5.644 5.45087C5.644 5.45069 5.644 5.45051 5.644 5.45033C5.644 5.45015 5.644 5.44997 5.644 5.44979C5.644 5.44961 5.644 5.44943 5.644 5.44926C5.644 5.44908 5.644 5.44891 5.644 5.44873C5.644 5.44855 5.644 5.44838 5.644 5.44821C5.644 5.44803 5.644 5.44786 5.644 5.44769C5.644 5.44752 5.644 5.44734 5.644 5.44717C5.644 5.447 5.644 5.44683 5.644 5.44666C5.644 5.44649 5.644 5.44632 5.644 5.44615C5.644 5.44599 5.644 5.44582 5.644 5.44565C5.644 5.44549 5.644 5.44532 5.644 5.44515C5.644 5.44499 5.644 5.44482 5.644 5.44466C5.644 5.4445 5.644 5.44433 5.644 5.44417C5.644 5.44401 5.644 5.44385 5.644 5.44369C5.644 5.44352 5.644 5.44336 5.644 5.4432C5.644 5.44304 5.644 5.44289 5.644 5.44273C5.644 5.44257 5.644 5.44241 5.644 5.44226C5.644 5.4421 5.644 5.44194 5.644 5.44179C5.644 5.44163 5.644 5.44148 5.644 5.44132C5.644 5.44117 5.644 5.44102 5.644 5.44087C5.644 5.44071 5.644 5.44056 5.644 5.44041C5.644 5.44026 5.644 5.44011 5.644 5.43996C5.644 5.43981 5.644 5.43966 5.644 5.43952C5.644 5.43937 5.644 5.43922 5.644 5.43907C5.644 5.43893 5.644 5.43878 5.644 5.43864C5.644 5.43849 5.644 5.43835 5.644 5.43821C5.644 5.43806 5.644 5.43792 5.644 5.43778C5.644 5.43764 5.644 5.4375 5.644 5.43736C5.644 5.43722 5.644 5.43708 5.644 5.43694C5.644 5.4368 5.644 5.43666 5.644 5.43652C5.644 5.43639 5.644 5.43625 5.644 5.43612C5.644 5.43598 5.644 5.43585 5.644 5.43571C5.644 5.43558 5.644 5.43544 5.644 5.43531C5.644 5.43518 5.644 5.43505 5.644 5.43492C5.644 5.43479 5.644 5.43466 5.644 5.43453C5.644 5.4344 5.644 5.43427 5.644 5.43414C5.644 5.43401 5.644 5.43389 5.644 5.43376C5.644 5.43363 5.644 5.43351 5.644 5.43338C5.644 5.43326 5.644 5.43314 5.644 5.43301C5.644 5.43289 5.644 5.43277 5.644 5.43265C5.644 5.43253 5.644 5.43241 5.644 5.43229C5.644 5.43217 5.644 5.43205 5.644 5.43193C5.644 5.43181 5.644 5.43169 5.644 5.43158C5.644 5.43146 5.644 5.43135 5.644 5.43123C5.644 5.43112 5.644 5.431 5.644 5.43089C5.644 5.43078 5.644 5.43066 5.644 5.43055C5.644 5.43044 5.644 5.43033 5.644 5.43022C5.644 5.43011 5.644 5.43 5.644 5.42989C5.644 5.42978 5.644 5.42968 5.644 5.42957C5.644 5.42946 5.644 5.42936 5.644 5.42925C5.644 5.42915 5.644 5.42904 5.644 5.42894C5.644 5.42884 5.644 5.42873 5.644 5.42863C5.644 5.42853 5.644 5.42843 5.644 5.42833C5.644 5.42823 5.644 5.42813 5.644 5.42803C5.644 5.42794 5.644 5.42784 5.644 5.42774C5.644 5.42765 5.644 5.42755 5.644 5.42745C5.644 5.42736 5.644 5.42727 5.644 5.42717C5.644 5.42708 5.644 5.42699 5.644 5.4269C5.644 5.4268 5.644 5.42671 5.644 5.42662C5.644 5.42653 5.644 5.42645 5.644 5.42636C5.644 5.42627 5.644 5.42618 5.644 5.4261C5.644 5.42601 5.644 5.42593 5.644 5.42584C5.644 5.42576 5.644 5.42567 5.644 5.42559C5.644 5.42551 5.644 5.42543 5.644 5.42534C5.644 5.42526 5.644 5.42518 5.644 5.4251C5.644 5.42502 5.644 5.42495 5.644 5.42487C5.644 5.42479 5.644 5.42471 5.644 5.42464C5.644 5.42456 5.644 5.42449 5.644 5.42441C5.644 5.42434 5.644 5.42427 5.644 5.4242C5.644 5.42412 5.644 5.42405 5.644 5.42398C5.644 5.42391 5.644 5.42384 5.644 5.42377C5.644 5.4237 5.644 5.42364 5.644 5.42357C5.644 5.4235 5.644 5.42344 5.644 5.42337C5.644 5.42331 5.644 5.42324 5.644 5.42318C5.644 5.42312 5.644 5.42306 5.644 5.42299C5.644 5.42293 5.644 5.42287 5.644 5.42281C5.644 5.42275 5.644 5.42269 5.644 5.42264C5.644 5.42258 5.644 5.42252 5.644 5.42247C5.644 5.42241 5.644 5.42236 5.644 5.4223C5.644 5.42225 5.644 5.42219 5.644 5.42214C5.644 5.42209 5.644 5.42204 5.644 5.42199C5.644 5.42194 5.644 5.42189 5.644 5.42184C5.644 5.42179 5.644 5.42174 5.644 5.4217C5.644 5.42165 5.644 5.42161 5.644 5.42156C5.644 5.42152 5.644 5.42147 5.644 5.42143C5.644 5.42139 5.644 5.42134 5.644 5.4213C5.644 5.42126 5.644 5.42122 5.644 5.42118C5.644 5.42114 5.644 5.42111 5.644 5.42107C5.644 5.42103 5.644 5.421 5.644 5.42096C5.644 5.42093 5.644 5.42089 5.644 5.42086C5.644 5.42082 5.644 5.42079 5.644 5.42076C5.644 5.42073 5.644 5.4207 5.644 5.42067C5.644 5.42064 5.644 5.42061 5.644 5.42058C5.644 5.42056 5.644 5.42053 5.644 5.4205C5.644 5.42048 5.644 5.42045 5.644 5.42043C5.644 5.42041 5.644 5.42038 5.644 5.42036C5.644 5.42034 5.644 5.42032 5.644 5.4203C5.644 5.42028 5.644 5.42026 5.644 5.42024C5.644 5.42022 5.644 5.42021 5.644 5.42019C5.644 5.42018 5.644 5.42016 5.644 5.42015C5.644 5.42013 5.644 5.42012 5.644 5.42011C5.644 5.4201 5.644 5.42008 5.644 5.42007C5.644 5.42006 5.644 5.42006 5.644 5.42005C5.644 5.42004 5.644 5.42003 5.644 5.42003C5.644 5.42002 5.644 5.42002 5.644 5.42001C5.644 5.42001 5.644 5.42 5.644 5.42C5.644 5.42 5.644 5.42 5.544 5.42ZM5.44402 5.80179C5.41402 7.15822 5.38105 8.08492 5.3244 8.71403C5.29608 9.0286 5.26209 9.26556 5.22051 9.44307C5.17866 9.62176 5.13088 9.73216 5.08 9.8L5.24 9.92C5.31512 9.81984 5.37084 9.67824 5.41524 9.48868C5.45991 9.29794 5.49492 9.0504 5.5236 8.73197C5.58095 8.09508 5.61399 7.16178 5.64398 5.80621L5.44402 5.80179ZM5.08526 9.79356C4.99655 9.89336 4.9113 9.95902 4.81217 10.0047C4.71182 10.0509 4.59169 10.0792 4.42935 10.0966L4.45065 10.2954C4.62431 10.2768 4.76818 10.2451 4.89583 10.1863C5.0247 10.127 5.13145 10.0426 5.23474 9.92644L5.08526 9.79356ZM4.42854 10.0967C4.12584 10.1316 3.59424 10.1202 3.00408 10.0961L2.99592 10.2959C3.58176 10.3198 4.13016 10.3324 4.45146 10.2953L4.42854 10.0967ZM3.09959 10.1869C3.07457 9.91173 2.9753 9.54902 2.83454 9.3059L2.66146 9.4061C2.7847 9.61898 2.87743 9.95227 2.90041 10.2051L3.09959 10.1869ZM2.73915 9.45561C3.28397 9.50404 3.81587 9.504 4.02 9.504V9.304C3.81613 9.304 3.29203 9.30396 2.75685 9.25639L2.73915 9.45561ZM4.02 9.504C4.18481 9.504 4.35398 9.49576 4.47094 9.34539L4.31307 9.22261C4.26202 9.28824 4.1912 9.304 4.02 9.304V9.504ZM4.46882 9.34802C4.5308 9.27365 4.57202 9.15552 4.604 8.99788C4.63676 8.83643 4.66263 8.61774 4.68374 8.32827C4.72598 7.74893 4.74999 6.87314 4.76799 5.57739L4.56801 5.57461C4.55001 6.87086 4.52602 7.74107 4.48426 8.31373C4.46337 8.60026 4.43824 8.80907 4.408 8.95812C4.37698 9.11098 4.3432 9.18635 4.31518 9.21998L4.46882 9.34802ZM4.768 5.576V5.42H4.568V5.576H4.768ZM8.12423 1.60116L8.66423 1.03716L8.51977 0.898843L7.97977 1.46284L8.12423 1.60116ZM8.54614 1.05686C9.28845 1.43999 10.2271 2.01127 10.6852 2.42242L10.8188 2.27358C10.3409 1.84473 9.38355 1.26401 8.63786 0.879138L8.54614 1.05686ZM10.6785 2.28023L10.1145 2.89223L10.2615 3.02777L10.8255 2.41577L10.6785 2.28023ZM10.2557 2.88645C9.79105 2.45843 8.85882 1.84173 8.0984 1.44342L8.0056 1.62058C8.75718 2.01427 9.67295 2.62157 10.1203 3.03355L10.2557 2.88645ZM9.74466 4.88124L10.6447 5.09724L10.6913 4.90276L9.79134 4.68676L9.74466 4.88124ZM10.5729 4.96903C9.55942 8.08105 7.78548 10.3759 5.34917 11.8139L5.45083 11.9861C7.93452 10.5201 9.73658 8.18295 10.7631 5.03097L10.5729 4.96903ZM5.48064 11.8409C5.34433 11.655 5.00399 11.2784 4.80839 11.095L4.67161 11.241C4.86001 11.4176 5.19167 11.785 5.31936 11.9591L5.48064 11.8409ZM4.78697 11.2563C7.24959 9.94612 8.95687 7.72697 9.86348 4.81371L9.67252 4.75429C8.77913 7.62503 7.10241 9.79788 4.69303 11.0797L4.78697 11.2563ZM2.112 3.06H11.4V2.86H2.112V3.06ZM11.3 2.96V3.848H11.5V2.96H11.3ZM11.4 3.748H2.112V3.948H11.4V3.748ZM2.212 3.848V2.96H2.012V3.848H2.212ZM1.536 3.06H2.472V2.86H1.536V3.06ZM2.372 2.96V6.344H2.572V2.96H2.372ZM2.372 6.344C2.372 7.19276 2.32414 8.21822 2.14111 9.22562C1.9579 10.234 1.64046 11.2174 1.10587 11.9869L1.27013 12.1011C1.82754 11.2986 2.1521 10.284 2.33789 9.26138C2.52386 8.23778 2.572 7.19924 2.572 6.344H2.372ZM1.26357 11.9785C1.17981 11.8819 1.03945 11.7545 0.89497 11.6389C0.750896 11.5237 0.594321 11.4134 0.476721 11.3546L0.387279 11.5334C0.485679 11.5826 0.629104 11.6823 0.77003 11.7951C0.910546 11.9075 1.04019 12.0261 1.11243 12.1095L1.26357 11.9785ZM0.514893 11.4999C1.52998 9.99565 1.636 7.90211 1.636 6.332H1.436C1.436 7.90589 1.32602 9.94035 0.349107 11.3881L0.514893 11.4999ZM1.636 6.332V2.96H1.436V6.332H1.636ZM6.516 1.044H7.452V0.843999H6.516V1.044ZM7.352 0.943565C7.33997 3.70962 7.62848 6.22394 8.1174 8.04987C8.36167 8.9621 8.6575 9.70841 8.99483 10.229C9.32975 10.7459 9.72192 11.064 10.164 11.064V10.864C9.82609 10.864 9.48625 10.6196 9.16267 10.1202C8.8415 9.62459 8.55233 8.9009 8.3106 7.99813C7.82752 6.19406 7.54003 3.69837 7.552 0.944434L7.352 0.943565ZM10.164 11.064C10.2854 11.064 10.3856 11.005 10.4636 10.9018C10.5384 10.8027 10.5957 10.6596 10.6419 10.477C10.7347 10.1107 10.7919 9.5467 10.8279 8.74851L10.6281 8.73949C10.5921 9.5373 10.5353 10.0833 10.4481 10.428C10.4043 10.6009 10.3551 10.7136 10.3039 10.7813C10.2559 10.845 10.2106 10.864 10.164 10.864V11.064ZM10.6573 8.81471C10.8722 9.02966 11.2212 9.24158 11.475 9.33039L11.541 9.14161C11.3148 9.06242 10.9918 8.86634 10.7987 8.67329L10.6573 8.81471ZM11.4083 9.22784C11.3243 10.2549 11.1989 10.895 10.9911 11.2778C10.8891 11.4658 10.7692 11.5877 10.6271 11.664C10.4839 11.7408 10.3097 11.776 10.092 11.776V11.976C10.3303 11.976 10.5401 11.9377 10.7217 11.8402C10.9043 11.7421 11.0499 11.5887 11.1669 11.3732C11.3971 10.949 11.5238 10.2691 11.6077 9.24416L11.4083 9.22784ZM10.092 11.776C9.52051 11.776 9.02038 11.475 8.58629 10.9149C8.15104 10.3533 7.78943 9.5393 7.50007 8.53774C6.92166 6.53568 6.63996 3.81291 6.616 0.943164L6.416 0.944834C6.44004 3.82309 6.72234 6.56632 7.30793 8.59326C7.60057 9.6062 7.97096 10.4474 8.42821 11.0374C8.88663 11.629 9.43949 11.976 10.092 11.976V11.776ZM14.856 11.888L14.7596 11.9148L14.956 11.888H14.856ZM14.484 11.096L14.4414 11.0055L14.3349 11.0556L14.4016 11.1527L14.484 11.096ZM14.976 0.991999V0.891999H14.876V0.991999H14.976ZM15.912 0.991999H16.012V0.891999H15.912V0.991999ZM15.912 11.084L15.9534 11.175L16.012 11.1484V11.084H15.912ZM14.856 11.888L14.7564 11.8968L14.7707 12.0592L14.909 11.9728L14.856 11.888ZM14.784 11.072L14.724 10.992L14.6795 11.0254L14.6844 11.0808L14.784 11.072ZM15.264 10.712L15.24 10.6149L15.2203 10.6198L15.204 10.632L15.264 10.712ZM18.804 9.836H18.904V9.70824L18.78 9.73893L18.804 9.836ZM18.888 10.676L18.914 10.7726L19.0088 10.747L18.985 10.6517L18.888 10.676ZM12.66 5.624V5.524H12.56V5.624H12.66ZM23.328 5.624H23.428V5.524H23.328V5.624ZM23.328 6.524V6.624H23.428V6.524H23.328ZM12.66 6.524H12.56V6.624H12.66V6.524ZM18.528 6.032L18.622 5.99775L18.5908 5.91227L18.5028 5.93524L18.528 6.032ZM23.604 10.772L23.6684 10.8485L23.8125 10.7272L23.6313 10.6758L23.604 10.772ZM22.968 11.612L22.9368 11.707L23.0188 11.734L23.0574 11.6567L22.968 11.612ZM17.7 6.248L17.6748 6.15124L17.5688 6.17889L17.6059 6.28193L17.7 6.248ZM21.228 1.184L21.2672 1.09202L21.1993 1.06305L21.1517 1.11941L21.228 1.184ZM22.128 1.568L22.2041 1.63292L22.2924 1.52942L22.1672 1.47602L22.128 1.568ZM17.484 5L17.4064 5.06306L17.4564 5.12457L17.5277 5.08997L17.484 5ZM16.74 4.268L16.7023 4.17538L16.537 4.24266L16.6807 4.34851L16.74 4.268ZM14.9524 11.8612C14.8893 11.6343 14.7045 11.2402 14.5664 11.0393L14.4016 11.1527C14.5275 11.3358 14.7027 11.7097 14.7596 11.9148L14.9524 11.8612ZM14.5266 11.1865C14.6332 11.1363 14.7716 11.0599 14.8829 10.928C14.9962 10.7938 15.076 10.6087 15.076 10.352H14.876C14.876 10.5633 14.8118 10.7022 14.7301 10.799C14.6464 10.8981 14.5388 10.9597 14.4414 11.0055L14.5266 11.1865ZM15.076 10.352V0.991999H14.876V10.352H15.076ZM14.976 1.092H15.912V0.891999H14.976V1.092ZM15.812 0.991999V11.084H16.012V0.991999H15.812ZM15.912 11.084C15.8706 10.993 15.8706 10.993 15.8706 10.993C15.8706 10.993 15.8706 10.993 15.8705 10.993C15.8705 10.993 15.8704 10.9931 15.8703 10.9931C15.8702 10.9932 15.87 10.9933 15.8697 10.9934C15.8691 10.9937 15.8683 10.994 15.8672 10.9945C15.8651 10.9955 15.862 10.9969 15.858 10.9988C15.85 11.0025 15.8384 11.008 15.8236 11.015C15.7941 11.029 15.7522 11.0494 15.7019 11.0748C15.6015 11.1256 15.467 11.197 15.3321 11.2791C15.1979 11.3606 15.0595 11.4549 14.9535 11.5519C14.9005 11.6004 14.8528 11.6521 14.8177 11.7057C14.7831 11.7586 14.756 11.8207 14.756 11.888H14.956C14.956 11.8743 14.9619 11.8505 14.9851 11.8152C15.0077 11.7805 15.0425 11.7416 15.0885 11.6995C15.1805 11.6153 15.3061 11.5289 15.4359 11.4499C15.565 11.3715 15.6945 11.3026 15.7921 11.2533C15.8408 11.2287 15.8814 11.209 15.9096 11.1955C15.9238 11.1888 15.9348 11.1836 15.9423 11.1802C15.946 11.1784 15.9489 11.1771 15.9507 11.1763C15.9517 11.1758 15.9524 11.1755 15.9528 11.1753C15.953 11.1752 15.9532 11.1751 15.9533 11.1751C15.9533 11.1751 15.9534 11.175 15.9534 11.175C15.9534 11.175 15.9534 11.175 15.9534 11.175C15.9534 11.175 15.9534 11.175 15.912 11.084ZM14.9556 11.8792L14.8836 11.0632L14.6844 11.0808L14.7564 11.8968L14.9556 11.8792ZM14.844 11.152L15.324 10.792L15.204 10.632L14.724 10.992L14.844 11.152ZM15.288 10.8091L18.828 9.93307L18.78 9.73893L15.24 10.6149L15.288 10.8091ZM18.704 9.836C18.704 10.1045 18.7403 10.4974 18.791 10.7003L18.985 10.6517C18.9397 10.4706 18.904 10.0955 18.904 9.836H18.704ZM18.862 10.5794C17.2124 11.0233 16.2748 11.2818 15.7135 11.4518C15.1534 11.6215 14.9592 11.7056 14.803 11.8032L14.909 11.9728C15.0408 11.8904 15.2126 11.8125 15.7715 11.6432C16.3292 11.4742 17.2636 11.2167 18.914 10.7726L18.862 10.5794ZM12.66 5.724H23.328V5.524H12.66V5.724ZM23.228 5.624V6.524H23.428V5.624H23.228ZM23.328 6.424H12.66V6.624H23.328V6.424ZM12.76 6.524V5.624H12.56V6.524H12.76ZM18.434 6.06625C19.2845 8.39892 21.0484 10.151 23.5767 10.8682L23.6313 10.6758C21.1676 9.97697 19.4515 8.27308 18.622 5.99775L18.434 6.06625ZM23.5396 10.6955C23.2985 10.8985 23.0149 11.2946 22.8786 11.5673L23.0574 11.6567C23.1851 11.4014 23.4535 11.0295 23.6684 10.8485L23.5396 10.6955ZM22.9992 11.517C20.4408 10.676 18.7333 8.81774 17.7941 6.21407L17.6059 6.28193C18.5627 8.93426 20.3112 10.844 22.9368 11.707L22.9992 11.517ZM17.7252 6.34476L18.5532 6.12876L18.5028 5.93524L17.6748 6.15124L17.7252 6.34476ZM21.1888 1.27598L22.0888 1.65998L22.1672 1.47602L21.2672 1.09202L21.1888 1.27598ZM22.0519 1.50308C20.8755 2.88155 19.0641 4.12203 17.4403 4.91003L17.5277 5.08997C19.1679 4.29397 21.0045 3.03845 22.2041 1.63292L22.0519 1.50308ZM17.5616 4.93694C17.4025 4.74107 17.0365 4.36222 16.7993 4.18749L16.6807 4.34851C16.8995 4.50978 17.2535 4.87493 17.4064 5.06306L17.5616 4.93694ZM16.7777 4.36062C18.4684 3.67225 20.2353 2.51198 21.3043 1.24859L21.1517 1.11941C20.1087 2.35202 18.3716 3.49575 16.7023 4.17538L16.7777 4.36062Z" fill="black"/>
</svg>
