<svg width="24" height="13" viewBox="0 0 24 13" fill="none" xmlns="http://www.w3.org/2000/svg">
<path d="M6.66 1.364L7.32 1.964C6.708 2.324 5.916 2.636 5.244 2.852C5.196 2.684 5.076 2.42 4.968 2.24C5.58 2.012 6.264 1.676 6.66 1.364ZM4.8 1.988L5.592 2.24V6.104H4.8V1.988ZM4.8 5.696H10.224V2.648H8.7V1.916H11.04V6.44H4.8V5.696ZM5.148 3.812H6.9V4.496H5.148V3.812ZM8.748 3.812H10.584V4.496H8.748V3.812ZM7.44 0.931999H8.256V7.7H7.44V0.931999ZM4.476 7.532H10.368V8.3H4.476V7.532ZM10.116 7.532H10.284L10.44 7.496L11.004 7.772C9.864 10.328 7.128 11.504 4.188 11.984C4.116 11.756 3.948 11.408 3.792 11.216C6.54 10.856 9.168 9.8 10.116 7.664V7.532ZM6.048 8.216C7.02 9.824 9.12 10.856 11.64 11.252C11.436 11.444 11.196 11.792 11.076 12.044C8.496 11.552 6.384 10.376 5.256 8.516L6.048 8.216ZM0.336 7.304C1.368 7.04 2.904 6.584 4.392 6.152L4.5 6.968C3.132 7.4 1.692 7.856 0.576 8.18L0.336 7.304ZM0.492 3.344H4.38V4.184H0.492V3.344ZM2.16 0.931999H3.036V10.928C3.036 11.42 2.916 11.672 2.604 11.804C2.292 11.948 1.812 11.972 1.008 11.96C0.984 11.744 0.852 11.384 0.744 11.144C1.284 11.156 1.788 11.156 1.932 11.156C2.1 11.156 2.16 11.096 2.16 10.928V0.931999ZM17.52 8.66H18.42V11.984H17.52V8.66ZM17.52 0.92H18.408V4.28H17.52V0.92ZM17.076 4.496L17.916 4.904C17.22 5.552 16.368 6.248 15.672 6.728L15.012 6.356C15.684 5.864 16.584 5.072 17.076 4.496ZM19.668 5.276L20.484 5.72C19.128 6.824 17.28 8.096 15.816 8.912L15.18 8.48C16.644 7.652 18.54 6.296 19.668 5.276ZM14.088 6.32L14.688 5.804C15.588 6.248 16.728 6.932 17.316 7.436L16.692 8.012C16.14 7.508 15.012 6.788 14.088 6.32ZM19.536 7.268L20.136 6.788C21.192 7.412 22.524 8.336 23.196 8.972L22.56 9.524C21.924 8.888 20.604 7.904 19.536 7.268ZM19.572 9.836L20.256 9.368C21.288 9.872 22.608 10.676 23.292 11.264L22.548 11.804C21.924 11.216 20.628 10.376 19.572 9.836ZM12.78 8.288C14.976 8.288 18.6 8.24 22.02 8.168L21.972 8.888C18.648 8.984 15.108 9.092 12.828 9.116L12.78 8.288ZM15.468 9.356L16.32 9.668C15.516 10.496 14.28 11.324 13.236 11.84C13.08 11.672 12.744 11.36 12.528 11.204C13.596 10.76 14.748 10.064 15.468 9.356ZM12.912 1.988H23.052V2.78H12.912V1.988ZM12.876 3.932H23.16V6.188H22.272V4.712H13.728V6.188H12.876V3.932Z" fill="black"/>
<path d="M6.66 1.364L6.72727 1.29001L6.66462 1.23305L6.59811 1.28545L6.66 1.364ZM7.32 1.964L7.3707 2.05019L7.48774 1.98135L7.38727 1.89001L7.32 1.964ZM5.244 2.852L5.14785 2.87947L5.17623 2.97882L5.2746 2.9472L5.244 2.852ZM4.968 2.24L4.93309 2.14629L4.82036 2.18829L4.88225 2.29145L4.968 2.24ZM4.8 1.988L4.83032 1.89271L4.7 1.85124V1.988H4.8ZM5.592 2.24H5.692V2.16688L5.62232 2.14471L5.592 2.24ZM5.592 6.104V6.204H5.692V6.104H5.592ZM4.8 6.104H4.7V6.204H4.8V6.104ZM4.8 5.696V5.596H4.7V5.696H4.8ZM10.224 5.696V5.796H10.324V5.696H10.224ZM10.224 2.648H10.324V2.548H10.224V2.648ZM8.7 2.648H8.6V2.748H8.7V2.648ZM8.7 1.916V1.816H8.6V1.916H8.7ZM11.04 1.916H11.14V1.816H11.04V1.916ZM11.04 6.44V6.54H11.14V6.44H11.04ZM4.8 6.44H4.7V6.54H4.8V6.44ZM5.148 3.812V3.712H5.048V3.812H5.148ZM6.9 3.812H7V3.712H6.9V3.812ZM6.9 4.496V4.596H7V4.496H6.9ZM5.148 4.496H5.048V4.596H5.148V4.496ZM8.748 3.812V3.712H8.648V3.812H8.748ZM10.584 3.812H10.684V3.712H10.584V3.812ZM10.584 4.496V4.596H10.684V4.496H10.584ZM8.748 4.496H8.648V4.596H8.748V4.496ZM7.44 0.931999V0.831999H7.34V0.931999H7.44ZM8.256 0.931999H8.356V0.831999H8.256V0.931999ZM8.256 7.7V7.8H8.356V7.7H8.256ZM7.44 7.7H7.34V7.8H7.44V7.7ZM4.476 7.532V7.432H4.376V7.532H4.476ZM10.368 7.532H10.468V7.432H10.368V7.532ZM10.368 8.3V8.4H10.468V8.3H10.368ZM4.476 8.3H4.376V8.4H4.476V8.3ZM10.116 7.532V7.432H10.016V7.532H10.116ZM10.284 7.532V7.632H10.2954L10.3065 7.62944L10.284 7.532ZM10.44 7.496L10.484 7.40618L10.4521 7.39058L10.4175 7.39856L10.44 7.496ZM11.004 7.772L11.0953 7.81273L11.1346 7.7246L11.048 7.68218L11.004 7.772ZM4.188 11.984L4.09264 12.0141L4.1187 12.0966L4.20411 12.0827L4.188 11.984ZM3.792 11.216L3.77901 11.1168L3.60149 11.1401L3.71439 11.2791L3.792 11.216ZM10.116 7.664L10.2074 7.70457L10.216 7.68519V7.664H10.116ZM6.048 8.216L6.13358 8.16427L6.09048 8.09297L6.01258 8.12248L6.048 8.216ZM11.64 11.252L11.7085 11.3248L11.8572 11.1849L11.6555 11.1532L11.64 11.252ZM11.076 12.044L11.0573 12.1422L11.1331 12.1567L11.1663 12.087L11.076 12.044ZM5.256 8.516L5.22058 8.42248L5.10816 8.46507L5.1705 8.56785L5.256 8.516ZM0.336 7.304L0.311217 7.20712L0.212678 7.23233L0.239554 7.33042L0.336 7.304ZM4.392 6.152L4.49114 6.13888L4.47587 6.02352L4.36412 6.05597L4.392 6.152ZM4.5 6.968L4.53011 7.06336L4.61015 7.03808L4.59914 6.95488L4.5 6.968ZM0.576 8.18L0.479554 8.20642L0.506381 8.30434L0.603881 8.27603L0.576 8.18ZM0.492 3.344V3.244H0.392V3.344H0.492ZM4.38 3.344H4.48V3.244H4.38V3.344ZM4.38 4.184V4.284H4.48V4.184H4.38ZM0.492 4.184H0.392V4.284H0.492V4.184ZM2.16 0.931999V0.831999H2.06V0.931999H2.16ZM3.036 0.931999H3.136V0.831999H3.036V0.931999ZM2.604 11.804L2.56502 11.7119L2.56209 11.7132L2.604 11.804ZM1.008 11.96L0.908612 11.971L0.918348 12.0587L1.00651 12.06L1.008 11.96ZM0.744 11.144L0.746222 11.044L0.587768 11.0405L0.652808 11.185L0.744 11.144ZM6.59273 1.43799L7.25273 2.03799L7.38727 1.89001L6.72727 1.29001L6.59273 1.43799ZM7.2693 1.87781C6.66622 2.23256 5.88195 2.5419 5.2134 2.7568L5.2746 2.9472C5.95005 2.73009 6.74978 2.41544 7.3707 2.05019L7.2693 1.87781ZM5.34015 2.82453C5.28922 2.64626 5.16514 2.3742 5.05375 2.18855L4.88225 2.29145C4.98686 2.4658 5.10278 2.72174 5.14785 2.87947L5.34015 2.82453ZM5.00291 2.33371C5.61889 2.10423 6.31402 1.7639 6.72189 1.44255L6.59811 1.28545C6.21398 1.5881 5.54111 1.91977 4.93309 2.14629L5.00291 2.33371ZM4.76968 2.08329L5.56168 2.33529L5.62232 2.14471L4.83032 1.89271L4.76968 2.08329ZM5.492 2.24V6.104H5.692V2.24H5.492ZM5.592 6.004H4.8V6.204H5.592V6.004ZM4.9 6.104V1.988H4.7V6.104H4.9ZM4.8 5.796H10.224V5.596H4.8V5.796ZM10.324 5.696V2.648H10.124V5.696H10.324ZM10.224 2.548H8.7V2.748H10.224V2.548ZM8.8 2.648V1.916H8.6V2.648H8.8ZM8.7 2.016H11.04V1.816H8.7V2.016ZM10.94 1.916V6.44H11.14V1.916H10.94ZM11.04 6.34H4.8V6.54H11.04V6.34ZM4.9 6.44V5.696H4.7V6.44H4.9ZM5.148 3.912H6.9V3.712H5.148V3.912ZM6.8 3.812V4.496H7V3.812H6.8ZM6.9 4.396H5.148V4.596H6.9V4.396ZM5.248 4.496V3.812H5.048V4.496H5.248ZM8.748 3.912H10.584V3.712H8.748V3.912ZM10.484 3.812V4.496H10.684V3.812H10.484ZM10.584 4.396H8.748V4.596H10.584V4.396ZM8.848 4.496V3.812H8.648V4.496H8.848ZM7.44 1.032H8.256V0.831999H7.44V1.032ZM8.156 0.931999V7.7H8.356V0.931999H8.156ZM8.256 7.6H7.44V7.8H8.256V7.6ZM7.54 7.7V0.931999H7.34V7.7H7.54ZM4.476 7.632H10.368V7.432H4.476V7.632ZM10.268 7.532V8.3H10.468V7.532H10.268ZM10.368 8.2H4.476V8.4H10.368V8.2ZM4.576 8.3V7.532H4.376V8.3H4.576ZM10.116 7.632H10.284V7.432H10.116V7.632ZM10.3065 7.62944L10.4625 7.59344L10.4175 7.39856L10.2615 7.43456L10.3065 7.62944ZM10.396 7.58582L10.96 7.86182L11.048 7.68218L10.484 7.40618L10.396 7.58582ZM10.9127 7.73127C9.79401 10.2394 7.10279 11.4068 4.17189 11.8853L4.20411 12.0827C7.15321 11.6012 9.93399 10.4166 11.0953 7.81273L10.9127 7.73127ZM4.28336 11.9539C4.20871 11.7175 4.03563 11.3573 3.86961 11.1529L3.71439 11.2791C3.86037 11.4587 4.02329 11.7945 4.09264 12.0141L4.28336 11.9539ZM3.80499 11.3152C5.18645 11.1342 6.54247 10.7778 7.67477 10.1949C8.8073 9.61195 9.72148 8.79943 10.2074 7.70457L10.0246 7.62343C9.56252 8.66457 8.6887 9.44805 7.58323 10.0171C6.47753 10.5862 5.14555 10.9378 3.77901 11.1168L3.80499 11.3152ZM10.216 7.664V7.532H10.016V7.664H10.216ZM5.96242 8.26773C6.95676 9.91269 9.09227 10.9529 11.6245 11.3508L11.6555 11.1532C9.14773 10.7591 7.08324 9.73531 6.13358 8.16427L5.96242 8.26773ZM11.5715 11.1792C11.3569 11.3811 11.1101 11.7398 10.9857 12.001L11.1663 12.087C11.2819 11.8442 11.5151 11.5069 11.7085 11.3248L11.5715 11.1792ZM11.0947 11.9458C8.53145 11.457 6.44983 10.2917 5.34151 8.46414L5.1705 8.56785C6.31817 10.4603 8.46055 11.647 11.0573 12.1422L11.0947 11.9458ZM5.29142 8.60952L6.08342 8.30952L6.01258 8.12248L5.22058 8.42248L5.29142 8.60952ZM0.360783 7.40088C1.39483 7.13636 2.93331 6.67962 4.41988 6.24803L4.36412 6.05597C2.87469 6.48838 1.34117 6.94364 0.311217 7.20712L0.360783 7.40088ZM4.29286 6.16512L4.40087 6.98112L4.59914 6.95488L4.49114 6.13888L4.29286 6.16512ZM4.46989 6.87264C3.10142 7.30479 1.66273 7.76037 0.548119 8.08397L0.603881 8.27603C1.72127 7.95163 3.16258 7.49521 4.53011 7.06336L4.46989 6.87264ZM0.672446 8.15358L0.432446 7.27758L0.239554 7.33042L0.479554 8.20642L0.672446 8.15358ZM0.492 3.444H4.38V3.244H0.492V3.444ZM4.28 3.344V4.184H4.48V3.344H4.28ZM4.38 4.084H0.492V4.284H4.38V4.084ZM0.592 4.184V3.344H0.392V4.184H0.592ZM2.16 1.032H3.036V0.831999H2.16V1.032ZM2.936 0.931999V10.928H3.136V0.931999H2.936ZM2.936 10.928C2.936 11.1679 2.90638 11.3361 2.84718 11.457C2.79014 11.5736 2.70188 11.654 2.56504 11.7119L2.64296 11.8961C2.81812 11.822 2.94586 11.7104 3.02682 11.545C3.10562 11.3839 3.136 11.1801 3.136 10.928H2.936ZM2.56209 11.7132C2.42122 11.7782 2.23634 11.8188 1.98186 11.8409C1.72774 11.8629 1.41104 11.866 1.00949 11.86L1.00651 12.06C1.40896 12.066 1.73426 12.0631 1.99914 12.0401C2.26366 12.0172 2.47478 11.9738 2.64591 11.8948L2.56209 11.7132ZM1.10739 11.949C1.08153 11.7162 0.943665 11.344 0.835192 11.103L0.652808 11.185C0.760335 11.424 0.886468 11.7718 0.908612 11.971L1.10739 11.949ZM0.741778 11.244C1.28296 11.256 1.78789 11.256 1.932 11.256V11.056C1.78811 11.056 1.28504 11.056 0.746222 11.044L0.741778 11.244ZM1.932 11.256C2.02315 11.256 2.11467 11.2407 2.17971 11.1757C2.24475 11.1107 2.26 11.0191 2.26 10.928H2.06C2.06 11.0049 2.04525 11.0273 2.03829 11.0343C2.03133 11.0413 2.00885 11.056 1.932 11.056V11.256ZM2.26 10.928V0.931999H2.06V10.928H2.26ZM17.52 8.66V8.56H17.42V8.66H17.52ZM18.42 8.66H18.52V8.56H18.42V8.66ZM18.42 11.984V12.084H18.52V11.984H18.42ZM17.52 11.984H17.42V12.084H17.52V11.984ZM17.52 0.92V0.82H17.42V0.92H17.52ZM18.408 0.92H18.508V0.82H18.408V0.92ZM18.408 4.28V4.38H18.508V4.28H18.408ZM17.52 4.28H17.42V4.38H17.52V4.28ZM17.076 4.496L17.1197 4.40605L17.0502 4.37228L17 4.43105L17.076 4.496ZM17.916 4.904L17.9841 4.97719L18.0909 4.87778L17.9597 4.81405L17.916 4.904ZM15.672 6.728L15.6229 6.81511L15.6773 6.8458L15.7288 6.81032L15.672 6.728ZM15.012 6.356L14.9529 6.27531L14.8278 6.36695L14.9629 6.44311L15.012 6.356ZM19.668 5.276L19.7158 5.18816L19.6535 5.15427L19.6009 5.20183L19.668 5.276ZM20.484 5.72L20.5471 5.79755L20.6628 5.70342L20.5318 5.63216L20.484 5.72ZM15.816 8.912L15.7598 8.99472L15.8108 9.02937L15.8647 8.99935L15.816 8.912ZM15.18 8.48L15.1308 8.39296L14.9906 8.47224L15.1238 8.56272L15.18 8.48ZM14.088 6.32L14.0228 6.24418L13.9094 6.34166L14.0428 6.40921L14.088 6.32ZM14.688 5.804L14.7322 5.71432L14.6729 5.68506L14.6228 5.72818L14.688 5.804ZM17.316 7.436L17.3838 7.50948L17.4664 7.43323L17.3811 7.36007L17.316 7.436ZM16.692 8.012L16.6246 8.08585L16.6924 8.14775L16.7598 8.08548L16.692 8.012ZM19.536 7.268L19.4735 7.18991L19.3608 7.28007L19.4848 7.35392L19.536 7.268ZM20.136 6.788L20.1869 6.70191L20.1274 6.66679L20.0735 6.70991L20.136 6.788ZM23.196 8.972L23.2615 9.04752L23.3449 8.97521L23.2647 8.89937L23.196 8.972ZM22.56 9.524L22.4893 9.59471L22.5552 9.6606L22.6255 9.59952L22.56 9.524ZM19.572 9.836L19.5155 9.75347L19.3767 9.84845L19.5265 9.92503L19.572 9.836ZM20.256 9.368L20.2999 9.27814L20.2476 9.2526L20.1995 9.28547L20.256 9.368ZM23.292 11.264L23.3507 11.3449L23.4531 11.2706L23.3572 11.1882L23.292 11.264ZM22.548 11.804L22.4794 11.8768L22.5397 11.9336L22.6067 11.8849L22.548 11.804ZM12.78 8.288V8.188H12.674L12.6802 8.29379L12.78 8.288ZM22.02 8.168L22.1198 8.17465L22.127 8.06572L22.0179 8.06802L22.02 8.168ZM21.972 8.888L21.9749 8.98796L22.0657 8.98533L22.0718 8.89465L21.972 8.888ZM12.828 9.116L12.7282 9.12179L12.7337 9.217L12.8291 9.21599L12.828 9.116ZM15.468 9.356L15.5024 9.2621L15.443 9.24035L15.3979 9.2847L15.468 9.356ZM16.32 9.668L16.3917 9.73766L16.4991 9.62709L16.3544 9.5741L16.32 9.668ZM13.236 11.84L13.1627 11.908L13.2135 11.9627L13.2803 11.9296L13.236 11.84ZM12.528 11.204L12.4896 11.1117L12.3244 11.1803L12.4695 11.2851L12.528 11.204ZM12.912 1.988V1.888H12.812V1.988H12.912ZM23.052 1.988H23.152V1.888H23.052V1.988ZM23.052 2.78V2.88H23.152V2.78H23.052ZM12.912 2.78H12.812V2.88H12.912V2.78ZM12.876 3.932V3.832H12.776V3.932H12.876ZM23.16 3.932H23.26V3.832H23.16V3.932ZM23.16 6.188V6.288H23.26V6.188H23.16ZM22.272 6.188H22.172V6.288H22.272V6.188ZM22.272 4.712H22.372V4.612H22.272V4.712ZM13.728 4.712V4.612H13.628V4.712H13.728ZM13.728 6.188V6.288H13.828V6.188H13.728ZM12.876 6.188H12.776V6.288H12.876V6.188ZM17.52 8.76H18.42V8.56H17.52V8.76ZM18.32 8.66V11.984H18.52V8.66H18.32ZM18.42 11.884H17.52V12.084H18.42V11.884ZM17.62 11.984V8.66H17.42V11.984H17.62ZM17.52 1.02H18.408V0.82H17.52V1.02ZM18.308 0.92V4.28H18.508V0.92H18.308ZM18.408 4.18H17.52V4.38H18.408V4.18ZM17.62 4.28V0.92H17.42V4.28H17.62ZM17.0323 4.58595L17.8723 4.99395L17.9597 4.81405L17.1197 4.40605L17.0323 4.58595ZM17.8479 4.83081C17.1548 5.47611 16.3065 6.16891 15.6152 6.64568L15.7288 6.81032C16.4295 6.32709 17.2852 5.62789 17.9841 4.97719L17.8479 4.83081ZM15.7211 6.64088L15.0611 6.26888L14.9629 6.44311L15.6229 6.81511L15.7211 6.64088ZM15.0711 6.43669C15.7472 5.94165 16.6536 5.14453 17.152 4.56095L17 4.43105C16.5144 4.99947 15.6208 5.78634 14.9529 6.27531L15.0711 6.43669ZM19.6202 5.36384L20.4362 5.80784L20.5318 5.63216L19.7158 5.18816L19.6202 5.36384ZM20.4209 5.64245C19.0689 6.74318 17.2257 8.01179 15.7673 8.82465L15.8647 8.99935C17.3343 8.18021 19.1871 6.90482 20.5471 5.79755L20.4209 5.64245ZM15.8722 8.82928L15.2362 8.39728L15.1238 8.56272L15.7598 8.99472L15.8722 8.82928ZM15.2292 8.56704C16.6991 7.73574 18.6012 6.37552 19.7351 5.35017L19.6009 5.20183C18.4788 6.21648 16.5889 7.56826 15.1308 8.39296L15.2292 8.56704ZM14.1532 6.39582L14.7532 5.87982L14.6228 5.72818L14.0228 6.24418L14.1532 6.39582ZM14.6438 5.89368C15.5407 6.33615 16.6721 7.01583 17.2509 7.51193L17.3811 7.36007C16.7839 6.84817 15.6353 6.15985 14.7322 5.71432L14.6438 5.89368ZM17.2482 7.36252L16.6242 7.93852L16.7598 8.08548L17.3838 7.50948L17.2482 7.36252ZM16.7594 7.93815C16.198 7.42558 15.0612 6.70081 14.1332 6.23079L14.0428 6.40921C14.9628 6.87519 16.082 7.59042 16.6246 8.08585L16.7594 7.93815ZM19.5985 7.34609L20.1985 6.86609L20.0735 6.70991L19.4735 7.18991L19.5985 7.34609ZM20.0851 6.87409C21.1386 7.4966 22.4632 8.41617 23.1273 9.04463L23.2647 8.89937C22.5848 8.25583 21.2454 7.3274 20.1869 6.70191L20.0851 6.87409ZM23.1305 8.89648L22.4945 9.44848L22.6255 9.59952L23.2615 9.04752L23.1305 8.89648ZM22.6307 9.45329C21.9871 8.80965 20.6597 7.8208 19.5872 7.18208L19.4848 7.35392C20.5483 7.9872 21.8609 8.96635 22.4893 9.59471L22.6307 9.45329ZM19.6285 9.91853L20.3125 9.45053L20.1995 9.28547L19.5155 9.75347L19.6285 9.91853ZM20.2121 9.45786C21.2401 9.95989 22.5518 10.7595 23.2268 11.3398L23.3572 11.1882C22.6642 10.5925 21.3359 9.78411 20.2999 9.27814L20.2121 9.45786ZM23.2333 11.1831L22.4893 11.7231L22.6067 11.8849L23.3507 11.3449L23.2333 11.1831ZM22.6166 11.7312C21.9829 11.1341 20.6776 10.289 19.6175 9.74697L19.5265 9.92503C20.5784 10.463 21.8651 11.2979 22.4794 11.8768L22.6166 11.7312ZM12.78 8.388C14.977 8.388 18.6018 8.33998 22.0221 8.26798L22.0179 8.06802C18.5982 8.14002 14.975 8.188 12.78 8.188V8.388ZM21.9202 8.16135L21.8722 8.88135L22.0718 8.89465L22.1198 8.17465L21.9202 8.16135ZM21.9691 8.78804C18.6445 8.88406 15.1058 8.99202 12.8269 9.01601L12.8291 9.21599C15.1102 9.19198 18.6515 9.08394 21.9749 8.98796L21.9691 8.78804ZM12.9278 9.11021L12.8798 8.28221L12.6802 8.29379L12.7282 9.12179L12.9278 9.11021ZM15.4336 9.4499L16.2856 9.7619L16.3544 9.5741L15.5024 9.2621L15.4336 9.4499ZM16.2483 9.59834C15.4542 10.4161 14.2284 11.238 13.1917 11.7504L13.2803 11.9296C14.3316 11.41 15.5778 10.5759 16.3917 9.73766L16.2483 9.59834ZM13.3093 11.772C13.1501 11.6005 12.8092 11.2838 12.5865 11.1229L12.4695 11.2851C12.6788 11.4362 13.0099 11.7435 13.1627 11.908L13.3093 11.772ZM12.5664 11.2963C13.6423 10.8491 14.8064 10.1469 15.5381 9.4273L15.3979 9.2847C14.6896 9.98114 13.5497 10.6709 12.4896 11.1117L12.5664 11.2963ZM12.912 2.088H23.052V1.888H12.912V2.088ZM22.952 1.988V2.78H23.152V1.988H22.952ZM23.052 2.68H12.912V2.88H23.052V2.68ZM13.012 2.78V1.988H12.812V2.78H13.012ZM12.876 4.032H23.16V3.832H12.876V4.032ZM23.06 3.932V6.188H23.26V3.932H23.06ZM23.16 6.088H22.272V6.288H23.16V6.088ZM22.372 6.188V4.712H22.172V6.188H22.372ZM22.272 4.612H13.728V4.812H22.272V4.612ZM13.628 4.712V6.188H13.828V4.712H13.628ZM13.728 6.088H12.876V6.288H13.728V6.088ZM12.976 6.188V3.932H12.776V6.188H12.976Z" fill="black"/>
</svg>
