<svg width="24" height="12" viewBox="0 0 24 12" fill="none" xmlns="http://www.w3.org/2000/svg">
<path d="M8.688 3.416L9.636 3.692C8.124 8.096 5.4 10.568 1.032 11.984C0.936 11.756 0.648 11.324 0.456 11.108C4.74 9.884 7.344 7.532 8.688 3.416ZM3.24 3.476C4.536 7.316 7.236 10.076 11.568 11.084C11.352 11.3 11.064 11.708 10.92 11.972C6.468 10.808 3.828 7.952 2.352 3.752L3.24 3.476ZM0.6 2.96H11.448V3.848H0.6V2.96ZM5.52 0.92H6.444V3.5H5.52V0.92ZM14.796 4.4H20.556V5.228H14.796V4.4ZM12.84 7.412H23.184V8.264H12.84V7.412ZM17.532 6.512H18.48V10.844C18.48 11.384 18.348 11.648 17.916 11.792C17.496 11.936 16.86 11.948 15.84 11.948C15.78 11.684 15.6 11.3 15.444 11.048C16.26 11.072 17.04 11.072 17.256 11.06C17.472 11.048 17.532 11 17.532 10.832V6.512ZM20.28 4.4H20.52L20.724 4.352L21.312 4.796C20.52 5.672 19.332 6.608 18.228 7.172C18.12 7.004 17.88 6.776 17.736 6.656C18.672 6.152 19.74 5.252 20.28 4.58V4.4ZM17.508 0.908H18.456V2.84H17.508V0.908ZM12.96 2.228H23.028V5.048H22.104V3.08H13.848V5.048H12.96V2.228Z" fill="black"/>
<path d="M8.688 3.416L8.71595 3.31999L8.62299 3.29292L8.59294 3.38496L8.688 3.416ZM9.636 3.692L9.73058 3.72447L9.76463 3.6253L9.66395 3.59599L9.636 3.692ZM1.032 11.984L0.939837 12.0228L0.975475 12.1074L1.06284 12.0791L1.032 11.984ZM0.456 11.108L0.428528 11.0118L0.27558 11.0555L0.381259 11.1744L0.456 11.108ZM3.24 3.476L3.33475 3.44402L3.30353 3.35153L3.21032 3.38051L3.24 3.476ZM11.568 11.084L11.6387 11.1547L11.766 11.0274L11.5907 10.9866L11.568 11.084ZM10.92 11.972L10.8947 12.0687L10.9703 12.0885L11.0078 12.0199L10.92 11.972ZM2.352 3.752L2.32232 3.65651L2.22326 3.68729L2.25766 3.78515L2.352 3.752ZM0.6 2.96V2.86H0.5V2.96H0.6ZM11.448 2.96H11.548V2.86H11.448V2.96ZM11.448 3.848V3.948H11.548V3.848H11.448ZM0.6 3.848H0.5V3.948H0.6V3.848ZM5.52 0.92V0.82H5.42V0.92H5.52ZM6.444 0.92H6.544V0.82H6.444V0.92ZM6.444 3.5V3.6H6.544V3.5H6.444ZM5.52 3.5H5.42V3.6H5.52V3.5ZM8.66005 3.51201L9.60805 3.78801L9.66395 3.59599L8.71595 3.31999L8.66005 3.51201ZM9.54142 3.65953C8.78971 5.84903 7.73854 7.55341 6.33612 8.88601C4.93343 10.2189 3.17462 11.1843 1.00116 11.8889L1.06284 12.0791C3.25738 11.3677 5.04457 10.3891 6.47388 9.03099C7.90346 7.67259 8.97029 5.93897 9.73058 3.72447L9.54142 3.65953ZM1.12416 11.9452C1.07249 11.8225 0.972365 11.6513 0.86344 11.4864C0.753992 11.3207 0.631066 11.1544 0.530741 11.0416L0.381259 11.1744C0.472934 11.2776 0.590008 11.4353 0.69656 11.5966C0.803636 11.7587 0.895508 11.9175 0.939837 12.0228L1.12416 11.9452ZM0.483472 11.2042C2.63666 10.589 4.3738 9.68849 5.74248 8.41984C7.11149 7.15089 8.10671 5.51835 8.78306 3.44704L8.59294 3.38496C7.92529 5.42965 6.94651 7.03111 5.60652 8.27316C4.2662 9.51551 2.55935 10.403 0.428528 11.0118L0.483472 11.2042ZM3.14525 3.50798C4.45146 7.37821 7.17702 10.1649 11.5453 11.1814L11.5907 10.9866C7.29498 9.98705 4.62055 7.25379 3.33475 3.44402L3.14525 3.50798ZM11.4973 11.0133C11.273 11.2376 10.9796 11.6538 10.8322 11.9241L11.0078 12.0199C11.1484 11.7622 11.431 11.3624 11.6387 11.1547L11.4973 11.0133ZM10.9453 11.8753C6.53042 10.721 3.91314 7.89267 2.44634 3.71884L2.25766 3.78515C3.74286 8.01133 6.40558 10.895 10.8947 12.0687L10.9453 11.8753ZM2.38168 3.84749L3.26968 3.57149L3.21032 3.38051L2.32232 3.65651L2.38168 3.84749ZM0.6 3.06H11.448V2.86H0.6V3.06ZM11.348 2.96V3.848H11.548V2.96H11.348ZM11.448 3.748H0.6V3.948H11.448V3.748ZM0.7 3.848V2.96H0.5V3.848H0.7ZM5.52 1.02H6.444V0.82H5.52V1.02ZM6.344 0.92V3.5H6.544V0.92H6.344ZM6.444 3.4H5.52V3.6H6.444V3.4ZM5.62 3.5V0.92H5.42V3.5H5.62ZM14.796 4.4V4.3H14.696V4.4H14.796ZM20.556 4.4H20.656V4.3H20.556V4.4ZM20.556 5.228V5.328H20.656V5.228H20.556ZM14.796 5.228H14.696V5.328H14.796V5.228ZM12.84 7.412V7.312H12.74V7.412H12.84ZM23.184 7.412H23.284V7.312H23.184V7.412ZM23.184 8.264V8.364H23.284V8.264H23.184ZM12.84 8.264H12.74V8.364H12.84V8.264ZM17.532 6.512V6.412H17.432V6.512H17.532ZM18.48 6.512H18.58V6.412H18.48V6.512ZM17.916 11.792L17.8844 11.6971L17.8836 11.6974L17.916 11.792ZM15.84 11.948L15.7425 11.9702L15.7602 12.048H15.84V11.948ZM15.444 11.048L15.4469 10.948L15.2611 10.9426L15.359 11.1006L15.444 11.048ZM17.256 11.06L17.2615 11.1598L17.256 11.06ZM20.28 4.4V4.3H20.18V4.4H20.28ZM20.52 4.4V4.5H20.5316L20.5429 4.49734L20.52 4.4ZM20.724 4.352L20.7843 4.2722L20.7468 4.24391L20.7011 4.25466L20.724 4.352ZM21.312 4.796L21.3862 4.86306L21.4594 4.78203L21.3723 4.7162L21.312 4.796ZM18.228 7.172L18.1439 7.22608L18.1929 7.30225L18.2735 7.26105L18.228 7.172ZM17.736 6.656L17.6886 6.56795L17.5583 6.6381L17.672 6.73282L17.736 6.656ZM20.28 4.58L20.358 4.64264L20.38 4.6152V4.58H20.28ZM17.508 0.908V0.808H17.408V0.908H17.508ZM18.456 0.908H18.556V0.808H18.456V0.908ZM18.456 2.84V2.94H18.556V2.84H18.456ZM17.508 2.84H17.408V2.94H17.508V2.84ZM12.96 2.228V2.128H12.86V2.228H12.96ZM23.028 2.228H23.128V2.128H23.028V2.228ZM23.028 5.048V5.148H23.128V5.048H23.028ZM22.104 5.048H22.004V5.148H22.104V5.048ZM22.104 3.08H22.204V2.98H22.104V3.08ZM13.848 3.08V2.98H13.748V3.08H13.848ZM13.848 5.048V5.148H13.948V5.048H13.848ZM12.96 5.048H12.86V5.148H12.96V5.048ZM14.796 4.5H20.556V4.3H14.796V4.5ZM20.456 4.4V5.228H20.656V4.4H20.456ZM20.556 5.128H14.796V5.328H20.556V5.128ZM14.896 5.228V4.4H14.696V5.228H14.896ZM12.84 7.512H23.184V7.312H12.84V7.512ZM23.084 7.412V8.264H23.284V7.412H23.084ZM23.184 8.164H12.84V8.364H23.184V8.164ZM12.94 8.264V7.412H12.74V8.264H12.94ZM17.532 6.612H18.48V6.412H17.532V6.612ZM18.38 6.512V10.844H18.58V6.512H18.38ZM18.38 10.844C18.38 11.1087 18.3471 11.2882 18.2733 11.4167C18.2021 11.5407 18.085 11.6303 17.8844 11.6971L17.9476 11.8869C18.179 11.8097 18.3439 11.6953 18.4467 11.5163C18.5469 11.3418 18.58 11.1193 18.58 10.844H18.38ZM17.8836 11.6974C17.6863 11.7651 17.4328 11.8034 17.0968 11.8242C16.7614 11.845 16.3504 11.848 15.84 11.848V12.048C16.3496 12.048 16.7666 12.045 17.1092 12.0238C17.4512 12.0026 17.7257 11.9629 17.9484 11.8866L17.8836 11.6974ZM15.9375 11.9258C15.8742 11.6472 15.6883 11.2526 15.529 10.9954L15.359 11.1006C15.5117 11.3474 15.6858 11.7208 15.7425 11.9702L15.9375 11.9258ZM15.4411 11.148C16.257 11.172 17.0409 11.1721 17.2615 11.1598L17.2505 10.9602C17.0391 10.9719 16.263 10.972 15.4469 10.948L15.4411 11.148ZM17.2615 11.1598C17.3687 11.1539 17.4687 11.1391 17.5385 11.0818C17.6166 11.0176 17.632 10.9235 17.632 10.832H17.432C17.432 10.9085 17.4174 10.9224 17.4115 10.9272C17.3973 10.9389 17.3593 10.9541 17.2505 10.9602L17.2615 11.1598ZM17.632 10.832V6.512H17.432V10.832H17.632ZM20.28 4.5H20.52V4.3H20.28V4.5ZM20.5429 4.49734L20.7469 4.44934L20.7011 4.25466L20.4971 4.30266L20.5429 4.49734ZM20.6637 4.4318L21.2517 4.8758L21.3723 4.7162L20.7843 4.2722L20.6637 4.4318ZM21.2378 4.72894C20.4535 5.59648 19.275 6.52481 18.1825 7.08295L18.2735 7.26105C19.389 6.69119 20.5865 5.74752 21.3862 4.86306L21.2378 4.72894ZM18.3121 7.11792C18.1954 6.93635 17.9453 6.70026 17.8 6.57918L17.672 6.73282C17.8147 6.85174 18.0446 7.07165 18.1439 7.22608L18.3121 7.11792ZM17.7834 6.74405C18.7306 6.23402 19.8092 5.32556 20.358 4.64264L20.202 4.51736C19.6708 5.17844 18.6134 6.06998 17.6886 6.56795L17.7834 6.74405ZM20.38 4.58V4.4H20.18V4.58H20.38ZM17.508 1.008H18.456V0.808H17.508V1.008ZM18.356 0.908V2.84H18.556V0.908H18.356ZM18.456 2.74H17.508V2.94H18.456V2.74ZM17.608 2.84V0.908H17.408V2.84H17.608ZM12.96 2.328H23.028V2.128H12.96V2.328ZM22.928 2.228V5.048H23.128V2.228H22.928ZM23.028 4.948H22.104V5.148H23.028V4.948ZM22.204 5.048V3.08H22.004V5.048H22.204ZM22.104 2.98H13.848V3.18H22.104V2.98ZM13.748 3.08V5.048H13.948V3.08H13.748ZM13.848 4.948H12.96V5.148H13.848V4.948ZM13.06 5.048V2.228H12.86V5.048H13.06Z" fill="black"/>
</svg>
