<svg width="24" height="12" viewBox="0 0 24 12" fill="none" xmlns="http://www.w3.org/2000/svg">
<path d="M0.768 1.568H11.22V2.384H0.768V1.568ZM5.604 1.916H6.54V6.572C6.54 8.888 5.904 10.952 1.092 11.972C0.996 11.78 0.744 11.396 0.552 11.18C5.232 10.316 5.604 8.552 5.604 6.56V1.916ZM2.724 6.068V7.292H9.564V6.068H2.724ZM2.724 4.148V5.348H9.564V4.148H2.724ZM1.872 3.392H10.476V8.048H1.872V3.392ZM3.024 8.144C4.548 10.52 7.284 10.928 11.616 11.036C11.46 11.252 11.28 11.636 11.232 11.924C6.816 11.744 3.864 11.18 2.256 8.456L3.024 8.144ZM15.012 3.572L15.612 3.044C16.512 3.464 17.616 4.136 18.156 4.64L17.52 5.228C17.004 4.724 15.912 4.016 15.012 3.572ZM20.556 1.94H20.736L20.892 1.892L21.48 2.252C19.92 5.048 16.368 6.728 13.2 7.424C13.116 7.196 12.936 6.824 12.768 6.632C15.792 6.068 19.248 4.448 20.556 2.084V1.94ZM16.548 1.94H20.784V2.696H16.548V1.94ZM17.436 0.908L18.444 1.124C17.34 2.396 15.708 3.584 13.476 4.472C13.344 4.256 13.068 3.956 12.864 3.8C15.024 3.044 16.608 1.916 17.436 0.908ZM16.548 7.976L17.208 7.46C18.156 7.952 19.308 8.708 19.884 9.284L19.176 9.86C18.636 9.296 17.496 8.492 16.548 7.976ZM22.308 6.14H22.488L22.656 6.092L23.244 6.416C21.732 9.92 17.988 11.42 14.064 11.996C14.004 11.744 13.824 11.372 13.68 11.168C17.388 10.724 21.012 9.296 22.308 6.272V6.14ZM18.408 6.14H22.548V6.908H18.408V6.14ZM19.38 5.012L20.376 5.24C19.164 6.656 17.268 7.964 14.64 8.888C14.532 8.684 14.268 8.36 14.076 8.192C16.62 7.4 18.444 6.152 19.38 5.012Z" fill="black"/>
<path d="M0.768 1.568V1.468H0.668V1.568H0.768ZM11.22 1.568H11.32V1.468H11.22V1.568ZM11.22 2.384V2.484H11.32V2.384H11.22ZM0.768 2.384H0.668V2.484H0.768V2.384ZM5.604 1.916V1.816H5.504V1.916H5.604ZM6.54 1.916H6.64V1.816H6.54V1.916ZM1.092 11.972L1.00256 12.0167L1.03712 12.0859L1.11274 12.0698L1.092 11.972ZM0.552 11.18L0.533845 11.0817L0.359417 11.1139L0.477259 11.2464L0.552 11.18ZM2.724 6.068V5.968H2.624V6.068H2.724ZM2.724 7.292H2.624V7.392H2.724V7.292ZM9.564 7.292V7.392H9.664V7.292H9.564ZM9.564 6.068H9.664V5.968H9.564V6.068ZM2.724 4.148V4.048H2.624V4.148H2.724ZM2.724 5.348H2.624V5.448H2.724V5.348ZM9.564 5.348V5.448H9.664V5.348H9.564ZM9.564 4.148H9.664V4.048H9.564V4.148ZM1.872 3.392V3.292H1.772V3.392H1.872ZM10.476 3.392H10.576V3.292H10.476V3.392ZM10.476 8.048V8.148H10.576V8.048H10.476ZM1.872 8.048H1.772V8.148H1.872V8.048ZM3.024 8.144L3.10817 8.09001L3.06332 8.02009L2.98636 8.05135L3.024 8.144ZM11.616 11.036L11.6971 11.0945L11.8081 10.9408L11.6185 10.936L11.616 11.036ZM11.232 11.924L11.2279 12.0239L11.3161 12.0275L11.3306 11.9404L11.232 11.924ZM2.256 8.456L2.21836 8.36335L2.11095 8.40699L2.16988 8.50683L2.256 8.456ZM0.768 1.668H11.22V1.468H0.768V1.668ZM11.12 1.568V2.384H11.32V1.568H11.12ZM11.22 2.284H0.768V2.484H11.22V2.284ZM0.868 2.384V1.568H0.668V2.384H0.868ZM5.604 2.016H6.54V1.816H5.604V2.016ZM6.44 1.916V6.572H6.64V1.916H6.44ZM6.44 6.572C6.44 7.72222 6.28158 8.78869 5.54299 9.69482C4.80316 10.6025 3.46705 11.3663 1.07126 11.8742L1.11274 12.0698C3.52895 11.5577 4.91684 10.7795 5.69801 9.82118C6.48042 8.86131 6.64 7.73778 6.64 6.572H6.44ZM1.18144 11.9273C1.08167 11.7277 0.82479 11.3364 0.626741 11.1136L0.477259 11.2464C0.66321 11.4556 0.910335 11.8323 1.00256 12.0167L1.18144 11.9273ZM0.570155 11.2783C2.91795 10.8449 4.20881 10.1821 4.90921 9.35775C5.61184 8.53075 5.704 7.55974 5.704 6.56H5.504C5.504 7.55226 5.41016 8.45925 4.75679 9.22825C4.10119 9.99989 2.86605 10.6511 0.533845 11.0817L0.570155 11.2783ZM5.704 6.56V1.916H5.504V6.56H5.704ZM2.624 6.068V7.292H2.824V6.068H2.624ZM2.724 7.392H9.564V7.192H2.724V7.392ZM9.664 7.292V6.068H9.464V7.292H9.664ZM9.564 5.968H2.724V6.168H9.564V5.968ZM2.624 4.148V5.348H2.824V4.148H2.624ZM2.724 5.448H9.564V5.248H2.724V5.448ZM9.664 5.348V4.148H9.464V5.348H9.664ZM9.564 4.048H2.724V4.248H9.564V4.048ZM1.872 3.492H10.476V3.292H1.872V3.492ZM10.376 3.392V8.048H10.576V3.392H10.376ZM10.476 7.948H1.872V8.148H10.476V7.948ZM1.972 8.048V3.392H1.772V8.048H1.972ZM2.93983 8.19799C3.71743 9.41031 4.80482 10.1187 6.23903 10.5365C7.66874 10.953 9.4474 11.082 11.6135 11.136L11.6185 10.936C9.4526 10.882 7.69726 10.753 6.29497 10.3445C4.89718 9.9373 3.85457 9.25369 3.10817 8.09001L2.93983 8.19799ZM11.5349 10.9775C11.3718 11.2034 11.1844 11.6015 11.1334 11.9076L11.3306 11.9404C11.3756 11.6705 11.5482 11.3006 11.6971 11.0945L11.5349 10.9775ZM11.2361 11.8241C6.81558 11.6439 3.91975 11.0777 2.34212 8.40517L2.16988 8.50683C3.80825 11.2823 6.81642 11.8441 11.2279 12.0239L11.2361 11.8241ZM2.29364 8.54865L3.06164 8.23665L2.98636 8.05135L2.21836 8.36335L2.29364 8.54865ZM15.012 3.572L14.9459 3.49693L14.8338 3.5956L14.9678 3.66168L15.012 3.572ZM15.612 3.044L15.6543 2.95338L15.595 2.92573L15.5459 2.96893L15.612 3.044ZM18.156 4.64L18.2239 4.71343L18.3029 4.64035L18.2242 4.56689L18.156 4.64ZM17.52 5.228L17.4501 5.29954L17.5181 5.36594L17.5879 5.30143L17.52 5.228ZM20.556 1.94V1.84H20.456V1.94H20.556ZM20.736 1.94V2.04H20.751L20.7654 2.03558L20.736 1.94ZM20.892 1.892L20.9442 1.80671L20.9057 1.78315L20.8626 1.79642L20.892 1.892ZM21.48 2.252L21.5673 2.30072L21.6141 2.21686L21.5322 2.16671L21.48 2.252ZM13.2 7.424L13.1062 7.45857L13.1363 7.54038L13.2215 7.52167L13.2 7.424ZM12.768 6.632L12.7497 6.53369L12.5772 6.56585L12.6927 6.69785L12.768 6.632ZM20.556 2.084L20.6435 2.13241L20.656 2.10982V2.084H20.556ZM16.548 1.94V1.84H16.448V1.94H16.548ZM20.784 1.94H20.884V1.84H20.784V1.94ZM20.784 2.696V2.796H20.884V2.696H20.784ZM16.548 2.696H16.448V2.796H16.548V2.696ZM17.436 0.908L17.457 0.81022L17.3974 0.797456L17.3587 0.844526L17.436 0.908ZM18.444 1.124L18.5195 1.18955L18.6305 1.06169L18.465 1.02622L18.444 1.124ZM13.476 4.472L13.3907 4.52414L13.4346 4.59608L13.513 4.56492L13.476 4.472ZM12.864 3.8L12.831 3.70561L12.656 3.76684L12.8033 3.87944L12.864 3.8ZM16.548 7.976L16.4864 7.89722L16.3664 7.99102L16.5002 8.06383L16.548 7.976ZM17.208 7.46L17.2541 7.37124L17.197 7.34164L17.1464 7.38122L17.208 7.46ZM19.884 9.284L19.9471 9.36157L20.0331 9.29164L19.9547 9.21329L19.884 9.284ZM19.176 9.86L19.1038 9.92916L19.1676 9.99578L19.2391 9.93757L19.176 9.86ZM22.308 6.14V6.04H22.208V6.14H22.308ZM22.488 6.14V6.24H22.502L22.5155 6.23615L22.488 6.14ZM22.656 6.092L22.7043 6.00442L22.6682 5.98452L22.6285 5.99585L22.656 6.092ZM23.244 6.416L23.3358 6.45562L23.3718 6.37224L23.2923 6.32842L23.244 6.416ZM14.064 11.996L13.9667 12.0192L13.9879 12.1082L14.0785 12.0949L14.064 11.996ZM13.68 11.168L13.6681 11.0687L13.5016 11.0886L13.5983 11.2257L13.68 11.168ZM22.308 6.272L22.3999 6.31139L22.408 6.29253V6.272H22.308ZM18.408 6.14V6.04H18.308V6.14H18.408ZM22.548 6.14H22.648V6.04H22.548V6.14ZM22.548 6.908V7.008H22.648V6.908H22.548ZM18.408 6.908H18.308V7.008H18.408V6.908ZM19.38 5.012L19.4023 4.91452L19.342 4.90071L19.3027 4.94854L19.38 5.012ZM20.376 5.24L20.452 5.30503L20.5595 5.17942L20.3983 5.14252L20.376 5.24ZM14.64 8.888L14.5516 8.93479L14.5919 9.01091L14.6732 8.98234L14.64 8.888ZM14.076 8.192L14.0463 8.09652L13.8757 8.14962L14.0101 8.26726L14.076 8.192ZM15.0781 3.64707L15.6781 3.11907L15.5459 2.96893L14.9459 3.49693L15.0781 3.64707ZM15.5697 3.13462C16.4653 3.55258 17.5587 4.21932 18.0878 4.71311L18.2242 4.56689C17.6733 4.05268 16.5587 3.37542 15.6543 2.95338L15.5697 3.13462ZM18.0881 4.56657L17.4521 5.15457L17.5879 5.30143L18.2239 4.71343L18.0881 4.56657ZM17.5899 5.15646C17.0633 4.64217 15.961 3.92866 15.0562 3.48232L14.9678 3.66168C15.863 4.10333 16.9447 4.80583 17.4501 5.29954L17.5899 5.15646ZM20.556 2.04H20.736V1.84H20.556V2.04ZM20.7654 2.03558L20.9214 1.98758L20.8626 1.79642L20.7066 1.84442L20.7654 2.03558ZM20.8398 1.97728L21.4278 2.33728L21.5322 2.16671L20.9442 1.80671L20.8398 1.97728ZM21.3927 2.20328C19.8537 4.96159 16.3369 6.63244 13.1785 7.32633L13.2215 7.52167C16.3991 6.82356 19.9863 5.13441 21.5673 2.30072L21.3927 2.20328ZM13.2938 7.38943C13.2084 7.15747 13.0233 6.7719 12.8433 6.56615L12.6927 6.69785C12.8487 6.8761 13.0236 7.23453 13.1062 7.45857L13.2938 7.38943ZM12.7863 6.7303C14.3077 6.44656 15.9379 5.89727 17.3536 5.12067C18.768 4.34478 19.9769 3.33723 20.6435 2.13241L20.4685 2.03559C19.8271 3.19477 18.654 4.17922 17.2574 4.94532C15.8621 5.71073 14.2523 6.25344 12.7497 6.53369L12.7863 6.7303ZM20.656 2.084V1.94H20.456V2.084H20.656ZM16.548 2.04H20.784V1.84H16.548V2.04ZM20.684 1.94V2.696H20.884V1.94H20.684ZM20.784 2.596H16.548V2.796H20.784V2.596ZM16.648 2.696V1.94H16.448V2.696H16.648ZM17.415 1.00578L18.423 1.22178L18.465 1.02622L17.457 0.81022L17.415 1.00578ZM18.3685 1.05845C17.2763 2.31685 15.6582 3.4962 13.439 4.37908L13.513 4.56492C15.7578 3.6718 17.4037 2.47515 18.5195 1.18955L18.3685 1.05845ZM13.5613 4.41985C13.4224 4.19252 13.1378 3.88348 12.9247 3.72056L12.8033 3.87944C12.9982 4.02852 13.2656 4.31948 13.3907 4.52414L13.5613 4.41985ZM12.897 3.89439C15.07 3.13385 16.671 1.99681 17.5133 0.971474L17.3587 0.844526C16.545 1.83519 14.978 2.95415 12.831 3.70561L12.897 3.89439ZM16.6096 8.05478L17.2696 7.53878L17.1464 7.38122L16.4864 7.89722L16.6096 8.05478ZM17.1619 7.54876C18.1061 8.03877 19.2478 8.7892 19.8133 9.35471L19.9547 9.21329C19.3682 8.6268 18.2059 7.86523 17.2541 7.37124L17.1619 7.54876ZM19.8209 9.20643L19.1129 9.78243L19.2391 9.93757L19.9471 9.36157L19.8209 9.20643ZM19.2482 9.79084C18.6983 9.21651 17.5485 8.40673 16.5958 7.88817L16.5002 8.06383C17.4435 8.57727 18.5737 9.37549 19.1038 9.92916L19.2482 9.79084ZM22.308 6.24H22.488V6.04H22.308V6.24ZM22.5155 6.23615L22.6835 6.18815L22.6285 5.99585L22.4605 6.04385L22.5155 6.23615ZM22.6077 6.17958L23.1957 6.50358L23.2923 6.32842L22.7043 6.00442L22.6077 6.17958ZM23.1522 6.37638C21.6619 9.83007 17.9654 11.3222 14.0495 11.8971L14.0785 12.0949C18.0106 11.5178 21.8021 10.0099 23.3358 6.45562L23.1522 6.37638ZM14.1613 11.9728C14.0979 11.7065 13.9118 11.323 13.7617 11.1103L13.5983 11.2257C13.7362 11.421 13.9101 11.7815 13.9667 12.0192L14.1613 11.9728ZM13.6919 11.2673C17.4064 10.8225 21.0813 9.38823 22.3999 6.31139L22.2161 6.23261C20.9427 9.20377 17.3696 10.6255 13.6681 11.0687L13.6919 11.2673ZM22.408 6.272V6.14H22.208V6.272H22.408ZM18.408 6.24H22.548V6.04H18.408V6.24ZM22.448 6.14V6.908H22.648V6.14H22.448ZM22.548 6.808H18.408V7.008H22.548V6.808ZM18.508 6.908V6.14H18.308V6.908H18.508ZM19.3577 5.10948L20.3537 5.33748L20.3983 5.14252L19.4023 4.91452L19.3577 5.10948ZM20.3 5.17497C19.1016 6.57515 17.2216 7.87432 14.6068 8.79366L14.6732 8.98234C17.3144 8.05368 19.2264 6.73685 20.452 5.30503L20.3 5.17497ZM14.7284 8.84121C14.6139 8.62499 14.3417 8.29163 14.1419 8.11674L14.0101 8.26726C14.1943 8.42837 14.4501 8.74301 14.5516 8.93479L14.7284 8.84121ZM14.1057 8.28748C16.6632 7.49129 18.5059 6.23425 19.4573 5.07546L19.3027 4.94854C18.3821 6.06975 16.5768 7.30871 14.0463 8.09652L14.1057 8.28748Z" fill="black"/>
</svg>
