<svg width="48" height="12" viewBox="0 0 48 12" fill="none" xmlns="http://www.w3.org/2000/svg">
<path d="M6.12 4.496H10.656V5.324H6.12V4.496ZM6.132 7.4H10.668V8.228H6.132V7.4ZM6.12 10.316H10.668V11.144H6.12V10.316ZM5.676 1.628H11.1V11.852H10.2V2.492H6.54V11.888H5.676V1.628ZM0.612 3.5H5.148V4.364H0.612V3.5ZM2.568 0.92H3.432V11.948H2.568V0.92ZM2.52 4.028L3.12 4.232C2.688 6.176 1.764 8.516 0.816 9.728C0.72 9.476 0.492 9.116 0.336 8.912C1.236 7.832 2.148 5.768 2.52 4.028ZM3.348 5.348C3.696 5.684 4.932 7.124 5.22 7.46L4.656 8.204C4.32 7.616 3.312 6.272 2.892 5.78L3.348 5.348ZM14.46 3.632H21.516V4.496H14.46V3.632ZM14.016 6.56H22.008V7.412H14.016V6.56ZM18.432 6.848C18.984 8.96 20.22 10.532 22.284 11.168C22.068 11.36 21.804 11.72 21.672 11.96C19.524 11.18 18.276 9.452 17.652 7.016L18.432 6.848ZM20.208 0.943999L21.144 1.268C20.712 2.036 20.184 2.924 19.764 3.488L19.032 3.188C19.428 2.588 19.932 1.616 20.208 0.943999ZM14.952 1.436L15.684 1.064C16.188 1.676 16.716 2.528 16.932 3.092L16.152 3.524C15.948 2.948 15.432 2.072 14.952 1.436ZM17.46 3.836H18.396V6.332C18.396 8.18 17.952 10.472 14.268 12.008C14.136 11.792 13.86 11.48 13.644 11.3C17.22 9.944 17.46 7.88 17.46 6.332V3.836ZM28.872 6.14C29.952 8.768 32.232 10.556 35.568 11.204C35.376 11.384 35.124 11.756 35.004 11.996C31.596 11.252 29.328 9.332 28.104 6.38L28.872 6.14ZM33.156 5.804H33.336L33.516 5.768L34.128 6.044C33.036 9.416 30.36 11.168 27.36 11.984C27.264 11.756 27.048 11.408 26.868 11.216C29.676 10.532 32.256 8.852 33.156 5.96V5.804ZM28.608 5.804H33.3V6.668H28.356L28.608 5.804ZM29.436 0.883999L30.432 1.04C29.82 5.588 28.416 8.936 25.032 11.012C24.9 10.82 24.576 10.484 24.36 10.316C27.54 8.396 28.908 5.156 29.436 0.883999ZM32.064 1.52L32.772 1.1C33.288 1.628 33.984 2.372 34.32 2.816L33.6 3.308C33.264 2.852 32.592 2.084 32.064 1.52ZM25.728 4.724C25.668 4.532 25.524 4.1 25.428 3.884C25.584 3.836 25.728 3.668 25.872 3.404C26.004 3.152 26.472 2.192 26.664 1.268L27.636 1.436C27.336 2.456 26.856 3.524 26.448 4.196V4.208C26.448 4.208 25.728 4.508 25.728 4.724ZM25.728 4.724V4.016L26.328 3.656H35.16V4.52H27C26.244 4.52 25.848 4.592 25.728 4.724ZM36.72 2.768H47.292V3.632H36.72V2.768ZM42.108 4.22H43.02V11.972H42.108V4.22ZM38.664 5.828H46.116V6.692H39.552V10.844H38.664V5.828ZM45.72 5.828H46.632V9.716C46.632 10.184 46.524 10.448 46.14 10.592C45.768 10.724 45.132 10.736 44.112 10.724C44.064 10.484 43.932 10.148 43.8 9.908C44.568 9.932 45.264 9.932 45.456 9.92C45.66 9.908 45.72 9.86 45.72 9.704V5.828ZM40.788 0.92L41.712 1.136C40.848 3.932 39.348 6.752 36.9 8.468C36.78 8.252 36.54 7.892 36.36 7.7C38.628 6.152 40.08 3.452 40.788 0.92Z" fill="black"/>
<path d="M6.12 4.496V4.396H6.02V4.496H6.12ZM10.656 4.496H10.756V4.396H10.656V4.496ZM10.656 5.324V5.424H10.756V5.324H10.656ZM6.12 5.324H6.02V5.424H6.12V5.324ZM6.132 7.4V7.3H6.032V7.4H6.132ZM10.668 7.4H10.768V7.3H10.668V7.4ZM10.668 8.228V8.328H10.768V8.228H10.668ZM6.132 8.228H6.032V8.328H6.132V8.228ZM6.12 10.316V10.216H6.02V10.316H6.12ZM10.668 10.316H10.768V10.216H10.668V10.316ZM10.668 11.144V11.244H10.768V11.144H10.668ZM6.12 11.144H6.02V11.244H6.12V11.144ZM5.676 1.628V1.528H5.576V1.628H5.676ZM11.1 1.628H11.2V1.528H11.1V1.628ZM11.1 11.852V11.952H11.2V11.852H11.1ZM10.2 11.852H10.1V11.952H10.2V11.852ZM10.2 2.492H10.3V2.392H10.2V2.492ZM6.54 2.492V2.392H6.44V2.492H6.54ZM6.54 11.888V11.988H6.64V11.888H6.54ZM5.676 11.888H5.576V11.988H5.676V11.888ZM0.612 3.5V3.4H0.512V3.5H0.612ZM5.148 3.5H5.248V3.4H5.148V3.5ZM5.148 4.364V4.464H5.248V4.364H5.148ZM0.612 4.364H0.512V4.464H0.612V4.364ZM2.568 0.92V0.82H2.468V0.92H2.568ZM3.432 0.92H3.532V0.82H3.432V0.92ZM3.432 11.948V12.048H3.532V11.948H3.432ZM2.568 11.948H2.468V12.048H2.568V11.948ZM2.52 4.028L2.55219 3.93332L2.44572 3.89712L2.42221 4.00709L2.52 4.028ZM3.12 4.232L3.21762 4.25369L3.23707 4.16618L3.15219 4.13732L3.12 4.232ZM0.816 9.728L0.722551 9.7636L0.785619 9.92915L0.894767 9.78961L0.816 9.728ZM0.336 8.912L0.259178 8.84798L0.208063 8.90932L0.256564 8.97274L0.336 8.912ZM3.348 5.348L3.41746 5.27606L3.34866 5.20963L3.27923 5.2754L3.348 5.348ZM5.22 7.46L5.29969 7.52041L5.34841 7.45615L5.29593 7.39492L5.22 7.46ZM4.656 8.204L4.56918 8.25361L4.64426 8.38502L4.73569 8.26441L4.656 8.204ZM2.892 5.78L2.82323 5.7074L2.75429 5.77271L2.81594 5.84493L2.892 5.78ZM6.12 4.596H10.656V4.396H6.12V4.596ZM10.556 4.496V5.324H10.756V4.496H10.556ZM10.656 5.224H6.12V5.424H10.656V5.224ZM6.22 5.324V4.496H6.02V5.324H6.22ZM6.132 7.5H10.668V7.3H6.132V7.5ZM10.568 7.4V8.228H10.768V7.4H10.568ZM10.668 8.128H6.132V8.328H10.668V8.128ZM6.232 8.228V7.4H6.032V8.228H6.232ZM6.12 10.416H10.668V10.216H6.12V10.416ZM10.568 10.316V11.144H10.768V10.316H10.568ZM10.668 11.044H6.12V11.244H10.668V11.044ZM6.22 11.144V10.316H6.02V11.144H6.22ZM5.676 1.728H11.1V1.528H5.676V1.728ZM11 1.628V11.852H11.2V1.628H11ZM11.1 11.752H10.2V11.952H11.1V11.752ZM10.3 11.852V2.492H10.1V11.852H10.3ZM10.2 2.392H6.54V2.592H10.2V2.392ZM6.44 2.492V11.888H6.64V2.492H6.44ZM6.54 11.788H5.676V11.988H6.54V11.788ZM5.776 11.888V1.628H5.576V11.888H5.776ZM0.612 3.6H5.148V3.4H0.612V3.6ZM5.048 3.5V4.364H5.248V3.5H5.048ZM5.148 4.264H0.612V4.464H5.148V4.264ZM0.712 4.364V3.5H0.512V4.364H0.712ZM2.568 1.02H3.432V0.82H2.568V1.02ZM3.332 0.92V11.948H3.532V0.92H3.332ZM3.432 11.848H2.568V12.048H3.432V11.848ZM2.668 11.948V0.92H2.468V11.948H2.668ZM2.48781 4.12268L3.08781 4.32668L3.15219 4.13732L2.55219 3.93332L2.48781 4.12268ZM3.02238 4.21031C2.59195 6.14724 1.67228 8.47095 0.737233 9.66639L0.894767 9.78961C1.85572 8.56105 2.78405 6.20475 3.21762 4.25369L3.02238 4.21031ZM0.909449 9.6924C0.808593 9.42765 0.574237 9.05892 0.415436 8.85125L0.256564 8.97274C0.409763 9.17308 0.631407 9.52435 0.722551 9.7636L0.909449 9.6924ZM0.412822 8.97602C1.32595 7.88027 2.24343 5.79996 2.61779 4.04891L2.42221 4.00709C2.05257 5.73604 1.14605 7.78373 0.259178 8.84798L0.412822 8.97602ZM3.27854 5.41994C3.62212 5.75167 4.85365 7.18626 5.14407 7.52508L5.29593 7.39492C5.01035 7.06174 3.76988 5.61633 3.41746 5.27606L3.27854 5.41994ZM5.14031 7.39959L4.57631 8.14359L4.73569 8.26441L5.29969 7.52041L5.14031 7.39959ZM4.74282 8.15439C4.40246 7.55875 3.39005 6.2094 2.96806 5.71507L2.81594 5.84493C3.23395 6.3346 4.23754 7.67325 4.56918 8.25361L4.74282 8.15439ZM2.96077 5.85259L3.41677 5.4206L3.27923 5.2754L2.82323 5.7074L2.96077 5.85259ZM14.46 3.632V3.532H14.36V3.632H14.46ZM21.516 3.632H21.616V3.532H21.516V3.632ZM21.516 4.496V4.596H21.616V4.496H21.516ZM14.46 4.496H14.36V4.596H14.46V4.496ZM14.016 6.56V6.46H13.916V6.56H14.016ZM22.008 6.56H22.108V6.46H22.008V6.56ZM22.008 7.412V7.512H22.108V7.412H22.008ZM14.016 7.412H13.916V7.512H14.016V7.412ZM18.432 6.848L18.5287 6.82271L18.5045 6.73008L18.4109 6.75024L18.432 6.848ZM22.284 11.168L22.3504 11.2427L22.4832 11.1247L22.3134 11.0724L22.284 11.168ZM21.672 11.96L21.6379 12.054L21.7184 12.0832L21.7596 12.0082L21.672 11.96ZM17.652 7.016L17.6309 6.91824L17.5293 6.94013L17.5551 7.04081L17.652 7.016ZM20.208 0.943999L20.2407 0.849501L20.1514 0.818586L20.1155 0.906007L20.208 0.943999ZM21.144 1.268L21.2312 1.31703L21.2899 1.21267L21.1767 1.1735L21.144 1.268ZM19.764 3.488L19.7261 3.58053L19.7979 3.60995L19.8442 3.54773L19.764 3.488ZM19.032 3.188L18.9485 3.13292L18.8816 3.23441L18.9941 3.28053L19.032 3.188ZM14.952 1.436L14.9067 1.34685L14.8003 1.40094L14.8722 1.49624L14.952 1.436ZM15.684 1.064L15.7612 1.00043L15.7102 0.938511L15.6387 0.974851L15.684 1.064ZM16.932 3.092L16.9804 3.17948L17.0565 3.13738L17.0254 3.05623L16.932 3.092ZM16.152 3.524L16.0577 3.55738L16.0972 3.66869L16.2005 3.61148L16.152 3.524ZM17.46 3.836V3.736H17.36V3.836H17.46ZM18.396 3.836H18.496V3.736H18.396V3.836ZM14.268 12.008L14.1827 12.0601L14.2274 12.1333L14.3065 12.1003L14.268 12.008ZM13.644 11.3L13.6085 11.2065L13.4484 11.2672L13.58 11.3768L13.644 11.3ZM14.46 3.732H21.516V3.532H14.46V3.732ZM21.416 3.632V4.496H21.616V3.632H21.416ZM21.516 4.396H14.46V4.596H21.516V4.396ZM14.56 4.496V3.632H14.36V4.496H14.56ZM14.016 6.66H22.008V6.46H14.016V6.66ZM21.908 6.56V7.412H22.108V6.56H21.908ZM22.008 7.312H14.016V7.512H22.008V7.312ZM14.116 7.412V6.56H13.916V7.412H14.116ZM18.3353 6.87329C18.8939 9.01084 20.1503 10.6152 22.2546 11.2636L22.3134 11.0724C20.2897 10.4488 19.0741 8.90916 18.5287 6.82271L18.3353 6.87329ZM22.2176 11.0933C21.9908 11.2948 21.7202 11.6648 21.5844 11.9118L21.7596 12.0082C21.8878 11.7752 22.1452 11.4252 22.3504 11.2427L22.2176 11.0933ZM21.7061 11.866C19.5982 11.1006 18.3674 9.40578 17.7489 6.99119L17.5551 7.04081C18.1846 9.49821 19.4498 11.2594 21.6379 12.054L21.7061 11.866ZM17.6731 7.11376L18.4531 6.94576L18.4109 6.75024L17.6309 6.91824L17.6731 7.11376ZM20.1753 1.0385L21.1113 1.3625L21.1767 1.1735L20.2407 0.849501L20.1753 1.0385ZM21.0568 1.21897C20.6249 1.98685 20.0996 2.86989 19.6838 3.42827L19.8442 3.54773C20.2684 2.97811 20.7991 2.08515 21.2312 1.31703L21.0568 1.21897ZM19.8019 3.39547L19.0699 3.09547L18.9941 3.28053L19.7261 3.58053L19.8019 3.39547ZM19.1155 3.24308C19.5154 2.63713 20.0223 1.65931 20.3005 0.981991L20.1155 0.906007C19.8417 1.57269 19.3406 2.53887 18.9485 3.13292L19.1155 3.24308ZM14.9973 1.52515L15.7293 1.15315L15.6387 0.974851L14.9067 1.34685L14.9973 1.52515ZM15.6068 1.12757C16.1063 1.73407 16.6276 2.57678 16.8386 3.12776L17.0254 3.05623C16.8044 2.47921 16.2697 1.61793 15.7612 1.00043L15.6068 1.12757ZM16.8836 3.00452L16.1035 3.43652L16.2005 3.61148L16.9804 3.17948L16.8836 3.00452ZM16.2463 3.49061C16.0376 2.9014 15.5152 2.0162 15.0318 1.37576L14.8722 1.49624C15.3488 2.1278 15.8584 2.9946 16.0577 3.55738L16.2463 3.49061ZM17.46 3.936H18.396V3.736H17.46V3.936ZM18.296 3.836V6.332H18.496V3.836H18.296ZM18.296 6.332C18.296 7.24845 18.1857 8.26313 17.6268 9.23723C17.0685 10.2101 16.0559 11.1542 14.2295 11.9157L14.3065 12.1003C16.1641 11.3258 17.2155 10.3559 17.8002 9.33677C18.3843 8.31887 18.496 7.26355 18.496 6.332H18.296ZM14.3533 11.9559C14.2149 11.7293 13.9313 11.4092 13.708 11.2232L13.58 11.3768C13.7887 11.5508 14.0571 11.8547 14.1827 12.0601L14.3533 11.9559ZM13.6795 11.3935C15.4828 10.7097 16.4582 9.84203 16.9796 8.93796C17.5002 8.03545 17.56 7.11045 17.56 6.332H17.36C17.36 7.10155 17.2998 7.98254 16.8064 8.83804C16.3138 9.69197 15.3812 10.5343 13.6085 11.2065L13.6795 11.3935ZM17.56 6.332V3.836H17.36V6.332H17.56ZM28.872 6.14L28.9645 6.10199L28.9297 6.01721L28.8422 6.04455L28.872 6.14ZM35.568 11.204L35.6364 11.277L35.7791 11.1431L35.5871 11.1058L35.568 11.204ZM35.004 11.996L34.9827 12.0937L35.0587 12.1103L35.0934 12.0407L35.004 11.996ZM28.104 6.38L28.0742 6.28455L27.9697 6.3172L28.0116 6.4183L28.104 6.38ZM33.156 5.804V5.704H33.056V5.804H33.156ZM33.336 5.804V5.904H33.3459L33.3556 5.90206L33.336 5.804ZM33.516 5.768L33.5571 5.67684L33.5279 5.66365L33.4964 5.66994L33.516 5.768ZM34.128 6.044L34.2231 6.07481L34.2507 5.98964L34.1691 5.95284L34.128 6.044ZM27.36 11.984L27.2678 12.0228L27.3018 12.1035L27.3862 12.0805L27.36 11.984ZM26.868 11.216L26.8443 11.1188L26.6779 11.1594L26.795 11.2844L26.868 11.216ZM33.156 5.96L33.2515 5.98971L33.256 5.9752V5.96H33.156ZM28.608 5.804V5.704H28.533L28.512 5.776L28.608 5.804ZM33.3 5.804H33.4V5.704H33.3V5.804ZM33.3 6.668V6.768H33.4V6.668H33.3ZM28.356 6.668L28.26 6.64L28.2227 6.768H28.356V6.668ZM29.436 0.883999L29.4515 0.785204L29.3494 0.76922L29.3368 0.871733L29.436 0.883999ZM30.432 1.04L30.5311 1.05334L30.5442 0.956347L30.4475 0.941204L30.432 1.04ZM25.032 11.012L24.9496 11.0687L25.0034 11.1469L25.0843 11.0972L25.032 11.012ZM24.36 10.316L24.3083 10.2304L24.1837 10.3056L24.2986 10.3949L24.36 10.316ZM32.064 1.52L32.013 1.43399L31.9059 1.49749L31.991 1.58834L32.064 1.52ZM32.772 1.1L32.8435 1.03011L32.7886 0.973891L32.721 1.01399L32.772 1.1ZM34.32 2.816L34.3764 2.89856L34.4631 2.83935L34.3997 2.75566L34.32 2.816ZM33.6 3.308L33.5195 3.36732L33.5767 3.44501L33.6564 3.39056L33.6 3.308ZM25.728 4.724L25.6326 4.75383L25.828 4.724H25.728ZM25.428 3.884L25.3986 3.78842L25.2908 3.82158L25.3366 3.92461L25.428 3.884ZM25.872 3.404L25.9598 3.45189L25.9606 3.4504L25.872 3.404ZM26.664 1.268L26.681 1.16946L26.5858 1.15299L26.5661 1.24765L26.664 1.268ZM27.636 1.436L27.7319 1.46422L27.7636 1.35657L27.653 1.33746L27.636 1.436ZM26.448 4.196L26.3625 4.1441L26.348 4.16802V4.196H26.448ZM26.448 4.208L26.4865 4.30031L26.548 4.27467V4.208H26.448ZM25.728 4.724H25.628V4.98266L25.802 4.79127L25.728 4.724ZM25.728 4.016L25.6765 3.93025L25.628 3.95938V4.016H25.728ZM26.328 3.656V3.556H26.3003L26.2766 3.57025L26.328 3.656ZM35.16 3.656H35.26V3.556H35.16V3.656ZM35.16 4.52V4.62H35.26V4.52H35.16ZM28.7795 6.17801C29.8742 8.8418 32.1852 10.6488 35.5489 11.3022L35.5871 11.1058C32.2788 10.4632 30.0298 8.6942 28.9645 6.10199L28.7795 6.17801ZM35.4996 11.131C35.2963 11.3216 35.0379 11.7045 34.9146 11.9513L35.0934 12.0407C35.2101 11.8075 35.4557 11.4464 35.6364 11.277L35.4996 11.131ZM35.0253 11.8983C31.6481 11.161 29.4074 9.26232 28.1964 6.3417L28.0116 6.4183C29.2486 9.40168 31.5439 11.343 34.9827 12.0937L35.0253 11.8983ZM28.1338 6.47545L28.9018 6.23545L28.8422 6.04455L28.0742 6.28455L28.1338 6.47545ZM33.156 5.904H33.336V5.704H33.156V5.904ZM33.3556 5.90206L33.5356 5.86606L33.4964 5.66994L33.3164 5.70594L33.3556 5.90206ZM33.4749 5.85916L34.0869 6.13516L34.1691 5.95284L33.5571 5.67684L33.4749 5.85916ZM34.0329 6.01319C32.9546 9.34263 30.3134 11.077 27.3338 11.8875L27.3862 12.0805C30.4066 11.259 33.1174 9.48937 34.2231 6.07481L34.0329 6.01319ZM27.4522 11.9452C27.3521 11.7076 27.13 11.3493 26.941 11.1476L26.795 11.2844C26.966 11.4667 27.1759 11.8044 27.2678 12.0228L27.4522 11.9452ZM26.8917 11.3132C29.7193 10.6244 32.3373 8.92738 33.2515 5.98971L33.0605 5.93028C32.1747 8.77662 29.6327 10.4396 26.8443 11.1188L26.8917 11.3132ZM33.256 5.96V5.804H33.056V5.96H33.256ZM28.608 5.904H33.3V5.704H28.608V5.904ZM33.2 5.804V6.668H33.4V5.804H33.2ZM33.3 6.568H28.356V6.768H33.3V6.568ZM28.452 6.696L28.704 5.832L28.512 5.776L28.26 6.64L28.452 6.696ZM29.4205 0.982795L30.4165 1.13879L30.4475 0.941204L29.4515 0.785204L29.4205 0.982795ZM30.3329 1.02666C29.7226 5.56189 28.3264 8.87366 24.9797 10.9268L25.0843 11.0972C28.5056 8.99834 29.9174 5.61411 30.5311 1.05334L30.3329 1.02666ZM25.1144 10.9553C24.9757 10.7536 24.6442 10.4104 24.4214 10.2371L24.2986 10.3949C24.5078 10.5576 24.8243 10.8864 24.9496 11.0687L25.1144 10.9553ZM24.4117 10.4016C27.6298 8.4586 29.0056 5.18165 29.5352 0.896266L29.3368 0.871733C28.8104 5.13035 27.4502 8.3334 24.3083 10.2304L24.4117 10.4016ZM32.115 1.60601L32.823 1.186L32.721 1.01399L32.013 1.43399L32.115 1.60601ZM32.7005 1.16989C33.2168 1.69824 33.9086 2.43806 34.2403 2.87634L34.3997 2.75566C34.0594 2.30594 33.3592 1.55775 32.8435 1.03011L32.7005 1.16989ZM34.2636 2.73344L33.5436 3.22544L33.6564 3.39056L34.3764 2.89856L34.2636 2.73344ZM33.6805 3.24868C33.3409 2.78783 32.6657 2.0164 32.137 1.45166L31.991 1.58834C32.5183 2.1516 33.1871 2.91617 33.5195 3.36732L33.6805 3.24868ZM25.8234 4.69417C25.7635 4.50233 25.618 4.06527 25.5194 3.84339L25.3366 3.92461C25.43 4.13473 25.5725 4.56167 25.6326 4.75383L25.8234 4.69417ZM25.4574 3.97958C25.5584 3.94849 25.6479 3.88105 25.7286 3.7922C25.8094 3.70314 25.8857 3.58766 25.9598 3.45188L25.7842 3.35611C25.7143 3.48434 25.6466 3.58486 25.5804 3.6578C25.5141 3.73095 25.4536 3.77151 25.3986 3.78842L25.4574 3.97958ZM25.9606 3.4504C26.0938 3.19607 26.567 2.2262 26.7619 1.28834L26.5661 1.24765C26.377 2.1578 25.9142 3.10792 25.7834 3.3576L25.9606 3.4504ZM26.647 1.36654L27.619 1.53454L27.653 1.33746L26.681 1.16946L26.647 1.36654ZM27.5401 1.40778C27.2423 2.42012 26.7657 3.48006 26.3625 4.1441L26.5335 4.2479C26.9463 3.56793 27.4297 2.49188 27.7319 1.46422L27.5401 1.40778ZM26.348 4.196V4.208H26.548V4.196H26.348ZM26.448 4.208C26.4095 4.11569 26.4095 4.1157 26.4095 4.11571C26.4095 4.11571 26.4095 4.11572 26.4095 4.11572C26.4094 4.11574 26.4094 4.11576 26.4093 4.11579C26.4092 4.11583 26.409 4.1159 26.4088 4.11599C26.4084 4.11616 26.4078 4.1164 26.4071 4.11672C26.4056 4.11735 26.4034 4.11826 26.4007 4.11944C26.3951 4.12181 26.3871 4.12527 26.3769 4.12972C26.3566 4.13861 26.3278 4.1515 26.2932 4.16763C26.2243 4.19981 26.1317 4.24527 26.0387 4.298C25.9465 4.35025 25.8499 4.41181 25.775 4.47668C25.7376 4.5091 25.7026 4.54492 25.6763 4.58348C25.6504 4.62143 25.628 4.6694 25.628 4.724H25.828C25.828 4.7246 25.8281 4.71594 25.8416 4.69615C25.8546 4.67696 25.8759 4.6539 25.906 4.62782C25.9661 4.57569 26.0495 4.52175 26.1373 4.472C26.2243 4.42273 26.3117 4.37969 26.3778 4.34887C26.4107 4.3335 26.4381 4.32126 26.4572 4.31291C26.4667 4.30873 26.4742 4.30553 26.4792 4.3034C26.4817 4.30233 26.4835 4.30153 26.4848 4.30102C26.4854 4.30076 26.4858 4.30057 26.4861 4.30045C26.4863 4.30039 26.4864 4.30035 26.4864 4.30032C26.4865 4.30031 26.4865 4.3003 26.4865 4.3003C26.4865 4.3003 26.4865 4.3003 26.4865 4.3003C26.4865 4.3003 26.4865 4.30031 26.448 4.208ZM25.828 4.724V4.016H25.628V4.724H25.828ZM25.7794 4.10175L26.3794 3.74175L26.2766 3.57025L25.6765 3.93025L25.7794 4.10175ZM26.328 3.756H35.16V3.556H26.328V3.756ZM35.06 3.656V4.52H35.26V3.656H35.06ZM35.16 4.42H27V4.62H35.16V4.42ZM27 4.42C26.6198 4.42 26.3255 4.43804 26.1092 4.47384C26.001 4.49175 25.9095 4.51453 25.8352 4.5431C25.7618 4.57132 25.6986 4.60769 25.654 4.65673L25.802 4.79127C25.8174 4.77431 25.8487 4.75218 25.907 4.72977C25.9643 4.70772 26.0415 4.68775 26.1418 4.67116C26.3425 4.63796 26.6242 4.62 27 4.62V4.42ZM36.72 2.768V2.668H36.62V2.768H36.72ZM47.292 2.768H47.392V2.668H47.292V2.768ZM47.292 3.632V3.732H47.392V3.632H47.292ZM36.72 3.632H36.62V3.732H36.72V3.632ZM42.108 4.22V4.12H42.008V4.22H42.108ZM43.02 4.22H43.12V4.12H43.02V4.22ZM43.02 11.972V12.072H43.12V11.972H43.02ZM42.108 11.972H42.008V12.072H42.108V11.972ZM38.664 5.828V5.728H38.564V5.828H38.664ZM46.116 5.828H46.216V5.728H46.116V5.828ZM46.116 6.692V6.792H46.216V6.692H46.116ZM39.552 6.692V6.592H39.452V6.692H39.552ZM39.552 10.844V10.944H39.652V10.844H39.552ZM38.664 10.844H38.564V10.944H38.664V10.844ZM45.72 5.828V5.728H45.62V5.828H45.72ZM46.632 5.828H46.732V5.728H46.632V5.828ZM46.14 10.592L46.1734 10.6863L46.1751 10.6856L46.14 10.592ZM44.112 10.724L44.0139 10.7436L44.0298 10.823L44.1108 10.824L44.112 10.724ZM43.8 9.908L43.8031 9.80805L43.6279 9.80257L43.7124 9.95619L43.8 9.908ZM45.456 9.92L45.4501 9.82017L45.4498 9.82019L45.456 9.92ZM40.788 0.92L40.8108 0.822625L40.7175 0.800821L40.6917 0.89307L40.788 0.92ZM41.712 1.136L41.8075 1.16552L41.8392 1.06304L41.7348 1.03863L41.712 1.136ZM36.9 8.468L36.8126 8.51656L36.8665 8.61361L36.9574 8.54989L36.9 8.468ZM36.36 7.7L36.3036 7.6174L36.2072 7.68322L36.287 7.76839L36.36 7.7ZM36.72 2.868H47.292V2.668H36.72V2.868ZM47.192 2.768V3.632H47.392V2.768H47.192ZM47.292 3.532H36.72V3.732H47.292V3.532ZM36.82 3.632V2.768H36.62V3.632H36.82ZM42.108 4.32H43.02V4.12H42.108V4.32ZM42.92 4.22V11.972H43.12V4.22H42.92ZM43.02 11.872H42.108V12.072H43.02V11.872ZM42.208 11.972V4.22H42.008V11.972H42.208ZM38.664 5.928H46.116V5.728H38.664V5.928ZM46.016 5.828V6.692H46.216V5.828H46.016ZM46.116 6.592H39.552V6.792H46.116V6.592ZM39.452 6.692V10.844H39.652V6.692H39.452ZM39.552 10.744H38.664V10.944H39.552V10.744ZM38.764 10.844V5.828H38.564V10.844H38.764ZM45.72 5.928H46.632V5.728H45.72V5.928ZM46.532 5.828V9.716H46.732V5.828H46.532ZM46.532 9.716C46.532 9.94478 46.5051 10.1081 46.4415 10.2289C46.3803 10.3451 46.2793 10.433 46.1049 10.4984L46.1751 10.6856C46.3847 10.607 46.5297 10.4909 46.6185 10.3221C46.7049 10.1579 46.732 9.95522 46.732 9.716H46.532ZM46.1066 10.4978C45.9345 10.5588 45.6942 10.5943 45.3636 10.6121C45.0343 10.6299 44.6232 10.63 44.1132 10.624L44.1108 10.824C44.6208 10.83 45.0377 10.8301 45.3744 10.8119C45.7098 10.7937 45.9735 10.7572 46.1734 10.6862L46.1066 10.4978ZM44.2101 10.7044C44.1596 10.4522 44.0233 10.1065 43.8876 9.85981L43.7124 9.95619C43.8407 10.1895 43.9684 10.5158 44.0139 10.7436L44.2101 10.7044ZM43.7969 10.008C44.5646 10.0319 45.265 10.0321 45.4622 10.0198L45.4498 9.82019C45.263 9.83187 44.5714 9.83206 43.8031 9.80805L43.7969 10.008ZM45.4619 10.0198C45.564 10.0138 45.66 9.99869 45.7277 9.94352C45.8038 9.88151 45.82 9.79144 45.82 9.704H45.62C45.62 9.77256 45.6062 9.78449 45.6013 9.78848C45.588 9.79931 45.552 9.81418 45.4501 9.82017L45.4619 10.0198ZM45.82 9.704V5.828H45.62V9.704H45.82ZM40.7652 1.01737L41.6892 1.23337L41.7348 1.03863L40.8108 0.822625L40.7652 1.01737ZM41.6165 1.10648C40.7556 3.89219 39.2649 6.68814 36.8426 8.38611L36.9574 8.54989C39.4311 6.81586 40.9404 3.97181 41.8075 1.16552L41.6165 1.10648ZM36.9874 8.41944C36.8652 8.19951 36.6206 7.83181 36.433 7.63161L36.287 7.76839C36.4594 7.95219 36.6948 8.30449 36.8126 8.51656L36.9874 8.41944ZM36.4164 7.78259C38.711 6.21645 40.1728 3.4916 40.8843 0.946929L40.6917 0.89307C39.9872 3.4124 38.545 6.08755 36.3036 7.6174L36.4164 7.78259Z" fill="black"/>
</svg>
