<svg width="24" height="11" viewBox="0 0 24 11" fill="none" xmlns="http://www.w3.org/2000/svg">
<path d="M0.576 0.447999H5.364V1.264H0.576V0.447999ZM1.776 2.956H4.08V3.724H1.776V2.956ZM1.776 5.428H4.08V6.196H1.776V5.428ZM1.26 0.856H2.088V8.536H1.26V0.856ZM3.828 0.844H4.668V10.972H3.828V0.844ZM0.444 8.392C1.692 8.224 3.6 7.924 5.424 7.624L5.484 8.404C3.756 8.704 1.944 9.016 0.636 9.244L0.444 8.392ZM6.684 1.636V5.236H10.056V1.636H6.684ZM5.82 0.771999H10.956V6.1H5.82V0.771999ZM9.108 7.54L9.9 7.24C10.548 8.284 11.232 9.64 11.52 10.492L10.656 10.852C10.404 10 9.732 8.596 9.108 7.54ZM6.756 7.276L7.644 7.468C7.236 8.836 6.552 10.12 5.772 10.948C5.604 10.816 5.232 10.564 5.016 10.444C5.808 9.676 6.42 8.5 6.756 7.276ZM12.6 2.86H16.236V3.712H12.6V2.86ZM14.064 0.0639992H14.916V8.104H14.064V0.0639992ZM12.42 8.452C13.38 8.152 14.82 7.612 16.212 7.096L16.38 7.912C15.12 8.428 13.764 8.968 12.72 9.364L12.42 8.452ZM16.5 0.495999H21.516V1.348H16.5V0.495999ZM22.38 3.796H23.28C23.28 3.796 23.268 4.108 23.244 4.24C23.004 8.464 22.752 9.94 22.332 10.444C22.092 10.732 21.864 10.828 21.516 10.852C21.216 10.888 20.736 10.888 20.22 10.864C20.208 10.612 20.112 10.24 19.98 10C20.472 10.048 20.928 10.06 21.132 10.06C21.324 10.06 21.432 10.036 21.552 9.88C21.888 9.52 22.152 8.008 22.38 3.988V3.796ZM16.92 4.792C16.86 4.6 16.668 4.168 16.536 3.952C16.848 3.904 17.292 3.652 17.748 3.352C18.24 3.052 19.908 1.888 21.072 0.651999V0.592L21.504 0.412L22.188 0.916C20.568 2.368 18.996 3.544 17.556 4.336V4.36C17.556 4.36 16.92 4.612 16.92 4.792ZM16.92 4.792V4.048L17.436 3.796H22.692V4.648H17.964C17.412 4.648 17.028 4.696 16.92 4.792ZM20.796 4.276L21.588 4.432C20.772 7.372 19.308 9.556 17.232 10.948C17.088 10.804 16.752 10.552 16.548 10.432C18.672 9.16 20.064 7.024 20.796 4.276ZM18.948 4.288L19.74 4.456C19.212 6.1 18.204 7.444 17.004 8.308C16.86 8.176 16.524 7.912 16.332 7.792C17.532 7.024 18.48 5.776 18.948 4.288Z" fill="black"/>
<path d="M0.576 0.447999V0.347999H0.476V0.447999H0.576ZM5.364 0.447999H5.464V0.347999H5.364V0.447999ZM5.364 1.264V1.364H5.464V1.264H5.364ZM0.576 1.264H0.476V1.364H0.576V1.264ZM1.776 2.956V2.856H1.676V2.956H1.776ZM4.08 2.956H4.18V2.856H4.08V2.956ZM4.08 3.724V3.824H4.18V3.724H4.08ZM1.776 3.724H1.676V3.824H1.776V3.724ZM1.776 5.428V5.328H1.676V5.428H1.776ZM4.08 5.428H4.18V5.328H4.08V5.428ZM4.08 6.196V6.296H4.18V6.196H4.08ZM1.776 6.196H1.676V6.296H1.776V6.196ZM1.26 0.856V0.756H1.16V0.856H1.26ZM2.088 0.856H2.188V0.756H2.088V0.856ZM2.088 8.536V8.636H2.188V8.536H2.088ZM1.26 8.536H1.16V8.636H1.26V8.536ZM3.828 0.844V0.744H3.728V0.844H3.828ZM4.668 0.844H4.768V0.744H4.668V0.844ZM4.668 10.972V11.072H4.768V10.972H4.668ZM3.828 10.972H3.728V11.072H3.828V10.972ZM0.444 8.392L0.430659 8.29289L0.322441 8.30746L0.346446 8.41398L0.444 8.392ZM5.424 7.624L5.52371 7.61633L5.51534 7.50763L5.40777 7.52533L5.424 7.624ZM5.484 8.404L5.50111 8.50253L5.59068 8.48698L5.58371 8.39633L5.484 8.404ZM0.636 9.244L0.538446 9.26598L0.559377 9.35886L0.653172 9.34251L0.636 9.244ZM6.684 1.636V1.536H6.584V1.636H6.684ZM6.684 5.236H6.584V5.336H6.684V5.236ZM10.056 5.236V5.336H10.156V5.236H10.056ZM10.056 1.636H10.156V1.536H10.056V1.636ZM5.82 0.771999V0.671999H5.72V0.771999H5.82ZM10.956 0.771999H11.056V0.671999H10.956V0.771999ZM10.956 6.1V6.2H11.056V6.1H10.956ZM5.82 6.1H5.72V6.2H5.82V6.1ZM9.108 7.54L9.07258 7.44648L8.96146 7.48857L9.02191 7.59087L9.108 7.54ZM9.9 7.24L9.98496 7.18726L9.94156 7.11733L9.86458 7.14648L9.9 7.24ZM11.52 10.492L11.5585 10.5843L11.6446 10.5484L11.6147 10.46L11.52 10.492ZM10.656 10.852L10.5601 10.8804L10.5917 10.9871L10.6945 10.9443L10.656 10.852ZM6.756 7.276L6.77713 7.17826L6.68462 7.15826L6.65957 7.24953L6.756 7.276ZM7.644 7.468L7.73983 7.49658L7.7707 7.39308L7.66513 7.37026L7.644 7.468ZM5.772 10.948L5.71022 11.0266L5.7821 11.0831L5.84479 11.0166L5.772 10.948ZM5.016 10.444L4.94639 10.3722L4.84967 10.466L4.96744 10.5314L5.016 10.444ZM0.576 0.547999H5.364V0.347999H0.576V0.547999ZM5.264 0.447999V1.264H5.464V0.447999H5.264ZM5.364 1.164H0.576V1.364H5.364V1.164ZM0.676 1.264V0.447999H0.476V1.264H0.676ZM1.776 3.056H4.08V2.856H1.776V3.056ZM3.98 2.956V3.724H4.18V2.956H3.98ZM4.08 3.624H1.776V3.824H4.08V3.624ZM1.876 3.724V2.956H1.676V3.724H1.876ZM1.776 5.528H4.08V5.328H1.776V5.528ZM3.98 5.428V6.196H4.18V5.428H3.98ZM4.08 6.096H1.776V6.296H4.08V6.096ZM1.876 6.196V5.428H1.676V6.196H1.876ZM1.26 0.956H2.088V0.756H1.26V0.956ZM1.988 0.856V8.536H2.188V0.856H1.988ZM2.088 8.436H1.26V8.636H2.088V8.436ZM1.36 8.536V0.856H1.16V8.536H1.36ZM3.828 0.944H4.668V0.744H3.828V0.944ZM4.568 0.844V10.972H4.768V0.844H4.568ZM4.668 10.872H3.828V11.072H4.668V10.872ZM3.928 10.972V0.844H3.728V10.972H3.928ZM0.457341 8.49111C1.70689 8.3229 3.61611 8.02269 5.44023 7.72267L5.40777 7.52533C3.58389 7.82531 1.67711 8.1251 0.430659 8.29289L0.457341 8.49111ZM5.3243 7.63167L5.38429 8.41167L5.58371 8.39633L5.52371 7.61633L5.3243 7.63167ZM5.4669 8.30547C3.73918 8.60542 1.9268 8.91749 0.618828 9.14549L0.653172 9.34251C1.9612 9.11451 3.77282 8.80258 5.50111 8.50253L5.4669 8.30547ZM0.733554 9.22202L0.541554 8.37002L0.346446 8.41398L0.538446 9.26598L0.733554 9.22202ZM6.584 1.636V5.236H6.784V1.636H6.584ZM6.684 5.336H10.056V5.136H6.684V5.336ZM10.156 5.236V1.636H9.956V5.236H10.156ZM10.056 1.536H6.684V1.736H10.056V1.536ZM5.82 0.871999H10.956V0.671999H5.82V0.871999ZM10.856 0.771999V6.1H11.056V0.771999H10.856ZM10.956 6H5.82V6.2H10.956V6ZM5.92 6.1V0.771999H5.72V6.1H5.92ZM9.14342 7.63352L9.93542 7.33352L9.86458 7.14648L9.07258 7.44648L9.14342 7.63352ZM9.81504 7.29274C10.4608 8.3331 11.1406 9.6819 11.4253 10.524L11.6147 10.46C11.3234 9.5981 10.6352 8.2349 9.98496 7.18726L9.81504 7.29274ZM11.4815 10.3997L10.6175 10.7597L10.6945 10.9443L11.5585 10.5843L11.4815 10.3997ZM10.7519 10.8236C10.4966 9.96043 9.82003 8.54841 9.19409 7.48913L9.02191 7.59087C9.64397 8.64359 10.3114 10.0396 10.5601 10.8804L10.7519 10.8236ZM6.73487 7.37374L7.62287 7.56574L7.66513 7.37026L6.77713 7.17826L6.73487 7.37374ZM7.54817 7.43942C7.14337 8.7967 6.46586 10.0656 5.69921 10.8794L5.84479 11.0166C6.63814 10.1744 7.32863 8.8753 7.73983 7.49658L7.54817 7.43942ZM5.83378 10.8694C5.66204 10.7344 5.28564 10.4794 5.06456 10.3566L4.96744 10.5314C5.17836 10.6486 5.54596 10.8976 5.71022 11.0266L5.83378 10.8694ZM5.08561 10.5158C5.89396 9.73194 6.51319 8.53827 6.85243 7.30247L6.65957 7.24953C6.32681 8.46173 5.72204 9.62006 4.94639 10.3722L5.08561 10.5158ZM12.6 2.86V2.76H12.5V2.86H12.6ZM16.236 2.86H16.336V2.76H16.236V2.86ZM16.236 3.712V3.812H16.336V3.712H16.236ZM12.6 3.712H12.5V3.812H12.6V3.712ZM14.064 0.0639992V-0.0360008H13.964V0.0639992H14.064ZM14.916 0.0639992H15.016V-0.0360008H14.916V0.0639992ZM14.916 8.104V8.204H15.016V8.104H14.916ZM14.064 8.104H13.964V8.204H14.064V8.104ZM12.42 8.452L12.3902 8.35655L12.2933 8.38683L12.325 8.48325L12.42 8.452ZM16.212 7.096L16.3099 7.07583L16.2865 6.96175L16.1772 7.00223L16.212 7.096ZM16.38 7.912L16.4179 8.00454L16.4947 7.9731L16.4779 7.89183L16.38 7.912ZM12.72 9.364L12.625 9.39525L12.6577 9.49459L12.7555 9.4575L12.72 9.364ZM16.5 0.495999V0.395999H16.4V0.495999H16.5ZM21.516 0.495999H21.616V0.395999H21.516V0.495999ZM21.516 1.348V1.448H21.616V1.348H21.516ZM16.5 1.348H16.4V1.448H16.5V1.348ZM22.38 3.796V3.696H22.28V3.796H22.38ZM23.28 3.796L23.3799 3.79984L23.3839 3.696H23.28V3.796ZM23.244 4.24L23.1449 4.22197L23.1442 4.23433L23.244 4.24ZM22.332 10.444L22.4088 10.508L22.332 10.444ZM21.516 10.852L21.5091 10.7521L21.5041 10.7527L21.516 10.852ZM20.22 10.864L20.1201 10.8688L20.1244 10.9597L20.2154 10.9639L20.22 10.864ZM19.98 10L19.9897 9.90047L19.801 9.88206L19.8924 10.0482L19.98 10ZM21.552 9.88L21.4786 9.81146L21.4727 9.81903L21.552 9.88ZM22.38 3.988L22.48 3.99367V3.988H22.38ZM16.92 4.792L16.8246 4.82183L17.02 4.792H16.92ZM16.536 3.952L16.5208 3.85316L16.3724 3.876L16.4507 4.00415L16.536 3.952ZM17.748 3.352L17.6959 3.26657L17.693 3.26846L17.748 3.352ZM21.072 0.651999L21.1448 0.720558L21.172 0.691675V0.651999H21.072ZM21.072 0.592L21.0335 0.499692L20.972 0.525333V0.592H21.072ZM21.504 0.412L21.5633 0.331494L21.5178 0.29793L21.4655 0.319692L21.504 0.412ZM22.188 0.916L22.2547 0.990466L22.3463 0.908417L22.2473 0.835494L22.188 0.916ZM17.556 4.336L17.5078 4.24838L17.456 4.27687V4.336H17.556ZM17.556 4.36L17.5928 4.45297L17.656 4.42794V4.36H17.556ZM16.92 4.792H16.82V5.01468L16.9864 4.86674L16.92 4.792ZM16.92 4.048L16.8761 3.95814L16.82 3.98555V4.048H16.92ZM17.436 3.796V3.696H17.4129L17.3921 3.70614L17.436 3.796ZM22.692 3.796H22.792V3.696H22.692V3.796ZM22.692 4.648V4.748H22.792V4.648H22.692ZM20.796 4.276L20.8153 4.17789L20.7235 4.15979L20.6994 4.25026L20.796 4.276ZM21.588 4.432L21.6844 4.45874L21.7132 4.35474L21.6073 4.33389L21.588 4.432ZM17.232 10.948L17.1613 11.0187L17.2194 11.0768L17.2877 11.0311L17.232 10.948ZM16.548 10.432L16.4966 10.3462L16.3521 10.4328L16.4973 10.5182L16.548 10.432ZM18.948 4.288L18.9688 4.19018L18.8799 4.17132L18.8526 4.258L18.948 4.288ZM19.74 4.456L19.8352 4.48658L19.8691 4.38115L19.7608 4.35818L19.74 4.456ZM17.004 8.308L16.9364 8.38172L16.9964 8.43669L17.0624 8.38915L17.004 8.308ZM16.332 7.792L16.2781 7.70777L16.1449 7.793L16.279 7.8768L16.332 7.792ZM12.6 2.96H16.236V2.76H12.6V2.96ZM16.136 2.86V3.712H16.336V2.86H16.136ZM16.236 3.612H12.6V3.812H16.236V3.612ZM12.7 3.712V2.86H12.5V3.712H12.7ZM14.064 0.163999H14.916V-0.0360008H14.064V0.163999ZM14.816 0.0639992V8.104H15.016V0.0639992H14.816ZM14.916 8.004H14.064V8.204H14.916V8.004ZM14.164 8.104V0.0639992H13.964V8.104H14.164ZM12.4498 8.54745C13.413 8.24645 14.8563 7.70519 16.2468 7.18976L16.1772 7.00223C14.7837 7.51881 13.347 8.05755 12.3902 8.35655L12.4498 8.54745ZM16.1141 7.11617L16.2821 7.93217L16.4779 7.89183L16.3099 7.07583L16.1141 7.11617ZM16.3421 7.81946C15.0826 8.33526 13.7274 8.87491 12.6845 9.2705L12.7555 9.4575C13.8006 9.06109 15.1574 8.52074 16.4179 8.00454L16.3421 7.81946ZM12.815 9.33275L12.515 8.42075L12.325 8.48325L12.625 9.39525L12.815 9.33275ZM16.5 0.595999H21.516V0.395999H16.5V0.595999ZM21.416 0.495999V1.348H21.616V0.495999H21.416ZM21.516 1.248H16.5V1.448H21.516V1.248ZM16.6 1.348V0.495999H16.4V1.348H16.6ZM22.38 3.896H23.28V3.696H22.38V3.896ZM23.28 3.796C23.1801 3.79216 23.1801 3.79215 23.1801 3.79215C23.1801 3.79216 23.1801 3.79216 23.1801 3.79216C23.1801 3.79216 23.1801 3.79217 23.1801 3.79219C23.1801 3.79222 23.1801 3.79227 23.1801 3.79234C23.1801 3.79247 23.1801 3.79268 23.18 3.79296C23.18 3.79352 23.18 3.79437 23.1799 3.79549C23.1799 3.79774 23.1797 3.80108 23.1795 3.8054C23.1792 3.81404 23.1786 3.82656 23.1779 3.84203C23.1764 3.87298 23.1742 3.91556 23.1712 3.96216C23.1652 4.05737 23.1564 4.16271 23.1456 4.22211L23.3424 4.25789C23.3556 4.18529 23.3648 4.06862 23.3708 3.97484C23.3738 3.92694 23.3761 3.88327 23.3776 3.8516C23.3784 3.83575 23.379 3.82287 23.3793 3.81393C23.3795 3.80945 23.3797 3.80596 23.3798 3.80358C23.3798 3.80238 23.3799 3.80147 23.3799 3.80084C23.3799 3.80053 23.3799 3.80028 23.3799 3.80012C23.3799 3.80003 23.3799 3.79997 23.3799 3.79992C23.3799 3.7999 23.3799 3.79988 23.3799 3.79987C23.3799 3.79986 23.3799 3.79986 23.3799 3.79985C23.3799 3.79985 23.3799 3.79984 23.28 3.796ZM23.1442 4.23433C23.0242 6.34596 22.9014 7.76697 22.7566 8.72201C22.6843 9.1995 22.6068 9.55766 22.5225 9.82604C22.4381 10.095 22.3485 10.268 22.2552 10.38L22.4088 10.508C22.5255 10.368 22.6249 10.1675 22.7133 9.88596C22.8019 9.60384 22.8812 9.2345 22.9544 8.75198C23.1006 7.78703 23.2238 6.35804 23.3438 4.24567L23.1442 4.23433ZM22.2552 10.38C22.1419 10.5159 22.0357 10.6016 21.921 10.6569C21.8059 10.7125 21.6756 10.7408 21.5091 10.7522L21.5229 10.9518C21.7044 10.9392 21.8621 10.9075 22.008 10.8371C22.1543 10.7664 22.2821 10.6601 22.4088 10.508L22.2552 10.38ZM21.5041 10.7527C21.2128 10.7877 20.7398 10.7881 20.2246 10.7641L20.2154 10.9639C20.7322 10.9879 21.2192 10.9883 21.5279 10.9513L21.5041 10.7527ZM20.3199 10.8592C20.3072 10.5934 20.2076 10.2063 20.0676 9.95181L19.8924 10.0482C20.0164 10.2737 20.1088 10.6306 20.1201 10.8688L20.3199 10.8592ZM19.9703 10.0995C20.466 10.1479 20.9253 10.16 21.132 10.16V9.96C20.9307 9.96 20.478 9.94811 19.9897 9.90047L19.9703 10.0995ZM21.132 10.16C21.23 10.16 21.3208 10.1543 21.405 10.1218C21.4926 10.088 21.5634 10.0292 21.6313 9.94097L21.4727 9.81903C21.4206 9.88679 21.3774 9.91803 21.333 9.93522C21.2852 9.95367 21.226 9.96 21.132 9.96V10.16ZM21.6251 9.94823C21.7256 9.84058 21.8104 9.65983 21.8869 9.4012C21.9644 9.13958 22.0369 8.786 22.1054 8.32109C22.2426 7.39101 22.3658 6.00437 22.4798 3.99366L22.2802 3.98234C22.1662 5.99162 22.0434 7.37099 21.9076 8.29191C21.8396 8.7525 21.7688 9.09567 21.6952 9.34442C21.6206 9.59617 21.5464 9.73942 21.4789 9.81177L21.6251 9.94823ZM22.48 3.988V3.796H22.28V3.988H22.48ZM17.0154 4.76217C16.953 4.56241 16.7576 4.12291 16.6213 3.89985L16.4507 4.00415C16.5784 4.21309 16.767 4.63759 16.8246 4.82183L17.0154 4.76217ZM16.5512 4.05084C16.7233 4.02436 16.9238 3.94345 17.1337 3.83542C17.3453 3.72659 17.5736 3.58642 17.803 3.43554L17.693 3.26846C17.4664 3.41758 17.2447 3.55341 17.0423 3.65758C16.8382 3.76255 16.6607 3.83164 16.5208 3.85316L16.5512 4.05084ZM17.8001 3.43738C18.2969 3.13445 19.9727 1.96511 21.1448 0.720558L20.9992 0.583441C19.8433 1.81089 18.1831 2.96955 17.6959 3.26662L17.8001 3.43738ZM21.172 0.651999V0.592H20.972V0.651999H21.172ZM21.1105 0.684307L21.5425 0.504308L21.4655 0.319692L21.0335 0.499692L21.1105 0.684307ZM21.4447 0.492505L22.1287 0.996505L22.2473 0.835494L21.5633 0.331494L21.4447 0.492505ZM22.1213 0.841533C20.5047 2.29049 18.9389 3.46127 17.5078 4.24838L17.6042 4.42362C19.0531 3.62673 20.6313 2.44551 22.2547 0.990466L22.1213 0.841533ZM17.456 4.336V4.36H17.656V4.336H17.456ZM17.556 4.36C17.5192 4.26703 17.5191 4.26704 17.5191 4.26704C17.5191 4.26705 17.5191 4.26705 17.5191 4.26706C17.5191 4.26707 17.519 4.26709 17.519 4.26711C17.5189 4.26716 17.5187 4.26721 17.5185 4.26729C17.5182 4.26743 17.5176 4.26764 17.517 4.26791C17.5156 4.26844 17.5137 4.26921 17.5113 4.27021C17.5063 4.27221 17.4992 4.27512 17.4902 4.27886C17.4722 4.28635 17.4467 4.2972 17.4161 4.31077C17.3551 4.33783 17.2731 4.37608 17.1906 4.42043C17.109 4.46432 17.0229 4.51627 16.9559 4.57126C16.9225 4.59872 16.8905 4.62954 16.8662 4.66327C16.8425 4.69622 16.82 4.74026 16.82 4.792H17.02C17.02 4.79874 17.0174 4.79553 17.0284 4.78025C17.0389 4.76574 17.0566 4.74735 17.0828 4.72586C17.1351 4.68298 17.208 4.63818 17.2854 4.59657C17.3619 4.55542 17.4389 4.51942 17.4972 4.4936C17.5262 4.48074 17.5503 4.47049 17.5671 4.46349C17.5755 4.46 17.5821 4.45732 17.5864 4.45554C17.5886 4.45465 17.5903 4.45398 17.5914 4.45355C17.5919 4.45333 17.5923 4.45318 17.5926 4.45308C17.5927 4.45303 17.5928 4.453 17.5928 4.45298C17.5928 4.45297 17.5928 4.45296 17.5929 4.45296C17.5929 4.45296 17.5928 4.45296 17.5929 4.45296C17.5928 4.45296 17.5928 4.45297 17.556 4.36ZM17.02 4.792V4.048H16.82V4.792H17.02ZM16.9639 4.13786L17.4799 3.88586L17.3921 3.70614L16.8761 3.95814L16.9639 4.13786ZM17.436 3.896H22.692V3.696H17.436V3.896ZM22.592 3.796V4.648H22.792V3.796H22.592ZM22.692 4.548H17.964V4.748H22.692V4.548ZM17.964 4.548C17.6857 4.548 17.4468 4.56006 17.2622 4.58489C17.1699 4.59729 17.0889 4.61318 17.0222 4.63324C16.9579 4.65262 16.8969 4.67873 16.8536 4.71726L16.9864 4.86674C16.9971 4.85727 17.0246 4.84138 17.0799 4.82476C17.1328 4.80882 17.2026 4.79471 17.2888 4.78311C17.4612 4.75994 17.6903 4.748 17.964 4.748V4.548ZM20.7767 4.37411L21.5687 4.53011L21.6073 4.33389L20.8153 4.17789L20.7767 4.37411ZM21.4916 4.40526C20.6806 7.32738 19.2284 9.48895 17.1763 10.8649L17.2877 11.0311C19.3876 9.62305 20.8634 7.41662 21.6844 4.45874L21.4916 4.40526ZM17.3027 10.8773C17.1515 10.7261 16.8084 10.4692 16.5987 10.3458L16.4973 10.5182C16.6956 10.6348 17.0245 10.8819 17.1613 11.0187L17.3027 10.8773ZM16.5994 10.5178C18.7513 9.22906 20.1558 7.06774 20.8926 4.30174L20.6994 4.25026C19.9722 6.98026 18.5927 9.09094 16.4966 10.3462L16.5994 10.5178ZM18.9272 4.38582L19.7192 4.55382L19.7608 4.35818L18.9688 4.19018L18.9272 4.38582ZM19.6448 4.42542C19.1231 6.04965 18.1277 7.3757 16.9456 8.22685L17.0624 8.38915C18.2803 7.5123 19.3009 6.15035 19.8352 4.48658L19.6448 4.42542ZM17.0716 8.23428C16.9239 8.09894 16.5831 7.831 16.385 7.7072L16.279 7.8768C16.4649 7.993 16.7961 8.25306 16.9364 8.38172L17.0716 8.23428ZM16.3859 7.87623C17.6068 7.09485 18.5688 5.82707 19.0434 4.318L18.8526 4.258C18.3912 5.72493 17.4572 6.95315 16.2781 7.70777L16.3859 7.87623Z" fill="black"/>
</svg>
