<svg width="23" height="12" viewBox="0 0 23 12" fill="none" xmlns="http://www.w3.org/2000/svg">
<path d="M0.768 2.924H4.992V3.764H0.768V2.924ZM0.504 5.696H5.136V6.56H0.504V5.696ZM2.484 1.052H3.348V4.94C3.348 7.052 3.168 9.992 1.068 11.84C0.948 11.66 0.648 11.36 0.432 11.216C2.412 9.584 2.484 6.812 2.484 4.952V1.052ZM3.144 7.136C3.54 7.508 4.896 9.14 5.208 9.524L4.584 10.196C4.188 9.56 3.048 8.084 2.592 7.556L3.144 7.136ZM5.7 1.508H10.776V7.892H9.888V2.3H6.576V7.892H5.7V1.508ZM8.22 7.532H9.024V10.592C9.024 10.916 9.132 10.988 9.42 10.988H10.272C10.656 10.988 10.728 10.676 10.776 9.02C10.98 9.188 11.292 9.308 11.508 9.356C11.412 11.24 11.268 11.708 10.284 11.708H9.312C8.532 11.708 8.22 11.492 8.22 10.688V7.532ZM7.824 3.332H8.664V5.648C8.664 7.7 8.124 10.328 4.968 11.948C4.872 11.78 4.584 11.444 4.404 11.3C7.44 9.752 7.824 7.484 7.824 5.636V3.332ZM19.752 2.24H20.616V8.84H19.752V2.24ZM22.068 1.052H22.956V10.796C22.956 11.372 22.8 11.636 22.44 11.78C22.068 11.924 21.468 11.948 20.424 11.948C20.388 11.72 20.244 11.324 20.112 11.072C20.88 11.096 21.576 11.084 21.768 11.072C21.984 11.072 22.068 11.012 22.068 10.796V1.052ZM12.42 4.484L19.044 3.74L19.14 4.58L12.516 5.336L12.42 4.484ZM14.148 0.943999H15.06C15.048 6.38 16.56 11.024 17.808 11.024C18.108 11.024 18.24 10.484 18.312 9.08C18.516 9.272 18.828 9.476 19.068 9.548C18.912 11.384 18.576 11.912 17.748 11.912C15.624 11.912 14.232 6.572 14.148 0.943999ZM17.544 5.288L18.396 5.54C17.256 8.252 15.36 10.364 13.092 11.72C12.96 11.528 12.636 11.168 12.444 11C14.712 9.8 16.536 7.796 17.544 5.288ZM15.696 1.676L16.296 1.184C16.932 1.664 17.7 2.36 18.06 2.828L17.424 3.38C17.076 2.912 16.332 2.18 15.696 1.676Z" fill="black"/>
<path d="M0.768 2.924V2.824H0.668V2.924H0.768ZM4.992 2.924H5.092V2.824H4.992V2.924ZM4.992 3.764V3.864H5.092V3.764H4.992ZM0.768 3.764H0.668V3.864H0.768V3.764ZM0.504 5.696V5.596H0.404V5.696H0.504ZM5.136 5.696H5.236V5.596H5.136V5.696ZM5.136 6.56V6.66H5.236V6.56H5.136ZM0.504 6.56H0.404V6.66H0.504V6.56ZM2.484 1.052V0.951999H2.384V1.052H2.484ZM3.348 1.052H3.448V0.951999H3.348V1.052ZM1.068 11.84L0.984795 11.8955L1.04822 11.9906L1.13406 11.9151L1.068 11.84ZM0.432 11.216L0.368397 11.1388L0.264468 11.2245L0.37653 11.2992L0.432 11.216ZM3.144 7.136L3.21247 7.06312L3.15079 7.00518L3.08345 7.05642L3.144 7.136ZM5.208 9.524L5.28128 9.59204L5.3404 9.52837L5.28561 9.46094L5.208 9.524ZM4.584 10.196L4.49911 10.2489L4.56826 10.3599L4.65728 10.264L4.584 10.196ZM2.592 7.556L2.53145 7.47642L2.44678 7.54084L2.51632 7.62136L2.592 7.556ZM5.7 1.508V1.408H5.6V1.508H5.7ZM10.776 1.508H10.876V1.408H10.776V1.508ZM10.776 7.892V7.992H10.876V7.892H10.776ZM9.888 7.892H9.788V7.992H9.888V7.892ZM9.888 2.3H9.988V2.2H9.888V2.3ZM6.576 2.3V2.2H6.476V2.3H6.576ZM6.576 7.892V7.992H6.676V7.892H6.576ZM5.7 7.892H5.6V7.992H5.7V7.892ZM8.22 7.532V7.432H8.12V7.532H8.22ZM9.024 7.532H9.124V7.432H9.024V7.532ZM10.776 9.02L10.8396 8.94281L10.682 8.81301L10.676 9.0171L10.776 9.02ZM11.508 9.356L11.6079 9.36109L11.6122 9.27671L11.5297 9.25838L11.508 9.356ZM7.824 3.332V3.232H7.724V3.332H7.824ZM8.664 3.332H8.764V3.232H8.664V3.332ZM4.968 11.948L4.88118 11.9976L4.92861 12.0806L5.01367 12.037L4.968 11.948ZM4.404 11.3L4.35858 11.2109L4.22054 11.2813L4.34153 11.3781L4.404 11.3ZM0.768 3.024H4.992V2.824H0.768V3.024ZM4.892 2.924V3.764H5.092V2.924H4.892ZM4.992 3.664H0.768V3.864H4.992V3.664ZM0.868 3.764V2.924H0.668V3.764H0.868ZM0.504 5.796H5.136V5.596H0.504V5.796ZM5.036 5.696V6.56H5.236V5.696H5.036ZM5.136 6.46H0.504V6.66H5.136V6.46ZM0.604 6.56V5.696H0.404V6.56H0.604ZM2.484 1.152H3.348V0.951999H2.484V1.152ZM3.248 1.052V4.94H3.448V1.052H3.248ZM3.248 4.94C3.248 7.05461 3.06465 9.94974 1.00194 11.7649L1.13406 11.9151C3.27135 10.0343 3.448 7.04939 3.448 4.94H3.248ZM1.15121 11.7845C1.08578 11.6864 0.975379 11.5609 0.856253 11.4433C0.736797 11.3254 0.602744 11.2096 0.48747 11.1328L0.37653 11.2992C0.477256 11.3664 0.601203 11.4726 0.715747 11.5857C0.830621 11.6991 0.930216 11.8136 0.984795 11.8955L1.15121 11.7845ZM0.495604 11.2932C1.50781 10.4589 2.02919 9.33532 2.29785 8.19238C2.56625 7.05052 2.584 5.88219 2.584 4.952H2.384C2.384 5.88181 2.36575 7.02948 2.10315 8.14662C1.84081 9.26268 1.33619 10.3411 0.368397 11.1388L0.495604 11.2932ZM2.584 4.952V1.052H2.384V4.952H2.584ZM3.07553 7.20888C3.2685 7.39015 3.70234 7.88604 4.13133 8.3903C4.55841 8.89229 4.97492 9.39571 5.13039 9.58706L5.28561 9.46094C5.12908 9.26829 4.71159 8.7637 4.28367 8.2607C3.85766 7.75996 3.4155 7.25385 3.21247 7.06312L3.07553 7.20888ZM5.13472 9.45595L4.51072 10.128L4.65728 10.264L5.28128 9.59204L5.13472 9.45595ZM4.66889 10.1431C4.26914 9.50113 3.12555 8.0208 2.66768 7.49064L2.51632 7.62136C2.97045 8.1472 4.10686 9.61887 4.49911 10.2489L4.66889 10.1431ZM2.65255 7.63558L3.20455 7.21558L3.08345 7.05642L2.53145 7.47642L2.65255 7.63558ZM5.7 1.608H10.776V1.408H5.7V1.608ZM10.676 1.508V7.892H10.876V1.508H10.676ZM10.776 7.792H9.888V7.992H10.776V7.792ZM9.988 7.892V2.3H9.788V7.892H9.988ZM9.888 2.2H6.576V2.4H9.888V2.2ZM6.476 2.3V7.892H6.676V2.3H6.476ZM6.576 7.792H5.7V7.992H6.576V7.792ZM5.8 7.892V1.508H5.6V7.892H5.8ZM8.22 7.632H9.024V7.432H8.22V7.632ZM8.924 7.532V10.592H9.124V7.532H8.924ZM8.924 10.592C8.924 10.7585 8.9502 10.8959 9.04596 10.9848C9.13981 11.0719 9.27528 11.088 9.42 11.088V10.888C9.27672 10.888 9.21419 10.8681 9.18205 10.8382C9.1518 10.8101 9.124 10.7495 9.124 10.592H8.924ZM9.42 11.088H10.272V10.888H9.42V11.088ZM10.272 11.088C10.3816 11.088 10.4861 11.0655 10.5727 10.9878C10.6561 10.9131 10.7091 10.7994 10.747 10.6495C10.8222 10.3515 10.8521 9.84711 10.876 9.0229L10.676 9.0171C10.6519 9.84889 10.6218 10.3285 10.553 10.6005C10.5189 10.7356 10.4789 10.8034 10.4393 10.8389C10.4029 10.8715 10.3544 10.888 10.272 10.888V11.088ZM10.7124 9.09719C10.9326 9.27854 11.261 9.40356 11.4863 9.45362L11.5297 9.25838C11.323 9.21244 11.0274 9.09746 10.8396 8.94281L10.7124 9.09719ZM11.4081 9.35091C11.3841 9.82157 11.3573 10.2004 11.3156 10.5047C11.2737 10.8099 11.2177 11.0327 11.139 11.1949C11.062 11.3537 10.9639 11.453 10.8337 11.5152C10.7 11.5792 10.5238 11.608 10.284 11.608V11.808C10.5362 11.808 10.747 11.7783 10.92 11.6957C11.0966 11.6112 11.225 11.4758 11.319 11.2821C11.4113 11.0918 11.4708 10.8444 11.5137 10.5319C11.5567 10.2186 11.5839 9.83243 11.6079 9.36109L11.4081 9.35091ZM10.284 11.608H9.312V11.808H10.284V11.608ZM9.312 11.608C8.92485 11.608 8.68541 11.5528 8.53958 11.4244C8.39729 11.2992 8.32 11.0817 8.32 10.688H8.12C8.12 11.0983 8.19871 11.3908 8.40742 11.5746C8.61259 11.7552 8.91915 11.808 9.312 11.808V11.608ZM8.32 10.688V7.532H8.12V10.688H8.32ZM7.824 3.432H8.664V3.232H7.824V3.432ZM8.564 3.332V5.648H8.764V3.332H8.564ZM8.564 5.648C8.564 6.66593 8.42993 7.81953 7.90915 8.91713C7.38931 10.0128 6.48126 11.0588 4.92233 11.859L5.01367 12.037C6.61074 11.2172 7.5507 10.1392 8.08985 9.00287C8.62807 7.86847 8.764 6.68207 8.764 5.648H8.564ZM5.05482 11.8984C5.00191 11.8058 4.90078 11.6739 4.7931 11.5495C4.68507 11.4248 4.56345 11.2995 4.46647 11.2219L4.34153 11.3781C4.42455 11.4445 4.53693 11.5592 4.6419 11.6805C4.74722 11.8021 4.83809 11.9222 4.88118 11.9976L5.05482 11.8984ZM4.44942 11.3891C5.98488 10.6062 6.85672 9.63703 7.34267 8.62374C7.82759 7.61259 7.924 6.56618 7.924 5.636H7.724C7.724 6.55382 7.62841 7.56541 7.16233 8.53726C6.69728 9.50697 5.85912 10.4458 4.35858 11.2109L4.44942 11.3891ZM7.924 5.636V3.332H7.724V5.636H7.924ZM19.752 2.24V2.14H19.652V2.24H19.752ZM20.616 2.24H20.716V2.14H20.616V2.24ZM20.616 8.84V8.94H20.716V8.84H20.616ZM19.752 8.84H19.652V8.94H19.752V8.84ZM22.068 1.052V0.951999H21.968V1.052H22.068ZM22.956 1.052H23.056V0.951999H22.956V1.052ZM22.44 11.78L22.4761 11.8733L22.4771 11.8728L22.44 11.78ZM20.424 11.948L20.3252 11.9636L20.3386 12.048H20.424V11.948ZM20.112 11.072L20.1151 10.972L19.944 10.9667L20.0234 11.1184L20.112 11.072ZM21.768 11.072V10.9718L21.7618 10.9722L21.768 11.072ZM12.42 4.484L12.4088 4.38462L12.3094 4.39579L12.3206 4.4952L12.42 4.484ZM19.044 3.74L19.1434 3.72865L19.132 3.62948L19.0328 3.64062L19.044 3.74ZM19.14 4.58L19.1513 4.67935L19.2507 4.66801L19.2394 4.56865L19.14 4.58ZM12.516 5.336L12.4166 5.3472L12.4278 5.44671L12.5273 5.43535L12.516 5.336ZM14.148 0.943999V0.843999H14.0465L14.048 0.945492L14.148 0.943999ZM15.06 0.943999L15.16 0.94422L15.1602 0.843999H15.06V0.943999ZM18.312 9.08L18.3805 9.00718L18.2232 8.8591L18.2121 9.07488L18.312 9.08ZM19.068 9.548L19.1676 9.55647L19.1745 9.47555L19.0967 9.45222L19.068 9.548ZM17.544 5.288L17.5724 5.19211L17.4851 5.16631L17.4512 5.25071L17.544 5.288ZM18.396 5.54L18.4882 5.57875L18.5315 5.47579L18.4244 5.44411L18.396 5.54ZM13.092 11.72L13.0096 11.7767L13.0628 11.854L13.1433 11.8058L13.092 11.72ZM12.444 11L12.3972 10.9116L12.2688 10.9796L12.3781 11.0753L12.444 11ZM15.696 1.676L15.6326 1.59867L15.5367 1.67733L15.6339 1.75437L15.696 1.676ZM16.296 1.184L16.3562 1.10418L16.2934 1.05678L16.2326 1.10667L16.296 1.184ZM18.06 2.828L18.1255 2.90352L18.1967 2.84174L18.1393 2.76703L18.06 2.828ZM17.424 3.38L17.3438 3.43967L17.4081 3.52621L17.4895 3.45552L17.424 3.38ZM19.752 2.34H20.616V2.14H19.752V2.34ZM20.516 2.24V8.84H20.716V2.24H20.516ZM20.616 8.74H19.752V8.94H20.616V8.74ZM19.852 8.84V2.24H19.652V8.84H19.852ZM22.068 1.152H22.956V0.951999H22.068V1.152ZM22.856 1.052V10.796H23.056V1.052H22.856ZM22.856 10.796C22.856 11.077 22.8176 11.2677 22.745 11.4026C22.6745 11.5335 22.5663 11.6218 22.4029 11.6872L22.4771 11.8728C22.6737 11.7942 22.8235 11.6785 22.921 11.4974C23.0164 11.3203 23.056 11.091 23.056 10.796H22.856ZM22.4039 11.6867C22.2317 11.7534 22.0004 11.7945 21.6767 11.8183C21.3537 11.842 20.946 11.848 20.424 11.848V12.048C20.946 12.048 21.3603 12.042 21.6913 12.0177C22.0216 11.9935 22.2763 11.9506 22.4761 11.8733L22.4039 11.6867ZM20.5228 11.9324C20.4846 11.6906 20.336 11.2841 20.2006 11.0256L20.0234 11.1184C20.152 11.3639 20.2914 11.7494 20.3252 11.9636L20.5228 11.9324ZM20.1089 11.172C20.8784 11.196 21.5779 11.1841 21.7742 11.1718L21.7618 10.9722C21.5741 10.9839 20.8816 10.996 20.1151 10.972L20.1089 11.172ZM21.768 11.172C21.8789 11.172 21.9872 11.1582 22.0648 11.0903C22.1462 11.019 22.168 10.9124 22.168 10.796H21.968C21.968 10.8956 21.9478 10.927 21.9331 10.9397C21.9148 10.9558 21.8731 10.972 21.768 10.972V11.172ZM22.168 10.796V1.052H21.968V10.796H22.168ZM12.4312 4.58337L19.0552 3.83938L19.0328 3.64062L12.4088 4.38462L12.4312 4.58337ZM18.9446 3.75135L19.0406 4.59135L19.2394 4.56865L19.1434 3.72865L18.9446 3.75135ZM19.1287 4.48064L12.5047 5.23664L12.5273 5.43535L19.1513 4.67935L19.1287 4.48064ZM12.6154 5.3248L12.5194 4.4728L12.3206 4.4952L12.4166 5.3472L12.6154 5.3248ZM14.148 1.044H15.06V0.843999H14.148V1.044ZM14.96 0.943779C14.954 3.67022 15.33 6.19974 15.8654 8.05029C16.133 8.97496 16.4416 9.73465 16.765 10.2655C16.9267 10.5308 17.0945 10.7429 17.2661 10.8898C17.4375 11.0365 17.6199 11.124 17.808 11.124V10.924C17.6841 10.924 17.5463 10.8664 17.3961 10.7379C17.2462 10.6095 17.0912 10.4164 16.9358 10.1614C16.6252 9.6516 16.3225 8.91054 16.0576 7.99471C15.528 6.16426 15.154 3.65378 15.16 0.94422L14.96 0.943779ZM17.808 11.124C17.9193 11.124 18.0113 11.0713 18.0825 10.9786C18.1504 10.8901 18.2014 10.7634 18.2424 10.6033C18.3246 10.2821 18.3759 9.78701 18.4119 9.08512L18.2121 9.07488C18.1761 9.77699 18.1254 10.2539 18.0486 10.5537C18.0101 10.7041 17.9674 10.8001 17.9239 10.8568C17.8837 10.9092 17.8467 10.924 17.808 10.924V11.124ZM18.2435 9.15282C18.4546 9.35157 18.7798 9.56594 19.0393 9.64378L19.0967 9.45222C18.8762 9.38606 18.5774 9.19243 18.3805 9.00718L18.2435 9.15282ZM18.9684 9.53953C18.8903 10.4577 18.7681 11.0284 18.5732 11.3688C18.4776 11.5358 18.3661 11.6442 18.2355 11.7121C18.1038 11.7806 17.9448 11.812 17.748 11.812V12.012C17.9652 12.012 18.1587 11.9774 18.3278 11.8895C18.4979 11.8011 18.6354 11.6627 18.7468 11.4682C18.9659 11.0856 19.0897 10.4743 19.1676 9.55647L18.9684 9.53953ZM17.748 11.812C17.2632 11.812 16.804 11.5077 16.382 10.9307C15.9608 10.3548 15.589 9.52335 15.2786 8.50923C14.6581 6.48224 14.2899 3.75012 14.248 0.942507L14.048 0.945492C14.0901 3.76588 14.4599 6.51776 15.0874 8.56777C15.401 9.59215 15.7807 10.4474 16.2205 11.0487C16.6595 11.6488 17.1708 12.012 17.748 12.012V11.812ZM17.5156 5.38389L18.3676 5.63589L18.4244 5.44411L17.5724 5.19211L17.5156 5.38389ZM18.3038 5.50125C17.1721 8.19359 15.2904 10.2891 13.0407 11.6342L13.1433 11.8058C15.4296 10.4389 17.3399 8.31041 18.4882 5.57875L18.3038 5.50125ZM13.1744 11.6633C13.0373 11.4639 12.7075 11.0977 12.5099 10.9247L12.3781 11.0753C12.5645 11.2383 12.8827 11.5921 13.0096 11.7767L13.1744 11.6633ZM12.4908 11.0884C14.7799 9.87721 16.6201 7.85499 17.6368 5.32529L17.4512 5.25071C16.4519 7.73701 14.6441 9.72279 12.3972 10.9116L12.4908 11.0884ZM15.7594 1.75333L16.3594 1.26133L16.2326 1.10667L15.6326 1.59867L15.7594 1.75333ZM16.2358 1.26382C16.8688 1.7416 17.6287 2.43131 17.9807 2.88897L18.1393 2.76703C17.7713 2.28869 16.9952 1.5864 16.3562 1.10418L16.2358 1.26382ZM17.9945 2.75248L17.3585 3.30448L17.4895 3.45552L18.1255 2.90352L17.9945 2.75248ZM17.5042 3.32033C17.1494 2.84309 16.3983 2.10498 15.7581 1.59763L15.6339 1.75437C16.2657 2.25502 17.0026 2.98091 17.3438 3.43967L17.5042 3.32033Z" fill="black"/>
</svg>
