<svg width="24" height="11" viewBox="0 0 24 11" fill="none" xmlns="http://www.w3.org/2000/svg">
<path d="M1.452 0.7L2.04 0.148C2.688 0.676 3.504 1.444 3.888 1.936L3.276 2.584C2.904 2.068 2.1 1.264 1.452 0.7ZM2.088 10.72L1.92 9.916L2.16 9.544L4.404 7.912C4.488 8.152 4.632 8.488 4.74 8.656C2.604 10.24 2.28 10.492 2.088 10.72ZM0.516 3.688H2.64V4.564H0.516V3.688ZM6.132 0.364H9.276V1.204H6.132V0.364ZM4.596 5.224H10.2V6.076H4.596V5.224ZM9.924 5.224H10.092L10.248 5.188L10.8 5.44C9.816 8.572 7.32 10.228 4.524 10.972C4.44 10.744 4.248 10.384 4.092 10.18C6.684 9.604 9.072 8.02 9.924 5.368V5.224ZM5.808 5.86C6.756 8.056 8.796 9.628 11.556 10.204C11.352 10.396 11.112 10.756 10.992 10.996C8.16 10.312 6.144 8.608 5.052 6.124L5.808 5.86ZM5.892 0.364H6.732V1.708C6.732 2.836 6.348 4.132 4.62 4.96C4.512 4.78 4.2 4.432 4.032 4.3C5.616 3.568 5.892 2.572 5.892 1.696V0.364ZM8.856 0.364H9.708V3.148C9.708 3.484 9.744 3.604 9.924 3.604C10.068 3.604 10.608 3.604 10.764 3.604C10.92 3.604 11.172 3.58 11.328 3.544C11.34 3.772 11.376 4.108 11.412 4.312C11.256 4.372 11.016 4.384 10.776 4.384C10.596 4.384 10.008 4.384 9.864 4.384C9.036 4.384 8.856 4.036 8.856 3.136V0.364ZM2.088 10.72C2.016 10.516 1.764 10.132 1.608 9.964C1.824 9.808 2.208 9.412 2.208 8.872V3.688H3.072V9.64C3.072 9.64 2.088 10.372 2.088 10.72ZM19.788 1.084V2.164H21.804V1.084H19.788ZM16.98 1.084V2.164H18.96V1.084H16.98ZM14.232 1.084V2.164H16.152V1.084H14.232ZM13.368 0.435999H22.704V2.824H13.368V0.435999ZM12.816 3.484H23.196V4.18H12.816V3.484ZM13.86 9.736H23.496V10.468H13.86V9.736ZM13.476 5.068H14.388V10.972H13.476V5.068ZM16.44 6.64V7.3H21.324V6.64H16.44ZM16.44 7.84V8.524H21.324V7.84H16.44ZM16.44 5.452V6.1H21.324V5.452H16.44ZM15.6 4.888H22.2V9.076H15.6V4.888ZM17.724 2.632L18.624 2.704C18.516 3.532 18.348 4.54 18.216 5.176H17.34C17.484 4.504 17.64 3.46 17.724 2.632Z" fill="black"/>
<path d="M1.452 0.7L1.38356 0.627092L1.30291 0.702805L1.38635 0.77543L1.452 0.7ZM2.04 0.148L2.10317 0.0704761L2.03534 0.0152113L1.97156 0.0750923L2.04 0.148ZM3.888 1.936L3.9607 2.00466L4.01969 1.9422L3.96683 1.87447L3.888 1.936ZM3.276 2.584L3.19488 2.64248L3.26563 2.74062L3.3487 2.65266L3.276 2.584ZM2.088 10.72L1.99011 10.7405L2.03214 10.9416L2.16449 10.7844L2.088 10.72ZM1.92 9.916L1.83597 9.86179L1.81372 9.89628L1.82211 9.93645L1.92 9.916ZM2.16 9.544L2.10118 9.46313L2.08609 9.4741L2.07597 9.48979L2.16 9.544ZM4.404 7.912L4.49839 7.87896L4.45396 7.75202L4.34518 7.83113L4.404 7.912ZM4.74 8.656L4.79957 8.73632L4.8747 8.68061L4.82412 8.60192L4.74 8.656ZM0.516 3.688V3.588H0.416V3.688H0.516ZM2.64 3.688H2.74V3.588H2.64V3.688ZM2.64 4.564V4.664H2.74V4.564H2.64ZM0.516 4.564H0.416V4.664H0.516V4.564ZM6.132 0.364V0.264H6.032V0.364H6.132ZM9.276 0.364H9.376V0.264H9.276V0.364ZM9.276 1.204V1.304H9.376V1.204H9.276ZM6.132 1.204H6.032V1.304H6.132V1.204ZM4.596 5.224V5.124H4.496V5.224H4.596ZM10.2 5.224H10.3V5.124H10.2V5.224ZM10.2 6.076V6.176H10.3V6.076H10.2ZM4.596 6.076H4.496V6.176H4.596V6.076ZM9.924 5.224V5.124H9.824V5.224H9.924ZM10.092 5.224V5.324H10.1034L10.1145 5.32144L10.092 5.224ZM10.248 5.188L10.2895 5.09703L10.2586 5.08292L10.2255 5.09056L10.248 5.188ZM10.8 5.44L10.8954 5.46997L10.9219 5.38571L10.8415 5.34903L10.8 5.44ZM4.524 10.972L4.43017 11.0066L4.46166 11.0921L4.54971 11.0686L4.524 10.972ZM4.092 10.18L4.07031 10.0824L3.91744 10.1164L4.01256 10.2407L4.092 10.18ZM9.924 5.368L10.0192 5.39859L10.024 5.38367V5.368H9.924ZM5.808 5.86L5.89981 5.82037L5.86292 5.7349L5.77503 5.76559L5.808 5.86ZM11.556 10.204L11.6245 10.2768L11.7643 10.1453L11.5764 10.1061L11.556 10.204ZM10.992 10.996L10.9685 11.0932L11.0459 11.1119L11.0814 11.0407L10.992 10.996ZM5.052 6.124L5.01903 6.02959L4.91693 6.06524L4.96046 6.16424L5.052 6.124ZM5.892 0.364V0.264H5.792V0.364H5.892ZM6.732 0.364H6.832V0.264H6.732V0.364ZM4.62 4.96L4.53425 5.01145L4.5811 5.08953L4.66321 5.05018L4.62 4.96ZM4.032 4.3L3.99005 4.20922L3.8418 4.27773L3.97022 4.37863L4.032 4.3ZM8.856 0.364V0.264H8.756V0.364H8.856ZM9.708 0.364H9.808V0.264H9.708V0.364ZM11.328 3.544L11.4279 3.53874L11.4216 3.41977L11.3055 3.44656L11.328 3.544ZM11.412 4.312L11.4479 4.40533L11.5248 4.37576L11.5105 4.29462L11.412 4.312ZM2.088 10.72L1.9937 10.7533L2.188 10.72H2.088ZM1.608 9.964L1.54945 9.88293L1.45775 9.94916L1.53472 10.032L1.608 9.964ZM2.208 3.688V3.588H2.108V3.688H2.208ZM3.072 3.688H3.172V3.588H3.072V3.688ZM3.072 9.64L3.13169 9.72023L3.172 9.69024V9.64H3.072ZM1.52044 0.772907L2.10844 0.220907L1.97156 0.0750923L1.38356 0.627092L1.52044 0.772907ZM1.97683 0.225523C2.62272 0.751802 3.43199 1.51427 3.80917 1.99753L3.96683 1.87447C3.57601 1.37373 2.75328 0.600198 2.10317 0.0704761L1.97683 0.225523ZM3.8153 1.86734L3.2033 2.51534L3.3487 2.65266L3.9607 2.00466L3.8153 1.86734ZM3.35712 2.52552C2.97833 2.0001 2.16743 1.19011 1.51765 0.624569L1.38635 0.77543C2.03257 1.33789 2.82967 2.1359 3.19488 2.64248L3.35712 2.52552ZM2.18589 10.6995L2.01789 9.89555L1.82211 9.93645L1.99011 10.7405L2.18589 10.6995ZM2.00403 9.97021L2.24403 9.59821L2.07597 9.48979L1.83597 9.86179L2.00403 9.97021ZM2.21882 9.62487L4.46282 7.99287L4.34518 7.83113L2.10118 9.46313L2.21882 9.62487ZM4.30961 7.94503C4.39437 8.18721 4.54144 8.53206 4.65588 8.71008L4.82412 8.60192C4.72256 8.44394 4.58163 8.11679 4.49839 7.87896L4.30961 7.94503ZM4.68043 8.57568C3.61277 9.36742 2.99671 9.82721 2.62358 10.1176C2.25123 10.4074 2.11486 10.5329 2.01151 10.6556L2.16449 10.7844C2.25314 10.6791 2.37477 10.5646 2.74642 10.2754C3.11729 9.98679 3.73123 9.52858 4.79957 8.73632L4.68043 8.57568ZM0.516 3.788H2.64V3.588H0.516V3.788ZM2.54 3.688V4.564H2.74V3.688H2.54ZM2.64 4.464H0.516V4.664H2.64V4.464ZM0.616 4.564V3.688H0.416V4.564H0.616ZM6.132 0.464H9.276V0.264H6.132V0.464ZM9.176 0.364V1.204H9.376V0.364H9.176ZM9.276 1.104H6.132V1.304H9.276V1.104ZM6.232 1.204V0.364H6.032V1.204H6.232ZM4.596 5.324H10.2V5.124H4.596V5.324ZM10.1 5.224V6.076H10.3V5.224H10.1ZM10.2 5.976H4.596V6.176H10.2V5.976ZM4.696 6.076V5.224H4.496V6.076H4.696ZM9.924 5.324H10.092V5.124H9.924V5.324ZM10.1145 5.32144L10.2705 5.28544L10.2255 5.09056L10.0695 5.12656L10.1145 5.32144ZM10.2065 5.27897L10.7585 5.53097L10.8415 5.34903L10.2895 5.09703L10.2065 5.27897ZM10.7046 5.41003C9.73412 8.49898 7.27323 10.137 4.49829 10.8754L4.54971 11.0686C7.36677 10.319 9.89788 8.64502 10.8954 5.46997L10.7046 5.41003ZM4.61783 10.9374C4.53068 10.7009 4.33404 10.3319 4.17144 10.1193L4.01256 10.2407C4.16196 10.4361 4.34932 10.7871 4.43017 11.0066L4.61783 10.9374ZM4.11369 10.2776C6.72787 9.69669 9.15293 8.09503 10.0192 5.39859L9.82879 5.33741C8.99107 7.94497 6.64014 9.51131 4.07031 10.0824L4.11369 10.2776ZM10.024 5.368V5.224H9.824V5.368H10.024ZM5.71619 5.89963C6.67909 8.13016 8.74901 9.72035 11.5356 10.3019L11.5764 10.1061C8.84299 9.53565 6.83291 7.98184 5.89981 5.82037L5.71619 5.89963ZM11.4875 10.1312C11.2722 10.3338 11.0258 10.7047 10.9026 10.9513L11.0814 11.0407C11.1982 10.8073 11.4318 10.4582 11.6245 10.2768L11.4875 10.1312ZM11.0155 10.8988C8.21293 10.2219 6.22262 8.53837 5.14355 6.08376L4.96046 6.16424C6.06538 8.67763 8.10707 10.4021 10.9685 11.0932L11.0155 10.8988ZM5.08497 6.21841L5.84097 5.95441L5.77503 5.76559L5.01903 6.02959L5.08497 6.21841ZM5.892 0.464H6.732V0.264H5.892V0.464ZM6.632 0.364V1.708H6.832V0.364H6.632ZM6.632 1.708C6.632 2.26099 6.53785 2.849 6.23633 3.39839C5.93546 3.94662 5.42405 4.46384 4.57679 4.86982L4.66321 5.05018C5.54396 4.62816 6.08854 4.08338 6.41167 3.49461C6.73416 2.907 6.832 2.28301 6.832 1.708H6.632ZM4.70575 4.90855C4.64675 4.81022 4.53662 4.67255 4.42309 4.5454C4.30937 4.41803 4.18475 4.29284 4.09378 4.22137L3.97022 4.37863C4.04725 4.43916 4.16263 4.55397 4.27391 4.6786C4.38538 4.80345 4.48525 4.92978 4.53425 5.01145L4.70575 4.90855ZM4.07395 4.39078C4.87995 4.0183 5.36247 3.57415 5.642 3.10303C5.92133 2.63225 5.992 2.14454 5.992 1.696H5.792C5.792 2.12346 5.72467 2.57174 5.47 3.00097C5.21553 3.42985 4.76805 3.8497 3.99005 4.20922L4.07395 4.39078ZM5.992 1.696V0.364H5.792V1.696H5.992ZM8.856 0.464H9.708V0.264H8.856V0.464ZM9.608 0.364V3.148H9.808V0.364H9.608ZM9.608 3.148C9.608 3.31278 9.61568 3.44791 9.65688 3.54208C9.67941 3.59357 9.71368 3.63748 9.76445 3.66668C9.81354 3.69491 9.86873 3.704 9.924 3.704V3.504C9.88927 3.504 9.87246 3.49808 9.86417 3.49331C9.85758 3.48952 9.84909 3.48243 9.84012 3.46192C9.81832 3.41209 9.808 3.31922 9.808 3.148H9.608ZM9.924 3.704C9.92428 3.704 9.92456 3.704 9.92485 3.704C9.92513 3.704 9.92542 3.704 9.92571 3.704C9.92599 3.704 9.92628 3.704 9.92657 3.704C9.92686 3.704 9.92715 3.704 9.92745 3.704C9.92774 3.704 9.92804 3.704 9.92833 3.704C9.92863 3.704 9.92893 3.704 9.92922 3.704C9.92952 3.704 9.92982 3.704 9.93013 3.704C9.93043 3.704 9.93073 3.704 9.93104 3.704C9.93134 3.704 9.93165 3.704 9.93196 3.704C9.93227 3.704 9.93257 3.704 9.93289 3.704C9.9332 3.704 9.93351 3.704 9.93382 3.704C9.93414 3.704 9.93445 3.704 9.93477 3.704C9.93508 3.704 9.9354 3.704 9.93572 3.704C9.93604 3.704 9.93636 3.704 9.93668 3.704C9.93701 3.704 9.93733 3.704 9.93766 3.704C9.93798 3.704 9.93831 3.704 9.93864 3.704C9.93896 3.704 9.93929 3.704 9.93962 3.704C9.93996 3.704 9.94029 3.704 9.94062 3.704C9.94096 3.704 9.94129 3.704 9.94163 3.704C9.94196 3.704 9.9423 3.704 9.94264 3.704C9.94298 3.704 9.94332 3.704 9.94366 3.704C9.94401 3.704 9.94435 3.704 9.94469 3.704C9.94504 3.704 9.94539 3.704 9.94573 3.704C9.94608 3.704 9.94643 3.704 9.94678 3.704C9.94713 3.704 9.94748 3.704 9.94784 3.704C9.94819 3.704 9.94854 3.704 9.9489 3.704C9.94925 3.704 9.94961 3.704 9.94997 3.704C9.95033 3.704 9.95069 3.704 9.95105 3.704C9.95141 3.704 9.95177 3.704 9.95214 3.704C9.9525 3.704 9.95287 3.704 9.95323 3.704C9.9536 3.704 9.95397 3.704 9.95434 3.704C9.95471 3.704 9.95508 3.704 9.95545 3.704C9.95582 3.704 9.9562 3.704 9.95657 3.704C9.95695 3.704 9.95732 3.704 9.9577 3.704C9.95808 3.704 9.95845 3.704 9.95883 3.704C9.95921 3.704 9.95959 3.704 9.95998 3.704C9.96036 3.704 9.96074 3.704 9.96113 3.704C9.96151 3.704 9.9619 3.704 9.96229 3.704C9.96268 3.704 9.96306 3.704 9.96346 3.704C9.96385 3.704 9.96424 3.704 9.96463 3.704C9.96502 3.704 9.96542 3.704 9.96581 3.704C9.96621 3.704 9.9666 3.704 9.967 3.704C9.9674 3.704 9.9678 3.704 9.9682 3.704C9.9686 3.704 9.969 3.704 9.9694 3.704C9.96981 3.704 9.97021 3.704 9.97062 3.704C9.97102 3.704 9.97143 3.704 9.97184 3.704C9.97224 3.704 9.97265 3.704 9.97306 3.704C9.97347 3.704 9.97389 3.704 9.9743 3.704C9.97471 3.704 9.97513 3.704 9.97554 3.704C9.97596 3.704 9.97637 3.704 9.97679 3.704C9.97721 3.704 9.97763 3.704 9.97805 3.704C9.97847 3.704 9.97889 3.704 9.97931 3.704C9.97974 3.704 9.98016 3.704 9.98058 3.704C9.98101 3.704 9.98143 3.704 9.98186 3.704C9.98229 3.704 9.98272 3.704 9.98315 3.704C9.98358 3.704 9.98401 3.704 9.98444 3.704C9.98487 3.704 9.98531 3.704 9.98574 3.704C9.98618 3.704 9.98661 3.704 9.98705 3.704C9.98749 3.704 9.98792 3.704 9.98836 3.704C9.9888 3.704 9.98924 3.704 9.98969 3.704C9.99013 3.704 9.99057 3.704 9.99101 3.704C9.99146 3.704 9.9919 3.704 9.99235 3.704C9.99279 3.704 9.99324 3.704 9.99369 3.704C9.99414 3.704 9.99459 3.704 9.99504 3.704C9.99549 3.704 9.99594 3.704 9.9964 3.704C9.99685 3.704 9.9973 3.704 9.99776 3.704C9.99821 3.704 9.99867 3.704 9.99913 3.704C9.99959 3.704 10 3.704 10.0005 3.704C10.001 3.704 10.0014 3.704 10.0019 3.704C10.0023 3.704 10.0028 3.704 10.0033 3.704C10.0037 3.704 10.0042 3.704 10.0047 3.704C10.0051 3.704 10.0056 3.704 10.0061 3.704C10.0065 3.704 10.007 3.704 10.0075 3.704C10.008 3.704 10.0084 3.704 10.0089 3.704C10.0094 3.704 10.0098 3.704 10.0103 3.704C10.0108 3.704 10.0113 3.704 10.0118 3.704C10.0122 3.704 10.0127 3.704 10.0132 3.704C10.0137 3.704 10.0141 3.704 10.0146 3.704C10.0151 3.704 10.0156 3.704 10.0161 3.704C10.0166 3.704 10.017 3.704 10.0175 3.704C10.018 3.704 10.0185 3.704 10.019 3.704C10.0195 3.704 10.02 3.704 10.0205 3.704C10.0209 3.704 10.0214 3.704 10.0219 3.704C10.0224 3.704 10.0229 3.704 10.0234 3.704C10.0239 3.704 10.0244 3.704 10.0249 3.704C10.0254 3.704 10.0259 3.704 10.0264 3.704C10.0269 3.704 10.0274 3.704 10.0279 3.704C10.0284 3.704 10.0289 3.704 10.0294 3.704C10.0299 3.704 10.0304 3.704 10.0309 3.704C10.0314 3.704 10.0319 3.704 10.0324 3.704C10.0329 3.704 10.0334 3.704 10.0339 3.704C10.0344 3.704 10.0349 3.704 10.0355 3.704C10.036 3.704 10.0365 3.704 10.037 3.704C10.0375 3.704 10.038 3.704 10.0385 3.704C10.039 3.704 10.0396 3.704 10.0401 3.704C10.0406 3.704 10.0411 3.704 10.0416 3.704C10.0421 3.704 10.0427 3.704 10.0432 3.704C10.0437 3.704 10.0442 3.704 10.0447 3.704C10.0453 3.704 10.0458 3.704 10.0463 3.704C10.0468 3.704 10.0474 3.704 10.0479 3.704C10.0484 3.704 10.0489 3.704 10.0495 3.704C10.05 3.704 10.0505 3.704 10.051 3.704C10.0516 3.704 10.0521 3.704 10.0526 3.704C10.0532 3.704 10.0537 3.704 10.0542 3.704C10.0548 3.704 10.0553 3.704 10.0558 3.704C10.0564 3.704 10.0569 3.704 10.0574 3.704C10.058 3.704 10.0585 3.704 10.059 3.704C10.0596 3.704 10.0601 3.704 10.0607 3.704C10.0612 3.704 10.0617 3.704 10.0623 3.704C10.0628 3.704 10.0634 3.704 10.0639 3.704C10.0645 3.704 10.065 3.704 10.0655 3.704C10.0661 3.704 10.0666 3.704 10.0672 3.704C10.0677 3.704 10.0683 3.704 10.0688 3.704C10.0694 3.704 10.0699 3.704 10.0705 3.704C10.071 3.704 10.0716 3.704 10.0721 3.704C10.0727 3.704 10.0732 3.704 10.0738 3.704C10.0743 3.704 10.0749 3.704 10.0754 3.704C10.076 3.704 10.0766 3.704 10.0771 3.704C10.0777 3.704 10.0782 3.704 10.0788 3.704C10.0793 3.704 10.0799 3.704 10.0805 3.704C10.081 3.704 10.0816 3.704 10.0821 3.704C10.0827 3.704 10.0833 3.704 10.0838 3.704C10.0844 3.704 10.085 3.704 10.0855 3.704C10.0861 3.704 10.0867 3.704 10.0872 3.704C10.0878 3.704 10.0884 3.704 10.0889 3.704C10.0895 3.704 10.0901 3.704 10.0906 3.704C10.0912 3.704 10.0918 3.704 10.0923 3.704C10.0929 3.704 10.0935 3.704 10.0941 3.704C10.0946 3.704 10.0952 3.704 10.0958 3.704C10.0964 3.704 10.0969 3.704 10.0975 3.704C10.0981 3.704 10.0987 3.704 10.0992 3.704C10.0998 3.704 10.1004 3.704 10.101 3.704C10.1016 3.704 10.1021 3.704 10.1027 3.704C10.1033 3.704 10.1039 3.704 10.1045 3.704C10.105 3.704 10.1056 3.704 10.1062 3.704C10.1068 3.704 10.1074 3.704 10.108 3.704C10.1085 3.704 10.1091 3.704 10.1097 3.704C10.1103 3.704 10.1109 3.704 10.1115 3.704C10.1121 3.704 10.1126 3.704 10.1132 3.704C10.1138 3.704 10.1144 3.704 10.115 3.704C10.1156 3.704 10.1162 3.704 10.1168 3.704C10.1174 3.704 10.118 3.704 10.1186 3.704C10.1191 3.704 10.1197 3.704 10.1203 3.704C10.1209 3.704 10.1215 3.704 10.1221 3.704C10.1227 3.704 10.1233 3.704 10.1239 3.704C10.1245 3.704 10.1251 3.704 10.1257 3.704C10.1263 3.704 10.1269 3.704 10.1275 3.704C10.1281 3.704 10.1287 3.704 10.1293 3.704C10.1299 3.704 10.1305 3.704 10.1311 3.704C10.1317 3.704 10.1323 3.704 10.1329 3.704C10.1335 3.704 10.1341 3.704 10.1347 3.704C10.1353 3.704 10.1359 3.704 10.1365 3.704C10.1372 3.704 10.1378 3.704 10.1384 3.704C10.139 3.704 10.1396 3.704 10.1402 3.704C10.1408 3.704 10.1414 3.704 10.142 3.704C10.1426 3.704 10.1432 3.704 10.1439 3.704C10.1445 3.704 10.1451 3.704 10.1457 3.704C10.1463 3.704 10.1469 3.704 10.1475 3.704C10.1481 3.704 10.1488 3.704 10.1494 3.704C10.15 3.704 10.1506 3.704 10.1512 3.704C10.1518 3.704 10.1524 3.704 10.1531 3.704C10.1537 3.704 10.1543 3.704 10.1549 3.704C10.1555 3.704 10.1562 3.704 10.1568 3.704C10.1574 3.704 10.158 3.704 10.1586 3.704C10.1593 3.704 10.1599 3.704 10.1605 3.704C10.1611 3.704 10.1617 3.704 10.1624 3.704C10.163 3.704 10.1636 3.704 10.1642 3.704C10.1649 3.704 10.1655 3.704 10.1661 3.704C10.1667 3.704 10.1674 3.704 10.168 3.704C10.1686 3.704 10.1692 3.704 10.1699 3.704C10.1705 3.704 10.1711 3.704 10.1717 3.704C10.1724 3.704 10.173 3.704 10.1736 3.704C10.1743 3.704 10.1749 3.704 10.1755 3.704C10.1761 3.704 10.1768 3.704 10.1774 3.704C10.178 3.704 10.1787 3.704 10.1793 3.704C10.1799 3.704 10.1806 3.704 10.1812 3.704C10.1818 3.704 10.1825 3.704 10.1831 3.704C10.1837 3.704 10.1844 3.704 10.185 3.704C10.1856 3.704 10.1863 3.704 10.1869 3.704C10.1875 3.704 10.1882 3.704 10.1888 3.704C10.1895 3.704 10.1901 3.704 10.1907 3.704C10.1914 3.704 10.192 3.704 10.1926 3.704C10.1933 3.704 10.1939 3.704 10.1946 3.704C10.1952 3.704 10.1958 3.704 10.1965 3.704C10.1971 3.704 10.1978 3.704 10.1984 3.704C10.199 3.704 10.1997 3.704 10.2003 3.704C10.201 3.704 10.2016 3.704 10.2023 3.704C10.2029 3.704 10.2035 3.704 10.2042 3.704C10.2048 3.704 10.2055 3.704 10.2061 3.704C10.2068 3.704 10.2074 3.704 10.2081 3.704C10.2087 3.704 10.2093 3.704 10.21 3.704C10.2106 3.704 10.2113 3.704 10.2119 3.704C10.2126 3.704 10.2132 3.704 10.2139 3.704C10.2145 3.704 10.2152 3.704 10.2158 3.704C10.2165 3.704 10.2171 3.704 10.2178 3.704C10.2184 3.704 10.2191 3.704 10.2197 3.704C10.2204 3.704 10.221 3.704 10.2217 3.704C10.2223 3.704 10.223 3.704 10.2236 3.704C10.2243 3.704 10.2249 3.704 10.2256 3.704C10.2262 3.704 10.2269 3.704 10.2275 3.704C10.2282 3.704 10.2288 3.704 10.2295 3.704C10.2301 3.704 10.2308 3.704 10.2315 3.704C10.2321 3.704 10.2328 3.704 10.2334 3.704C10.2341 3.704 10.2347 3.704 10.2354 3.704C10.236 3.704 10.2367 3.704 10.2374 3.704C10.238 3.704 10.2387 3.704 10.2393 3.704C10.24 3.704 10.2406 3.704 10.2413 3.704C10.242 3.704 10.2426 3.704 10.2433 3.704C10.2439 3.704 10.2446 3.704 10.2452 3.704C10.2459 3.704 10.2466 3.704 10.2472 3.704C10.2479 3.704 10.2485 3.704 10.2492 3.704C10.2499 3.704 10.2505 3.704 10.2512 3.704C10.2518 3.704 10.2525 3.704 10.2532 3.704C10.2538 3.704 10.2545 3.704 10.2551 3.704C10.2558 3.704 10.2565 3.704 10.2571 3.704C10.2578 3.704 10.2585 3.704 10.2591 3.704C10.2598 3.704 10.2604 3.704 10.2611 3.704C10.2618 3.704 10.2624 3.704 10.2631 3.704C10.2638 3.704 10.2644 3.704 10.2651 3.704C10.2658 3.704 10.2664 3.704 10.2671 3.704C10.2678 3.704 10.2684 3.704 10.2691 3.704C10.2697 3.704 10.2704 3.704 10.2711 3.704C10.2717 3.704 10.2724 3.704 10.2731 3.704C10.2737 3.704 10.2744 3.704 10.2751 3.704C10.2757 3.704 10.2764 3.704 10.2771 3.704C10.2777 3.704 10.2784 3.704 10.2791 3.704C10.2797 3.704 10.2804 3.704 10.2811 3.704C10.2817 3.704 10.2824 3.704 10.2831 3.704C10.2837 3.704 10.2844 3.704 10.2851 3.704C10.2858 3.704 10.2864 3.704 10.2871 3.704C10.2878 3.704 10.2884 3.704 10.2891 3.704C10.2898 3.704 10.2904 3.704 10.2911 3.704C10.2918 3.704 10.2924 3.704 10.2931 3.704C10.2938 3.704 10.2945 3.704 10.2951 3.704C10.2958 3.704 10.2965 3.704 10.2971 3.704C10.2978 3.704 10.2985 3.704 10.2991 3.704C10.2998 3.704 10.3005 3.704 10.3012 3.704C10.3018 3.704 10.3025 3.704 10.3032 3.704C10.3038 3.704 10.3045 3.704 10.3052 3.704C10.3059 3.704 10.3065 3.704 10.3072 3.704C10.3079 3.704 10.3085 3.704 10.3092 3.704C10.3099 3.704 10.3106 3.704 10.3112 3.704C10.3119 3.704 10.3126 3.704 10.3132 3.704C10.3139 3.704 10.3146 3.704 10.3153 3.704C10.3159 3.704 10.3166 3.704 10.3173 3.704C10.318 3.704 10.3186 3.704 10.3193 3.704C10.32 3.704 10.3206 3.704 10.3213 3.704C10.322 3.704 10.3227 3.704 10.3233 3.704C10.324 3.704 10.3247 3.704 10.3254 3.704C10.326 3.704 10.3267 3.704 10.3274 3.704C10.328 3.704 10.3287 3.704 10.3294 3.704C10.3301 3.704 10.3307 3.704 10.3314 3.704C10.3321 3.704 10.3328 3.704 10.3334 3.704C10.3341 3.704 10.3348 3.704 10.3355 3.704C10.3361 3.704 10.3368 3.704 10.3375 3.704C10.3382 3.704 10.3388 3.704 10.3395 3.704C10.3402 3.704 10.3408 3.704 10.3415 3.704C10.3422 3.704 10.3429 3.704 10.3435 3.704C10.3442 3.704 10.3449 3.704 10.3456 3.704C10.3462 3.704 10.3469 3.704 10.3476 3.704C10.3483 3.704 10.3489 3.704 10.3496 3.704C10.3503 3.704 10.351 3.704 10.3516 3.704C10.3523 3.704 10.353 3.704 10.3537 3.704C10.3543 3.704 10.355 3.704 10.3557 3.704C10.3563 3.704 10.357 3.704 10.3577 3.704C10.3584 3.704 10.359 3.704 10.3597 3.704C10.3604 3.704 10.3611 3.704 10.3617 3.704C10.3624 3.704 10.3631 3.704 10.3638 3.704C10.3644 3.704 10.3651 3.704 10.3658 3.704C10.3665 3.704 10.3671 3.704 10.3678 3.704C10.3685 3.704 10.3691 3.704 10.3698 3.704C10.3705 3.704 10.3712 3.704 10.3718 3.704C10.3725 3.704 10.3732 3.704 10.3739 3.704C10.3745 3.704 10.3752 3.704 10.3759 3.704C10.3765 3.704 10.3772 3.704 10.3779 3.704C10.3786 3.704 10.3792 3.704 10.3799 3.704C10.3806 3.704 10.3813 3.704 10.3819 3.704C10.3826 3.704 10.3833 3.704 10.3839 3.704C10.3846 3.704 10.3853 3.704 10.386 3.704C10.3866 3.704 10.3873 3.704 10.388 3.704C10.3886 3.704 10.3893 3.704 10.39 3.704C10.3907 3.704 10.3913 3.704 10.392 3.704C10.3927 3.704 10.3933 3.704 10.394 3.704C10.3947 3.704 10.3954 3.704 10.396 3.704C10.3967 3.704 10.3974 3.704 10.398 3.704C10.3987 3.704 10.3994 3.704 10.4001 3.704C10.4007 3.704 10.4014 3.704 10.4021 3.704C10.4027 3.704 10.4034 3.704 10.4041 3.704C10.4047 3.704 10.4054 3.704 10.4061 3.704C10.4067 3.704 10.4074 3.704 10.4081 3.704C10.4088 3.704 10.4094 3.704 10.4101 3.704C10.4108 3.704 10.4114 3.704 10.4121 3.704C10.4128 3.704 10.4134 3.704 10.4141 3.704C10.4148 3.704 10.4154 3.704 10.4161 3.704C10.4168 3.704 10.4174 3.704 10.4181 3.704C10.4188 3.704 10.4194 3.704 10.4201 3.704C10.4208 3.704 10.4214 3.704 10.4221 3.704C10.4228 3.704 10.4234 3.704 10.4241 3.704C10.4248 3.704 10.4254 3.704 10.4261 3.704C10.4268 3.704 10.4274 3.704 10.4281 3.704C10.4287 3.704 10.4294 3.704 10.4301 3.704C10.4307 3.704 10.4314 3.704 10.4321 3.704C10.4327 3.704 10.4334 3.704 10.4341 3.704C10.4347 3.704 10.4354 3.704 10.436 3.704C10.4367 3.704 10.4374 3.704 10.438 3.704C10.4387 3.704 10.4394 3.704 10.44 3.704C10.4407 3.704 10.4413 3.704 10.442 3.704C10.4427 3.704 10.4433 3.704 10.444 3.704C10.4446 3.704 10.4453 3.704 10.446 3.704C10.4466 3.704 10.4473 3.704 10.4479 3.704C10.4486 3.704 10.4493 3.704 10.4499 3.704C10.4506 3.704 10.4512 3.704 10.4519 3.704C10.4526 3.704 10.4532 3.704 10.4539 3.704C10.4545 3.704 10.4552 3.704 10.4558 3.704C10.4565 3.704 10.4572 3.704 10.4578 3.704C10.4585 3.704 10.4591 3.704 10.4598 3.704C10.4604 3.704 10.4611 3.704 10.4617 3.704C10.4624 3.704 10.4631 3.704 10.4637 3.704C10.4644 3.704 10.465 3.704 10.4657 3.704C10.4663 3.704 10.467 3.704 10.4676 3.704C10.4683 3.704 10.4689 3.704 10.4696 3.704C10.4702 3.704 10.4709 3.704 10.4715 3.704C10.4722 3.704 10.4728 3.704 10.4735 3.704C10.4742 3.704 10.4748 3.704 10.4755 3.704C10.4761 3.704 10.4768 3.704 10.4774 3.704C10.4781 3.704 10.4787 3.704 10.4793 3.704C10.48 3.704 10.4806 3.704 10.4813 3.704C10.4819 3.704 10.4826 3.704 10.4832 3.704C10.4839 3.704 10.4845 3.704 10.4852 3.704C10.4858 3.704 10.4865 3.704 10.4871 3.704C10.4878 3.704 10.4884 3.704 10.489 3.704C10.4897 3.704 10.4903 3.704 10.491 3.704C10.4916 3.704 10.4923 3.704 10.4929 3.704C10.4936 3.704 10.4942 3.704 10.4948 3.704C10.4955 3.704 10.4961 3.704 10.4968 3.704C10.4974 3.704 10.498 3.704 10.4987 3.704C10.4993 3.704 10.5 3.704 10.5006 3.704C10.5012 3.704 10.5019 3.704 10.5025 3.704C10.5032 3.704 10.5038 3.704 10.5044 3.704C10.5051 3.704 10.5057 3.704 10.5063 3.704C10.507 3.704 10.5076 3.704 10.5083 3.704C10.5089 3.704 10.5095 3.704 10.5102 3.704C10.5108 3.704 10.5114 3.704 10.5121 3.704C10.5127 3.704 10.5133 3.704 10.514 3.704C10.5146 3.704 10.5152 3.704 10.5159 3.704C10.5165 3.704 10.5171 3.704 10.5178 3.704C10.5184 3.704 10.519 3.704 10.5196 3.704C10.5203 3.704 10.5209 3.704 10.5215 3.704C10.5222 3.704 10.5228 3.704 10.5234 3.704C10.524 3.704 10.5247 3.704 10.5253 3.704C10.5259 3.704 10.5266 3.704 10.5272 3.704C10.5278 3.704 10.5284 3.704 10.5291 3.704C10.5297 3.704 10.5303 3.704 10.5309 3.704C10.5316 3.704 10.5322 3.704 10.5328 3.704C10.5334 3.704 10.534 3.704 10.5347 3.704C10.5353 3.704 10.5359 3.704 10.5365 3.704C10.5371 3.704 10.5378 3.704 10.5384 3.704C10.539 3.704 10.5396 3.704 10.5402 3.704C10.5409 3.704 10.5415 3.704 10.5421 3.704C10.5427 3.704 10.5433 3.704 10.5439 3.704C10.5446 3.704 10.5452 3.704 10.5458 3.704C10.5464 3.704 10.547 3.704 10.5476 3.704C10.5482 3.704 10.5489 3.704 10.5495 3.704C10.5501 3.704 10.5507 3.704 10.5513 3.704C10.5519 3.704 10.5525 3.704 10.5531 3.704C10.5537 3.704 10.5544 3.704 10.555 3.704C10.5556 3.704 10.5562 3.704 10.5568 3.704C10.5574 3.704 10.558 3.704 10.5586 3.704C10.5592 3.704 10.5598 3.704 10.5604 3.704C10.561 3.704 10.5616 3.704 10.5622 3.704C10.5628 3.704 10.5634 3.704 10.564 3.704C10.5646 3.704 10.5652 3.704 10.5658 3.704C10.5664 3.704 10.567 3.704 10.5676 3.704C10.5682 3.704 10.5688 3.704 10.5694 3.704C10.57 3.704 10.5706 3.704 10.5712 3.704C10.5718 3.704 10.5724 3.704 10.573 3.704C10.5736 3.704 10.5742 3.704 10.5748 3.704C10.5754 3.704 10.576 3.704 10.5766 3.704C10.5772 3.704 10.5778 3.704 10.5784 3.704C10.579 3.704 10.5795 3.704 10.5801 3.704C10.5807 3.704 10.5813 3.704 10.5819 3.704C10.5825 3.704 10.5831 3.704 10.5837 3.704C10.5843 3.704 10.5848 3.704 10.5854 3.704C10.586 3.704 10.5866 3.704 10.5872 3.704C10.5878 3.704 10.5884 3.704 10.5889 3.704C10.5895 3.704 10.5901 3.704 10.5907 3.704C10.5913 3.704 10.5918 3.704 10.5924 3.704C10.593 3.704 10.5936 3.704 10.5942 3.704C10.5947 3.704 10.5953 3.704 10.5959 3.704C10.5965 3.704 10.5971 3.704 10.5976 3.704C10.5982 3.704 10.5988 3.704 10.5994 3.704C10.5999 3.704 10.6005 3.704 10.6011 3.704C10.6016 3.704 10.6022 3.704 10.6028 3.704C10.6034 3.704 10.6039 3.704 10.6045 3.704C10.6051 3.704 10.6056 3.704 10.6062 3.704C10.6068 3.704 10.6073 3.704 10.6079 3.704C10.6085 3.704 10.609 3.704 10.6096 3.704C10.6102 3.704 10.6107 3.704 10.6113 3.704C10.6119 3.704 10.6124 3.704 10.613 3.704C10.6135 3.704 10.6141 3.704 10.6147 3.704C10.6152 3.704 10.6158 3.704 10.6163 3.704C10.6169 3.704 10.6175 3.704 10.618 3.704C10.6186 3.704 10.6191 3.704 10.6197 3.704C10.6202 3.704 10.6208 3.704 10.6213 3.704C10.6219 3.704 10.6225 3.704 10.623 3.704C10.6236 3.704 10.6241 3.704 10.6247 3.704C10.6252 3.704 10.6258 3.704 10.6263 3.704C10.6269 3.704 10.6274 3.704 10.6279 3.704C10.6285 3.704 10.629 3.704 10.6296 3.704C10.6301 3.704 10.6307 3.704 10.6312 3.704C10.6318 3.704 10.6323 3.704 10.6328 3.704C10.6334 3.704 10.6339 3.704 10.6345 3.704C10.635 3.704 10.6355 3.704 10.6361 3.704C10.6366 3.704 10.6372 3.704 10.6377 3.704C10.6382 3.704 10.6388 3.704 10.6393 3.704C10.6398 3.704 10.6404 3.704 10.6409 3.704C10.6414 3.704 10.642 3.704 10.6425 3.704C10.643 3.704 10.6435 3.704 10.6441 3.704C10.6446 3.704 10.6451 3.704 10.6457 3.704C10.6462 3.704 10.6467 3.704 10.6472 3.704C10.6478 3.704 10.6483 3.704 10.6488 3.704C10.6493 3.704 10.6499 3.704 10.6504 3.704C10.6509 3.704 10.6514 3.704 10.6519 3.704C10.6525 3.704 10.653 3.704 10.6535 3.704C10.654 3.704 10.6545 3.704 10.655 3.704C10.6556 3.704 10.6561 3.704 10.6566 3.704C10.6571 3.704 10.6576 3.704 10.6581 3.704C10.6586 3.704 10.6591 3.704 10.6597 3.704C10.6602 3.704 10.6607 3.704 10.6612 3.704C10.6617 3.704 10.6622 3.704 10.6627 3.704C10.6632 3.704 10.6637 3.704 10.6642 3.704C10.6647 3.704 10.6652 3.704 10.6657 3.704C10.6662 3.704 10.6667 3.704 10.6672 3.704C10.6677 3.704 10.6682 3.704 10.6687 3.704C10.6692 3.704 10.6697 3.704 10.6702 3.704C10.6707 3.704 10.6712 3.704 10.6717 3.704C10.6722 3.704 10.6727 3.704 10.6732 3.704C10.6737 3.704 10.6742 3.704 10.6747 3.704C10.6751 3.704 10.6756 3.704 10.6761 3.704C10.6766 3.704 10.6771 3.704 10.6776 3.704C10.6781 3.704 10.6785 3.704 10.679 3.704C10.6795 3.704 10.68 3.704 10.6805 3.704C10.681 3.704 10.6814 3.704 10.6819 3.704C10.6824 3.704 10.6829 3.704 10.6834 3.704C10.6838 3.704 10.6843 3.704 10.6848 3.704C10.6853 3.704 10.6857 3.704 10.6862 3.704C10.6867 3.704 10.6871 3.704 10.6876 3.704C10.6881 3.704 10.6886 3.704 10.689 3.704C10.6895 3.704 10.69 3.704 10.6904 3.704C10.6909 3.704 10.6914 3.704 10.6918 3.704C10.6923 3.704 10.6927 3.704 10.6932 3.704C10.6937 3.704 10.6941 3.704 10.6946 3.704C10.6951 3.704 10.6955 3.704 10.696 3.704C10.6964 3.704 10.6969 3.704 10.6973 3.704C10.6978 3.704 10.6982 3.704 10.6987 3.704C10.6992 3.704 10.6996 3.704 10.7001 3.704C10.7005 3.704 10.701 3.704 10.7014 3.704C10.7018 3.704 10.7023 3.704 10.7027 3.704C10.7032 3.704 10.7036 3.704 10.7041 3.704C10.7045 3.704 10.705 3.704 10.7054 3.704C10.7058 3.704 10.7063 3.704 10.7067 3.704C10.7072 3.704 10.7076 3.704 10.708 3.704C10.7085 3.704 10.7089 3.704 10.7093 3.704C10.7098 3.704 10.7102 3.704 10.7106 3.704C10.7111 3.704 10.7115 3.704 10.7119 3.704C10.7124 3.704 10.7128 3.704 10.7132 3.704C10.7136 3.704 10.7141 3.704 10.7145 3.704C10.7149 3.704 10.7153 3.704 10.7158 3.704C10.7162 3.704 10.7166 3.704 10.717 3.704C10.7175 3.704 10.7179 3.704 10.7183 3.704C10.7187 3.704 10.7191 3.704 10.7195 3.704C10.72 3.704 10.7204 3.704 10.7208 3.704C10.7212 3.704 10.7216 3.704 10.722 3.704C10.7224 3.704 10.7228 3.704 10.7232 3.704C10.7236 3.704 10.7241 3.704 10.7245 3.704C10.7249 3.704 10.7253 3.704 10.7257 3.704C10.7261 3.704 10.7265 3.704 10.7269 3.704C10.7273 3.704 10.7277 3.704 10.7281 3.704C10.7285 3.704 10.7289 3.704 10.7293 3.704C10.7297 3.704 10.73 3.704 10.7304 3.704C10.7308 3.704 10.7312 3.704 10.7316 3.704C10.732 3.704 10.7324 3.704 10.7328 3.704C10.7332 3.704 10.7336 3.704 10.7339 3.704C10.7343 3.704 10.7347 3.704 10.7351 3.704C10.7355 3.704 10.7359 3.704 10.7362 3.704C10.7366 3.704 10.737 3.704 10.7374 3.704C10.7377 3.704 10.7381 3.704 10.7385 3.704C10.7389 3.704 10.7392 3.704 10.7396 3.704C10.74 3.704 10.7404 3.704 10.7407 3.704C10.7411 3.704 10.7415 3.704 10.7418 3.704C10.7422 3.704 10.7426 3.704 10.7429 3.704C10.7433 3.704 10.7436 3.704 10.744 3.704C10.7444 3.704 10.7447 3.704 10.7451 3.704C10.7454 3.704 10.7458 3.704 10.7462 3.704C10.7465 3.704 10.7469 3.704 10.7472 3.704C10.7476 3.704 10.7479 3.704 10.7483 3.704C10.7486 3.704 10.749 3.704 10.7493 3.704C10.7497 3.704 10.75 3.704 10.7504 3.704C10.7507 3.704 10.751 3.704 10.7514 3.704C10.7517 3.704 10.7521 3.704 10.7524 3.704C10.7527 3.704 10.7531 3.704 10.7534 3.704C10.7538 3.704 10.7541 3.704 10.7544 3.704C10.7548 3.704 10.7551 3.704 10.7554 3.704C10.7558 3.704 10.7561 3.704 10.7564 3.704C10.7567 3.704 10.7571 3.704 10.7574 3.704C10.7577 3.704 10.758 3.704 10.7584 3.704C10.7587 3.704 10.759 3.704 10.7593 3.704C10.7596 3.704 10.76 3.704 10.7603 3.704C10.7606 3.704 10.7609 3.704 10.7612 3.704C10.7615 3.704 10.7618 3.704 10.7622 3.704C10.7625 3.704 10.7628 3.704 10.7631 3.704C10.7634 3.704 10.7637 3.704 10.764 3.704V3.504C10.7637 3.504 10.7634 3.504 10.7631 3.504C10.7628 3.504 10.7625 3.504 10.7622 3.504C10.7618 3.504 10.7615 3.504 10.7612 3.504C10.7609 3.504 10.7606 3.504 10.7603 3.504C10.76 3.504 10.7596 3.504 10.7593 3.504C10.759 3.504 10.7587 3.504 10.7584 3.504C10.758 3.504 10.7577 3.504 10.7574 3.504C10.7571 3.504 10.7567 3.504 10.7564 3.504C10.7561 3.504 10.7558 3.504 10.7554 3.504C10.7551 3.504 10.7548 3.504 10.7544 3.504C10.7541 3.504 10.7538 3.504 10.7534 3.504C10.7531 3.504 10.7527 3.504 10.7524 3.504C10.7521 3.504 10.7517 3.504 10.7514 3.504C10.751 3.504 10.7507 3.504 10.7504 3.504C10.75 3.504 10.7497 3.504 10.7493 3.504C10.749 3.504 10.7486 3.504 10.7483 3.504C10.7479 3.504 10.7476 3.504 10.7472 3.504C10.7469 3.504 10.7465 3.504 10.7462 3.504C10.7458 3.504 10.7454 3.504 10.7451 3.504C10.7447 3.504 10.7444 3.504 10.744 3.504C10.7436 3.504 10.7433 3.504 10.7429 3.504C10.7426 3.504 10.7422 3.504 10.7418 3.504C10.7415 3.504 10.7411 3.504 10.7407 3.504C10.7404 3.504 10.74 3.504 10.7396 3.504C10.7392 3.504 10.7389 3.504 10.7385 3.504C10.7381 3.504 10.7377 3.504 10.7374 3.504C10.737 3.504 10.7366 3.504 10.7362 3.504C10.7359 3.504 10.7355 3.504 10.7351 3.504C10.7347 3.504 10.7343 3.504 10.7339 3.504C10.7336 3.504 10.7332 3.504 10.7328 3.504C10.7324 3.504 10.732 3.504 10.7316 3.504C10.7312 3.504 10.7308 3.504 10.7304 3.504C10.73 3.504 10.7297 3.504 10.7293 3.504C10.7289 3.504 10.7285 3.504 10.7281 3.504C10.7277 3.504 10.7273 3.504 10.7269 3.504C10.7265 3.504 10.7261 3.504 10.7257 3.504C10.7253 3.504 10.7249 3.504 10.7245 3.504C10.7241 3.504 10.7236 3.504 10.7232 3.504C10.7228 3.504 10.7224 3.504 10.722 3.504C10.7216 3.504 10.7212 3.504 10.7208 3.504C10.7204 3.504 10.72 3.504 10.7195 3.504C10.7191 3.504 10.7187 3.504 10.7183 3.504C10.7179 3.504 10.7175 3.504 10.717 3.504C10.7166 3.504 10.7162 3.504 10.7158 3.504C10.7153 3.504 10.7149 3.504 10.7145 3.504C10.7141 3.504 10.7136 3.504 10.7132 3.504C10.7128 3.504 10.7124 3.504 10.7119 3.504C10.7115 3.504 10.7111 3.504 10.7106 3.504C10.7102 3.504 10.7098 3.504 10.7093 3.504C10.7089 3.504 10.7085 3.504 10.708 3.504C10.7076 3.504 10.7072 3.504 10.7067 3.504C10.7063 3.504 10.7058 3.504 10.7054 3.504C10.705 3.504 10.7045 3.504 10.7041 3.504C10.7036 3.504 10.7032 3.504 10.7027 3.504C10.7023 3.504 10.7018 3.504 10.7014 3.504C10.701 3.504 10.7005 3.504 10.7001 3.504C10.6996 3.504 10.6992 3.504 10.6987 3.504C10.6982 3.504 10.6978 3.504 10.6973 3.504C10.6969 3.504 10.6964 3.504 10.696 3.504C10.6955 3.504 10.6951 3.504 10.6946 3.504C10.6941 3.504 10.6937 3.504 10.6932 3.504C10.6927 3.504 10.6923 3.504 10.6918 3.504C10.6914 3.504 10.6909 3.504 10.6904 3.504C10.69 3.504 10.6895 3.504 10.689 3.504C10.6886 3.504 10.6881 3.504 10.6876 3.504C10.6871 3.504 10.6867 3.504 10.6862 3.504C10.6857 3.504 10.6853 3.504 10.6848 3.504C10.6843 3.504 10.6838 3.504 10.6834 3.504C10.6829 3.504 10.6824 3.504 10.6819 3.504C10.6814 3.504 10.681 3.504 10.6805 3.504C10.68 3.504 10.6795 3.504 10.679 3.504C10.6785 3.504 10.6781 3.504 10.6776 3.504C10.6771 3.504 10.6766 3.504 10.6761 3.504C10.6756 3.504 10.6751 3.504 10.6747 3.504C10.6742 3.504 10.6737 3.504 10.6732 3.504C10.6727 3.504 10.6722 3.504 10.6717 3.504C10.6712 3.504 10.6707 3.504 10.6702 3.504C10.6697 3.504 10.6692 3.504 10.6687 3.504C10.6682 3.504 10.6677 3.504 10.6672 3.504C10.6667 3.504 10.6662 3.504 10.6657 3.504C10.6652 3.504 10.6647 3.504 10.6642 3.504C10.6637 3.504 10.6632 3.504 10.6627 3.504C10.6622 3.504 10.6617 3.504 10.6612 3.504C10.6607 3.504 10.6602 3.504 10.6597 3.504C10.6591 3.504 10.6586 3.504 10.6581 3.504C10.6576 3.504 10.6571 3.504 10.6566 3.504C10.6561 3.504 10.6556 3.504 10.655 3.504C10.6545 3.504 10.654 3.504 10.6535 3.504C10.653 3.504 10.6525 3.504 10.6519 3.504C10.6514 3.504 10.6509 3.504 10.6504 3.504C10.6499 3.504 10.6493 3.504 10.6488 3.504C10.6483 3.504 10.6478 3.504 10.6472 3.504C10.6467 3.504 10.6462 3.504 10.6457 3.504C10.6451 3.504 10.6446 3.504 10.6441 3.504C10.6435 3.504 10.643 3.504 10.6425 3.504C10.642 3.504 10.6414 3.504 10.6409 3.504C10.6404 3.504 10.6398 3.504 10.6393 3.504C10.6388 3.504 10.6382 3.504 10.6377 3.504C10.6372 3.504 10.6366 3.504 10.6361 3.504C10.6355 3.504 10.635 3.504 10.6345 3.504C10.6339 3.504 10.6334 3.504 10.6328 3.504C10.6323 3.504 10.6318 3.504 10.6312 3.504C10.6307 3.504 10.6301 3.504 10.6296 3.504C10.629 3.504 10.6285 3.504 10.6279 3.504C10.6274 3.504 10.6269 3.504 10.6263 3.504C10.6258 3.504 10.6252 3.504 10.6247 3.504C10.6241 3.504 10.6236 3.504 10.623 3.504C10.6225 3.504 10.6219 3.504 10.6213 3.504C10.6208 3.504 10.6202 3.504 10.6197 3.504C10.6191 3.504 10.6186 3.504 10.618 3.504C10.6175 3.504 10.6169 3.504 10.6163 3.504C10.6158 3.504 10.6152 3.504 10.6147 3.504C10.6141 3.504 10.6135 3.504 10.613 3.504C10.6124 3.504 10.6119 3.504 10.6113 3.504C10.6107 3.504 10.6102 3.504 10.6096 3.504C10.609 3.504 10.6085 3.504 10.6079 3.504C10.6073 3.504 10.6068 3.504 10.6062 3.504C10.6056 3.504 10.6051 3.504 10.6045 3.504C10.6039 3.504 10.6034 3.504 10.6028 3.504C10.6022 3.504 10.6016 3.504 10.6011 3.504C10.6005 3.504 10.5999 3.504 10.5994 3.504C10.5988 3.504 10.5982 3.504 10.5976 3.504C10.5971 3.504 10.5965 3.504 10.5959 3.504C10.5953 3.504 10.5947 3.504 10.5942 3.504C10.5936 3.504 10.593 3.504 10.5924 3.504C10.5918 3.504 10.5913 3.504 10.5907 3.504C10.5901 3.504 10.5895 3.504 10.5889 3.504C10.5884 3.504 10.5878 3.504 10.5872 3.504C10.5866 3.504 10.586 3.504 10.5854 3.504C10.5848 3.504 10.5843 3.504 10.5837 3.504C10.5831 3.504 10.5825 3.504 10.5819 3.504C10.5813 3.504 10.5807 3.504 10.5801 3.504C10.5795 3.504 10.579 3.504 10.5784 3.504C10.5778 3.504 10.5772 3.504 10.5766 3.504C10.576 3.504 10.5754 3.504 10.5748 3.504C10.5742 3.504 10.5736 3.504 10.573 3.504C10.5724 3.504 10.5718 3.504 10.5712 3.504C10.5706 3.504 10.57 3.504 10.5694 3.504C10.5688 3.504 10.5682 3.504 10.5676 3.504C10.567 3.504 10.5664 3.504 10.5658 3.504C10.5652 3.504 10.5646 3.504 10.564 3.504C10.5634 3.504 10.5628 3.504 10.5622 3.504C10.5616 3.504 10.561 3.504 10.5604 3.504C10.5598 3.504 10.5592 3.504 10.5586 3.504C10.558 3.504 10.5574 3.504 10.5568 3.504C10.5562 3.504 10.5556 3.504 10.555 3.504C10.5544 3.504 10.5537 3.504 10.5531 3.504C10.5525 3.504 10.5519 3.504 10.5513 3.504C10.5507 3.504 10.5501 3.504 10.5495 3.504C10.5489 3.504 10.5482 3.504 10.5476 3.504C10.547 3.504 10.5464 3.504 10.5458 3.504C10.5452 3.504 10.5446 3.504 10.5439 3.504C10.5433 3.504 10.5427 3.504 10.5421 3.504C10.5415 3.504 10.5409 3.504 10.5402 3.504C10.5396 3.504 10.539 3.504 10.5384 3.504C10.5378 3.504 10.5371 3.504 10.5365 3.504C10.5359 3.504 10.5353 3.504 10.5347 3.504C10.534 3.504 10.5334 3.504 10.5328 3.504C10.5322 3.504 10.5316 3.504 10.5309 3.504C10.5303 3.504 10.5297 3.504 10.5291 3.504C10.5284 3.504 10.5278 3.504 10.5272 3.504C10.5266 3.504 10.5259 3.504 10.5253 3.504C10.5247 3.504 10.524 3.504 10.5234 3.504C10.5228 3.504 10.5222 3.504 10.5215 3.504C10.5209 3.504 10.5203 3.504 10.5196 3.504C10.519 3.504 10.5184 3.504 10.5178 3.504C10.5171 3.504 10.5165 3.504 10.5159 3.504C10.5152 3.504 10.5146 3.504 10.514 3.504C10.5133 3.504 10.5127 3.504 10.5121 3.504C10.5114 3.504 10.5108 3.504 10.5102 3.504C10.5095 3.504 10.5089 3.504 10.5083 3.504C10.5076 3.504 10.507 3.504 10.5063 3.504C10.5057 3.504 10.5051 3.504 10.5044 3.504C10.5038 3.504 10.5032 3.504 10.5025 3.504C10.5019 3.504 10.5012 3.504 10.5006 3.504C10.5 3.504 10.4993 3.504 10.4987 3.504C10.498 3.504 10.4974 3.504 10.4968 3.504C10.4961 3.504 10.4955 3.504 10.4948 3.504C10.4942 3.504 10.4936 3.504 10.4929 3.504C10.4923 3.504 10.4916 3.504 10.491 3.504C10.4903 3.504 10.4897 3.504 10.489 3.504C10.4884 3.504 10.4878 3.504 10.4871 3.504C10.4865 3.504 10.4858 3.504 10.4852 3.504C10.4845 3.504 10.4839 3.504 10.4832 3.504C10.4826 3.504 10.4819 3.504 10.4813 3.504C10.4806 3.504 10.48 3.504 10.4793 3.504C10.4787 3.504 10.4781 3.504 10.4774 3.504C10.4768 3.504 10.4761 3.504 10.4755 3.504C10.4748 3.504 10.4742 3.504 10.4735 3.504C10.4728 3.504 10.4722 3.504 10.4715 3.504C10.4709 3.504 10.4702 3.504 10.4696 3.504C10.4689 3.504 10.4683 3.504 10.4676 3.504C10.467 3.504 10.4663 3.504 10.4657 3.504C10.465 3.504 10.4644 3.504 10.4637 3.504C10.4631 3.504 10.4624 3.504 10.4617 3.504C10.4611 3.504 10.4604 3.504 10.4598 3.504C10.4591 3.504 10.4585 3.504 10.4578 3.504C10.4572 3.504 10.4565 3.504 10.4558 3.504C10.4552 3.504 10.4545 3.504 10.4539 3.504C10.4532 3.504 10.4526 3.504 10.4519 3.504C10.4512 3.504 10.4506 3.504 10.4499 3.504C10.4493 3.504 10.4486 3.504 10.4479 3.504C10.4473 3.504 10.4466 3.504 10.446 3.504C10.4453 3.504 10.4446 3.504 10.444 3.504C10.4433 3.504 10.4427 3.504 10.442 3.504C10.4413 3.504 10.4407 3.504 10.44 3.504C10.4394 3.504 10.4387 3.504 10.438 3.504C10.4374 3.504 10.4367 3.504 10.436 3.504C10.4354 3.504 10.4347 3.504 10.4341 3.504C10.4334 3.504 10.4327 3.504 10.4321 3.504C10.4314 3.504 10.4307 3.504 10.4301 3.504C10.4294 3.504 10.4287 3.504 10.4281 3.504C10.4274 3.504 10.4268 3.504 10.4261 3.504C10.4254 3.504 10.4248 3.504 10.4241 3.504C10.4234 3.504 10.4228 3.504 10.4221 3.504C10.4214 3.504 10.4208 3.504 10.4201 3.504C10.4194 3.504 10.4188 3.504 10.4181 3.504C10.4174 3.504 10.4168 3.504 10.4161 3.504C10.4154 3.504 10.4148 3.504 10.4141 3.504C10.4134 3.504 10.4128 3.504 10.4121 3.504C10.4114 3.504 10.4108 3.504 10.4101 3.504C10.4094 3.504 10.4088 3.504 10.4081 3.504C10.4074 3.504 10.4067 3.504 10.4061 3.504C10.4054 3.504 10.4047 3.504 10.4041 3.504C10.4034 3.504 10.4027 3.504 10.4021 3.504C10.4014 3.504 10.4007 3.504 10.4001 3.504C10.3994 3.504 10.3987 3.504 10.398 3.504C10.3974 3.504 10.3967 3.504 10.396 3.504C10.3954 3.504 10.3947 3.504 10.394 3.504C10.3933 3.504 10.3927 3.504 10.392 3.504C10.3913 3.504 10.3907 3.504 10.39 3.504C10.3893 3.504 10.3886 3.504 10.388 3.504C10.3873 3.504 10.3866 3.504 10.386 3.504C10.3853 3.504 10.3846 3.504 10.3839 3.504C10.3833 3.504 10.3826 3.504 10.3819 3.504C10.3813 3.504 10.3806 3.504 10.3799 3.504C10.3792 3.504 10.3786 3.504 10.3779 3.504C10.3772 3.504 10.3765 3.504 10.3759 3.504C10.3752 3.504 10.3745 3.504 10.3739 3.504C10.3732 3.504 10.3725 3.504 10.3718 3.504C10.3712 3.504 10.3705 3.504 10.3698 3.504C10.3691 3.504 10.3685 3.504 10.3678 3.504C10.3671 3.504 10.3665 3.504 10.3658 3.504C10.3651 3.504 10.3644 3.504 10.3638 3.504C10.3631 3.504 10.3624 3.504 10.3617 3.504C10.3611 3.504 10.3604 3.504 10.3597 3.504C10.359 3.504 10.3584 3.504 10.3577 3.504C10.357 3.504 10.3563 3.504 10.3557 3.504C10.355 3.504 10.3543 3.504 10.3537 3.504C10.353 3.504 10.3523 3.504 10.3516 3.504C10.351 3.504 10.3503 3.504 10.3496 3.504C10.3489 3.504 10.3483 3.504 10.3476 3.504C10.3469 3.504 10.3462 3.504 10.3456 3.504C10.3449 3.504 10.3442 3.504 10.3435 3.504C10.3429 3.504 10.3422 3.504 10.3415 3.504C10.3408 3.504 10.3402 3.504 10.3395 3.504C10.3388 3.504 10.3382 3.504 10.3375 3.504C10.3368 3.504 10.3361 3.504 10.3355 3.504C10.3348 3.504 10.3341 3.504 10.3334 3.504C10.3328 3.504 10.3321 3.504 10.3314 3.504C10.3307 3.504 10.3301 3.504 10.3294 3.504C10.3287 3.504 10.328 3.504 10.3274 3.504C10.3267 3.504 10.326 3.504 10.3254 3.504C10.3247 3.504 10.324 3.504 10.3233 3.504C10.3227 3.504 10.322 3.504 10.3213 3.504C10.3206 3.504 10.32 3.504 10.3193 3.504C10.3186 3.504 10.318 3.504 10.3173 3.504C10.3166 3.504 10.3159 3.504 10.3153 3.504C10.3146 3.504 10.3139 3.504 10.3132 3.504C10.3126 3.504 10.3119 3.504 10.3112 3.504C10.3106 3.504 10.3099 3.504 10.3092 3.504C10.3085 3.504 10.3079 3.504 10.3072 3.504C10.3065 3.504 10.3059 3.504 10.3052 3.504C10.3045 3.504 10.3038 3.504 10.3032 3.504C10.3025 3.504 10.3018 3.504 10.3012 3.504C10.3005 3.504 10.2998 3.504 10.2991 3.504C10.2985 3.504 10.2978 3.504 10.2971 3.504C10.2965 3.504 10.2958 3.504 10.2951 3.504C10.2945 3.504 10.2938 3.504 10.2931 3.504C10.2924 3.504 10.2918 3.504 10.2911 3.504C10.2904 3.504 10.2898 3.504 10.2891 3.504C10.2884 3.504 10.2878 3.504 10.2871 3.504C10.2864 3.504 10.2858 3.504 10.2851 3.504C10.2844 3.504 10.2837 3.504 10.2831 3.504C10.2824 3.504 10.2817 3.504 10.2811 3.504C10.2804 3.504 10.2797 3.504 10.2791 3.504C10.2784 3.504 10.2777 3.504 10.2771 3.504C10.2764 3.504 10.2757 3.504 10.2751 3.504C10.2744 3.504 10.2737 3.504 10.2731 3.504C10.2724 3.504 10.2717 3.504 10.2711 3.504C10.2704 3.504 10.2697 3.504 10.2691 3.504C10.2684 3.504 10.2678 3.504 10.2671 3.504C10.2664 3.504 10.2658 3.504 10.2651 3.504C10.2644 3.504 10.2638 3.504 10.2631 3.504C10.2624 3.504 10.2618 3.504 10.2611 3.504C10.2604 3.504 10.2598 3.504 10.2591 3.504C10.2585 3.504 10.2578 3.504 10.2571 3.504C10.2565 3.504 10.2558 3.504 10.2551 3.504C10.2545 3.504 10.2538 3.504 10.2532 3.504C10.2525 3.504 10.2518 3.504 10.2512 3.504C10.2505 3.504 10.2499 3.504 10.2492 3.504C10.2485 3.504 10.2479 3.504 10.2472 3.504C10.2466 3.504 10.2459 3.504 10.2452 3.504C10.2446 3.504 10.2439 3.504 10.2433 3.504C10.2426 3.504 10.242 3.504 10.2413 3.504C10.2406 3.504 10.24 3.504 10.2393 3.504C10.2387 3.504 10.238 3.504 10.2374 3.504C10.2367 3.504 10.236 3.504 10.2354 3.504C10.2347 3.504 10.2341 3.504 10.2334 3.504C10.2328 3.504 10.2321 3.504 10.2315 3.504C10.2308 3.504 10.2301 3.504 10.2295 3.504C10.2288 3.504 10.2282 3.504 10.2275 3.504C10.2269 3.504 10.2262 3.504 10.2256 3.504C10.2249 3.504 10.2243 3.504 10.2236 3.504C10.223 3.504 10.2223 3.504 10.2217 3.504C10.221 3.504 10.2204 3.504 10.2197 3.504C10.2191 3.504 10.2184 3.504 10.2178 3.504C10.2171 3.504 10.2165 3.504 10.2158 3.504C10.2152 3.504 10.2145 3.504 10.2139 3.504C10.2132 3.504 10.2126 3.504 10.2119 3.504C10.2113 3.504 10.2106 3.504 10.21 3.504C10.2093 3.504 10.2087 3.504 10.2081 3.504C10.2074 3.504 10.2068 3.504 10.2061 3.504C10.2055 3.504 10.2048 3.504 10.2042 3.504C10.2035 3.504 10.2029 3.504 10.2023 3.504C10.2016 3.504 10.201 3.504 10.2003 3.504C10.1997 3.504 10.199 3.504 10.1984 3.504C10.1978 3.504 10.1971 3.504 10.1965 3.504C10.1958 3.504 10.1952 3.504 10.1946 3.504C10.1939 3.504 10.1933 3.504 10.1926 3.504C10.192 3.504 10.1914 3.504 10.1907 3.504C10.1901 3.504 10.1895 3.504 10.1888 3.504C10.1882 3.504 10.1875 3.504 10.1869 3.504C10.1863 3.504 10.1856 3.504 10.185 3.504C10.1844 3.504 10.1837 3.504 10.1831 3.504C10.1825 3.504 10.1818 3.504 10.1812 3.504C10.1806 3.504 10.1799 3.504 10.1793 3.504C10.1787 3.504 10.178 3.504 10.1774 3.504C10.1768 3.504 10.1761 3.504 10.1755 3.504C10.1749 3.504 10.1743 3.504 10.1736 3.504C10.173 3.504 10.1724 3.504 10.1717 3.504C10.1711 3.504 10.1705 3.504 10.1699 3.504C10.1692 3.504 10.1686 3.504 10.168 3.504C10.1674 3.504 10.1667 3.504 10.1661 3.504C10.1655 3.504 10.1649 3.504 10.1642 3.504C10.1636 3.504 10.163 3.504 10.1624 3.504C10.1617 3.504 10.1611 3.504 10.1605 3.504C10.1599 3.504 10.1593 3.504 10.1586 3.504C10.158 3.504 10.1574 3.504 10.1568 3.504C10.1562 3.504 10.1555 3.504 10.1549 3.504C10.1543 3.504 10.1537 3.504 10.1531 3.504C10.1524 3.504 10.1518 3.504 10.1512 3.504C10.1506 3.504 10.15 3.504 10.1494 3.504C10.1488 3.504 10.1481 3.504 10.1475 3.504C10.1469 3.504 10.1463 3.504 10.1457 3.504C10.1451 3.504 10.1445 3.504 10.1439 3.504C10.1432 3.504 10.1426 3.504 10.142 3.504C10.1414 3.504 10.1408 3.504 10.1402 3.504C10.1396 3.504 10.139 3.504 10.1384 3.504C10.1378 3.504 10.1372 3.504 10.1365 3.504C10.1359 3.504 10.1353 3.504 10.1347 3.504C10.1341 3.504 10.1335 3.504 10.1329 3.504C10.1323 3.504 10.1317 3.504 10.1311 3.504C10.1305 3.504 10.1299 3.504 10.1293 3.504C10.1287 3.504 10.1281 3.504 10.1275 3.504C10.1269 3.504 10.1263 3.504 10.1257 3.504C10.1251 3.504 10.1245 3.504 10.1239 3.504C10.1233 3.504 10.1227 3.504 10.1221 3.504C10.1215 3.504 10.1209 3.504 10.1203 3.504C10.1197 3.504 10.1191 3.504 10.1186 3.504C10.118 3.504 10.1174 3.504 10.1168 3.504C10.1162 3.504 10.1156 3.504 10.115 3.504C10.1144 3.504 10.1138 3.504 10.1132 3.504C10.1126 3.504 10.1121 3.504 10.1115 3.504C10.1109 3.504 10.1103 3.504 10.1097 3.504C10.1091 3.504 10.1085 3.504 10.108 3.504C10.1074 3.504 10.1068 3.504 10.1062 3.504C10.1056 3.504 10.105 3.504 10.1045 3.504C10.1039 3.504 10.1033 3.504 10.1027 3.504C10.1021 3.504 10.1016 3.504 10.101 3.504C10.1004 3.504 10.0998 3.504 10.0992 3.504C10.0987 3.504 10.0981 3.504 10.0975 3.504C10.0969 3.504 10.0964 3.504 10.0958 3.504C10.0952 3.504 10.0946 3.504 10.0941 3.504C10.0935 3.504 10.0929 3.504 10.0923 3.504C10.0918 3.504 10.0912 3.504 10.0906 3.504C10.0901 3.504 10.0895 3.504 10.0889 3.504C10.0884 3.504 10.0878 3.504 10.0872 3.504C10.0867 3.504 10.0861 3.504 10.0855 3.504C10.085 3.504 10.0844 3.504 10.0838 3.504C10.0833 3.504 10.0827 3.504 10.0821 3.504C10.0816 3.504 10.081 3.504 10.0805 3.504C10.0799 3.504 10.0793 3.504 10.0788 3.504C10.0782 3.504 10.0777 3.504 10.0771 3.504C10.0766 3.504 10.076 3.504 10.0754 3.504C10.0749 3.504 10.0743 3.504 10.0738 3.504C10.0732 3.504 10.0727 3.504 10.0721 3.504C10.0716 3.504 10.071 3.504 10.0705 3.504C10.0699 3.504 10.0694 3.504 10.0688 3.504C10.0683 3.504 10.0677 3.504 10.0672 3.504C10.0666 3.504 10.0661 3.504 10.0655 3.504C10.065 3.504 10.0645 3.504 10.0639 3.504C10.0634 3.504 10.0628 3.504 10.0623 3.504C10.0617 3.504 10.0612 3.504 10.0607 3.504C10.0601 3.504 10.0596 3.504 10.059 3.504C10.0585 3.504 10.058 3.504 10.0574 3.504C10.0569 3.504 10.0564 3.504 10.0558 3.504C10.0553 3.504 10.0548 3.504 10.0542 3.504C10.0537 3.504 10.0532 3.504 10.0526 3.504C10.0521 3.504 10.0516 3.504 10.051 3.504C10.0505 3.504 10.05 3.504 10.0495 3.504C10.0489 3.504 10.0484 3.504 10.0479 3.504C10.0474 3.504 10.0468 3.504 10.0463 3.504C10.0458 3.504 10.0453 3.504 10.0447 3.504C10.0442 3.504 10.0437 3.504 10.0432 3.504C10.0427 3.504 10.0421 3.504 10.0416 3.504C10.0411 3.504 10.0406 3.504 10.0401 3.504C10.0396 3.504 10.039 3.504 10.0385 3.504C10.038 3.504 10.0375 3.504 10.037 3.504C10.0365 3.504 10.036 3.504 10.0355 3.504C10.0349 3.504 10.0344 3.504 10.0339 3.504C10.0334 3.504 10.0329 3.504 10.0324 3.504C10.0319 3.504 10.0314 3.504 10.0309 3.504C10.0304 3.504 10.0299 3.504 10.0294 3.504C10.0289 3.504 10.0284 3.504 10.0279 3.504C10.0274 3.504 10.0269 3.504 10.0264 3.504C10.0259 3.504 10.0254 3.504 10.0249 3.504C10.0244 3.504 10.0239 3.504 10.0234 3.504C10.0229 3.504 10.0224 3.504 10.0219 3.504C10.0214 3.504 10.0209 3.504 10.0205 3.504C10.02 3.504 10.0195 3.504 10.019 3.504C10.0185 3.504 10.018 3.504 10.0175 3.504C10.017 3.504 10.0166 3.504 10.0161 3.504C10.0156 3.504 10.0151 3.504 10.0146 3.504C10.0141 3.504 10.0137 3.504 10.0132 3.504C10.0127 3.504 10.0122 3.504 10.0118 3.504C10.0113 3.504 10.0108 3.504 10.0103 3.504C10.0098 3.504 10.0094 3.504 10.0089 3.504C10.0084 3.504 10.008 3.504 10.0075 3.504C10.007 3.504 10.0065 3.504 10.0061 3.504C10.0056 3.504 10.0051 3.504 10.0047 3.504C10.0042 3.504 10.0037 3.504 10.0033 3.504C10.0028 3.504 10.0023 3.504 10.0019 3.504C10.0014 3.504 10.001 3.504 10.0005 3.504C10 3.504 9.99959 3.504 9.99913 3.504C9.99867 3.504 9.99821 3.504 9.99776 3.504C9.9973 3.504 9.99685 3.504 9.9964 3.504C9.99594 3.504 9.99549 3.504 9.99504 3.504C9.99459 3.504 9.99414 3.504 9.99369 3.504C9.99324 3.504 9.99279 3.504 9.99235 3.504C9.9919 3.504 9.99146 3.504 9.99101 3.504C9.99057 3.504 9.99013 3.504 9.98969 3.504C9.98924 3.504 9.9888 3.504 9.98836 3.504C9.98792 3.504 9.98749 3.504 9.98705 3.504C9.98661 3.504 9.98618 3.504 9.98574 3.504C9.98531 3.504 9.98487 3.504 9.98444 3.504C9.98401 3.504 9.98358 3.504 9.98315 3.504C9.98272 3.504 9.98229 3.504 9.98186 3.504C9.98143 3.504 9.98101 3.504 9.98058 3.504C9.98016 3.504 9.97974 3.504 9.97931 3.504C9.97889 3.504 9.97847 3.504 9.97805 3.504C9.97763 3.504 9.97721 3.504 9.97679 3.504C9.97637 3.504 9.97596 3.504 9.97554 3.504C9.97513 3.504 9.97471 3.504 9.9743 3.504C9.97389 3.504 9.97347 3.504 9.97306 3.504C9.97265 3.504 9.97224 3.504 9.97184 3.504C9.97143 3.504 9.97102 3.504 9.97062 3.504C9.97021 3.504 9.96981 3.504 9.9694 3.504C9.969 3.504 9.9686 3.504 9.9682 3.504C9.9678 3.504 9.9674 3.504 9.967 3.504C9.9666 3.504 9.96621 3.504 9.96581 3.504C9.96542 3.504 9.96502 3.504 9.96463 3.504C9.96424 3.504 9.96385 3.504 9.96346 3.504C9.96306 3.504 9.96268 3.504 9.96229 3.504C9.9619 3.504 9.96151 3.504 9.96113 3.504C9.96074 3.504 9.96036 3.504 9.95998 3.504C9.95959 3.504 9.95921 3.504 9.95883 3.504C9.95845 3.504 9.95808 3.504 9.9577 3.504C9.95732 3.504 9.95695 3.504 9.95657 3.504C9.9562 3.504 9.95582 3.504 9.95545 3.504C9.95508 3.504 9.95471 3.504 9.95434 3.504C9.95397 3.504 9.9536 3.504 9.95323 3.504C9.95287 3.504 9.9525 3.504 9.95214 3.504C9.95177 3.504 9.95141 3.504 9.95105 3.504C9.95069 3.504 9.95033 3.504 9.94997 3.504C9.94961 3.504 9.94925 3.504 9.9489 3.504C9.94854 3.504 9.94819 3.504 9.94784 3.504C9.94748 3.504 9.94713 3.504 9.94678 3.504C9.94643 3.504 9.94608 3.504 9.94573 3.504C9.94539 3.504 9.94504 3.504 9.94469 3.504C9.94435 3.504 9.94401 3.504 9.94366 3.504C9.94332 3.504 9.94298 3.504 9.94264 3.504C9.9423 3.504 9.94196 3.504 9.94163 3.504C9.94129 3.504 9.94096 3.504 9.94062 3.504C9.94029 3.504 9.93996 3.504 9.93962 3.504C9.93929 3.504 9.93896 3.504 9.93864 3.504C9.93831 3.504 9.93798 3.504 9.93766 3.504C9.93733 3.504 9.93701 3.504 9.93668 3.504C9.93636 3.504 9.93604 3.504 9.93572 3.504C9.9354 3.504 9.93508 3.504 9.93477 3.504C9.93445 3.504 9.93414 3.504 9.93382 3.504C9.93351 3.504 9.9332 3.504 9.93289 3.504C9.93257 3.504 9.93227 3.504 9.93196 3.504C9.93165 3.504 9.93134 3.504 9.93104 3.504C9.93073 3.504 9.93043 3.504 9.93013 3.504C9.92982 3.504 9.92952 3.504 9.92922 3.504C9.92893 3.504 9.92863 3.504 9.92833 3.504C9.92804 3.504 9.92774 3.504 9.92745 3.504C9.92715 3.504 9.92686 3.504 9.92657 3.504C9.92628 3.504 9.92599 3.504 9.92571 3.504C9.92542 3.504 9.92513 3.504 9.92485 3.504C9.92456 3.504 9.92428 3.504 9.924 3.504V3.704ZM10.764 3.704C10.926 3.704 11.1858 3.67945 11.3505 3.64144L11.3055 3.44656C11.1582 3.48055 10.914 3.504 10.764 3.504V3.704ZM11.2281 3.54926C11.2403 3.78057 11.2767 4.1207 11.3135 4.32938L11.5105 4.29462C11.4753 4.0953 11.4397 3.76342 11.4279 3.53874L11.2281 3.54926ZM11.3761 4.21867C11.24 4.271 11.0185 4.284 10.776 4.284V4.484C11.0135 4.484 11.272 4.473 11.4479 4.40533L11.3761 4.21867ZM10.776 4.284C10.7756 4.284 10.7753 4.284 10.7749 4.284C10.7746 4.284 10.7742 4.284 10.7739 4.284C10.7735 4.284 10.7732 4.284 10.7728 4.284C10.7724 4.284 10.7721 4.284 10.7717 4.284C10.7713 4.284 10.771 4.284 10.7706 4.284C10.7702 4.284 10.7699 4.284 10.7695 4.284C10.7691 4.284 10.7688 4.284 10.7684 4.284C10.768 4.284 10.7676 4.284 10.7673 4.284C10.7669 4.284 10.7665 4.284 10.7661 4.284C10.7658 4.284 10.7654 4.284 10.765 4.284C10.7646 4.284 10.7642 4.284 10.7638 4.284C10.7635 4.284 10.7631 4.284 10.7627 4.284C10.7623 4.284 10.7619 4.284 10.7615 4.284C10.7611 4.284 10.7607 4.284 10.7603 4.284C10.7599 4.284 10.7595 4.284 10.7592 4.284C10.7588 4.284 10.7584 4.284 10.758 4.284C10.7576 4.284 10.7572 4.284 10.7568 4.284C10.7564 4.284 10.7559 4.284 10.7555 4.284C10.7551 4.284 10.7547 4.284 10.7543 4.284C10.7539 4.284 10.7535 4.284 10.7531 4.284C10.7527 4.284 10.7523 4.284 10.7519 4.284C10.7514 4.284 10.751 4.284 10.7506 4.284C10.7502 4.284 10.7498 4.284 10.7494 4.284C10.7489 4.284 10.7485 4.284 10.7481 4.284C10.7477 4.284 10.7472 4.284 10.7468 4.284C10.7464 4.284 10.746 4.284 10.7455 4.284C10.7451 4.284 10.7447 4.284 10.7442 4.284C10.7438 4.284 10.7434 4.284 10.7429 4.284C10.7425 4.284 10.7421 4.284 10.7416 4.284C10.7412 4.284 10.7408 4.284 10.7403 4.284C10.7399 4.284 10.7394 4.284 10.739 4.284C10.7386 4.284 10.7381 4.284 10.7377 4.284C10.7372 4.284 10.7368 4.284 10.7363 4.284C10.7359 4.284 10.7354 4.284 10.735 4.284C10.7345 4.284 10.7341 4.284 10.7336 4.284C10.7332 4.284 10.7327 4.284 10.7323 4.284C10.7318 4.284 10.7314 4.284 10.7309 4.284C10.7304 4.284 10.73 4.284 10.7295 4.284C10.7291 4.284 10.7286 4.284 10.7281 4.284C10.7277 4.284 10.7272 4.284 10.7267 4.284C10.7263 4.284 10.7258 4.284 10.7253 4.284C10.7249 4.284 10.7244 4.284 10.7239 4.284C10.7235 4.284 10.723 4.284 10.7225 4.284C10.722 4.284 10.7216 4.284 10.7211 4.284C10.7206 4.284 10.7201 4.284 10.7197 4.284C10.7192 4.284 10.7187 4.284 10.7182 4.284C10.7177 4.284 10.7173 4.284 10.7168 4.284C10.7163 4.284 10.7158 4.284 10.7153 4.284C10.7148 4.284 10.7143 4.284 10.7139 4.284C10.7134 4.284 10.7129 4.284 10.7124 4.284C10.7119 4.284 10.7114 4.284 10.7109 4.284C10.7104 4.284 10.7099 4.284 10.7094 4.284C10.7089 4.284 10.7084 4.284 10.7079 4.284C10.7074 4.284 10.7069 4.284 10.7064 4.284C10.7059 4.284 10.7054 4.284 10.7049 4.284C10.7044 4.284 10.7039 4.284 10.7034 4.284C10.7029 4.284 10.7024 4.284 10.7019 4.284C10.7014 4.284 10.7009 4.284 10.7004 4.284C10.6998 4.284 10.6993 4.284 10.6988 4.284C10.6983 4.284 10.6978 4.284 10.6973 4.284C10.6968 4.284 10.6962 4.284 10.6957 4.284C10.6952 4.284 10.6947 4.284 10.6942 4.284C10.6937 4.284 10.6931 4.284 10.6926 4.284C10.6921 4.284 10.6916 4.284 10.691 4.284C10.6905 4.284 10.69 4.284 10.6895 4.284C10.6889 4.284 10.6884 4.284 10.6879 4.284C10.6873 4.284 10.6868 4.284 10.6863 4.284C10.6858 4.284 10.6852 4.284 10.6847 4.284C10.6842 4.284 10.6836 4.284 10.6831 4.284C10.6825 4.284 10.682 4.284 10.6815 4.284C10.6809 4.284 10.6804 4.284 10.6799 4.284C10.6793 4.284 10.6788 4.284 10.6782 4.284C10.6777 4.284 10.6771 4.284 10.6766 4.284C10.6761 4.284 10.6755 4.284 10.675 4.284C10.6744 4.284 10.6739 4.284 10.6733 4.284C10.6728 4.284 10.6722 4.284 10.6717 4.284C10.6711 4.284 10.6706 4.284 10.67 4.284C10.6695 4.284 10.6689 4.284 10.6683 4.284C10.6678 4.284 10.6672 4.284 10.6667 4.284C10.6661 4.284 10.6656 4.284 10.665 4.284C10.6644 4.284 10.6639 4.284 10.6633 4.284C10.6627 4.284 10.6622 4.284 10.6616 4.284C10.6611 4.284 10.6605 4.284 10.6599 4.284C10.6594 4.284 10.6588 4.284 10.6582 4.284C10.6577 4.284 10.6571 4.284 10.6565 4.284C10.6559 4.284 10.6554 4.284 10.6548 4.284C10.6542 4.284 10.6537 4.284 10.6531 4.284C10.6525 4.284 10.6519 4.284 10.6514 4.284C10.6508 4.284 10.6502 4.284 10.6496 4.284C10.649 4.284 10.6485 4.284 10.6479 4.284C10.6473 4.284 10.6467 4.284 10.6461 4.284C10.6456 4.284 10.645 4.284 10.6444 4.284C10.6438 4.284 10.6432 4.284 10.6426 4.284C10.6421 4.284 10.6415 4.284 10.6409 4.284C10.6403 4.284 10.6397 4.284 10.6391 4.284C10.6385 4.284 10.6379 4.284 10.6373 4.284C10.6367 4.284 10.6362 4.284 10.6356 4.284C10.635 4.284 10.6344 4.284 10.6338 4.284C10.6332 4.284 10.6326 4.284 10.632 4.284C10.6314 4.284 10.6308 4.284 10.6302 4.284C10.6296 4.284 10.629 4.284 10.6284 4.284C10.6278 4.284 10.6272 4.284 10.6266 4.284C10.626 4.284 10.6254 4.284 10.6248 4.284C10.6242 4.284 10.6236 4.284 10.623 4.284C10.6223 4.284 10.6217 4.284 10.6211 4.284C10.6205 4.284 10.6199 4.284 10.6193 4.284C10.6187 4.284 10.6181 4.284 10.6175 4.284C10.6169 4.284 10.6162 4.284 10.6156 4.284C10.615 4.284 10.6144 4.284 10.6138 4.284C10.6132 4.284 10.6126 4.284 10.6119 4.284C10.6113 4.284 10.6107 4.284 10.6101 4.284C10.6095 4.284 10.6088 4.284 10.6082 4.284C10.6076 4.284 10.607 4.284 10.6064 4.284C10.6057 4.284 10.6051 4.284 10.6045 4.284C10.6039 4.284 10.6032 4.284 10.6026 4.284C10.602 4.284 10.6014 4.284 10.6007 4.284C10.6001 4.284 10.5995 4.284 10.5989 4.284C10.5982 4.284 10.5976 4.284 10.597 4.284C10.5963 4.284 10.5957 4.284 10.5951 4.284C10.5944 4.284 10.5938 4.284 10.5932 4.284C10.5925 4.284 10.5919 4.284 10.5913 4.284C10.5906 4.284 10.59 4.284 10.5894 4.284C10.5887 4.284 10.5881 4.284 10.5874 4.284C10.5868 4.284 10.5862 4.284 10.5855 4.284C10.5849 4.284 10.5842 4.284 10.5836 4.284C10.583 4.284 10.5823 4.284 10.5817 4.284C10.581 4.284 10.5804 4.284 10.5797 4.284C10.5791 4.284 10.5785 4.284 10.5778 4.284C10.5772 4.284 10.5765 4.284 10.5759 4.284C10.5752 4.284 10.5746 4.284 10.5739 4.284C10.5733 4.284 10.5726 4.284 10.572 4.284C10.5713 4.284 10.5707 4.284 10.57 4.284C10.5694 4.284 10.5687 4.284 10.5681 4.284C10.5674 4.284 10.5668 4.284 10.5661 4.284C10.5655 4.284 10.5648 4.284 10.5641 4.284C10.5635 4.284 10.5628 4.284 10.5622 4.284C10.5615 4.284 10.5609 4.284 10.5602 4.284C10.5595 4.284 10.5589 4.284 10.5582 4.284C10.5576 4.284 10.5569 4.284 10.5562 4.284C10.5556 4.284 10.5549 4.284 10.5542 4.284C10.5536 4.284 10.5529 4.284 10.5523 4.284C10.5516 4.284 10.5509 4.284 10.5503 4.284C10.5496 4.284 10.5489 4.284 10.5483 4.284C10.5476 4.284 10.5469 4.284 10.5463 4.284C10.5456 4.284 10.5449 4.284 10.5443 4.284C10.5436 4.284 10.5429 4.284 10.5422 4.284C10.5416 4.284 10.5409 4.284 10.5402 4.284C10.5396 4.284 10.5389 4.284 10.5382 4.284C10.5375 4.284 10.5369 4.284 10.5362 4.284C10.5355 4.284 10.5348 4.284 10.5342 4.284C10.5335 4.284 10.5328 4.284 10.5321 4.284C10.5315 4.284 10.5308 4.284 10.5301 4.284C10.5294 4.284 10.5287 4.284 10.5281 4.284C10.5274 4.284 10.5267 4.284 10.526 4.284C10.5253 4.284 10.5247 4.284 10.524 4.284C10.5233 4.284 10.5226 4.284 10.5219 4.284C10.5213 4.284 10.5206 4.284 10.5199 4.284C10.5192 4.284 10.5185 4.284 10.5178 4.284C10.5172 4.284 10.5165 4.284 10.5158 4.284C10.5151 4.284 10.5144 4.284 10.5137 4.284C10.513 4.284 10.5123 4.284 10.5117 4.284C10.511 4.284 10.5103 4.284 10.5096 4.284C10.5089 4.284 10.5082 4.284 10.5075 4.284C10.5068 4.284 10.5061 4.284 10.5054 4.284C10.5048 4.284 10.5041 4.284 10.5034 4.284C10.5027 4.284 10.502 4.284 10.5013 4.284C10.5006 4.284 10.4999 4.284 10.4992 4.284C10.4985 4.284 10.4978 4.284 10.4971 4.284C10.4964 4.284 10.4957 4.284 10.495 4.284C10.4943 4.284 10.4936 4.284 10.493 4.284C10.4923 4.284 10.4916 4.284 10.4909 4.284C10.4902 4.284 10.4895 4.284 10.4888 4.284C10.4881 4.284 10.4874 4.284 10.4867 4.284C10.486 4.284 10.4853 4.284 10.4846 4.284C10.4839 4.284 10.4832 4.284 10.4825 4.284C10.4818 4.284 10.4811 4.284 10.4803 4.284C10.4796 4.284 10.4789 4.284 10.4782 4.284C10.4775 4.284 10.4768 4.284 10.4761 4.284C10.4754 4.284 10.4747 4.284 10.474 4.284C10.4733 4.284 10.4726 4.284 10.4719 4.284C10.4712 4.284 10.4705 4.284 10.4698 4.284C10.4691 4.284 10.4684 4.284 10.4677 4.284C10.4669 4.284 10.4662 4.284 10.4655 4.284C10.4648 4.284 10.4641 4.284 10.4634 4.284C10.4627 4.284 10.462 4.284 10.4613 4.284C10.4606 4.284 10.4599 4.284 10.4591 4.284C10.4584 4.284 10.4577 4.284 10.457 4.284C10.4563 4.284 10.4556 4.284 10.4549 4.284C10.4542 4.284 10.4534 4.284 10.4527 4.284C10.452 4.284 10.4513 4.284 10.4506 4.284C10.4499 4.284 10.4492 4.284 10.4485 4.284C10.4477 4.284 10.447 4.284 10.4463 4.284C10.4456 4.284 10.4449 4.284 10.4442 4.284C10.4434 4.284 10.4427 4.284 10.442 4.284C10.4413 4.284 10.4406 4.284 10.4399 4.284C10.4391 4.284 10.4384 4.284 10.4377 4.284C10.437 4.284 10.4363 4.284 10.4356 4.284C10.4348 4.284 10.4341 4.284 10.4334 4.284C10.4327 4.284 10.432 4.284 10.4312 4.284C10.4305 4.284 10.4298 4.284 10.4291 4.284C10.4284 4.284 10.4276 4.284 10.4269 4.284C10.4262 4.284 10.4255 4.284 10.4248 4.284C10.424 4.284 10.4233 4.284 10.4226 4.284C10.4219 4.284 10.4211 4.284 10.4204 4.284C10.4197 4.284 10.419 4.284 10.4183 4.284C10.4175 4.284 10.4168 4.284 10.4161 4.284C10.4154 4.284 10.4146 4.284 10.4139 4.284C10.4132 4.284 10.4125 4.284 10.4117 4.284C10.411 4.284 10.4103 4.284 10.4096 4.284C10.4088 4.284 10.4081 4.284 10.4074 4.284C10.4067 4.284 10.4059 4.284 10.4052 4.284C10.4045 4.284 10.4038 4.284 10.403 4.284C10.4023 4.284 10.4016 4.284 10.4009 4.284C10.4001 4.284 10.3994 4.284 10.3987 4.284C10.398 4.284 10.3972 4.284 10.3965 4.284C10.3958 4.284 10.395 4.284 10.3943 4.284C10.3936 4.284 10.3929 4.284 10.3921 4.284C10.3914 4.284 10.3907 4.284 10.3899 4.284C10.3892 4.284 10.3885 4.284 10.3878 4.284C10.387 4.284 10.3863 4.284 10.3856 4.284C10.3848 4.284 10.3841 4.284 10.3834 4.284C10.3827 4.284 10.3819 4.284 10.3812 4.284C10.3805 4.284 10.3797 4.284 10.379 4.284C10.3783 4.284 10.3775 4.284 10.3768 4.284C10.3761 4.284 10.3754 4.284 10.3746 4.284C10.3739 4.284 10.3732 4.284 10.3724 4.284C10.3717 4.284 10.371 4.284 10.3702 4.284C10.3695 4.284 10.3688 4.284 10.368 4.284C10.3673 4.284 10.3666 4.284 10.3659 4.284C10.3651 4.284 10.3644 4.284 10.3637 4.284C10.3629 4.284 10.3622 4.284 10.3615 4.284C10.3607 4.284 10.36 4.284 10.3593 4.284C10.3585 4.284 10.3578 4.284 10.3571 4.284C10.3563 4.284 10.3556 4.284 10.3549 4.284C10.3541 4.284 10.3534 4.284 10.3527 4.284C10.3519 4.284 10.3512 4.284 10.3505 4.284C10.3497 4.284 10.349 4.284 10.3483 4.284C10.3475 4.284 10.3468 4.284 10.3461 4.284C10.3453 4.284 10.3446 4.284 10.3439 4.284C10.3431 4.284 10.3424 4.284 10.3417 4.284C10.341 4.284 10.3402 4.284 10.3395 4.284C10.3388 4.284 10.338 4.284 10.3373 4.284C10.3366 4.284 10.3358 4.284 10.3351 4.284C10.3344 4.284 10.3336 4.284 10.3329 4.284C10.3322 4.284 10.3314 4.284 10.3307 4.284C10.33 4.284 10.3292 4.284 10.3285 4.284C10.3278 4.284 10.327 4.284 10.3263 4.284C10.3256 4.284 10.3248 4.284 10.3241 4.284C10.3234 4.284 10.3226 4.284 10.3219 4.284C10.3212 4.284 10.3204 4.284 10.3197 4.284C10.319 4.284 10.3182 4.284 10.3175 4.284C10.3168 4.284 10.316 4.284 10.3153 4.284C10.3146 4.284 10.3138 4.284 10.3131 4.284C10.3124 4.284 10.3116 4.284 10.3109 4.284C10.3102 4.284 10.3094 4.284 10.3087 4.284C10.308 4.284 10.3072 4.284 10.3065 4.284C10.3058 4.284 10.305 4.284 10.3043 4.284C10.3036 4.284 10.3028 4.284 10.3021 4.284C10.3014 4.284 10.3006 4.284 10.2999 4.284C10.2992 4.284 10.2984 4.284 10.2977 4.284C10.297 4.284 10.2963 4.284 10.2955 4.284C10.2948 4.284 10.2941 4.284 10.2933 4.284C10.2926 4.284 10.2919 4.284 10.2911 4.284C10.2904 4.284 10.2897 4.284 10.2889 4.284C10.2882 4.284 10.2875 4.284 10.2867 4.284C10.286 4.284 10.2853 4.284 10.2846 4.284C10.2838 4.284 10.2831 4.284 10.2824 4.284C10.2816 4.284 10.2809 4.284 10.2802 4.284C10.2794 4.284 10.2787 4.284 10.278 4.284C10.2773 4.284 10.2765 4.284 10.2758 4.284C10.2751 4.284 10.2743 4.284 10.2736 4.284C10.2729 4.284 10.2722 4.284 10.2714 4.284C10.2707 4.284 10.27 4.284 10.2692 4.284C10.2685 4.284 10.2678 4.284 10.2671 4.284C10.2663 4.284 10.2656 4.284 10.2649 4.284C10.2641 4.284 10.2634 4.284 10.2627 4.284C10.262 4.284 10.2612 4.284 10.2605 4.284C10.2598 4.284 10.2591 4.284 10.2583 4.284C10.2576 4.284 10.2569 4.284 10.2561 4.284C10.2554 4.284 10.2547 4.284 10.254 4.284C10.2532 4.284 10.2525 4.284 10.2518 4.284C10.2511 4.284 10.2503 4.284 10.2496 4.284C10.2489 4.284 10.2482 4.284 10.2474 4.284C10.2467 4.284 10.246 4.284 10.2453 4.284C10.2446 4.284 10.2438 4.284 10.2431 4.284C10.2424 4.284 10.2417 4.284 10.2409 4.284C10.2402 4.284 10.2395 4.284 10.2388 4.284C10.2381 4.284 10.2373 4.284 10.2366 4.284C10.2359 4.284 10.2352 4.284 10.2344 4.284C10.2337 4.284 10.233 4.284 10.2323 4.284C10.2316 4.284 10.2308 4.284 10.2301 4.284C10.2294 4.284 10.2287 4.284 10.228 4.284C10.2272 4.284 10.2265 4.284 10.2258 4.284C10.2251 4.284 10.2244 4.284 10.2236 4.284C10.2229 4.284 10.2222 4.284 10.2215 4.284C10.2208 4.284 10.2201 4.284 10.2193 4.284C10.2186 4.284 10.2179 4.284 10.2172 4.284C10.2165 4.284 10.2158 4.284 10.215 4.284C10.2143 4.284 10.2136 4.284 10.2129 4.284C10.2122 4.284 10.2115 4.284 10.2108 4.284C10.21 4.284 10.2093 4.284 10.2086 4.284C10.2079 4.284 10.2072 4.284 10.2065 4.284C10.2058 4.284 10.2051 4.284 10.2043 4.284C10.2036 4.284 10.2029 4.284 10.2022 4.284C10.2015 4.284 10.2008 4.284 10.2001 4.284C10.1994 4.284 10.1987 4.284 10.1979 4.284C10.1972 4.284 10.1965 4.284 10.1958 4.284C10.1951 4.284 10.1944 4.284 10.1937 4.284C10.193 4.284 10.1923 4.284 10.1916 4.284C10.1909 4.284 10.1902 4.284 10.1894 4.284C10.1887 4.284 10.188 4.284 10.1873 4.284C10.1866 4.284 10.1859 4.284 10.1852 4.284C10.1845 4.284 10.1838 4.284 10.1831 4.284C10.1824 4.284 10.1817 4.284 10.181 4.284C10.1803 4.284 10.1796 4.284 10.1789 4.284C10.1782 4.284 10.1775 4.284 10.1768 4.284C10.1761 4.284 10.1754 4.284 10.1747 4.284C10.174 4.284 10.1733 4.284 10.1726 4.284C10.1719 4.284 10.1712 4.284 10.1705 4.284C10.1698 4.284 10.1691 4.284 10.1684 4.284C10.1677 4.284 10.167 4.284 10.1663 4.284C10.1656 4.284 10.1649 4.284 10.1642 4.284C10.1635 4.284 10.1628 4.284 10.1621 4.284C10.1614 4.284 10.1607 4.284 10.16 4.284C10.1593 4.284 10.1586 4.284 10.158 4.284C10.1573 4.284 10.1566 4.284 10.1559 4.284C10.1552 4.284 10.1545 4.284 10.1538 4.284C10.1531 4.284 10.1524 4.284 10.1517 4.284C10.151 4.284 10.1504 4.284 10.1497 4.284C10.149 4.284 10.1483 4.284 10.1476 4.284C10.1469 4.284 10.1462 4.284 10.1455 4.284C10.1449 4.284 10.1442 4.284 10.1435 4.284C10.1428 4.284 10.1421 4.284 10.1414 4.284C10.1407 4.284 10.1401 4.284 10.1394 4.284C10.1387 4.284 10.138 4.284 10.1373 4.284C10.1367 4.284 10.136 4.284 10.1353 4.284C10.1346 4.284 10.1339 4.284 10.1332 4.284C10.1326 4.284 10.1319 4.284 10.1312 4.284C10.1305 4.284 10.1299 4.284 10.1292 4.284C10.1285 4.284 10.1278 4.284 10.1271 4.284C10.1265 4.284 10.1258 4.284 10.1251 4.284C10.1244 4.284 10.1238 4.284 10.1231 4.284C10.1224 4.284 10.1217 4.284 10.1211 4.284C10.1204 4.284 10.1197 4.284 10.1191 4.284C10.1184 4.284 10.1177 4.284 10.1171 4.284C10.1164 4.284 10.1157 4.284 10.115 4.284C10.1144 4.284 10.1137 4.284 10.113 4.284C10.1124 4.284 10.1117 4.284 10.111 4.284C10.1104 4.284 10.1097 4.284 10.109 4.284C10.1084 4.284 10.1077 4.284 10.107 4.284C10.1064 4.284 10.1057 4.284 10.1051 4.284C10.1044 4.284 10.1037 4.284 10.1031 4.284C10.1024 4.284 10.1018 4.284 10.1011 4.284C10.1004 4.284 10.0998 4.284 10.0991 4.284C10.0985 4.284 10.0978 4.284 10.0971 4.284C10.0965 4.284 10.0958 4.284 10.0952 4.284C10.0945 4.284 10.0939 4.284 10.0932 4.284C10.0926 4.284 10.0919 4.284 10.0913 4.284C10.0906 4.284 10.09 4.284 10.0893 4.284C10.0887 4.284 10.088 4.284 10.0874 4.284C10.0867 4.284 10.0861 4.284 10.0854 4.284C10.0848 4.284 10.0841 4.284 10.0835 4.284C10.0828 4.284 10.0822 4.284 10.0815 4.284C10.0809 4.284 10.0802 4.284 10.0796 4.284C10.079 4.284 10.0783 4.284 10.0777 4.284C10.077 4.284 10.0764 4.284 10.0757 4.284C10.0751 4.284 10.0745 4.284 10.0738 4.284C10.0732 4.284 10.0725 4.284 10.0719 4.284C10.0713 4.284 10.0706 4.284 10.07 4.284C10.0694 4.284 10.0687 4.284 10.0681 4.284C10.0675 4.284 10.0668 4.284 10.0662 4.284C10.0656 4.284 10.0649 4.284 10.0643 4.284C10.0637 4.284 10.063 4.284 10.0624 4.284C10.0618 4.284 10.0611 4.284 10.0605 4.284C10.0599 4.284 10.0593 4.284 10.0586 4.284C10.058 4.284 10.0574 4.284 10.0568 4.284C10.0561 4.284 10.0555 4.284 10.0549 4.284C10.0543 4.284 10.0536 4.284 10.053 4.284C10.0524 4.284 10.0518 4.284 10.0512 4.284C10.0505 4.284 10.0499 4.284 10.0493 4.284C10.0487 4.284 10.0481 4.284 10.0475 4.284C10.0468 4.284 10.0462 4.284 10.0456 4.284C10.045 4.284 10.0444 4.284 10.0438 4.284C10.0432 4.284 10.0425 4.284 10.0419 4.284C10.0413 4.284 10.0407 4.284 10.0401 4.284C10.0395 4.284 10.0389 4.284 10.0383 4.284C10.0377 4.284 10.0371 4.284 10.0365 4.284C10.0359 4.284 10.0353 4.284 10.0347 4.284C10.034 4.284 10.0334 4.284 10.0328 4.284C10.0322 4.284 10.0316 4.284 10.031 4.284C10.0304 4.284 10.0298 4.284 10.0292 4.284C10.0286 4.284 10.028 4.284 10.0275 4.284C10.0269 4.284 10.0263 4.284 10.0257 4.284C10.0251 4.284 10.0245 4.284 10.0239 4.284C10.0233 4.284 10.0227 4.284 10.0221 4.284C10.0215 4.284 10.0209 4.284 10.0203 4.284C10.0198 4.284 10.0192 4.284 10.0186 4.284C10.018 4.284 10.0174 4.284 10.0168 4.284C10.0162 4.284 10.0156 4.284 10.0151 4.284C10.0145 4.284 10.0139 4.284 10.0133 4.284C10.0127 4.284 10.0122 4.284 10.0116 4.284C10.011 4.284 10.0104 4.284 10.0098 4.284C10.0093 4.284 10.0087 4.284 10.0081 4.284C10.0075 4.284 10.007 4.284 10.0064 4.284C10.0058 4.284 10.0053 4.284 10.0047 4.284C10.0041 4.284 10.0035 4.284 10.003 4.284C10.0024 4.284 10.0018 4.284 10.0013 4.284C10.0007 4.284 10.0001 4.284 9.99957 4.284C9.999 4.284 9.99844 4.284 9.99788 4.284C9.99731 4.284 9.99675 4.284 9.99619 4.284C9.99563 4.284 9.99507 4.284 9.99451 4.284C9.99395 4.284 9.9934 4.284 9.99284 4.284C9.99228 4.284 9.99173 4.284 9.99117 4.284C9.99062 4.284 9.99007 4.284 9.98951 4.284C9.98896 4.284 9.98841 4.284 9.98786 4.284C9.98731 4.284 9.98676 4.284 9.98621 4.284C9.98566 4.284 9.98512 4.284 9.98457 4.284C9.98403 4.284 9.98348 4.284 9.98294 4.284C9.98239 4.284 9.98185 4.284 9.98131 4.284C9.98077 4.284 9.98023 4.284 9.97969 4.284C9.97915 4.284 9.97861 4.284 9.97808 4.284C9.97754 4.284 9.977 4.284 9.97647 4.284C9.97593 4.284 9.9754 4.284 9.97487 4.284C9.97433 4.284 9.9738 4.284 9.97327 4.284C9.97274 4.284 9.97221 4.284 9.97169 4.284C9.97116 4.284 9.97063 4.284 9.97011 4.284C9.96958 4.284 9.96906 4.284 9.96853 4.284C9.96801 4.284 9.96749 4.284 9.96697 4.284C9.96644 4.284 9.96593 4.284 9.96541 4.284C9.96489 4.284 9.96437 4.284 9.96385 4.284C9.96334 4.284 9.96282 4.284 9.96231 4.284C9.96179 4.284 9.96128 4.284 9.96077 4.284C9.96026 4.284 9.95975 4.284 9.95924 4.284C9.95873 4.284 9.95822 4.284 9.95771 4.284C9.95721 4.284 9.9567 4.284 9.9562 4.284C9.95569 4.284 9.95519 4.284 9.95469 4.284C9.95419 4.284 9.95368 4.284 9.95319 4.284C9.95269 4.284 9.95219 4.284 9.95169 4.284C9.95119 4.284 9.9507 4.284 9.9502 4.284C9.94971 4.284 9.94921 4.284 9.94872 4.284C9.94823 4.284 9.94774 4.284 9.94725 4.284C9.94676 4.284 9.94627 4.284 9.94578 4.284C9.9453 4.284 9.94481 4.284 9.94433 4.284C9.94384 4.284 9.94336 4.284 9.94287 4.284C9.94239 4.284 9.94191 4.284 9.94143 4.284C9.94095 4.284 9.94047 4.284 9.94 4.284C9.93952 4.284 9.93904 4.284 9.93857 4.284C9.93809 4.284 9.93762 4.284 9.93715 4.284C9.93668 4.284 9.93621 4.284 9.93574 4.284C9.93527 4.284 9.9348 4.284 9.93433 4.284C9.93387 4.284 9.9334 4.284 9.93294 4.284C9.93247 4.284 9.93201 4.284 9.93155 4.284C9.93108 4.284 9.93062 4.284 9.93017 4.284C9.92971 4.284 9.92925 4.284 9.92879 4.284C9.92834 4.284 9.92788 4.284 9.92743 4.284C9.92697 4.284 9.92652 4.284 9.92607 4.284C9.92562 4.284 9.92517 4.284 9.92472 4.284C9.92427 4.284 9.92383 4.284 9.92338 4.284C9.92293 4.284 9.92249 4.284 9.92205 4.284C9.9216 4.284 9.92116 4.284 9.92072 4.284C9.92028 4.284 9.91984 4.284 9.91941 4.284C9.91897 4.284 9.91853 4.284 9.9181 4.284C9.91766 4.284 9.91723 4.284 9.9168 4.284C9.91637 4.284 9.91593 4.284 9.91551 4.284C9.91508 4.284 9.91465 4.284 9.91422 4.284C9.9138 4.284 9.91337 4.284 9.91295 4.284C9.91252 4.284 9.9121 4.284 9.91168 4.284C9.91126 4.284 9.91084 4.284 9.91042 4.284C9.91 4.284 9.90959 4.284 9.90917 4.284C9.90876 4.284 9.90834 4.284 9.90793 4.284C9.90752 4.284 9.90711 4.284 9.9067 4.284C9.90629 4.284 9.90588 4.284 9.90547 4.284C9.90507 4.284 9.90466 4.284 9.90426 4.284C9.90385 4.284 9.90345 4.284 9.90305 4.284C9.90265 4.284 9.90225 4.284 9.90185 4.284C9.90146 4.284 9.90106 4.284 9.90066 4.284C9.90027 4.284 9.89988 4.284 9.89948 4.284C9.89909 4.284 9.8987 4.284 9.89831 4.284C9.89792 4.284 9.89754 4.284 9.89715 4.284C9.89676 4.284 9.89638 4.284 9.896 4.284C9.89561 4.284 9.89523 4.284 9.89485 4.284C9.89447 4.284 9.89409 4.284 9.89371 4.284C9.89334 4.284 9.89296 4.284 9.89259 4.284C9.89221 4.284 9.89184 4.284 9.89147 4.284C9.8911 4.284 9.89073 4.284 9.89036 4.284C9.88999 4.284 9.88963 4.284 9.88926 4.284C9.8889 4.284 9.88853 4.284 9.88817 4.284C9.88781 4.284 9.88745 4.284 9.88709 4.284C9.88673 4.284 9.88637 4.284 9.88602 4.284C9.88566 4.284 9.88531 4.284 9.88495 4.284C9.8846 4.284 9.88425 4.284 9.8839 4.284C9.88355 4.284 9.8832 4.284 9.88286 4.284C9.88251 4.284 9.88217 4.284 9.88182 4.284C9.88148 4.284 9.88114 4.284 9.8808 4.284C9.88046 4.284 9.88012 4.284 9.87978 4.284C9.87944 4.284 9.87911 4.284 9.87878 4.284C9.87844 4.284 9.87811 4.284 9.87778 4.284C9.87745 4.284 9.87712 4.284 9.87679 4.284C9.87646 4.284 9.87614 4.284 9.87581 4.284C9.87549 4.284 9.87517 4.284 9.87485 4.284C9.87453 4.284 9.87421 4.284 9.87389 4.284C9.87357 4.284 9.87325 4.284 9.87294 4.284C9.87263 4.284 9.87231 4.284 9.872 4.284C9.87169 4.284 9.87138 4.284 9.87107 4.284C9.87076 4.284 9.87046 4.284 9.87015 4.284C9.86985 4.284 9.86955 4.284 9.86924 4.284C9.86894 4.284 9.86864 4.284 9.86835 4.284C9.86805 4.284 9.86775 4.284 9.86746 4.284C9.86716 4.284 9.86687 4.284 9.86658 4.284C9.86629 4.284 9.866 4.284 9.86571 4.284C9.86542 4.284 9.86513 4.284 9.86485 4.284C9.86456 4.284 9.86428 4.284 9.864 4.284V4.484C9.86428 4.484 9.86456 4.484 9.86485 4.484C9.86513 4.484 9.86542 4.484 9.86571 4.484C9.866 4.484 9.86629 4.484 9.86658 4.484C9.86687 4.484 9.86716 4.484 9.86746 4.484C9.86775 4.484 9.86805 4.484 9.86835 4.484C9.86864 4.484 9.86894 4.484 9.86924 4.484C9.86955 4.484 9.86985 4.484 9.87015 4.484C9.87046 4.484 9.87076 4.484 9.87107 4.484C9.87138 4.484 9.87169 4.484 9.872 4.484C9.87231 4.484 9.87263 4.484 9.87294 4.484C9.87325 4.484 9.87357 4.484 9.87389 4.484C9.87421 4.484 9.87453 4.484 9.87485 4.484C9.87517 4.484 9.87549 4.484 9.87581 4.484C9.87614 4.484 9.87646 4.484 9.87679 4.484C9.87712 4.484 9.87745 4.484 9.87778 4.484C9.87811 4.484 9.87844 4.484 9.87878 4.484C9.87911 4.484 9.87944 4.484 9.87978 4.484C9.88012 4.484 9.88046 4.484 9.8808 4.484C9.88114 4.484 9.88148 4.484 9.88182 4.484C9.88217 4.484 9.88251 4.484 9.88286 4.484C9.8832 4.484 9.88355 4.484 9.8839 4.484C9.88425 4.484 9.8846 4.484 9.88495 4.484C9.88531 4.484 9.88566 4.484 9.88602 4.484C9.88637 4.484 9.88673 4.484 9.88709 4.484C9.88745 4.484 9.88781 4.484 9.88817 4.484C9.88853 4.484 9.8889 4.484 9.88926 4.484C9.88963 4.484 9.88999 4.484 9.89036 4.484C9.89073 4.484 9.8911 4.484 9.89147 4.484C9.89184 4.484 9.89221 4.484 9.89259 4.484C9.89296 4.484 9.89334 4.484 9.89371 4.484C9.89409 4.484 9.89447 4.484 9.89485 4.484C9.89523 4.484 9.89561 4.484 9.896 4.484C9.89638 4.484 9.89676 4.484 9.89715 4.484C9.89754 4.484 9.89792 4.484 9.89831 4.484C9.8987 4.484 9.89909 4.484 9.89948 4.484C9.89988 4.484 9.90027 4.484 9.90066 4.484C9.90106 4.484 9.90146 4.484 9.90185 4.484C9.90225 4.484 9.90265 4.484 9.90305 4.484C9.90345 4.484 9.90385 4.484 9.90426 4.484C9.90466 4.484 9.90507 4.484 9.90547 4.484C9.90588 4.484 9.90629 4.484 9.9067 4.484C9.90711 4.484 9.90752 4.484 9.90793 4.484C9.90834 4.484 9.90876 4.484 9.90917 4.484C9.90959 4.484 9.91 4.484 9.91042 4.484C9.91084 4.484 9.91126 4.484 9.91168 4.484C9.9121 4.484 9.91252 4.484 9.91295 4.484C9.91337 4.484 9.9138 4.484 9.91422 4.484C9.91465 4.484 9.91508 4.484 9.91551 4.484C9.91593 4.484 9.91637 4.484 9.9168 4.484C9.91723 4.484 9.91766 4.484 9.9181 4.484C9.91853 4.484 9.91897 4.484 9.91941 4.484C9.91984 4.484 9.92028 4.484 9.92072 4.484C9.92116 4.484 9.9216 4.484 9.92205 4.484C9.92249 4.484 9.92293 4.484 9.92338 4.484C9.92383 4.484 9.92427 4.484 9.92472 4.484C9.92517 4.484 9.92562 4.484 9.92607 4.484C9.92652 4.484 9.92697 4.484 9.92743 4.484C9.92788 4.484 9.92834 4.484 9.92879 4.484C9.92925 4.484 9.92971 4.484 9.93017 4.484C9.93062 4.484 9.93108 4.484 9.93155 4.484C9.93201 4.484 9.93247 4.484 9.93294 4.484C9.9334 4.484 9.93387 4.484 9.93433 4.484C9.9348 4.484 9.93527 4.484 9.93574 4.484C9.93621 4.484 9.93668 4.484 9.93715 4.484C9.93762 4.484 9.93809 4.484 9.93857 4.484C9.93904 4.484 9.93952 4.484 9.94 4.484C9.94047 4.484 9.94095 4.484 9.94143 4.484C9.94191 4.484 9.94239 4.484 9.94287 4.484C9.94336 4.484 9.94384 4.484 9.94433 4.484C9.94481 4.484 9.9453 4.484 9.94578 4.484C9.94627 4.484 9.94676 4.484 9.94725 4.484C9.94774 4.484 9.94823 4.484 9.94872 4.484C9.94921 4.484 9.94971 4.484 9.9502 4.484C9.9507 4.484 9.95119 4.484 9.95169 4.484C9.95219 4.484 9.95269 4.484 9.95319 4.484C9.95368 4.484 9.95419 4.484 9.95469 4.484C9.95519 4.484 9.95569 4.484 9.9562 4.484C9.9567 4.484 9.95721 4.484 9.95771 4.484C9.95822 4.484 9.95873 4.484 9.95924 4.484C9.95975 4.484 9.96026 4.484 9.96077 4.484C9.96128 4.484 9.96179 4.484 9.96231 4.484C9.96282 4.484 9.96334 4.484 9.96385 4.484C9.96437 4.484 9.96489 4.484 9.96541 4.484C9.96593 4.484 9.96644 4.484 9.96697 4.484C9.96749 4.484 9.96801 4.484 9.96853 4.484C9.96906 4.484 9.96958 4.484 9.97011 4.484C9.97063 4.484 9.97116 4.484 9.97169 4.484C9.97221 4.484 9.97274 4.484 9.97327 4.484C9.9738 4.484 9.97433 4.484 9.97487 4.484C9.9754 4.484 9.97593 4.484 9.97647 4.484C9.977 4.484 9.97754 4.484 9.97808 4.484C9.97861 4.484 9.97915 4.484 9.97969 4.484C9.98023 4.484 9.98077 4.484 9.98131 4.484C9.98185 4.484 9.98239 4.484 9.98294 4.484C9.98348 4.484 9.98403 4.484 9.98457 4.484C9.98512 4.484 9.98566 4.484 9.98621 4.484C9.98676 4.484 9.98731 4.484 9.98786 4.484C9.98841 4.484 9.98896 4.484 9.98951 4.484C9.99007 4.484 9.99062 4.484 9.99117 4.484C9.99173 4.484 9.99228 4.484 9.99284 4.484C9.9934 4.484 9.99395 4.484 9.99451 4.484C9.99507 4.484 9.99563 4.484 9.99619 4.484C9.99675 4.484 9.99731 4.484 9.99788 4.484C9.99844 4.484 9.999 4.484 9.99957 4.484C10.0001 4.484 10.0007 4.484 10.0013 4.484C10.0018 4.484 10.0024 4.484 10.003 4.484C10.0035 4.484 10.0041 4.484 10.0047 4.484C10.0053 4.484 10.0058 4.484 10.0064 4.484C10.007 4.484 10.0075 4.484 10.0081 4.484C10.0087 4.484 10.0093 4.484 10.0098 4.484C10.0104 4.484 10.011 4.484 10.0116 4.484C10.0122 4.484 10.0127 4.484 10.0133 4.484C10.0139 4.484 10.0145 4.484 10.0151 4.484C10.0156 4.484 10.0162 4.484 10.0168 4.484C10.0174 4.484 10.018 4.484 10.0186 4.484C10.0192 4.484 10.0198 4.484 10.0203 4.484C10.0209 4.484 10.0215 4.484 10.0221 4.484C10.0227 4.484 10.0233 4.484 10.0239 4.484C10.0245 4.484 10.0251 4.484 10.0257 4.484C10.0263 4.484 10.0269 4.484 10.0275 4.484C10.028 4.484 10.0286 4.484 10.0292 4.484C10.0298 4.484 10.0304 4.484 10.031 4.484C10.0316 4.484 10.0322 4.484 10.0328 4.484C10.0334 4.484 10.034 4.484 10.0347 4.484C10.0353 4.484 10.0359 4.484 10.0365 4.484C10.0371 4.484 10.0377 4.484 10.0383 4.484C10.0389 4.484 10.0395 4.484 10.0401 4.484C10.0407 4.484 10.0413 4.484 10.0419 4.484C10.0425 4.484 10.0432 4.484 10.0438 4.484C10.0444 4.484 10.045 4.484 10.0456 4.484C10.0462 4.484 10.0468 4.484 10.0475 4.484C10.0481 4.484 10.0487 4.484 10.0493 4.484C10.0499 4.484 10.0505 4.484 10.0512 4.484C10.0518 4.484 10.0524 4.484 10.053 4.484C10.0536 4.484 10.0543 4.484 10.0549 4.484C10.0555 4.484 10.0561 4.484 10.0568 4.484C10.0574 4.484 10.058 4.484 10.0586 4.484C10.0593 4.484 10.0599 4.484 10.0605 4.484C10.0611 4.484 10.0618 4.484 10.0624 4.484C10.063 4.484 10.0637 4.484 10.0643 4.484C10.0649 4.484 10.0656 4.484 10.0662 4.484C10.0668 4.484 10.0675 4.484 10.0681 4.484C10.0687 4.484 10.0694 4.484 10.07 4.484C10.0706 4.484 10.0713 4.484 10.0719 4.484C10.0725 4.484 10.0732 4.484 10.0738 4.484C10.0745 4.484 10.0751 4.484 10.0757 4.484C10.0764 4.484 10.077 4.484 10.0777 4.484C10.0783 4.484 10.079 4.484 10.0796 4.484C10.0802 4.484 10.0809 4.484 10.0815 4.484C10.0822 4.484 10.0828 4.484 10.0835 4.484C10.0841 4.484 10.0848 4.484 10.0854 4.484C10.0861 4.484 10.0867 4.484 10.0874 4.484C10.088 4.484 10.0887 4.484 10.0893 4.484C10.09 4.484 10.0906 4.484 10.0913 4.484C10.0919 4.484 10.0926 4.484 10.0932 4.484C10.0939 4.484 10.0945 4.484 10.0952 4.484C10.0958 4.484 10.0965 4.484 10.0971 4.484C10.0978 4.484 10.0985 4.484 10.0991 4.484C10.0998 4.484 10.1004 4.484 10.1011 4.484C10.1018 4.484 10.1024 4.484 10.1031 4.484C10.1037 4.484 10.1044 4.484 10.1051 4.484C10.1057 4.484 10.1064 4.484 10.107 4.484C10.1077 4.484 10.1084 4.484 10.109 4.484C10.1097 4.484 10.1104 4.484 10.111 4.484C10.1117 4.484 10.1124 4.484 10.113 4.484C10.1137 4.484 10.1144 4.484 10.115 4.484C10.1157 4.484 10.1164 4.484 10.1171 4.484C10.1177 4.484 10.1184 4.484 10.1191 4.484C10.1197 4.484 10.1204 4.484 10.1211 4.484C10.1217 4.484 10.1224 4.484 10.1231 4.484C10.1238 4.484 10.1244 4.484 10.1251 4.484C10.1258 4.484 10.1265 4.484 10.1271 4.484C10.1278 4.484 10.1285 4.484 10.1292 4.484C10.1299 4.484 10.1305 4.484 10.1312 4.484C10.1319 4.484 10.1326 4.484 10.1332 4.484C10.1339 4.484 10.1346 4.484 10.1353 4.484C10.136 4.484 10.1367 4.484 10.1373 4.484C10.138 4.484 10.1387 4.484 10.1394 4.484C10.1401 4.484 10.1407 4.484 10.1414 4.484C10.1421 4.484 10.1428 4.484 10.1435 4.484C10.1442 4.484 10.1449 4.484 10.1455 4.484C10.1462 4.484 10.1469 4.484 10.1476 4.484C10.1483 4.484 10.149 4.484 10.1497 4.484C10.1504 4.484 10.151 4.484 10.1517 4.484C10.1524 4.484 10.1531 4.484 10.1538 4.484C10.1545 4.484 10.1552 4.484 10.1559 4.484C10.1566 4.484 10.1573 4.484 10.158 4.484C10.1586 4.484 10.1593 4.484 10.16 4.484C10.1607 4.484 10.1614 4.484 10.1621 4.484C10.1628 4.484 10.1635 4.484 10.1642 4.484C10.1649 4.484 10.1656 4.484 10.1663 4.484C10.167 4.484 10.1677 4.484 10.1684 4.484C10.1691 4.484 10.1698 4.484 10.1705 4.484C10.1712 4.484 10.1719 4.484 10.1726 4.484C10.1733 4.484 10.174 4.484 10.1747 4.484C10.1754 4.484 10.1761 4.484 10.1768 4.484C10.1775 4.484 10.1782 4.484 10.1789 4.484C10.1796 4.484 10.1803 4.484 10.181 4.484C10.1817 4.484 10.1824 4.484 10.1831 4.484C10.1838 4.484 10.1845 4.484 10.1852 4.484C10.1859 4.484 10.1866 4.484 10.1873 4.484C10.188 4.484 10.1887 4.484 10.1894 4.484C10.1902 4.484 10.1909 4.484 10.1916 4.484C10.1923 4.484 10.193 4.484 10.1937 4.484C10.1944 4.484 10.1951 4.484 10.1958 4.484C10.1965 4.484 10.1972 4.484 10.1979 4.484C10.1987 4.484 10.1994 4.484 10.2001 4.484C10.2008 4.484 10.2015 4.484 10.2022 4.484C10.2029 4.484 10.2036 4.484 10.2043 4.484C10.2051 4.484 10.2058 4.484 10.2065 4.484C10.2072 4.484 10.2079 4.484 10.2086 4.484C10.2093 4.484 10.21 4.484 10.2108 4.484C10.2115 4.484 10.2122 4.484 10.2129 4.484C10.2136 4.484 10.2143 4.484 10.215 4.484C10.2158 4.484 10.2165 4.484 10.2172 4.484C10.2179 4.484 10.2186 4.484 10.2193 4.484C10.2201 4.484 10.2208 4.484 10.2215 4.484C10.2222 4.484 10.2229 4.484 10.2236 4.484C10.2244 4.484 10.2251 4.484 10.2258 4.484C10.2265 4.484 10.2272 4.484 10.228 4.484C10.2287 4.484 10.2294 4.484 10.2301 4.484C10.2308 4.484 10.2316 4.484 10.2323 4.484C10.233 4.484 10.2337 4.484 10.2344 4.484C10.2352 4.484 10.2359 4.484 10.2366 4.484C10.2373 4.484 10.2381 4.484 10.2388 4.484C10.2395 4.484 10.2402 4.484 10.2409 4.484C10.2417 4.484 10.2424 4.484 10.2431 4.484C10.2438 4.484 10.2446 4.484 10.2453 4.484C10.246 4.484 10.2467 4.484 10.2474 4.484C10.2482 4.484 10.2489 4.484 10.2496 4.484C10.2503 4.484 10.2511 4.484 10.2518 4.484C10.2525 4.484 10.2532 4.484 10.254 4.484C10.2547 4.484 10.2554 4.484 10.2561 4.484C10.2569 4.484 10.2576 4.484 10.2583 4.484C10.2591 4.484 10.2598 4.484 10.2605 4.484C10.2612 4.484 10.262 4.484 10.2627 4.484C10.2634 4.484 10.2641 4.484 10.2649 4.484C10.2656 4.484 10.2663 4.484 10.2671 4.484C10.2678 4.484 10.2685 4.484 10.2692 4.484C10.27 4.484 10.2707 4.484 10.2714 4.484C10.2722 4.484 10.2729 4.484 10.2736 4.484C10.2743 4.484 10.2751 4.484 10.2758 4.484C10.2765 4.484 10.2773 4.484 10.278 4.484C10.2787 4.484 10.2794 4.484 10.2802 4.484C10.2809 4.484 10.2816 4.484 10.2824 4.484C10.2831 4.484 10.2838 4.484 10.2846 4.484C10.2853 4.484 10.286 4.484 10.2867 4.484C10.2875 4.484 10.2882 4.484 10.2889 4.484C10.2897 4.484 10.2904 4.484 10.2911 4.484C10.2919 4.484 10.2926 4.484 10.2933 4.484C10.2941 4.484 10.2948 4.484 10.2955 4.484C10.2963 4.484 10.297 4.484 10.2977 4.484C10.2984 4.484 10.2992 4.484 10.2999 4.484C10.3006 4.484 10.3014 4.484 10.3021 4.484C10.3028 4.484 10.3036 4.484 10.3043 4.484C10.305 4.484 10.3058 4.484 10.3065 4.484C10.3072 4.484 10.308 4.484 10.3087 4.484C10.3094 4.484 10.3102 4.484 10.3109 4.484C10.3116 4.484 10.3124 4.484 10.3131 4.484C10.3138 4.484 10.3146 4.484 10.3153 4.484C10.316 4.484 10.3168 4.484 10.3175 4.484C10.3182 4.484 10.319 4.484 10.3197 4.484C10.3204 4.484 10.3212 4.484 10.3219 4.484C10.3226 4.484 10.3234 4.484 10.3241 4.484C10.3248 4.484 10.3256 4.484 10.3263 4.484C10.327 4.484 10.3278 4.484 10.3285 4.484C10.3292 4.484 10.33 4.484 10.3307 4.484C10.3314 4.484 10.3322 4.484 10.3329 4.484C10.3336 4.484 10.3344 4.484 10.3351 4.484C10.3358 4.484 10.3366 4.484 10.3373 4.484C10.338 4.484 10.3388 4.484 10.3395 4.484C10.3402 4.484 10.341 4.484 10.3417 4.484C10.3424 4.484 10.3431 4.484 10.3439 4.484C10.3446 4.484 10.3453 4.484 10.3461 4.484C10.3468 4.484 10.3475 4.484 10.3483 4.484C10.349 4.484 10.3497 4.484 10.3505 4.484C10.3512 4.484 10.3519 4.484 10.3527 4.484C10.3534 4.484 10.3541 4.484 10.3549 4.484C10.3556 4.484 10.3563 4.484 10.3571 4.484C10.3578 4.484 10.3585 4.484 10.3593 4.484C10.36 4.484 10.3607 4.484 10.3615 4.484C10.3622 4.484 10.3629 4.484 10.3637 4.484C10.3644 4.484 10.3651 4.484 10.3659 4.484C10.3666 4.484 10.3673 4.484 10.368 4.484C10.3688 4.484 10.3695 4.484 10.3702 4.484C10.371 4.484 10.3717 4.484 10.3724 4.484C10.3732 4.484 10.3739 4.484 10.3746 4.484C10.3754 4.484 10.3761 4.484 10.3768 4.484C10.3775 4.484 10.3783 4.484 10.379 4.484C10.3797 4.484 10.3805 4.484 10.3812 4.484C10.3819 4.484 10.3827 4.484 10.3834 4.484C10.3841 4.484 10.3848 4.484 10.3856 4.484C10.3863 4.484 10.387 4.484 10.3878 4.484C10.3885 4.484 10.3892 4.484 10.3899 4.484C10.3907 4.484 10.3914 4.484 10.3921 4.484C10.3929 4.484 10.3936 4.484 10.3943 4.484C10.395 4.484 10.3958 4.484 10.3965 4.484C10.3972 4.484 10.398 4.484 10.3987 4.484C10.3994 4.484 10.4001 4.484 10.4009 4.484C10.4016 4.484 10.4023 4.484 10.403 4.484C10.4038 4.484 10.4045 4.484 10.4052 4.484C10.4059 4.484 10.4067 4.484 10.4074 4.484C10.4081 4.484 10.4088 4.484 10.4096 4.484C10.4103 4.484 10.411 4.484 10.4117 4.484C10.4125 4.484 10.4132 4.484 10.4139 4.484C10.4146 4.484 10.4154 4.484 10.4161 4.484C10.4168 4.484 10.4175 4.484 10.4183 4.484C10.419 4.484 10.4197 4.484 10.4204 4.484C10.4211 4.484 10.4219 4.484 10.4226 4.484C10.4233 4.484 10.424 4.484 10.4248 4.484C10.4255 4.484 10.4262 4.484 10.4269 4.484C10.4276 4.484 10.4284 4.484 10.4291 4.484C10.4298 4.484 10.4305 4.484 10.4312 4.484C10.432 4.484 10.4327 4.484 10.4334 4.484C10.4341 4.484 10.4348 4.484 10.4356 4.484C10.4363 4.484 10.437 4.484 10.4377 4.484C10.4384 4.484 10.4391 4.484 10.4399 4.484C10.4406 4.484 10.4413 4.484 10.442 4.484C10.4427 4.484 10.4434 4.484 10.4442 4.484C10.4449 4.484 10.4456 4.484 10.4463 4.484C10.447 4.484 10.4477 4.484 10.4485 4.484C10.4492 4.484 10.4499 4.484 10.4506 4.484C10.4513 4.484 10.452 4.484 10.4527 4.484C10.4534 4.484 10.4542 4.484 10.4549 4.484C10.4556 4.484 10.4563 4.484 10.457 4.484C10.4577 4.484 10.4584 4.484 10.4591 4.484C10.4599 4.484 10.4606 4.484 10.4613 4.484C10.462 4.484 10.4627 4.484 10.4634 4.484C10.4641 4.484 10.4648 4.484 10.4655 4.484C10.4662 4.484 10.4669 4.484 10.4677 4.484C10.4684 4.484 10.4691 4.484 10.4698 4.484C10.4705 4.484 10.4712 4.484 10.4719 4.484C10.4726 4.484 10.4733 4.484 10.474 4.484C10.4747 4.484 10.4754 4.484 10.4761 4.484C10.4768 4.484 10.4775 4.484 10.4782 4.484C10.4789 4.484 10.4796 4.484 10.4803 4.484C10.4811 4.484 10.4818 4.484 10.4825 4.484C10.4832 4.484 10.4839 4.484 10.4846 4.484C10.4853 4.484 10.486 4.484 10.4867 4.484C10.4874 4.484 10.4881 4.484 10.4888 4.484C10.4895 4.484 10.4902 4.484 10.4909 4.484C10.4916 4.484 10.4923 4.484 10.493 4.484C10.4936 4.484 10.4943 4.484 10.495 4.484C10.4957 4.484 10.4964 4.484 10.4971 4.484C10.4978 4.484 10.4985 4.484 10.4992 4.484C10.4999 4.484 10.5006 4.484 10.5013 4.484C10.502 4.484 10.5027 4.484 10.5034 4.484C10.5041 4.484 10.5048 4.484 10.5054 4.484C10.5061 4.484 10.5068 4.484 10.5075 4.484C10.5082 4.484 10.5089 4.484 10.5096 4.484C10.5103 4.484 10.511 4.484 10.5117 4.484C10.5123 4.484 10.513 4.484 10.5137 4.484C10.5144 4.484 10.5151 4.484 10.5158 4.484C10.5165 4.484 10.5172 4.484 10.5178 4.484C10.5185 4.484 10.5192 4.484 10.5199 4.484C10.5206 4.484 10.5213 4.484 10.5219 4.484C10.5226 4.484 10.5233 4.484 10.524 4.484C10.5247 4.484 10.5253 4.484 10.526 4.484C10.5267 4.484 10.5274 4.484 10.5281 4.484C10.5287 4.484 10.5294 4.484 10.5301 4.484C10.5308 4.484 10.5315 4.484 10.5321 4.484C10.5328 4.484 10.5335 4.484 10.5342 4.484C10.5348 4.484 10.5355 4.484 10.5362 4.484C10.5369 4.484 10.5375 4.484 10.5382 4.484C10.5389 4.484 10.5396 4.484 10.5402 4.484C10.5409 4.484 10.5416 4.484 10.5422 4.484C10.5429 4.484 10.5436 4.484 10.5443 4.484C10.5449 4.484 10.5456 4.484 10.5463 4.484C10.5469 4.484 10.5476 4.484 10.5483 4.484C10.5489 4.484 10.5496 4.484 10.5503 4.484C10.5509 4.484 10.5516 4.484 10.5523 4.484C10.5529 4.484 10.5536 4.484 10.5542 4.484C10.5549 4.484 10.5556 4.484 10.5562 4.484C10.5569 4.484 10.5576 4.484 10.5582 4.484C10.5589 4.484 10.5595 4.484 10.5602 4.484C10.5609 4.484 10.5615 4.484 10.5622 4.484C10.5628 4.484 10.5635 4.484 10.5641 4.484C10.5648 4.484 10.5655 4.484 10.5661 4.484C10.5668 4.484 10.5674 4.484 10.5681 4.484C10.5687 4.484 10.5694 4.484 10.57 4.484C10.5707 4.484 10.5713 4.484 10.572 4.484C10.5726 4.484 10.5733 4.484 10.5739 4.484C10.5746 4.484 10.5752 4.484 10.5759 4.484C10.5765 4.484 10.5772 4.484 10.5778 4.484C10.5785 4.484 10.5791 4.484 10.5797 4.484C10.5804 4.484 10.581 4.484 10.5817 4.484C10.5823 4.484 10.583 4.484 10.5836 4.484C10.5842 4.484 10.5849 4.484 10.5855 4.484C10.5862 4.484 10.5868 4.484 10.5874 4.484C10.5881 4.484 10.5887 4.484 10.5894 4.484C10.59 4.484 10.5906 4.484 10.5913 4.484C10.5919 4.484 10.5925 4.484 10.5932 4.484C10.5938 4.484 10.5944 4.484 10.5951 4.484C10.5957 4.484 10.5963 4.484 10.597 4.484C10.5976 4.484 10.5982 4.484 10.5989 4.484C10.5995 4.484 10.6001 4.484 10.6007 4.484C10.6014 4.484 10.602 4.484 10.6026 4.484C10.6032 4.484 10.6039 4.484 10.6045 4.484C10.6051 4.484 10.6057 4.484 10.6064 4.484C10.607 4.484 10.6076 4.484 10.6082 4.484C10.6088 4.484 10.6095 4.484 10.6101 4.484C10.6107 4.484 10.6113 4.484 10.6119 4.484C10.6126 4.484 10.6132 4.484 10.6138 4.484C10.6144 4.484 10.615 4.484 10.6156 4.484C10.6162 4.484 10.6169 4.484 10.6175 4.484C10.6181 4.484 10.6187 4.484 10.6193 4.484C10.6199 4.484 10.6205 4.484 10.6211 4.484C10.6217 4.484 10.6223 4.484 10.623 4.484C10.6236 4.484 10.6242 4.484 10.6248 4.484C10.6254 4.484 10.626 4.484 10.6266 4.484C10.6272 4.484 10.6278 4.484 10.6284 4.484C10.629 4.484 10.6296 4.484 10.6302 4.484C10.6308 4.484 10.6314 4.484 10.632 4.484C10.6326 4.484 10.6332 4.484 10.6338 4.484C10.6344 4.484 10.635 4.484 10.6356 4.484C10.6362 4.484 10.6367 4.484 10.6373 4.484C10.6379 4.484 10.6385 4.484 10.6391 4.484C10.6397 4.484 10.6403 4.484 10.6409 4.484C10.6415 4.484 10.6421 4.484 10.6426 4.484C10.6432 4.484 10.6438 4.484 10.6444 4.484C10.645 4.484 10.6456 4.484 10.6461 4.484C10.6467 4.484 10.6473 4.484 10.6479 4.484C10.6485 4.484 10.649 4.484 10.6496 4.484C10.6502 4.484 10.6508 4.484 10.6514 4.484C10.6519 4.484 10.6525 4.484 10.6531 4.484C10.6537 4.484 10.6542 4.484 10.6548 4.484C10.6554 4.484 10.6559 4.484 10.6565 4.484C10.6571 4.484 10.6577 4.484 10.6582 4.484C10.6588 4.484 10.6594 4.484 10.6599 4.484C10.6605 4.484 10.6611 4.484 10.6616 4.484C10.6622 4.484 10.6627 4.484 10.6633 4.484C10.6639 4.484 10.6644 4.484 10.665 4.484C10.6656 4.484 10.6661 4.484 10.6667 4.484C10.6672 4.484 10.6678 4.484 10.6683 4.484C10.6689 4.484 10.6695 4.484 10.67 4.484C10.6706 4.484 10.6711 4.484 10.6717 4.484C10.6722 4.484 10.6728 4.484 10.6733 4.484C10.6739 4.484 10.6744 4.484 10.675 4.484C10.6755 4.484 10.6761 4.484 10.6766 4.484C10.6771 4.484 10.6777 4.484 10.6782 4.484C10.6788 4.484 10.6793 4.484 10.6799 4.484C10.6804 4.484 10.6809 4.484 10.6815 4.484C10.682 4.484 10.6825 4.484 10.6831 4.484C10.6836 4.484 10.6842 4.484 10.6847 4.484C10.6852 4.484 10.6858 4.484 10.6863 4.484C10.6868 4.484 10.6873 4.484 10.6879 4.484C10.6884 4.484 10.6889 4.484 10.6895 4.484C10.69 4.484 10.6905 4.484 10.691 4.484C10.6916 4.484 10.6921 4.484 10.6926 4.484C10.6931 4.484 10.6937 4.484 10.6942 4.484C10.6947 4.484 10.6952 4.484 10.6957 4.484C10.6962 4.484 10.6968 4.484 10.6973 4.484C10.6978 4.484 10.6983 4.484 10.6988 4.484C10.6993 4.484 10.6998 4.484 10.7004 4.484C10.7009 4.484 10.7014 4.484 10.7019 4.484C10.7024 4.484 10.7029 4.484 10.7034 4.484C10.7039 4.484 10.7044 4.484 10.7049 4.484C10.7054 4.484 10.7059 4.484 10.7064 4.484C10.7069 4.484 10.7074 4.484 10.7079 4.484C10.7084 4.484 10.7089 4.484 10.7094 4.484C10.7099 4.484 10.7104 4.484 10.7109 4.484C10.7114 4.484 10.7119 4.484 10.7124 4.484C10.7129 4.484 10.7134 4.484 10.7139 4.484C10.7143 4.484 10.7148 4.484 10.7153 4.484C10.7158 4.484 10.7163 4.484 10.7168 4.484C10.7173 4.484 10.7177 4.484 10.7182 4.484C10.7187 4.484 10.7192 4.484 10.7197 4.484C10.7201 4.484 10.7206 4.484 10.7211 4.484C10.7216 4.484 10.722 4.484 10.7225 4.484C10.723 4.484 10.7235 4.484 10.7239 4.484C10.7244 4.484 10.7249 4.484 10.7253 4.484C10.7258 4.484 10.7263 4.484 10.7267 4.484C10.7272 4.484 10.7277 4.484 10.7281 4.484C10.7286 4.484 10.7291 4.484 10.7295 4.484C10.73 4.484 10.7304 4.484 10.7309 4.484C10.7314 4.484 10.7318 4.484 10.7323 4.484C10.7327 4.484 10.7332 4.484 10.7336 4.484C10.7341 4.484 10.7345 4.484 10.735 4.484C10.7354 4.484 10.7359 4.484 10.7363 4.484C10.7368 4.484 10.7372 4.484 10.7377 4.484C10.7381 4.484 10.7386 4.484 10.739 4.484C10.7394 4.484 10.7399 4.484 10.7403 4.484C10.7408 4.484 10.7412 4.484 10.7416 4.484C10.7421 4.484 10.7425 4.484 10.7429 4.484C10.7434 4.484 10.7438 4.484 10.7442 4.484C10.7447 4.484 10.7451 4.484 10.7455 4.484C10.746 4.484 10.7464 4.484 10.7468 4.484C10.7472 4.484 10.7477 4.484 10.7481 4.484C10.7485 4.484 10.7489 4.484 10.7494 4.484C10.7498 4.484 10.7502 4.484 10.7506 4.484C10.751 4.484 10.7514 4.484 10.7519 4.484C10.7523 4.484 10.7527 4.484 10.7531 4.484C10.7535 4.484 10.7539 4.484 10.7543 4.484C10.7547 4.484 10.7551 4.484 10.7555 4.484C10.7559 4.484 10.7564 4.484 10.7568 4.484C10.7572 4.484 10.7576 4.484 10.758 4.484C10.7584 4.484 10.7588 4.484 10.7592 4.484C10.7595 4.484 10.7599 4.484 10.7603 4.484C10.7607 4.484 10.7611 4.484 10.7615 4.484C10.7619 4.484 10.7623 4.484 10.7627 4.484C10.7631 4.484 10.7635 4.484 10.7638 4.484C10.7642 4.484 10.7646 4.484 10.765 4.484C10.7654 4.484 10.7658 4.484 10.7661 4.484C10.7665 4.484 10.7669 4.484 10.7673 4.484C10.7676 4.484 10.768 4.484 10.7684 4.484C10.7688 4.484 10.7691 4.484 10.7695 4.484C10.7699 4.484 10.7702 4.484 10.7706 4.484C10.771 4.484 10.7713 4.484 10.7717 4.484C10.7721 4.484 10.7724 4.484 10.7728 4.484C10.7732 4.484 10.7735 4.484 10.7739 4.484C10.7742 4.484 10.7746 4.484 10.7749 4.484C10.7753 4.484 10.7756 4.484 10.776 4.484V4.284ZM9.864 4.284C9.46002 4.284 9.24939 4.19856 9.12972 4.03779C9.00304 3.8676 8.956 3.58721 8.956 3.136H8.756C8.756 3.58479 8.79896 3.92839 8.96928 4.15721C9.14661 4.39544 9.43998 4.484 9.864 4.484V4.284ZM8.956 3.136V0.364H8.756V3.136H8.956ZM2.1823 10.6867C2.1423 10.5734 2.05609 10.4184 1.96365 10.2745C1.87059 10.1295 1.76496 9.98607 1.68128 9.89596L1.53472 10.032C1.60705 10.1099 1.70541 10.2425 1.79535 10.3825C1.88591 10.5236 1.9617 10.6626 1.9937 10.7533L2.1823 10.6867ZM1.66655 10.0451C1.89358 9.8811 2.308 9.45897 2.308 8.872H2.108C2.108 9.36503 1.75442 9.7349 1.54945 9.88293L1.66655 10.0451ZM2.308 8.872V3.688H2.108V8.872H2.308ZM2.208 3.788H3.072V3.588H2.208V3.788ZM2.972 3.688V9.64H3.172V3.688H2.972ZM3.072 9.64C3.01231 9.55977 3.0123 9.55978 3.01228 9.55979C3.01227 9.5598 3.01225 9.55981 3.01223 9.55983C3.01219 9.55986 3.01213 9.5599 3.01206 9.55995C3.01192 9.56006 3.01172 9.56021 3.01146 9.56041C3.01093 9.56079 3.01018 9.56136 3.0092 9.5621C3.00724 9.56357 3.00437 9.56572 3.00066 9.56852C2.99324 9.57413 2.98244 9.58234 2.96875 9.59287C2.94137 9.61393 2.90238 9.64431 2.85565 9.68183C2.76229 9.75678 2.63745 9.86067 2.51227 9.97593C2.38758 10.0907 2.26013 10.219 2.16308 10.3427C2.11455 10.4045 2.0719 10.4674 2.041 10.5286C2.01066 10.5888 1.988 10.6544 1.988 10.72H2.188C2.188 10.6986 2.19609 10.6652 2.21956 10.6187C2.24247 10.5733 2.2767 10.5219 2.32042 10.4662C2.40787 10.3547 2.52642 10.2348 2.64773 10.1231C2.76855 10.0118 2.88971 9.91097 2.98085 9.83779C3.02637 9.80125 3.06425 9.77173 3.09069 9.7514C3.1039 9.74123 3.11424 9.73337 3.12124 9.72809C3.12474 9.72544 3.1274 9.72345 3.12916 9.72213C3.13004 9.72147 3.13069 9.72097 3.13112 9.72066C3.13133 9.7205 3.13148 9.72038 3.13158 9.72031C3.13163 9.72028 3.13166 9.72025 3.13168 9.72024C3.13169 9.72023 3.13169 9.72023 3.13169 9.72023C3.13169 9.72023 3.13169 9.72023 3.072 9.64ZM19.788 1.084V0.984H19.688V1.084H19.788ZM19.788 2.164H19.688V2.264H19.788V2.164ZM21.804 2.164V2.264H21.904V2.164H21.804ZM21.804 1.084H21.904V0.984H21.804V1.084ZM16.98 1.084V0.984H16.88V1.084H16.98ZM16.98 2.164H16.88V2.264H16.98V2.164ZM18.96 2.164V2.264H19.06V2.164H18.96ZM18.96 1.084H19.06V0.984H18.96V1.084ZM14.232 1.084V0.984H14.132V1.084H14.232ZM14.232 2.164H14.132V2.264H14.232V2.164ZM16.152 2.164V2.264H16.252V2.164H16.152ZM16.152 1.084H16.252V0.984H16.152V1.084ZM13.368 0.435999V0.335999H13.268V0.435999H13.368ZM22.704 0.435999H22.804V0.335999H22.704V0.435999ZM22.704 2.824V2.924H22.804V2.824H22.704ZM13.368 2.824H13.268V2.924H13.368V2.824ZM12.816 3.484V3.384H12.716V3.484H12.816ZM23.196 3.484H23.296V3.384H23.196V3.484ZM23.196 4.18V4.28H23.296V4.18H23.196ZM12.816 4.18H12.716V4.28H12.816V4.18ZM13.86 9.736V9.636H13.76V9.736H13.86ZM23.496 9.736H23.596V9.636H23.496V9.736ZM23.496 10.468V10.568H23.596V10.468H23.496ZM13.86 10.468H13.76V10.568H13.86V10.468ZM13.476 5.068V4.968H13.376V5.068H13.476ZM14.388 5.068H14.488V4.968H14.388V5.068ZM14.388 10.972V11.072H14.488V10.972H14.388ZM13.476 10.972H13.376V11.072H13.476V10.972ZM16.44 6.64V6.54H16.34V6.64H16.44ZM16.44 7.3H16.34V7.4H16.44V7.3ZM21.324 7.3V7.4H21.424V7.3H21.324ZM21.324 6.64H21.424V6.54H21.324V6.64ZM16.44 7.84V7.74H16.34V7.84H16.44ZM16.44 8.524H16.34V8.624H16.44V8.524ZM21.324 8.524V8.624H21.424V8.524H21.324ZM21.324 7.84H21.424V7.74H21.324V7.84ZM16.44 5.452V5.352H16.34V5.452H16.44ZM16.44 6.1H16.34V6.2H16.44V6.1ZM21.324 6.1V6.2H21.424V6.1H21.324ZM21.324 5.452H21.424V5.352H21.324V5.452ZM15.6 4.888V4.788H15.5V4.888H15.6ZM22.2 4.888H22.3V4.788H22.2V4.888ZM22.2 9.076V9.176H22.3V9.076H22.2ZM15.6 9.076H15.5V9.176H15.6V9.076ZM17.724 2.632L17.732 2.53232L17.6344 2.52451L17.6245 2.62191L17.724 2.632ZM18.624 2.704L18.7232 2.71693L18.7368 2.6127L18.632 2.60432L18.624 2.704ZM18.216 5.176V5.276H18.2974L18.3139 5.19632L18.216 5.176ZM17.34 5.176L17.2422 5.15505L17.2163 5.276H17.34V5.176ZM19.688 1.084V2.164H19.888V1.084H19.688ZM19.788 2.264H21.804V2.064H19.788V2.264ZM21.904 2.164V1.084H21.704V2.164H21.904ZM21.804 0.984H19.788V1.184H21.804V0.984ZM16.88 1.084V2.164H17.08V1.084H16.88ZM16.98 2.264H18.96V2.064H16.98V2.264ZM19.06 2.164V1.084H18.86V2.164H19.06ZM18.96 0.984H16.98V1.184H18.96V0.984ZM14.132 1.084V2.164H14.332V1.084H14.132ZM14.232 2.264H16.152V2.064H14.232V2.264ZM16.252 2.164V1.084H16.052V2.164H16.252ZM16.152 0.984H14.232V1.184H16.152V0.984ZM13.368 0.535999H22.704V0.335999H13.368V0.535999ZM22.604 0.435999V2.824H22.804V0.435999H22.604ZM22.704 2.724H13.368V2.924H22.704V2.724ZM13.468 2.824V0.435999H13.268V2.824H13.468ZM12.816 3.584H23.196V3.384H12.816V3.584ZM23.096 3.484V4.18H23.296V3.484H23.096ZM23.196 4.08H12.816V4.28H23.196V4.08ZM12.916 4.18V3.484H12.716V4.18H12.916ZM13.86 9.836H23.496V9.636H13.86V9.836ZM23.396 9.736V10.468H23.596V9.736H23.396ZM23.496 10.368H13.86V10.568H23.496V10.368ZM13.96 10.468V9.736H13.76V10.468H13.96ZM13.476 5.168H14.388V4.968H13.476V5.168ZM14.288 5.068V10.972H14.488V5.068H14.288ZM14.388 10.872H13.476V11.072H14.388V10.872ZM13.576 10.972V5.068H13.376V10.972H13.576ZM16.34 6.64V7.3H16.54V6.64H16.34ZM16.44 7.4H21.324V7.2H16.44V7.4ZM21.424 7.3V6.64H21.224V7.3H21.424ZM21.324 6.54H16.44V6.74H21.324V6.54ZM16.34 7.84V8.524H16.54V7.84H16.34ZM16.44 8.624H21.324V8.424H16.44V8.624ZM21.424 8.524V7.84H21.224V8.524H21.424ZM21.324 7.74H16.44V7.94H21.324V7.74ZM16.34 5.452V6.1H16.54V5.452H16.34ZM16.44 6.2H21.324V6H16.44V6.2ZM21.424 6.1V5.452H21.224V6.1H21.424ZM21.324 5.352H16.44V5.552H21.324V5.352ZM15.6 4.988H22.2V4.788H15.6V4.988ZM22.1 4.888V9.076H22.3V4.888H22.1ZM22.2 8.976H15.6V9.176H22.2V8.976ZM15.7 9.076V4.888H15.5V9.076H15.7ZM17.716 2.73168L18.616 2.80368L18.632 2.60432L17.732 2.53232L17.716 2.73168ZM18.5248 2.69107C18.4171 3.51702 18.2495 4.52252 18.1181 5.15568L18.3139 5.19632C18.4465 4.55748 18.6149 3.54698 18.7232 2.71693L18.5248 2.69107ZM18.216 5.076H17.34V5.276H18.216V5.076ZM17.4378 5.19695C17.5827 4.52054 17.7392 3.47279 17.8235 2.64209L17.6245 2.62191C17.5408 3.44721 17.3853 4.48746 17.2422 5.15505L17.4378 5.19695Z" fill="black"/>
</svg>
