<svg width="24" height="11" viewBox="0 0 24 11" fill="none" xmlns="http://www.w3.org/2000/svg">
<path d="M2.988 4.66V8.908H2.1V5.5H0.576V4.66H2.988ZM2.988 8.512C3.564 9.412 4.656 9.808 6.096 9.868C7.416 9.916 10.128 9.88 11.556 9.784C11.448 10 11.304 10.432 11.256 10.708C9.936 10.756 7.428 10.78 6.096 10.732C4.488 10.672 3.372 10.252 2.592 9.304C2.052 9.82 1.488 10.336 0.876 10.864L0.396 9.952C0.936 9.556 1.596 9.028 2.172 8.512H2.988ZM0.684 0.736L1.344 0.207999C2.1 0.748 2.952 1.564 3.336 2.152L2.616 2.728C2.268 2.14 1.428 1.3 0.684 0.736ZM5.028 0.532H11.076V1.372H5.028V0.532ZM5.112 3.04H10.02V3.856H5.112V3.04ZM4.596 0.532H5.472V3.304C5.472 4.984 5.28 7.348 4.044 8.956C3.9 8.788 3.516 8.536 3.312 8.44C4.476 6.94 4.596 4.852 4.596 3.304V0.532ZM9.78 3.04H9.948L10.116 3.004L10.68 3.208C9.912 6.412 7.872 8.32 5.496 9.244C5.388 9.028 5.148 8.668 4.968 8.488C7.152 7.756 9.108 5.908 9.78 3.196V3.04ZM6.504 3.58C7.284 6.04 8.952 7.852 11.508 8.572C11.304 8.752 11.052 9.1 10.92 9.352C8.28 8.476 6.588 6.544 5.712 3.784L6.504 3.58ZM16.488 4V6.76H19.404V4H16.488ZM15.636 3.196H20.304V7.552H15.636V3.196ZM12.984 0.412H23.016V10.948H22.056V1.324H13.908V10.948H12.984V0.412ZM13.5 9.46H22.608V10.312H13.5V9.46Z" fill="black"/>
<path d="M2.988 4.66H3.088V4.56H2.988V4.66ZM2.988 8.908V9.008H3.088V8.908H2.988ZM2.1 8.908H2V9.008H2.1V8.908ZM2.1 5.5H2.2V5.4H2.1V5.5ZM0.576 5.5H0.476V5.6H0.576V5.5ZM0.576 4.66V4.56H0.476V4.66H0.576ZM2.988 8.512L3.07223 8.45809L3.04273 8.412H2.988V8.512ZM6.096 9.868L6.09184 9.96791L6.09237 9.96793L6.096 9.868ZM11.556 9.784L11.6454 9.82872L11.7235 9.67251L11.5493 9.68423L11.556 9.784ZM11.256 10.708L11.2596 10.8079L11.3406 10.805L11.3545 10.7251L11.256 10.708ZM6.096 10.732L6.09227 10.8319L6.0924 10.8319L6.096 10.732ZM2.592 9.304L2.66922 9.24046L2.60079 9.15729L2.52291 9.2317L2.592 9.304ZM0.876 10.864L0.787508 10.9106L0.846089 11.0219L0.941323 10.9397L0.876 10.864ZM0.396 9.952L0.336864 9.87136L0.267374 9.92232L0.307508 9.99857L0.396 9.952ZM2.172 8.512V8.412H2.13376L2.10528 8.43752L2.172 8.512ZM0.684 0.736L0.621531 0.657913L0.521267 0.738123L0.62359 0.81569L0.684 0.736ZM1.344 0.207999L1.40212 0.126626L1.34058 0.0826695L1.28153 0.129913L1.344 0.207999ZM3.336 2.152L3.39847 2.23009L3.46938 2.17336L3.41973 2.09732L3.336 2.152ZM2.616 2.728L2.52994 2.77893L2.58858 2.878L2.67847 2.80609L2.616 2.728ZM5.028 0.532V0.432H4.928V0.532H5.028ZM11.076 0.532H11.176V0.432H11.076V0.532ZM11.076 1.372V1.472H11.176V1.372H11.076ZM5.028 1.372H4.928V1.472H5.028V1.372ZM5.112 3.04V2.94H5.012V3.04H5.112ZM10.02 3.04H10.12V2.94H10.02V3.04ZM10.02 3.856V3.956H10.12V3.856H10.02ZM5.112 3.856H5.012V3.956H5.112V3.856ZM4.596 0.532V0.432H4.496V0.532H4.596ZM5.472 0.532H5.572V0.432H5.472V0.532ZM4.044 8.956L3.96807 9.02108L4.04823 9.11459L4.12328 9.01694L4.044 8.956ZM3.312 8.44L3.233 8.37869L3.15646 8.47732L3.26942 8.53048L3.312 8.44ZM9.78 3.04V2.94H9.68V3.04H9.78ZM9.948 3.04V3.14H9.95859L9.96895 3.13778L9.948 3.04ZM10.116 3.004L10.15 2.90996L10.1231 2.90022L10.095 2.90622L10.116 3.004ZM10.68 3.208L10.7772 3.23131L10.7981 3.14437L10.714 3.11396L10.68 3.208ZM5.496 9.244L5.40656 9.28872L5.44731 9.37023L5.53225 9.3372L5.496 9.244ZM4.968 8.488L4.93622 8.39318L4.78309 8.44451L4.89729 8.55871L4.968 8.488ZM9.78 3.196L9.87707 3.22005L9.88 3.2082V3.196H9.78ZM6.504 3.58L6.59932 3.54978L6.57072 3.45955L6.47906 3.48316L6.504 3.58ZM11.508 8.572L11.5742 8.64698L11.7118 8.52552L11.5351 8.47575L11.508 8.572ZM10.92 9.352L10.8885 9.44691L10.9692 9.47367L11.0086 9.3984L10.92 9.352ZM5.712 3.784L5.68706 3.68716L5.58471 3.71352L5.61669 3.81425L5.712 3.784ZM2.888 4.66V8.908H3.088V4.66H2.888ZM2.988 8.808H2.1V9.008H2.988V8.808ZM2.2 8.908V5.5H2V8.908H2.2ZM2.1 5.4H0.576V5.6H2.1V5.4ZM0.676 5.5V4.66H0.476V5.5H0.676ZM0.576 4.76H2.988V4.56H0.576V4.76ZM2.90377 8.56591C3.50633 9.5074 4.64047 9.90744 6.09184 9.96791L6.10016 9.76809C4.67153 9.70856 3.62167 9.3166 3.07223 8.45809L2.90377 8.56591ZM6.09237 9.96793C7.41572 10.0161 10.1312 9.98001 11.5627 9.88377L11.5493 9.68423C10.1248 9.77999 7.41628 9.81594 6.09963 9.76807L6.09237 9.96793ZM11.4666 9.73928C11.3541 9.96416 11.2071 10.4055 11.1575 10.6909L11.3545 10.7251C11.4009 10.4585 11.5419 10.0358 11.6454 9.82872L11.4666 9.73928ZM11.2524 10.6081C9.9339 10.656 7.42845 10.68 6.0996 10.6321L6.0924 10.8319C7.42755 10.88 9.9381 10.856 11.2596 10.8079L11.2524 10.6081ZM6.09973 10.6321C4.50771 10.5727 3.42435 10.1582 2.66922 9.24046L2.51478 9.36754C3.31966 10.3458 4.46829 10.7713 6.09227 10.8319L6.09973 10.6321ZM2.52291 9.2317C1.98401 9.74666 1.42126 10.2615 0.810677 10.7883L0.941323 10.9397C1.55474 10.4105 2.11999 9.89334 2.66109 9.3763L2.52291 9.2317ZM0.964492 10.8174L0.484492 9.90543L0.307508 9.99857L0.787508 10.9106L0.964492 10.8174ZM0.455136 10.0326C0.997534 9.63488 1.66009 9.10484 2.23872 8.58648L2.10528 8.43752C1.53191 8.95116 0.874466 9.47712 0.336864 9.87136L0.455136 10.0326ZM2.172 8.612H2.988V8.412H2.172V8.612ZM0.74647 0.814087L1.40647 0.286086L1.28153 0.129913L0.621531 0.657913L0.74647 0.814087ZM1.28588 0.289373C2.03609 0.82524 2.87748 1.63278 3.25227 2.20668L3.41973 2.09732C3.02652 1.49522 2.16391 0.670759 1.40212 0.126626L1.28588 0.289373ZM3.27353 2.07391L2.55353 2.64991L2.67847 2.80609L3.39847 2.23009L3.27353 2.07391ZM2.70206 2.67707C2.34462 2.07312 1.49312 1.22388 0.744411 0.656309L0.62359 0.81569C1.36288 1.37612 2.19138 2.20687 2.52994 2.77893L2.70206 2.67707ZM5.028 0.631999H11.076V0.432H5.028V0.631999ZM10.976 0.532V1.372H11.176V0.532H10.976ZM11.076 1.272H5.028V1.472H11.076V1.272ZM5.128 1.372V0.532H4.928V1.372H5.128ZM5.112 3.14H10.02V2.94H5.112V3.14ZM9.92 3.04V3.856H10.12V3.04H9.92ZM10.02 3.756H5.112V3.956H10.02V3.756ZM5.212 3.856V3.04H5.012V3.856H5.212ZM4.596 0.631999H5.472V0.432H4.596V0.631999ZM5.372 0.532V3.304H5.572V0.532H5.372ZM5.372 3.304C5.372 4.98337 5.17838 7.31612 3.96472 8.89506L4.12328 9.01694C5.38162 7.37988 5.572 4.98463 5.572 3.304H5.372ZM4.11993 8.89092C4.039 8.79651 3.8979 8.68546 3.75719 8.58862C3.61497 8.49075 3.4631 8.40059 3.35458 8.34952L3.26942 8.53048C3.3649 8.57541 3.50703 8.65925 3.64381 8.75338C3.7821 8.84854 3.905 8.94749 3.96807 9.02108L4.11993 8.89092ZM3.391 8.50131C4.5781 6.97154 4.696 4.8509 4.696 3.304H4.496C4.496 4.8531 4.3739 6.90846 3.233 8.37869L3.391 8.50131ZM4.696 3.304V0.532H4.496V3.304H4.696ZM9.78 3.14H9.948V2.94H9.78V3.14ZM9.96895 3.13778L10.137 3.10178L10.095 2.90622L9.92705 2.94222L9.96895 3.13778ZM10.082 3.09804L10.646 3.30204L10.714 3.11396L10.15 2.90996L10.082 3.09804ZM10.5828 3.18469C9.8231 6.35388 7.80811 8.23755 5.45976 9.1508L5.53225 9.3372C7.93589 8.40245 10.0009 6.47012 10.7772 3.23131L10.5828 3.18469ZM5.58544 9.19928C5.47404 8.97647 5.22825 8.60683 5.03871 8.41729L4.89729 8.55871C5.06775 8.72917 5.30196 9.07953 5.40656 9.28872L5.58544 9.19928ZM4.99978 8.58282C7.21424 7.84061 9.19635 5.96722 9.87707 3.22005L9.68294 3.17195C9.01965 5.84878 7.08976 7.67139 4.93622 8.39318L4.99978 8.58282ZM9.88 3.196V3.04H9.68V3.196H9.88ZM6.40868 3.61022C7.19763 6.09846 8.88878 7.93808 11.4809 8.66825L11.5351 8.47575C9.01522 7.76592 7.37037 5.98154 6.59932 3.54978L6.40868 3.61022ZM11.4418 8.49702C11.2263 8.68719 10.9674 9.046 10.8314 9.3056L11.0086 9.3984C11.1366 9.154 11.3817 8.81681 11.5742 8.64698L11.4418 8.49702ZM10.9515 9.25709C8.34671 8.39277 6.67527 6.4884 5.80731 3.75375L5.61669 3.81425C6.50073 6.5996 8.21329 8.55923 10.8885 9.44691L10.9515 9.25709ZM5.73694 3.88084L6.52894 3.67684L6.47906 3.48316L5.68706 3.68716L5.73694 3.88084ZM16.488 4V3.9H16.388V4H16.488ZM16.488 6.76H16.388V6.86H16.488V6.76ZM19.404 6.76V6.86H19.504V6.76H19.404ZM19.404 4H19.504V3.9H19.404V4ZM15.636 3.196V3.096H15.536V3.196H15.636ZM20.304 3.196H20.404V3.096H20.304V3.196ZM20.304 7.552V7.652H20.404V7.552H20.304ZM15.636 7.552H15.536V7.652H15.636V7.552ZM12.984 0.412V0.312H12.884V0.412H12.984ZM23.016 0.412H23.116V0.312H23.016V0.412ZM23.016 10.948V11.048H23.116V10.948H23.016ZM22.056 10.948H21.956V11.048H22.056V10.948ZM22.056 1.324H22.156V1.224H22.056V1.324ZM13.908 1.324V1.224H13.808V1.324H13.908ZM13.908 10.948V11.048H14.008V10.948H13.908ZM12.984 10.948H12.884V11.048H12.984V10.948ZM13.5 9.46V9.36H13.4V9.46H13.5ZM22.608 9.46H22.708V9.36H22.608V9.46ZM22.608 10.312V10.412H22.708V10.312H22.608ZM13.5 10.312H13.4V10.412H13.5V10.312ZM16.388 4V6.76H16.588V4H16.388ZM16.488 6.86H19.404V6.66H16.488V6.86ZM19.504 6.76V4H19.304V6.76H19.504ZM19.404 3.9H16.488V4.1H19.404V3.9ZM15.636 3.296H20.304V3.096H15.636V3.296ZM20.204 3.196V7.552H20.404V3.196H20.204ZM20.304 7.452H15.636V7.652H20.304V7.452ZM15.736 7.552V3.196H15.536V7.552H15.736ZM12.984 0.512H23.016V0.312H12.984V0.512ZM22.916 0.412V10.948H23.116V0.412H22.916ZM23.016 10.848H22.056V11.048H23.016V10.848ZM22.156 10.948V1.324H21.956V10.948H22.156ZM22.056 1.224H13.908V1.424H22.056V1.224ZM13.808 1.324V10.948H14.008V1.324H13.808ZM13.908 10.848H12.984V11.048H13.908V10.848ZM13.084 10.948V0.412H12.884V10.948H13.084ZM13.5 9.56H22.608V9.36H13.5V9.56ZM22.508 9.46V10.312H22.708V9.46H22.508ZM22.608 10.212H13.5V10.412H22.608V10.212ZM13.6 10.312V9.46H13.4V10.312H13.6Z" fill="black"/>
</svg>
