<svg width="23" height="12" viewBox="0 0 23 12" fill="none" xmlns="http://www.w3.org/2000/svg">
<path d="M0.00800008 2.768H5.348V11.036H4.52V3.56H0.8V11.204H0.00800008V2.768ZM0.38 6.092H4.808V6.872H0.38V6.092ZM0.404 9.62H4.772V10.4H0.404V9.62ZM2.24 0.943999H3.116V3.2H3.08V10.172H2.276V3.2H2.24V0.943999ZM6.512 1.568H9.656V2.42H7.304V11.948H6.512V1.568ZM9.452 1.568H9.62L9.764 1.532L10.376 1.928C9.944 3.032 9.38 4.4 8.864 5.516C9.968 6.656 10.232 7.604 10.232 8.432C10.232 9.14 10.076 9.716 9.668 9.992C9.476 10.124 9.2 10.196 8.912 10.232C8.612 10.268 8.216 10.268 7.856 10.244C7.832 10.016 7.748 9.644 7.604 9.392C7.964 9.428 8.312 9.428 8.564 9.428C8.744 9.404 8.924 9.38 9.068 9.296C9.32 9.152 9.392 8.768 9.392 8.348C9.392 7.604 9.068 6.716 7.976 5.636C8.54 4.388 9.128 2.78 9.452 1.844V1.568ZM18.248 1.076H19.148V11.96H18.248V1.076ZM16.172 1.532L17.036 1.7C16.712 3.38 16.16 5.024 15.476 6.092C15.296 5.96 14.924 5.744 14.696 5.648C15.392 4.64 15.896 3.092 16.172 1.532ZM16.292 3.38H21.896V4.268H16.064L16.292 3.38ZM14.792 6.908H22.424V7.796H14.792V6.908ZM14.204 0.968L15.056 1.232C14.3 3.26 13.136 5.288 11.888 6.644C11.804 6.44 11.54 5.972 11.372 5.756C12.5 4.592 13.568 2.792 14.204 0.968ZM12.992 4.064L13.844 3.212L13.856 3.224V11.948H12.992V4.064Z" fill="black"/>
<path d="M0.00800014 2.768V2.668H-0.0919999V2.768H0.00800014ZM5.348 2.768H5.448V2.668H5.348V2.768ZM5.348 11.036V11.136H5.448V11.036H5.348ZM4.52 11.036H4.42V11.136H4.52V11.036ZM4.52 3.56H4.62V3.46H4.52V3.56ZM0.8 3.56V3.46H0.7V3.56H0.8ZM0.8 11.204V11.304H0.9V11.204H0.8ZM0.00800014 11.204H-0.0919999V11.304H0.00800014V11.204ZM0.38 6.092V5.992H0.28V6.092H0.38ZM4.808 6.092H4.908V5.992H4.808V6.092ZM4.808 6.872V6.972H4.908V6.872H4.808ZM0.38 6.872H0.28V6.972H0.38V6.872ZM0.404 9.62V9.52H0.304V9.62H0.404ZM4.772 9.62H4.872V9.52H4.772V9.62ZM4.772 10.4V10.5H4.872V10.4H4.772ZM0.404 10.4H0.304V10.5H0.404V10.4ZM2.24 0.943999V0.843999H2.14V0.943999H2.24ZM3.116 0.943999H3.216V0.843999H3.116V0.943999ZM3.116 3.2V3.3H3.216V3.2H3.116ZM3.08 3.2V3.1H2.98V3.2H3.08ZM3.08 10.172V10.272H3.18V10.172H3.08ZM2.276 10.172H2.176V10.272H2.276V10.172ZM2.276 3.2H2.376V3.1H2.276V3.2ZM2.24 3.2H2.14V3.3H2.24V3.2ZM6.512 1.568V1.468H6.412V1.568H6.512ZM9.656 1.568H9.756V1.468H9.656V1.568ZM9.656 2.42V2.52H9.756V2.42H9.656ZM7.304 2.42V2.32H7.204V2.42H7.304ZM7.304 11.948V12.048H7.404V11.948H7.304ZM6.512 11.948H6.412V12.048H6.512V11.948ZM9.452 1.568V1.468H9.352V1.568H9.452ZM9.62 1.568V1.668H9.63231L9.64425 1.66501L9.62 1.568ZM9.764 1.532L9.81833 1.44804L9.78187 1.42445L9.73975 1.43499L9.764 1.532ZM10.376 1.928L10.4691 1.96444L10.4989 1.8884L10.4303 1.84404L10.376 1.928ZM8.864 5.516L8.77323 5.47403L8.74445 5.53629L8.79216 5.58557L8.864 5.516ZM9.668 9.992L9.61197 9.90917L9.61135 9.9096L9.668 9.992ZM8.912 10.232L8.92391 10.3313L8.9244 10.3312L8.912 10.232ZM7.856 10.244L7.75655 10.2545L7.76536 10.3382L7.84935 10.3438L7.856 10.244ZM7.604 9.392L7.61395 9.2925L7.42094 9.2732L7.51718 9.44161L7.604 9.392ZM8.564 9.428V9.52888L8.57722 9.52712L8.564 9.428ZM9.068 9.296L9.01838 9.20917L9.01761 9.20962L9.068 9.296ZM7.976 5.636L7.88487 5.59482L7.85623 5.65819L7.90568 5.7071L7.976 5.636ZM9.452 1.844L9.5465 1.87671L9.552 1.86082V1.844H9.452ZM0.00800014 2.868H5.348V2.668H0.00800014V2.868ZM5.248 2.768V11.036H5.448V2.768H5.248ZM5.348 10.936H4.52V11.136H5.348V10.936ZM4.62 11.036V3.56H4.42V11.036H4.62ZM4.52 3.46H0.8V3.66H4.52V3.46ZM0.7 3.56V11.204H0.9V3.56H0.7ZM0.8 11.104H0.00800014V11.304H0.8V11.104ZM0.108 11.204V2.768H-0.0919999V11.204H0.108ZM0.38 6.192H4.808V5.992H0.38V6.192ZM4.708 6.092V6.872H4.908V6.092H4.708ZM4.808 6.772H0.38V6.972H4.808V6.772ZM0.48 6.872V6.092H0.28V6.872H0.48ZM0.404 9.72H4.772V9.52H0.404V9.72ZM4.672 9.62V10.4H4.872V9.62H4.672ZM4.772 10.3H0.404V10.5H4.772V10.3ZM0.504 10.4V9.62H0.304V10.4H0.504ZM2.24 1.044H3.116V0.843999H2.24V1.044ZM3.016 0.943999V3.2H3.216V0.943999H3.016ZM3.116 3.1H3.08V3.3H3.116V3.1ZM2.98 3.2V10.172H3.18V3.2H2.98ZM3.08 10.072H2.276V10.272H3.08V10.072ZM2.376 10.172V3.2H2.176V10.172H2.376ZM2.276 3.1H2.24V3.3H2.276V3.1ZM2.34 3.2V0.943999H2.14V3.2H2.34ZM6.512 1.668H9.656V1.468H6.512V1.668ZM9.556 1.568V2.42H9.756V1.568H9.556ZM9.656 2.32H7.304V2.52H9.656V2.32ZM7.204 2.42V11.948H7.404V2.42H7.204ZM7.304 11.848H6.512V12.048H7.304V11.848ZM6.612 11.948V1.568H6.412V11.948H6.612ZM9.452 1.668H9.62V1.468H9.452V1.668ZM9.64425 1.66501L9.78825 1.62901L9.73975 1.43499L9.59575 1.47099L9.64425 1.66501ZM9.70967 1.61596L10.3217 2.01196L10.4303 1.84404L9.81833 1.44804L9.70967 1.61596ZM10.2829 1.89156C9.85126 2.99457 9.28807 4.36054 8.77323 5.47403L8.95477 5.55797C9.47193 4.43946 10.0367 3.06943 10.4691 1.96444L10.2829 1.89156ZM8.79216 5.58557C9.87962 6.70849 10.132 7.63208 10.132 8.432H10.332C10.332 7.57592 10.0564 6.60351 8.93584 5.44643L8.79216 5.58557ZM10.132 8.432C10.132 9.13505 9.97531 9.66338 9.61197 9.90917L9.72403 10.0748C10.1767 9.76862 10.332 9.14495 10.332 8.432H10.132ZM9.61135 9.9096C9.43929 10.0279 9.18256 10.0974 8.8996 10.1328L8.9244 10.3312C9.21744 10.2946 9.51271 10.2201 9.72465 10.0744L9.61135 9.9096ZM8.90009 10.1327C8.60843 10.1677 8.21912 10.168 7.86265 10.1442L7.84935 10.3438C8.21288 10.368 8.61557 10.3683 8.92391 10.3313L8.90009 10.1327ZM7.95545 10.2335C7.9307 9.99835 7.84437 9.61109 7.69082 9.34239L7.51718 9.44161C7.65163 9.67691 7.73331 10.0337 7.75655 10.2545L7.95545 10.2335ZM7.59405 9.4915C7.95966 9.52806 8.31232 9.528 8.564 9.528V9.328C8.31168 9.328 7.96834 9.32794 7.61395 9.2925L7.59405 9.4915ZM8.57722 9.52712C8.75228 9.50378 8.95382 9.47838 9.11839 9.38238L9.01761 9.20962C8.89418 9.28162 8.73573 9.30422 8.55078 9.32888L8.57722 9.52712ZM9.11761 9.38282C9.27482 9.29299 9.36706 9.13325 9.42035 8.954C9.47379 8.77426 9.492 8.56235 9.492 8.348H9.292C9.292 8.55365 9.27421 8.74374 9.22865 8.897C9.18294 9.05075 9.11318 9.15501 9.01839 9.20918L9.11761 9.38282ZM9.492 8.348C9.492 7.5699 9.15132 6.65776 8.04632 5.5649L7.90568 5.7071C8.98468 6.77424 9.292 7.6381 9.292 8.348H9.492ZM8.06713 5.67718C8.63302 4.42499 9.2222 2.81359 9.5465 1.87671L9.3575 1.81129C9.0338 2.74641 8.44698 4.35101 7.88487 5.59482L8.06713 5.67718ZM9.552 1.844V1.568H9.352V1.844H9.552ZM18.248 1.076V0.976H18.148V1.076H18.248ZM19.148 1.076H19.248V0.976H19.148V1.076ZM19.148 11.96V12.06H19.248V11.96H19.148ZM18.248 11.96H18.148V12.06H18.248V11.96ZM16.172 1.532L16.1911 1.43384L16.0912 1.41443L16.0735 1.51458L16.172 1.532ZM17.036 1.7L17.1342 1.71894L17.1531 1.6209L17.0551 1.60184L17.036 1.7ZM15.476 6.092L15.4169 6.17264L15.5028 6.23563L15.5602 6.14593L15.476 6.092ZM14.696 5.648L14.6137 5.59118L14.5438 5.69242L14.6572 5.74016L14.696 5.648ZM16.292 3.38V3.28H16.2144L16.1951 3.35513L16.292 3.38ZM21.896 3.38H21.996V3.28H21.896V3.38ZM21.896 4.268V4.368H21.996V4.268H21.896ZM16.064 4.268L15.9671 4.24313L15.9351 4.368H16.064V4.268ZM14.792 6.908V6.808H14.692V6.908H14.792ZM22.424 6.908H22.524V6.808H22.424V6.908ZM22.424 7.796V7.896H22.524V7.796H22.424ZM14.792 7.796H14.692V7.896H14.792V7.796ZM14.204 0.968L14.2336 0.87248L14.1414 0.843902L14.1096 0.935075L14.204 0.968ZM15.056 1.232L15.1497 1.26693L15.1867 1.16779L15.0856 1.13648L15.056 1.232ZM11.888 6.644L11.7955 6.68208L11.8553 6.82721L11.9616 6.71172L11.888 6.644ZM11.372 5.756L11.3002 5.68641L11.2397 5.74881L11.2931 5.81739L11.372 5.756ZM12.992 4.064L12.9213 3.99329L12.892 4.02258V4.064H12.992ZM13.844 3.212L13.9147 3.14129L13.844 3.07058L13.7733 3.14129L13.844 3.212ZM13.856 3.224H13.956V3.18258L13.9267 3.15329L13.856 3.224ZM13.856 11.948V12.048H13.956V11.948H13.856ZM12.992 11.948H12.892V12.048H12.992V11.948ZM18.248 1.176H19.148V0.976H18.248V1.176ZM19.048 1.076V11.96H19.248V1.076H19.048ZM19.148 11.86H18.248V12.06H19.148V11.86ZM18.348 11.96V1.076H18.148V11.96H18.348ZM16.1529 1.63016L17.0169 1.79816L17.0551 1.60184L16.1911 1.43384L16.1529 1.63016ZM16.9378 1.68106C16.615 3.35507 16.0661 4.98515 15.3918 6.03807L15.5602 6.14593C16.2539 5.06285 16.809 3.40493 17.1342 1.71894L16.9378 1.68106ZM15.5351 6.01136C15.3493 5.87511 14.9706 5.65511 14.7348 5.55584L14.6572 5.74016C14.8774 5.83289 15.2427 6.04489 15.4169 6.17264L15.5351 6.01136ZM14.7783 5.70482C15.4861 4.67974 15.9934 3.11551 16.2705 1.54942L16.0735 1.51458C15.7986 3.06849 15.2979 4.60026 14.6137 5.59118L14.7783 5.70482ZM16.292 3.48H21.896V3.28H16.292V3.48ZM21.796 3.38V4.268H21.996V3.38H21.796ZM21.896 4.168H16.064V4.368H21.896V4.168ZM16.1609 4.29287L16.3889 3.40487L16.1951 3.35513L15.9671 4.24313L16.1609 4.29287ZM14.792 7.008H22.424V6.808H14.792V7.008ZM22.324 6.908V7.796H22.524V6.908H22.324ZM22.424 7.696H14.792V7.896H22.424V7.696ZM14.892 7.796V6.908H14.692V7.796H14.892ZM14.1744 1.06352L15.0264 1.32752L15.0856 1.13648L14.2336 0.87248L14.1744 1.06352ZM14.9623 1.19707C14.2097 3.21606 13.0517 5.23198 11.8144 6.57628L11.9616 6.71172C13.2203 5.34402 14.3903 3.30394 15.1497 1.26693L14.9623 1.19707ZM11.9805 6.60593C11.8932 6.39406 11.6248 5.91813 11.4509 5.69461L11.2931 5.81739C11.4552 6.02587 11.7148 6.48594 11.7955 6.68208L11.9805 6.60593ZM11.4438 5.82559C12.5836 4.64946 13.6585 2.83622 14.2984 1.00092L14.1096 0.935075C13.4775 2.74778 12.4164 4.53454 11.3002 5.68641L11.4438 5.82559ZM13.0627 4.13471L13.9147 3.28271L13.7733 3.14129L12.9213 3.99329L13.0627 4.13471ZM13.7733 3.28271L13.7853 3.29471L13.9267 3.15329L13.9147 3.14129L13.7733 3.28271ZM13.756 3.224V11.948H13.956V3.224H13.756ZM13.856 11.848H12.992V12.048H13.856V11.848ZM13.092 11.948V4.064H12.892V11.948H13.092Z" fill="black"/>
</svg>
